%FSLAX45Y45*%
G04 Gerber Fmt 4.5, Leading zero omitted, Abs format (unit mm)*
G04 Created by KiCad (PCBNEW (6.0.0)) date 2022-07-15 20:41:04*
%MOMM*%
%LPD*%
G01*
G04 APERTURE LIST*
%TA.AperFunction,Profile*%
%ADD10C,0.200000*%
%TD*%
%ADD11C,0.200000*%
%ADD12C,0.065000*%
%ADD13C,0.320000*%
G04 APERTURE END LIST*
D10*
X16060584Y-11884220D02*
X15660584Y-11884220D01*
X13570584Y-9664220D02*
G75*
G03*
X13570584Y-9364220I1J150000D01*
G01*
X13312540Y-8436112D02*
X13312540Y-8002680D01*
X12012540Y-11457680D02*
X13179540Y-11457680D01*
X12012540Y-7527680D02*
X11712540Y-7927680D01*
X16550584Y-7164220D02*
G75*
G03*
X16550584Y-7464220I1J-150000D01*
G01*
X13570584Y-11964220D02*
X13570584Y-9664220D01*
X16060584Y-11884220D02*
G75*
G03*
X16060584Y-11704220I1J90000D01*
G01*
X16550584Y-9364220D02*
G75*
G03*
X16550584Y-9664220I1J-150000D01*
G01*
X13507540Y-10492680D02*
X13507540Y-10092680D01*
X11712540Y-7927680D02*
X11712540Y-11057680D01*
X13570584Y-7464220D02*
G75*
G03*
X13570584Y-7164220I1J150000D01*
G01*
X14460584Y-11884220D02*
X14060584Y-11884220D01*
X16550584Y-12464220D02*
X13570584Y-12464220D01*
X15660584Y-11704220D02*
X16060584Y-11704220D01*
X13507540Y-10092680D02*
X13312540Y-10092680D01*
X14060584Y-10099220D02*
X16060584Y-10099220D01*
X14460584Y-11884220D02*
G75*
G03*
X14460584Y-11704220I1J90000D01*
G01*
X13312540Y-10492680D02*
X13507540Y-10492680D01*
X13507540Y-8892680D02*
X13507540Y-8492680D01*
X13570584Y-12264220D02*
G75*
G03*
X13570584Y-11964220I1J150000D01*
G01*
X13507540Y-8492680D02*
X13312540Y-8492680D01*
X14060584Y-11704220D02*
G75*
G03*
X14060584Y-11884220I1J-90000D01*
G01*
X13312540Y-8002680D02*
X13179540Y-7527680D01*
X13570584Y-9364220D02*
X13570584Y-7464220D01*
X13312540Y-10492680D02*
G75*
G03*
X13312540Y-10549249I-28284J-28284D01*
G01*
X13312540Y-8436112D02*
G75*
G03*
X13312540Y-8492680I-28284J-28284D01*
G01*
X13570584Y-6814220D02*
X16550584Y-6814220D01*
X16550584Y-6814220D02*
X16550584Y-7164220D01*
X13312540Y-10036112D02*
G75*
G03*
X13312540Y-10092680I-28284J-28284D01*
G01*
X16550584Y-12264220D02*
X16550584Y-12464220D01*
X13570584Y-12464220D02*
X13570584Y-12264220D01*
X14060584Y-11704220D02*
X14460584Y-11704220D01*
X16550584Y-9664220D02*
X16550584Y-11964220D01*
X14060584Y-9899220D02*
G75*
G03*
X14060584Y-10099220I1J-100000D01*
G01*
X15660584Y-11704220D02*
G75*
G03*
X15660584Y-11884220I1J-90000D01*
G01*
X13570584Y-7164220D02*
X13570584Y-6814220D01*
X13312540Y-10036112D02*
X13312540Y-8949249D01*
X16060584Y-10099220D02*
G75*
G03*
X16060584Y-9899220I1J100000D01*
G01*
X16550584Y-7464220D02*
X16550584Y-9364220D01*
X13179540Y-11457680D02*
X13312540Y-10982680D01*
X16550584Y-11964220D02*
G75*
G03*
X16550584Y-12264220I1J-150000D01*
G01*
X13312540Y-8892680D02*
X13507540Y-8892680D01*
X13312540Y-8892680D02*
G75*
G03*
X13312540Y-8949249I-28284J-28284D01*
G01*
X16060584Y-9899220D02*
X14060584Y-9899220D01*
X11712540Y-11057680D02*
X12012540Y-11457680D01*
X13312540Y-10982680D02*
X13312540Y-10549249D01*
X13179540Y-7527680D02*
X12012540Y-7527680D01*
D11*
D12*
X12221400Y-8079700D02*
X12286400Y-8144700D01*
X12286400Y-8079700D02*
X12221400Y-8144700D01*
X12799400Y-8079700D02*
X12864400Y-8144700D01*
X12864400Y-8079700D02*
X12799400Y-8144700D01*
D13*
X13730584Y-7314220D02*
G75*
G03*
X13730584Y-7314220I-160000J0D01*
G01*
X13730584Y-9514220D02*
G75*
G03*
X13730584Y-9514220I-160000J0D01*
G01*
X13730584Y-12114220D02*
G75*
G03*
X13730584Y-12114220I-160000J0D01*
G01*
X16710584Y-7314220D02*
G75*
G03*
X16710584Y-7314220I-160000J0D01*
G01*
X16710584Y-9514220D02*
G75*
G03*
X16710584Y-9514220I-160000J0D01*
G01*
X16710584Y-12114220D02*
G75*
G03*
X16710584Y-12114220I-160000J0D01*
G01*
D11*
X11960159Y-12784696D02*
X11960159Y-12584696D01*
X12007778Y-12584696D01*
X12036349Y-12594220D01*
X12055397Y-12613268D01*
X12064921Y-12632315D01*
X12074445Y-12670410D01*
X12074445Y-12698982D01*
X12064921Y-12737077D01*
X12055397Y-12756125D01*
X12036349Y-12775172D01*
X12007778Y-12784696D01*
X11960159Y-12784696D01*
X12160159Y-12784696D02*
X12160159Y-12651363D01*
X12160159Y-12689458D02*
X12169683Y-12670410D01*
X12179207Y-12660887D01*
X12198254Y-12651363D01*
X12217302Y-12651363D01*
X12283968Y-12784696D02*
X12283968Y-12651363D01*
X12283968Y-12584696D02*
X12274445Y-12594220D01*
X12283968Y-12603744D01*
X12293492Y-12594220D01*
X12283968Y-12584696D01*
X12283968Y-12603744D01*
X12407778Y-12784696D02*
X12388730Y-12775172D01*
X12379207Y-12756125D01*
X12379207Y-12584696D01*
X12512540Y-12784696D02*
X12493492Y-12775172D01*
X12483968Y-12756125D01*
X12483968Y-12584696D01*
X12741111Y-12784696D02*
X12741111Y-12584696D01*
X12807778Y-12727553D01*
X12874445Y-12584696D01*
X12874445Y-12784696D01*
X13055397Y-12784696D02*
X13055397Y-12679934D01*
X13045873Y-12660887D01*
X13026826Y-12651363D01*
X12988730Y-12651363D01*
X12969683Y-12660887D01*
X13055397Y-12775172D02*
X13036349Y-12784696D01*
X12988730Y-12784696D01*
X12969683Y-12775172D01*
X12960159Y-12756125D01*
X12960159Y-12737077D01*
X12969683Y-12718029D01*
X12988730Y-12708506D01*
X13036349Y-12708506D01*
X13055397Y-12698982D01*
X13150635Y-12651363D02*
X13150635Y-12851363D01*
X13150635Y-12660887D02*
X13169683Y-12651363D01*
X13207778Y-12651363D01*
X13226826Y-12660887D01*
X13236349Y-12670410D01*
X13245873Y-12689458D01*
X13245873Y-12746601D01*
X13236349Y-12765648D01*
X13226826Y-12775172D01*
X13207778Y-12784696D01*
X13169683Y-12784696D01*
X13150635Y-12775172D01*
X13331588Y-12765648D02*
X13341111Y-12775172D01*
X13331588Y-12784696D01*
X13322064Y-12775172D01*
X13331588Y-12765648D01*
X13331588Y-12784696D01*
X13331588Y-12660887D02*
X13341111Y-12670410D01*
X13331588Y-12679934D01*
X13322064Y-12670410D01*
X13331588Y-12660887D01*
X13331588Y-12679934D01*
D12*
X11637540Y-13081720D02*
X11702540Y-13146720D01*
X11702540Y-13081720D02*
X11637540Y-13146720D01*
D11*
X11998254Y-13004696D02*
X12017302Y-13004696D01*
X12036349Y-13014220D01*
X12045873Y-13023744D01*
X12055397Y-13042791D01*
X12064921Y-13080887D01*
X12064921Y-13128506D01*
X12055397Y-13166601D01*
X12045873Y-13185648D01*
X12036349Y-13195172D01*
X12017302Y-13204696D01*
X11998254Y-13204696D01*
X11979207Y-13195172D01*
X11969683Y-13185648D01*
X11960159Y-13166601D01*
X11950635Y-13128506D01*
X11950635Y-13080887D01*
X11960159Y-13042791D01*
X11969683Y-13023744D01*
X11979207Y-13014220D01*
X11998254Y-13004696D01*
X12150635Y-13185648D02*
X12160159Y-13195172D01*
X12150635Y-13204696D01*
X12141111Y-13195172D01*
X12150635Y-13185648D01*
X12150635Y-13204696D01*
X12331588Y-13004696D02*
X12293492Y-13004696D01*
X12274445Y-13014220D01*
X12264921Y-13023744D01*
X12245873Y-13052315D01*
X12236349Y-13090410D01*
X12236349Y-13166601D01*
X12245873Y-13185648D01*
X12255397Y-13195172D01*
X12274445Y-13204696D01*
X12312540Y-13204696D01*
X12331588Y-13195172D01*
X12341111Y-13185648D01*
X12350635Y-13166601D01*
X12350635Y-13118982D01*
X12341111Y-13099934D01*
X12331588Y-13090410D01*
X12312540Y-13080887D01*
X12274445Y-13080887D01*
X12255397Y-13090410D01*
X12245873Y-13099934D01*
X12236349Y-13118982D01*
X12531588Y-13004696D02*
X12436349Y-13004696D01*
X12426826Y-13099934D01*
X12436349Y-13090410D01*
X12455397Y-13080887D01*
X12503016Y-13080887D01*
X12522064Y-13090410D01*
X12531588Y-13099934D01*
X12541111Y-13118982D01*
X12541111Y-13166601D01*
X12531588Y-13185648D01*
X12522064Y-13195172D01*
X12503016Y-13204696D01*
X12455397Y-13204696D01*
X12436349Y-13195172D01*
X12426826Y-13185648D01*
X12664921Y-13004696D02*
X12683968Y-13004696D01*
X12703016Y-13014220D01*
X12712540Y-13023744D01*
X12722064Y-13042791D01*
X12731588Y-13080887D01*
X12731588Y-13128506D01*
X12722064Y-13166601D01*
X12712540Y-13185648D01*
X12703016Y-13195172D01*
X12683968Y-13204696D01*
X12664921Y-13204696D01*
X12645873Y-13195172D01*
X12636349Y-13185648D01*
X12626826Y-13166601D01*
X12617302Y-13128506D01*
X12617302Y-13080887D01*
X12626826Y-13042791D01*
X12636349Y-13023744D01*
X12645873Y-13014220D01*
X12664921Y-13004696D01*
X12817302Y-13204696D02*
X12817302Y-13071363D01*
X12817302Y-13090410D02*
X12826826Y-13080887D01*
X12845873Y-13071363D01*
X12874445Y-13071363D01*
X12893492Y-13080887D01*
X12903016Y-13099934D01*
X12903016Y-13204696D01*
X12903016Y-13099934D02*
X12912540Y-13080887D01*
X12931588Y-13071363D01*
X12960159Y-13071363D01*
X12979207Y-13080887D01*
X12988730Y-13099934D01*
X12988730Y-13204696D01*
X13083968Y-13204696D02*
X13083968Y-13071363D01*
X13083968Y-13090410D02*
X13093492Y-13080887D01*
X13112540Y-13071363D01*
X13141111Y-13071363D01*
X13160159Y-13080887D01*
X13169683Y-13099934D01*
X13169683Y-13204696D01*
X13169683Y-13099934D02*
X13179207Y-13080887D01*
X13198254Y-13071363D01*
X13226826Y-13071363D01*
X13245873Y-13080887D01*
X13255397Y-13099934D01*
X13255397Y-13204696D01*
X13645873Y-12995172D02*
X13474445Y-13252315D01*
X13903016Y-13004696D02*
X13922064Y-13004696D01*
X13941111Y-13014220D01*
X13950635Y-13023744D01*
X13960159Y-13042791D01*
X13969683Y-13080887D01*
X13969683Y-13128506D01*
X13960159Y-13166601D01*
X13950635Y-13185648D01*
X13941111Y-13195172D01*
X13922064Y-13204696D01*
X13903016Y-13204696D01*
X13883968Y-13195172D01*
X13874445Y-13185648D01*
X13864921Y-13166601D01*
X13855397Y-13128506D01*
X13855397Y-13080887D01*
X13864921Y-13042791D01*
X13874445Y-13023744D01*
X13883968Y-13014220D01*
X13903016Y-13004696D01*
X14055397Y-13185648D02*
X14064921Y-13195172D01*
X14055397Y-13204696D01*
X14045873Y-13195172D01*
X14055397Y-13185648D01*
X14055397Y-13204696D01*
X14188730Y-13004696D02*
X14207778Y-13004696D01*
X14226826Y-13014220D01*
X14236349Y-13023744D01*
X14245873Y-13042791D01*
X14255397Y-13080887D01*
X14255397Y-13128506D01*
X14245873Y-13166601D01*
X14236349Y-13185648D01*
X14226826Y-13195172D01*
X14207778Y-13204696D01*
X14188730Y-13204696D01*
X14169683Y-13195172D01*
X14160159Y-13185648D01*
X14150635Y-13166601D01*
X14141111Y-13128506D01*
X14141111Y-13080887D01*
X14150635Y-13042791D01*
X14160159Y-13023744D01*
X14169683Y-13014220D01*
X14188730Y-13004696D01*
X14331588Y-13023744D02*
X14341111Y-13014220D01*
X14360159Y-13004696D01*
X14407778Y-13004696D01*
X14426826Y-13014220D01*
X14436349Y-13023744D01*
X14445873Y-13042791D01*
X14445873Y-13061839D01*
X14436349Y-13090410D01*
X14322064Y-13204696D01*
X14445873Y-13204696D01*
X14626826Y-13004696D02*
X14531588Y-13004696D01*
X14522064Y-13099934D01*
X14531588Y-13090410D01*
X14550635Y-13080887D01*
X14598254Y-13080887D01*
X14617302Y-13090410D01*
X14626826Y-13099934D01*
X14636349Y-13118982D01*
X14636349Y-13166601D01*
X14626826Y-13185648D01*
X14617302Y-13195172D01*
X14598254Y-13204696D01*
X14550635Y-13204696D01*
X14531588Y-13195172D01*
X14522064Y-13185648D01*
X14807778Y-13004696D02*
X14769683Y-13004696D01*
X14750635Y-13014220D01*
X14741111Y-13023744D01*
X14722064Y-13052315D01*
X14712540Y-13090410D01*
X14712540Y-13166601D01*
X14722064Y-13185648D01*
X14731588Y-13195172D01*
X14750635Y-13204696D01*
X14788730Y-13204696D01*
X14807778Y-13195172D01*
X14817302Y-13185648D01*
X14826826Y-13166601D01*
X14826826Y-13118982D01*
X14817302Y-13099934D01*
X14807778Y-13090410D01*
X14788730Y-13080887D01*
X14750635Y-13080887D01*
X14731588Y-13090410D01*
X14722064Y-13099934D01*
X14712540Y-13118982D01*
X14903016Y-13004696D02*
X14903016Y-13042791D01*
X14979207Y-13004696D02*
X14979207Y-13042791D01*
X15274445Y-13280887D02*
X15264921Y-13271363D01*
X15245873Y-13242791D01*
X15236349Y-13223744D01*
X15226826Y-13195172D01*
X15217302Y-13147553D01*
X15217302Y-13109458D01*
X15226826Y-13061839D01*
X15236349Y-13033268D01*
X15245873Y-13014220D01*
X15264921Y-12985648D01*
X15274445Y-12976125D01*
X15341111Y-13023744D02*
X15350635Y-13014220D01*
X15369683Y-13004696D01*
X15417302Y-13004696D01*
X15436349Y-13014220D01*
X15445873Y-13023744D01*
X15455397Y-13042791D01*
X15455397Y-13061839D01*
X15445873Y-13090410D01*
X15331588Y-13204696D01*
X15455397Y-13204696D01*
X15693492Y-13204696D02*
X15693492Y-13004696D01*
X15779207Y-13204696D02*
X15779207Y-13099934D01*
X15769683Y-13080887D01*
X15750635Y-13071363D01*
X15722064Y-13071363D01*
X15703016Y-13080887D01*
X15693492Y-13090410D01*
X15903016Y-13204696D02*
X15883968Y-13195172D01*
X15874445Y-13185648D01*
X15864921Y-13166601D01*
X15864921Y-13109458D01*
X15874445Y-13090410D01*
X15883968Y-13080887D01*
X15903016Y-13071363D01*
X15931588Y-13071363D01*
X15950635Y-13080887D01*
X15960159Y-13090410D01*
X15969683Y-13109458D01*
X15969683Y-13166601D01*
X15960159Y-13185648D01*
X15950635Y-13195172D01*
X15931588Y-13204696D01*
X15903016Y-13204696D01*
X16083968Y-13204696D02*
X16064921Y-13195172D01*
X16055397Y-13176125D01*
X16055397Y-13004696D01*
X16236349Y-13195172D02*
X16217302Y-13204696D01*
X16179207Y-13204696D01*
X16160159Y-13195172D01*
X16150635Y-13176125D01*
X16150635Y-13099934D01*
X16160159Y-13080887D01*
X16179207Y-13071363D01*
X16217302Y-13071363D01*
X16236349Y-13080887D01*
X16245873Y-13099934D01*
X16245873Y-13118982D01*
X16150635Y-13138029D01*
X16322064Y-13195172D02*
X16341111Y-13204696D01*
X16379207Y-13204696D01*
X16398254Y-13195172D01*
X16407778Y-13176125D01*
X16407778Y-13166601D01*
X16398254Y-13147553D01*
X16379207Y-13138029D01*
X16350635Y-13138029D01*
X16331588Y-13128506D01*
X16322064Y-13109458D01*
X16322064Y-13099934D01*
X16331588Y-13080887D01*
X16350635Y-13071363D01*
X16379207Y-13071363D01*
X16398254Y-13080887D01*
X16474445Y-13280887D02*
X16483968Y-13271363D01*
X16503016Y-13242791D01*
X16512540Y-13223744D01*
X16522064Y-13195172D01*
X16531588Y-13147553D01*
X16531588Y-13109458D01*
X16522064Y-13061839D01*
X16512540Y-13033268D01*
X16503016Y-13014220D01*
X16483968Y-12985648D01*
X16474445Y-12976125D01*
X16836350Y-13280887D02*
X16826826Y-13271363D01*
X16807778Y-13242791D01*
X16798254Y-13223744D01*
X16788730Y-13195172D01*
X16779207Y-13147553D01*
X16779207Y-13109458D01*
X16788730Y-13061839D01*
X16798254Y-13033268D01*
X16807778Y-13014220D01*
X16826826Y-12985648D01*
X16836350Y-12976125D01*
X16912540Y-13071363D02*
X16912540Y-13204696D01*
X16912540Y-13090410D02*
X16922064Y-13080887D01*
X16941111Y-13071363D01*
X16969683Y-13071363D01*
X16988730Y-13080887D01*
X16998254Y-13099934D01*
X16998254Y-13204696D01*
X17122064Y-13204696D02*
X17103016Y-13195172D01*
X17093492Y-13185648D01*
X17083969Y-13166601D01*
X17083969Y-13109458D01*
X17093492Y-13090410D01*
X17103016Y-13080887D01*
X17122064Y-13071363D01*
X17150635Y-13071363D01*
X17169683Y-13080887D01*
X17179207Y-13090410D01*
X17188730Y-13109458D01*
X17188730Y-13166601D01*
X17179207Y-13185648D01*
X17169683Y-13195172D01*
X17150635Y-13204696D01*
X17122064Y-13204696D01*
X17245873Y-13071363D02*
X17322064Y-13071363D01*
X17274445Y-13004696D02*
X17274445Y-13176125D01*
X17283969Y-13195172D01*
X17303016Y-13204696D01*
X17322064Y-13204696D01*
X17541111Y-13071363D02*
X17541111Y-13271363D01*
X17541111Y-13080887D02*
X17560159Y-13071363D01*
X17598254Y-13071363D01*
X17617302Y-13080887D01*
X17626826Y-13090410D01*
X17636350Y-13109458D01*
X17636350Y-13166601D01*
X17626826Y-13185648D01*
X17617302Y-13195172D01*
X17598254Y-13204696D01*
X17560159Y-13204696D01*
X17541111Y-13195172D01*
X17750635Y-13204696D02*
X17731588Y-13195172D01*
X17722064Y-13176125D01*
X17722064Y-13004696D01*
X17912540Y-13204696D02*
X17912540Y-13099934D01*
X17903016Y-13080887D01*
X17883969Y-13071363D01*
X17845873Y-13071363D01*
X17826826Y-13080887D01*
X17912540Y-13195172D02*
X17893492Y-13204696D01*
X17845873Y-13204696D01*
X17826826Y-13195172D01*
X17817302Y-13176125D01*
X17817302Y-13157077D01*
X17826826Y-13138029D01*
X17845873Y-13128506D01*
X17893492Y-13128506D01*
X17912540Y-13118982D01*
X17979207Y-13071363D02*
X18055397Y-13071363D01*
X18007778Y-13004696D02*
X18007778Y-13176125D01*
X18017302Y-13195172D01*
X18036350Y-13204696D01*
X18055397Y-13204696D01*
X18198254Y-13195172D02*
X18179207Y-13204696D01*
X18141111Y-13204696D01*
X18122064Y-13195172D01*
X18112540Y-13176125D01*
X18112540Y-13099934D01*
X18122064Y-13080887D01*
X18141111Y-13071363D01*
X18179207Y-13071363D01*
X18198254Y-13080887D01*
X18207778Y-13099934D01*
X18207778Y-13118982D01*
X18112540Y-13138029D01*
X18379207Y-13204696D02*
X18379207Y-13004696D01*
X18379207Y-13195172D02*
X18360159Y-13204696D01*
X18322064Y-13204696D01*
X18303016Y-13195172D01*
X18293492Y-13185648D01*
X18283969Y-13166601D01*
X18283969Y-13109458D01*
X18293492Y-13090410D01*
X18303016Y-13080887D01*
X18322064Y-13071363D01*
X18360159Y-13071363D01*
X18379207Y-13080887D01*
X18455397Y-13280887D02*
X18464921Y-13271363D01*
X18483969Y-13242791D01*
X18493492Y-13223744D01*
X18503016Y-13195172D01*
X18512540Y-13147553D01*
X18512540Y-13109458D01*
X18503016Y-13061839D01*
X18493492Y-13033268D01*
X18483969Y-13014220D01*
X18464921Y-12985648D01*
X18455397Y-12976125D01*
X11702540Y-13378220D02*
G75*
G03*
X11702540Y-13378220I-100000J0D01*
G01*
X11941111Y-13268696D02*
X12064921Y-13268696D01*
X11998254Y-13344887D01*
X12026826Y-13344887D01*
X12045873Y-13354410D01*
X12055397Y-13363934D01*
X12064921Y-13382982D01*
X12064921Y-13430601D01*
X12055397Y-13449648D01*
X12045873Y-13459172D01*
X12026826Y-13468696D01*
X11969683Y-13468696D01*
X11950635Y-13459172D01*
X11941111Y-13449648D01*
X12150635Y-13449648D02*
X12160159Y-13459172D01*
X12150635Y-13468696D01*
X12141111Y-13459172D01*
X12150635Y-13449648D01*
X12150635Y-13468696D01*
X12236349Y-13287744D02*
X12245873Y-13278220D01*
X12264921Y-13268696D01*
X12312540Y-13268696D01*
X12331588Y-13278220D01*
X12341111Y-13287744D01*
X12350635Y-13306791D01*
X12350635Y-13325839D01*
X12341111Y-13354410D01*
X12226826Y-13468696D01*
X12350635Y-13468696D01*
X12474445Y-13268696D02*
X12493492Y-13268696D01*
X12512540Y-13278220D01*
X12522064Y-13287744D01*
X12531588Y-13306791D01*
X12541111Y-13344887D01*
X12541111Y-13392506D01*
X12531588Y-13430601D01*
X12522064Y-13449648D01*
X12512540Y-13459172D01*
X12493492Y-13468696D01*
X12474445Y-13468696D01*
X12455397Y-13459172D01*
X12445873Y-13449648D01*
X12436349Y-13430601D01*
X12426826Y-13392506D01*
X12426826Y-13344887D01*
X12436349Y-13306791D01*
X12445873Y-13287744D01*
X12455397Y-13278220D01*
X12474445Y-13268696D01*
X12664921Y-13268696D02*
X12683968Y-13268696D01*
X12703016Y-13278220D01*
X12712540Y-13287744D01*
X12722064Y-13306791D01*
X12731588Y-13344887D01*
X12731588Y-13392506D01*
X12722064Y-13430601D01*
X12712540Y-13449648D01*
X12703016Y-13459172D01*
X12683968Y-13468696D01*
X12664921Y-13468696D01*
X12645873Y-13459172D01*
X12636349Y-13449648D01*
X12626826Y-13430601D01*
X12617302Y-13392506D01*
X12617302Y-13344887D01*
X12626826Y-13306791D01*
X12636349Y-13287744D01*
X12645873Y-13278220D01*
X12664921Y-13268696D01*
X12817302Y-13468696D02*
X12817302Y-13335363D01*
X12817302Y-13354410D02*
X12826826Y-13344887D01*
X12845873Y-13335363D01*
X12874445Y-13335363D01*
X12893492Y-13344887D01*
X12903016Y-13363934D01*
X12903016Y-13468696D01*
X12903016Y-13363934D02*
X12912540Y-13344887D01*
X12931588Y-13335363D01*
X12960159Y-13335363D01*
X12979207Y-13344887D01*
X12988730Y-13363934D01*
X12988730Y-13468696D01*
X13083968Y-13468696D02*
X13083968Y-13335363D01*
X13083968Y-13354410D02*
X13093492Y-13344887D01*
X13112540Y-13335363D01*
X13141111Y-13335363D01*
X13160159Y-13344887D01*
X13169683Y-13363934D01*
X13169683Y-13468696D01*
X13169683Y-13363934D02*
X13179207Y-13344887D01*
X13198254Y-13335363D01*
X13226826Y-13335363D01*
X13245873Y-13344887D01*
X13255397Y-13363934D01*
X13255397Y-13468696D01*
X13645873Y-13259172D02*
X13474445Y-13516315D01*
X13903016Y-13268696D02*
X13922064Y-13268696D01*
X13941111Y-13278220D01*
X13950635Y-13287744D01*
X13960159Y-13306791D01*
X13969683Y-13344887D01*
X13969683Y-13392506D01*
X13960159Y-13430601D01*
X13950635Y-13449648D01*
X13941111Y-13459172D01*
X13922064Y-13468696D01*
X13903016Y-13468696D01*
X13883968Y-13459172D01*
X13874445Y-13449648D01*
X13864921Y-13430601D01*
X13855397Y-13392506D01*
X13855397Y-13344887D01*
X13864921Y-13306791D01*
X13874445Y-13287744D01*
X13883968Y-13278220D01*
X13903016Y-13268696D01*
X14055397Y-13449648D02*
X14064921Y-13459172D01*
X14055397Y-13468696D01*
X14045873Y-13459172D01*
X14055397Y-13449648D01*
X14055397Y-13468696D01*
X14255397Y-13468696D02*
X14141111Y-13468696D01*
X14198254Y-13468696D02*
X14198254Y-13268696D01*
X14179207Y-13297268D01*
X14160159Y-13316315D01*
X14141111Y-13325839D01*
X14331588Y-13287744D02*
X14341111Y-13278220D01*
X14360159Y-13268696D01*
X14407778Y-13268696D01*
X14426826Y-13278220D01*
X14436349Y-13287744D01*
X14445873Y-13306791D01*
X14445873Y-13325839D01*
X14436349Y-13354410D01*
X14322064Y-13468696D01*
X14445873Y-13468696D01*
X14617302Y-13268696D02*
X14579207Y-13268696D01*
X14560159Y-13278220D01*
X14550635Y-13287744D01*
X14531588Y-13316315D01*
X14522064Y-13354410D01*
X14522064Y-13430601D01*
X14531588Y-13449648D01*
X14541111Y-13459172D01*
X14560159Y-13468696D01*
X14598254Y-13468696D01*
X14617302Y-13459172D01*
X14626826Y-13449648D01*
X14636349Y-13430601D01*
X14636349Y-13382982D01*
X14626826Y-13363934D01*
X14617302Y-13354410D01*
X14598254Y-13344887D01*
X14560159Y-13344887D01*
X14541111Y-13354410D01*
X14531588Y-13363934D01*
X14522064Y-13382982D01*
X14760159Y-13268696D02*
X14779207Y-13268696D01*
X14798254Y-13278220D01*
X14807778Y-13287744D01*
X14817302Y-13306791D01*
X14826826Y-13344887D01*
X14826826Y-13392506D01*
X14817302Y-13430601D01*
X14807778Y-13449648D01*
X14798254Y-13459172D01*
X14779207Y-13468696D01*
X14760159Y-13468696D01*
X14741111Y-13459172D01*
X14731588Y-13449648D01*
X14722064Y-13430601D01*
X14712540Y-13392506D01*
X14712540Y-13344887D01*
X14722064Y-13306791D01*
X14731588Y-13287744D01*
X14741111Y-13278220D01*
X14760159Y-13268696D01*
X14903016Y-13268696D02*
X14903016Y-13306791D01*
X14979207Y-13268696D02*
X14979207Y-13306791D01*
X15274445Y-13544887D02*
X15264921Y-13535363D01*
X15245873Y-13506791D01*
X15236349Y-13487744D01*
X15226826Y-13459172D01*
X15217302Y-13411553D01*
X15217302Y-13373458D01*
X15226826Y-13325839D01*
X15236349Y-13297268D01*
X15245873Y-13278220D01*
X15264921Y-13249648D01*
X15274445Y-13240125D01*
X15436349Y-13268696D02*
X15398254Y-13268696D01*
X15379207Y-13278220D01*
X15369683Y-13287744D01*
X15350635Y-13316315D01*
X15341111Y-13354410D01*
X15341111Y-13430601D01*
X15350635Y-13449648D01*
X15360159Y-13459172D01*
X15379207Y-13468696D01*
X15417302Y-13468696D01*
X15436349Y-13459172D01*
X15445873Y-13449648D01*
X15455397Y-13430601D01*
X15455397Y-13382982D01*
X15445873Y-13363934D01*
X15436349Y-13354410D01*
X15417302Y-13344887D01*
X15379207Y-13344887D01*
X15360159Y-13354410D01*
X15350635Y-13363934D01*
X15341111Y-13382982D01*
X15693492Y-13468696D02*
X15693492Y-13268696D01*
X15779207Y-13468696D02*
X15779207Y-13363934D01*
X15769683Y-13344887D01*
X15750635Y-13335363D01*
X15722064Y-13335363D01*
X15703016Y-13344887D01*
X15693492Y-13354410D01*
X15903016Y-13468696D02*
X15883968Y-13459172D01*
X15874445Y-13449648D01*
X15864921Y-13430601D01*
X15864921Y-13373458D01*
X15874445Y-13354410D01*
X15883968Y-13344887D01*
X15903016Y-13335363D01*
X15931588Y-13335363D01*
X15950635Y-13344887D01*
X15960159Y-13354410D01*
X15969683Y-13373458D01*
X15969683Y-13430601D01*
X15960159Y-13449648D01*
X15950635Y-13459172D01*
X15931588Y-13468696D01*
X15903016Y-13468696D01*
X16083968Y-13468696D02*
X16064921Y-13459172D01*
X16055397Y-13440125D01*
X16055397Y-13268696D01*
X16236349Y-13459172D02*
X16217302Y-13468696D01*
X16179207Y-13468696D01*
X16160159Y-13459172D01*
X16150635Y-13440125D01*
X16150635Y-13363934D01*
X16160159Y-13344887D01*
X16179207Y-13335363D01*
X16217302Y-13335363D01*
X16236349Y-13344887D01*
X16245873Y-13363934D01*
X16245873Y-13382982D01*
X16150635Y-13402029D01*
X16322064Y-13459172D02*
X16341111Y-13468696D01*
X16379207Y-13468696D01*
X16398254Y-13459172D01*
X16407778Y-13440125D01*
X16407778Y-13430601D01*
X16398254Y-13411553D01*
X16379207Y-13402029D01*
X16350635Y-13402029D01*
X16331588Y-13392506D01*
X16322064Y-13373458D01*
X16322064Y-13363934D01*
X16331588Y-13344887D01*
X16350635Y-13335363D01*
X16379207Y-13335363D01*
X16398254Y-13344887D01*
X16474445Y-13544887D02*
X16483968Y-13535363D01*
X16503016Y-13506791D01*
X16512540Y-13487744D01*
X16522064Y-13459172D01*
X16531588Y-13411553D01*
X16531588Y-13373458D01*
X16522064Y-13325839D01*
X16512540Y-13297268D01*
X16503016Y-13278220D01*
X16483968Y-13249648D01*
X16474445Y-13240125D01*
X16836350Y-13544887D02*
X16826826Y-13535363D01*
X16807778Y-13506791D01*
X16798254Y-13487744D01*
X16788730Y-13459172D01*
X16779207Y-13411553D01*
X16779207Y-13373458D01*
X16788730Y-13325839D01*
X16798254Y-13297268D01*
X16807778Y-13278220D01*
X16826826Y-13249648D01*
X16836350Y-13240125D01*
X16912540Y-13335363D02*
X16912540Y-13468696D01*
X16912540Y-13354410D02*
X16922064Y-13344887D01*
X16941111Y-13335363D01*
X16969683Y-13335363D01*
X16988730Y-13344887D01*
X16998254Y-13363934D01*
X16998254Y-13468696D01*
X17122064Y-13468696D02*
X17103016Y-13459172D01*
X17093492Y-13449648D01*
X17083969Y-13430601D01*
X17083969Y-13373458D01*
X17093492Y-13354410D01*
X17103016Y-13344887D01*
X17122064Y-13335363D01*
X17150635Y-13335363D01*
X17169683Y-13344887D01*
X17179207Y-13354410D01*
X17188730Y-13373458D01*
X17188730Y-13430601D01*
X17179207Y-13449648D01*
X17169683Y-13459172D01*
X17150635Y-13468696D01*
X17122064Y-13468696D01*
X17245873Y-13335363D02*
X17322064Y-13335363D01*
X17274445Y-13268696D02*
X17274445Y-13440125D01*
X17283969Y-13459172D01*
X17303016Y-13468696D01*
X17322064Y-13468696D01*
X17541111Y-13335363D02*
X17541111Y-13535363D01*
X17541111Y-13344887D02*
X17560159Y-13335363D01*
X17598254Y-13335363D01*
X17617302Y-13344887D01*
X17626826Y-13354410D01*
X17636350Y-13373458D01*
X17636350Y-13430601D01*
X17626826Y-13449648D01*
X17617302Y-13459172D01*
X17598254Y-13468696D01*
X17560159Y-13468696D01*
X17541111Y-13459172D01*
X17750635Y-13468696D02*
X17731588Y-13459172D01*
X17722064Y-13440125D01*
X17722064Y-13268696D01*
X17912540Y-13468696D02*
X17912540Y-13363934D01*
X17903016Y-13344887D01*
X17883969Y-13335363D01*
X17845873Y-13335363D01*
X17826826Y-13344887D01*
X17912540Y-13459172D02*
X17893492Y-13468696D01*
X17845873Y-13468696D01*
X17826826Y-13459172D01*
X17817302Y-13440125D01*
X17817302Y-13421077D01*
X17826826Y-13402029D01*
X17845873Y-13392506D01*
X17893492Y-13392506D01*
X17912540Y-13382982D01*
X17979207Y-13335363D02*
X18055397Y-13335363D01*
X18007778Y-13268696D02*
X18007778Y-13440125D01*
X18017302Y-13459172D01*
X18036350Y-13468696D01*
X18055397Y-13468696D01*
X18198254Y-13459172D02*
X18179207Y-13468696D01*
X18141111Y-13468696D01*
X18122064Y-13459172D01*
X18112540Y-13440125D01*
X18112540Y-13363934D01*
X18122064Y-13344887D01*
X18141111Y-13335363D01*
X18179207Y-13335363D01*
X18198254Y-13344887D01*
X18207778Y-13363934D01*
X18207778Y-13382982D01*
X18112540Y-13402029D01*
X18379207Y-13468696D02*
X18379207Y-13268696D01*
X18379207Y-13459172D02*
X18360159Y-13468696D01*
X18322064Y-13468696D01*
X18303016Y-13459172D01*
X18293492Y-13449648D01*
X18283969Y-13430601D01*
X18283969Y-13373458D01*
X18293492Y-13354410D01*
X18303016Y-13344887D01*
X18322064Y-13335363D01*
X18360159Y-13335363D01*
X18379207Y-13344887D01*
X18455397Y-13544887D02*
X18464921Y-13535363D01*
X18483969Y-13506791D01*
X18493492Y-13487744D01*
X18503016Y-13459172D01*
X18512540Y-13411553D01*
X18512540Y-13373458D01*
X18503016Y-13325839D01*
X18493492Y-13297268D01*
X18483969Y-13278220D01*
X18464921Y-13249648D01*
X18455397Y-13240125D01*
M02*
