G04 #@! TF.GenerationSoftware,KiCad,Pcbnew,(6.0.0)*
G04 #@! TF.CreationDate,2022-07-15T20:40:48-03:00*
G04 #@! TF.ProjectId,lanterna_bueno,6c616e74-6572-46e6-915f-6275656e6f2e,rev?*
G04 #@! TF.SameCoordinates,Original*
G04 #@! TF.FileFunction,Copper,L2,Bot*
G04 #@! TF.FilePolarity,Positive*
%FSLAX46Y46*%
G04 Gerber Fmt 4.6, Leading zero omitted, Abs format (unit mm)*
G04 Created by KiCad (PCBNEW (6.0.0)) date 2022-07-15 20:40:48*
%MOMM*%
%LPD*%
G01*
G04 APERTURE LIST*
G04 Aperture macros list*
%AMRoundRect*
0 Rectangle with rounded corners*
0 $1 Rounding radius*
0 $2 $3 $4 $5 $6 $7 $8 $9 X,Y pos of 4 corners*
0 Add a 4 corners polygon primitive as box body*
4,1,4,$2,$3,$4,$5,$6,$7,$8,$9,$2,$3,0*
0 Add four circle primitives for the rounded corners*
1,1,$1+$1,$2,$3*
1,1,$1+$1,$4,$5*
1,1,$1+$1,$6,$7*
1,1,$1+$1,$8,$9*
0 Add four rect primitives between the rounded corners*
20,1,$1+$1,$2,$3,$4,$5,0*
20,1,$1+$1,$4,$5,$6,$7,0*
20,1,$1+$1,$6,$7,$8,$9,0*
20,1,$1+$1,$8,$9,$2,$3,0*%
G04 Aperture macros list end*
G04 #@! TA.AperFunction,ComponentPad*
%ADD10O,1.000000X1.600000*%
G04 #@! TD*
G04 #@! TA.AperFunction,ComponentPad*
%ADD11O,1.000000X2.100000*%
G04 #@! TD*
G04 #@! TA.AperFunction,SMDPad,CuDef*
%ADD12RoundRect,0.250000X-0.325000X-0.650000X0.325000X-0.650000X0.325000X0.650000X-0.325000X0.650000X0*%
G04 #@! TD*
G04 #@! TA.AperFunction,SMDPad,CuDef*
%ADD13R,1.550000X1.300000*%
G04 #@! TD*
G04 #@! TA.AperFunction,SMDPad,CuDef*
%ADD14RoundRect,0.250000X-0.750000X0.250000X-0.750000X-0.250000X0.750000X-0.250000X0.750000X0.250000X0*%
G04 #@! TD*
G04 #@! TA.AperFunction,SMDPad,CuDef*
%ADD15RoundRect,0.200000X0.200000X0.275000X-0.200000X0.275000X-0.200000X-0.275000X0.200000X-0.275000X0*%
G04 #@! TD*
G04 #@! TA.AperFunction,SMDPad,CuDef*
%ADD16R,0.650000X1.310000*%
G04 #@! TD*
G04 #@! TA.AperFunction,SMDPad,CuDef*
%ADD17R,0.600000X1.310000*%
G04 #@! TD*
G04 #@! TA.AperFunction,SMDPad,CuDef*
%ADD18R,1.500000X1.325000*%
G04 #@! TD*
G04 #@! TA.AperFunction,SMDPad,CuDef*
%ADD19RoundRect,0.250000X0.250000X0.750000X-0.250000X0.750000X-0.250000X-0.750000X0.250000X-0.750000X0*%
G04 #@! TD*
G04 #@! TA.AperFunction,SMDPad,CuDef*
%ADD20C,2.000000*%
G04 #@! TD*
G04 #@! TA.AperFunction,SMDPad,CuDef*
%ADD21RoundRect,0.200000X0.275000X-0.200000X0.275000X0.200000X-0.275000X0.200000X-0.275000X-0.200000X0*%
G04 #@! TD*
G04 #@! TA.AperFunction,SMDPad,CuDef*
%ADD22RoundRect,0.200000X-0.275000X0.200000X-0.275000X-0.200000X0.275000X-0.200000X0.275000X0.200000X0*%
G04 #@! TD*
G04 #@! TA.AperFunction,SMDPad,CuDef*
%ADD23RoundRect,0.250000X-0.250000X-0.750000X0.250000X-0.750000X0.250000X0.750000X-0.250000X0.750000X0*%
G04 #@! TD*
G04 #@! TA.AperFunction,ViaPad*
%ADD24C,0.800000*%
G04 #@! TD*
G04 #@! TA.AperFunction,Conductor*
%ADD25C,0.250000*%
G04 #@! TD*
G04 #@! TA.AperFunction,Conductor*
%ADD26C,0.200000*%
G04 #@! TD*
G04 #@! TA.AperFunction,Conductor*
%ADD27C,1.000000*%
G04 #@! TD*
G04 #@! TA.AperFunction,Conductor*
%ADD28C,2.000000*%
G04 #@! TD*
G04 APERTURE END LIST*
D10*
X121109000Y-77472000D03*
D11*
X129749000Y-81652000D03*
X121109000Y-81652000D03*
D10*
X129749000Y-77472000D03*
D12*
X144592600Y-85514000D03*
X147542600Y-85514000D03*
D13*
X147341842Y-82801800D03*
X139391842Y-82801800D03*
X139391842Y-78301800D03*
X147341842Y-78301800D03*
D14*
X133986800Y-85563800D03*
X133986800Y-86910000D03*
X133986800Y-88256200D03*
D15*
X142219000Y-86580800D03*
X140569000Y-86580800D03*
D13*
X154580842Y-90316000D03*
X146630842Y-90316000D03*
X154580842Y-94816000D03*
X146630842Y-94816000D03*
D16*
X143603800Y-93997800D03*
X142333800Y-93997800D03*
X141063800Y-93997800D03*
D17*
X139793800Y-93997800D03*
D16*
X139793800Y-88307800D03*
X141063800Y-88307800D03*
X142333800Y-88307800D03*
X143603800Y-88307800D03*
D18*
X140948800Y-90490300D03*
X142448800Y-90490300D03*
X142448800Y-91815300D03*
X140948800Y-91815300D03*
D15*
X148307052Y-96791600D03*
X146657052Y-96791600D03*
D19*
X160012200Y-120058000D03*
X158666000Y-120058000D03*
X157319800Y-120058000D03*
D20*
X126519200Y-92761600D03*
X126519200Y-89389600D03*
D21*
X159072400Y-95279800D03*
X159072400Y-93629800D03*
D20*
X126417600Y-104528000D03*
X126417600Y-107900000D03*
D14*
X133955400Y-101563800D03*
X133955400Y-102910000D03*
X133955400Y-104256200D03*
D22*
X143629200Y-95814200D03*
X143629200Y-97464200D03*
X142257600Y-95763400D03*
X142257600Y-97413400D03*
D19*
X143984800Y-115790800D03*
X142638600Y-115790800D03*
X141292400Y-115790800D03*
D23*
X157269000Y-115841600D03*
X158615200Y-115841600D03*
X159961400Y-115841600D03*
D21*
X160596400Y-95330600D03*
X160596400Y-93680600D03*
D13*
X153855147Y-82779000D03*
X161805147Y-82779000D03*
X161805147Y-78279000D03*
X153855147Y-78279000D03*
D19*
X144063000Y-120077400D03*
X142716800Y-120077400D03*
X141370600Y-120077400D03*
D24*
X138447600Y-88257200D03*
X151554000Y-89425600D03*
X156380000Y-80992800D03*
X158513600Y-71239200D03*
X158532400Y-76370000D03*
X164189900Y-91554901D03*
X150944400Y-118127600D03*
X146118400Y-108424800D03*
X137787200Y-78605200D03*
X159936000Y-106646800D03*
X143984800Y-108424800D03*
X162023099Y-90090299D03*
X139870000Y-73220400D03*
X149877600Y-81805600D03*
X160545600Y-89070000D03*
X151300000Y-87698400D03*
X155973600Y-108374000D03*
X139006400Y-97858400D03*
X152214400Y-87698400D03*
X144696000Y-106900800D03*
X143273600Y-102278000D03*
X147388400Y-87393600D03*
X157142000Y-94251600D03*
X144696000Y-75557200D03*
X157954800Y-95978800D03*
X142460800Y-69664400D03*
X159631200Y-113504800D03*
X152112800Y-102430400D03*
X140784400Y-122293200D03*
X142156000Y-82821600D03*
X143375200Y-69664400D03*
X142359200Y-102278000D03*
X160545600Y-113504800D03*
X157345200Y-96740800D03*
X163238000Y-115943200D03*
X137634800Y-70324800D03*
X151198400Y-102430400D03*
X160545600Y-79824400D03*
X139920800Y-97858400D03*
X158615200Y-123766400D03*
X163238000Y-116857600D03*
X138600000Y-115232000D03*
X150538000Y-72306000D03*
X141698800Y-122293200D03*
X156888000Y-108374000D03*
X155973600Y-93184800D03*
X152519200Y-90238400D03*
X136720400Y-70324800D03*
X163542800Y-110660000D03*
X137685600Y-115232000D03*
X145610400Y-106900800D03*
X161764800Y-95877200D03*
X143070400Y-82821600D03*
X163542800Y-111574400D03*
X153992400Y-113047600D03*
X151503200Y-72306000D03*
X159529600Y-123766400D03*
X143781600Y-75557200D03*
X152357152Y-108120000D03*
X152366800Y-105173600D03*
X155770400Y-96690000D03*
X156481600Y-82770800D03*
X150538000Y-85615600D03*
X152570000Y-72814000D03*
X150436400Y-83939200D03*
X152925600Y-74134800D03*
X151655600Y-82618400D03*
X147388400Y-75455600D03*
X151960400Y-70883600D03*
X161764800Y-79824400D03*
X161714000Y-87800000D03*
X162526800Y-70731200D03*
X162526800Y-80586400D03*
X163441200Y-69512000D03*
X163136400Y-74134800D03*
X164558800Y-76014400D03*
X131192800Y-103572400D03*
X121439200Y-104486800D03*
X120372400Y-103420000D03*
X120372400Y-102404000D03*
X120372400Y-104486800D03*
X121439200Y-103420000D03*
X119356400Y-104486800D03*
X121439200Y-102404000D03*
X119356400Y-102404000D03*
X119356400Y-103420000D03*
X121540800Y-95698400D03*
X120474000Y-97730400D03*
X121540800Y-97730400D03*
X121540800Y-96714400D03*
X131243600Y-89450000D03*
X119508800Y-97730400D03*
X119508800Y-95698400D03*
X119508800Y-96714400D03*
X120474000Y-95698400D03*
X120474000Y-96714400D03*
X125909600Y-111852800D03*
X124842800Y-111852800D03*
X125909600Y-110786000D03*
X125909600Y-109770000D03*
X123877600Y-111852800D03*
X123877600Y-110786000D03*
X123877600Y-109770000D03*
X124842800Y-109770000D03*
X124842800Y-110786000D03*
X125757200Y-85386000D03*
X124792000Y-87418000D03*
X125757200Y-87418000D03*
X126773200Y-85386000D03*
X124792000Y-86402000D03*
X124792000Y-85386000D03*
X126773200Y-86402000D03*
X126773200Y-87418000D03*
X125757200Y-86402000D03*
X154602000Y-117518000D03*
X158615200Y-115841600D03*
X157076300Y-84521498D03*
X154602000Y-120159600D03*
X158716800Y-121785200D03*
X126671600Y-113529200D03*
X130735600Y-94123600D03*
X118848400Y-79544000D03*
X123877600Y-113580000D03*
X131751600Y-96511200D03*
X119204000Y-83100000D03*
X130938800Y-113376800D03*
X117883200Y-105401200D03*
X130532400Y-110735200D03*
X117934000Y-96612800D03*
X118848400Y-80560000D03*
X131700800Y-108195200D03*
X129922800Y-113376800D03*
X130735600Y-96511200D03*
X122861600Y-113580000D03*
X119254800Y-87214800D03*
X117934000Y-95596800D03*
X119305600Y-109719200D03*
X130684800Y-108195200D03*
X131751600Y-94123600D03*
X120270800Y-87214800D03*
X117883200Y-104385200D03*
X118188000Y-83100000D03*
X127687600Y-113529200D03*
X131548400Y-110735200D03*
X120321600Y-109719200D03*
X127586000Y-76699200D03*
X122760000Y-76699200D03*
X126112800Y-80255200D03*
X124487200Y-79188400D03*
X131091200Y-98746400D03*
X151706400Y-86631600D03*
X152722400Y-93997600D03*
X163085600Y-104716400D03*
X162984000Y-114470000D03*
X158158000Y-89882800D03*
X160037600Y-114520800D03*
X151096800Y-76319200D03*
X151096800Y-73271200D03*
X139768400Y-103649600D03*
X138803200Y-86580800D03*
D25*
X156481600Y-88104800D02*
X156481600Y-86072800D01*
X155244911Y-89341489D02*
X156481600Y-88104800D01*
X139793800Y-88307800D02*
X138498200Y-88307800D01*
X156481600Y-86072800D02*
X157345200Y-85209200D01*
X157345200Y-85209200D02*
X158666000Y-85209200D01*
X158462800Y-80992800D02*
X156380000Y-80992800D01*
X151638111Y-89341489D02*
X155244911Y-89341489D01*
X158970800Y-84904400D02*
X158970800Y-81500800D01*
X158666000Y-85209200D02*
X158970800Y-84904400D01*
X138498200Y-88307800D02*
X138447600Y-88257200D01*
X151554000Y-89425600D02*
X151638111Y-89341489D01*
X158970800Y-81500800D02*
X158462800Y-80992800D01*
X163136400Y-119092800D02*
X163136400Y-121531200D01*
X162692511Y-95788911D02*
X164711200Y-97807600D01*
X158532400Y-72846000D02*
X158532400Y-76370000D01*
X158532400Y-72426400D02*
X158532400Y-72846000D01*
X150944400Y-121683600D02*
X150944400Y-118127600D01*
X152468400Y-123207600D02*
X150944400Y-121683600D01*
X164711200Y-97807600D02*
X164711200Y-117518000D01*
X164189900Y-91554901D02*
X162692511Y-93052290D01*
X162692511Y-93052290D02*
X162692511Y-95788911D01*
X163136400Y-121531200D02*
X161625711Y-123041889D01*
X161625711Y-123041889D02*
X156046325Y-123041889D01*
X155880614Y-123207600D02*
X152468400Y-123207600D01*
X156046325Y-123041889D02*
X155880614Y-123207600D01*
X164711200Y-117518000D02*
X163136400Y-119092800D01*
X158532400Y-72846000D02*
X158532400Y-71258000D01*
X158532400Y-71258000D02*
X158513600Y-71239200D01*
X152125141Y-83392741D02*
X152289882Y-83228000D01*
X149000689Y-84254867D02*
X149636911Y-84891089D01*
X137787200Y-76370000D02*
X137787200Y-78605200D01*
X149000689Y-81690689D02*
X149000689Y-81843089D01*
X152125141Y-83392741D02*
X152570000Y-82947882D01*
X162577600Y-89535798D02*
X162023099Y-90090299D01*
X156126000Y-106646800D02*
X153128800Y-109644000D01*
X137990400Y-80942000D02*
X148252000Y-80942000D01*
X153636800Y-81348400D02*
X155110000Y-79875200D01*
X155110000Y-79875200D02*
X158869200Y-79875200D01*
X148252000Y-80942000D02*
X149000689Y-81690689D01*
X149000689Y-81843089D02*
X149000689Y-84254867D01*
X150792000Y-109644000D02*
X149572800Y-108424800D01*
X143984800Y-108424800D02*
X146118400Y-108424800D01*
X159682000Y-83532800D02*
X161815600Y-85666400D01*
X149877600Y-81805600D02*
X149038178Y-81805600D01*
X149636911Y-84891089D02*
X150626793Y-84891089D01*
X160545600Y-89070000D02*
X161002800Y-89070000D01*
X139870000Y-73220400D02*
X139870000Y-74287200D01*
X162577600Y-86022000D02*
X162577600Y-89535798D01*
X153332000Y-81348400D02*
X153636800Y-81348400D01*
X137787200Y-80738800D02*
X137990400Y-80942000D01*
X152570000Y-82947882D02*
X152570000Y-82110400D01*
X161002800Y-89070000D02*
X162023099Y-90090299D01*
X150626793Y-84891089D02*
X152125141Y-83392741D01*
X139870000Y-74287200D02*
X137787200Y-76370000D01*
X159682000Y-80688000D02*
X159682000Y-83532800D01*
X159936000Y-106646800D02*
X156126000Y-106646800D01*
X153128800Y-109644000D02*
X150792000Y-109644000D01*
X162222000Y-85666400D02*
X162577600Y-86022000D01*
X149572800Y-108424800D02*
X146118400Y-108424800D01*
X161815600Y-85666400D02*
X162222000Y-85666400D01*
X149038178Y-81805600D02*
X149000689Y-81843089D01*
X158869200Y-79875200D02*
X159682000Y-80688000D01*
X152570000Y-82110400D02*
X153332000Y-81348400D01*
X137787200Y-78605200D02*
X137787200Y-80738800D01*
X152366800Y-105173600D02*
X152366800Y-108110352D01*
X152366800Y-108110352D02*
X152357152Y-108120000D01*
X148307052Y-96791600D02*
X155668800Y-96791600D01*
X155668800Y-96791600D02*
X155770400Y-96690000D01*
X151604800Y-84548800D02*
X150538000Y-85615600D01*
X156481600Y-82770800D02*
X156481600Y-83024800D01*
X154957600Y-84548800D02*
X151604800Y-84548800D01*
X156481600Y-83024800D02*
X154957600Y-84548800D01*
X151909600Y-73474400D02*
X152570000Y-72814000D01*
X151909600Y-80992800D02*
X151909600Y-73474400D01*
X150436400Y-82466000D02*
X151909600Y-80992800D01*
X150436400Y-83939200D02*
X150436400Y-82466000D01*
X152417600Y-74642800D02*
X152417600Y-81500800D01*
X152925600Y-74134800D02*
X152417600Y-74642800D01*
X151655600Y-82262800D02*
X151655600Y-82618400D01*
X152417600Y-81500800D02*
X151655600Y-82262800D01*
X147341842Y-78301800D02*
X139391842Y-78301800D01*
X147388400Y-75455600D02*
X147341842Y-75502158D01*
X147341842Y-75502158D02*
X147341842Y-78301800D01*
X160698000Y-70934400D02*
X160240800Y-70477200D01*
X153855147Y-78279000D02*
X161805147Y-78279000D01*
X161805147Y-77375547D02*
X160698000Y-76268400D01*
X152366800Y-70477200D02*
X151960400Y-70883600D01*
X160698000Y-76268400D02*
X160698000Y-70934400D01*
X161805147Y-78279000D02*
X161805147Y-77375547D01*
X160240800Y-70477200D02*
X152366800Y-70477200D01*
X146657052Y-96791600D02*
X146657052Y-94842210D01*
X154580842Y-94816000D02*
X146630842Y-94816000D01*
X161663200Y-75709600D02*
X161663200Y-71594800D01*
X159097800Y-91076600D02*
X159097800Y-89095400D01*
X161764800Y-79824400D02*
X162333769Y-79824400D01*
X155358400Y-94816000D02*
X159097800Y-91076600D01*
X154580842Y-94816000D02*
X155358400Y-94816000D01*
X160393200Y-87800000D02*
X161714000Y-87800000D01*
X163136400Y-77182800D02*
X161663200Y-75709600D01*
X163136400Y-79021769D02*
X163136400Y-77182800D01*
X162333769Y-79824400D02*
X163136400Y-79021769D01*
X161663200Y-71594800D02*
X162526800Y-70731200D01*
X159097800Y-89095400D02*
X160393200Y-87800000D01*
X146657052Y-94842210D02*
X146630842Y-94816000D01*
X163695200Y-79418000D02*
X163695200Y-77030400D01*
X162222000Y-72610800D02*
X163441200Y-71391600D01*
X162526800Y-80586400D02*
X163695200Y-79418000D01*
X163695200Y-77030400D02*
X162222000Y-75557200D01*
X163441200Y-71391600D02*
X163441200Y-69512000D01*
X162222000Y-75557200D02*
X162222000Y-72610800D01*
X143629200Y-95814200D02*
X143629200Y-94023200D01*
X143629200Y-94023200D02*
X143603800Y-93997800D01*
X142333800Y-95687200D02*
X142257600Y-95763400D01*
X142333800Y-93997800D02*
X142333800Y-95687200D01*
X138346000Y-85514000D02*
X144592600Y-85514000D01*
X139793800Y-93997800D02*
X139159000Y-93997800D01*
X143273600Y-86580800D02*
X143603800Y-86911000D01*
X137723089Y-86136911D02*
X138346000Y-85514000D01*
X143603800Y-86502800D02*
X144592600Y-85514000D01*
X143603800Y-86911000D02*
X143603800Y-86502800D01*
X143603800Y-86911000D02*
X143603800Y-88307800D01*
X142219000Y-86580800D02*
X143273600Y-86580800D01*
X137723089Y-92561889D02*
X137723089Y-86136911D01*
X139159000Y-93997800D02*
X137723089Y-92561889D01*
X163542800Y-75912800D02*
X163542800Y-76166800D01*
X159072400Y-93629800D02*
X159072400Y-93134000D01*
X161358400Y-91914800D02*
X164419711Y-88853489D01*
X163542800Y-74541200D02*
X163542800Y-75912800D01*
X160291600Y-91914800D02*
X161358400Y-91914800D01*
X164419711Y-77043711D02*
X164419711Y-80802911D01*
X164419711Y-80802911D02*
X164419711Y-81145200D01*
X163136400Y-74134800D02*
X163542800Y-74541200D01*
X159072400Y-93134000D02*
X160291600Y-91914800D01*
X163542800Y-76166800D02*
X164304800Y-76928800D01*
X164304800Y-76928800D02*
X164419711Y-77043711D01*
X164419711Y-88853489D02*
X164419711Y-80802911D01*
X160596400Y-93032400D02*
X161256800Y-92372000D01*
X160596400Y-93680600D02*
X160596400Y-93032400D01*
X164965200Y-89222400D02*
X162298200Y-91889400D01*
X162298200Y-91889400D02*
X161815600Y-92372000D01*
X162298200Y-91889400D02*
X162069600Y-92118000D01*
X161815600Y-92372000D02*
X161714000Y-92372000D01*
X161256800Y-92372000D02*
X161714000Y-92372000D01*
X164965200Y-76420800D02*
X164965200Y-89222400D01*
X164558800Y-76014400D02*
X164965200Y-76420800D01*
D26*
X131192800Y-103572400D02*
X127373200Y-103572400D01*
X127373200Y-103572400D02*
X126417600Y-104528000D01*
X126417600Y-104528000D02*
X126417600Y-104080400D01*
D27*
X119356400Y-104486800D02*
X119356400Y-102404000D01*
D28*
X126468400Y-104029600D02*
X121845600Y-104029600D01*
D27*
X120372400Y-103420000D02*
X119356400Y-103420000D01*
X121439200Y-102404000D02*
X119356400Y-104486800D01*
D26*
X126417600Y-104080400D02*
X126468400Y-104029600D01*
D27*
X119356400Y-104486800D02*
X121439200Y-104486800D01*
X121439200Y-104486800D02*
X119356400Y-102404000D01*
X119356400Y-102404000D02*
X121439200Y-102404000D01*
X121591600Y-96714400D02*
X119559600Y-96714400D01*
X119508800Y-95698400D02*
X121540800Y-95698400D01*
X121540800Y-97730400D02*
X119508800Y-97730400D01*
D26*
X131243600Y-91786800D02*
X130268800Y-92761600D01*
X131243600Y-89450000D02*
X131243600Y-91786800D01*
D27*
X121490000Y-95698400D02*
X119458000Y-95698400D01*
X121540800Y-96714400D02*
X119508800Y-96714400D01*
D28*
X126468400Y-93126800D02*
X122068000Y-97527200D01*
D26*
X130268800Y-92761600D02*
X126519200Y-92761600D01*
X122068000Y-97527200D02*
X120423200Y-97527200D01*
D27*
X123877600Y-109770000D02*
X125909600Y-109770000D01*
X125909600Y-109770000D02*
X125909600Y-111852800D01*
X123877600Y-111852800D02*
X123877600Y-109770000D01*
D26*
X126417600Y-109312800D02*
X125757200Y-109973200D01*
D27*
X123877600Y-111852800D02*
X125909600Y-111852800D01*
X123877600Y-110786000D02*
X125909600Y-110786000D01*
X124842800Y-109770000D02*
X124842800Y-111852800D01*
D28*
X126417600Y-107909600D02*
X126417600Y-109312800D01*
D27*
X124792000Y-85386000D02*
X126773200Y-85386000D01*
X124792000Y-87418000D02*
X124792000Y-85386000D01*
X126773200Y-86402000D02*
X124792000Y-86402000D01*
D26*
X126417600Y-86554400D02*
X126214400Y-86351200D01*
D27*
X126773200Y-87418000D02*
X124792000Y-87418000D01*
X126773200Y-85386000D02*
X126773200Y-87418000D01*
X125757200Y-87418000D02*
X125757200Y-85386000D01*
D28*
X126417600Y-89348400D02*
X126417600Y-86554400D01*
D25*
X162526800Y-98984614D02*
X162526800Y-101160400D01*
X145465680Y-93126320D02*
X144993120Y-93598880D01*
X154681600Y-86936400D02*
X154681600Y-87110800D01*
X161249120Y-107696598D02*
X158615200Y-110330518D01*
X151300000Y-88612800D02*
X151096800Y-88612800D01*
X153382800Y-88409600D02*
X153179600Y-88612800D01*
X158615200Y-110330518D02*
X158615200Y-115841600D01*
X150385600Y-89171600D02*
X150385600Y-92575200D01*
X154681600Y-86916198D02*
X157076300Y-84521498D01*
X161249120Y-102438080D02*
X161249120Y-107696598D01*
X150385600Y-92575200D02*
X149834480Y-93126320D01*
X161705386Y-98163200D02*
X162526800Y-98984614D01*
X162526800Y-101160400D02*
X161249120Y-102438080D01*
X145610400Y-98163200D02*
X161705386Y-98163200D01*
X144993120Y-93598880D02*
X144993120Y-97545920D01*
X151300000Y-88612800D02*
X150944400Y-88612800D01*
X154602000Y-117518000D02*
X154602000Y-120159600D01*
X154681600Y-87110800D02*
X153382800Y-88409600D01*
X153179600Y-88612800D02*
X151300000Y-88612800D01*
X154681600Y-86936400D02*
X154681600Y-86916198D01*
X144993120Y-97545920D02*
X145610400Y-98163200D01*
X149834480Y-93126320D02*
X145465680Y-93126320D01*
X150944400Y-88612800D02*
X150385600Y-89171600D01*
X158716800Y-121785200D02*
X158716800Y-120108800D01*
X158716800Y-120108800D02*
X158666000Y-120058000D01*
X133955400Y-102910000D02*
X133955400Y-104256200D01*
X130227600Y-78629600D02*
X132005600Y-80407600D01*
X127586000Y-76699200D02*
X127586000Y-77816800D01*
X132005600Y-80407600D02*
X132005600Y-85233600D01*
X132005600Y-85233600D02*
X132361200Y-85589200D01*
X132361200Y-85589200D02*
X133961400Y-85589200D01*
X128398800Y-78629600D02*
X130227600Y-78629600D01*
X127586000Y-76699200D02*
X122760000Y-76699200D01*
X127586000Y-77816800D02*
X128398800Y-78629600D01*
X133961400Y-85589200D02*
X133986800Y-85563800D01*
X132234200Y-88256200D02*
X133986800Y-88256200D01*
X130837200Y-80535318D02*
X130837200Y-86859200D01*
X126112800Y-80255200D02*
X126468400Y-79899600D01*
X130837200Y-86859200D02*
X132234200Y-88256200D01*
X126468400Y-79899600D02*
X130201482Y-79899600D01*
X130201482Y-79899600D02*
X130837200Y-80535318D01*
X124487200Y-79188400D02*
X130126000Y-79188400D01*
X132208800Y-86910000D02*
X133986800Y-86910000D01*
X131446800Y-86148000D02*
X132208800Y-86910000D01*
X131446800Y-80509200D02*
X131446800Y-86148000D01*
X130126000Y-79188400D02*
X131446800Y-80509200D01*
D27*
X133955400Y-101563800D02*
X131876600Y-101563800D01*
X131876600Y-101563800D02*
X131243600Y-100930800D01*
X131243600Y-100930800D02*
X131091200Y-100778400D01*
X131091200Y-100778400D02*
X131091200Y-98746400D01*
D25*
X149572800Y-92676800D02*
X149877600Y-92372000D01*
X149877600Y-92372000D02*
X149877600Y-88096186D01*
X162069600Y-99230000D02*
X161460000Y-98620400D01*
X157269000Y-115841600D02*
X157269000Y-111041000D01*
X144543600Y-97858400D02*
X144543600Y-93388000D01*
X160799600Y-107510400D02*
X160799600Y-102176400D01*
X145305600Y-98620400D02*
X144543600Y-97858400D01*
X160799600Y-102176400D02*
X162069600Y-100906400D01*
X157269000Y-111041000D02*
X160799600Y-107510400D01*
X161460000Y-98620400D02*
X145305600Y-98620400D01*
X145254800Y-92676800D02*
X149572800Y-92676800D01*
X151342186Y-86631600D02*
X151706400Y-86631600D01*
X144543600Y-93388000D02*
X145254800Y-92676800D01*
X149877600Y-88096186D02*
X151342186Y-86631600D01*
X162069600Y-100906400D02*
X162069600Y-99230000D01*
X163085600Y-104716400D02*
X162730000Y-105072000D01*
X162730000Y-105072000D02*
X162730000Y-114216000D01*
X162730000Y-114216000D02*
X162984000Y-114470000D01*
X158158000Y-89882800D02*
X155160800Y-92880000D01*
X154043200Y-92880000D02*
X153840000Y-92880000D01*
X160037600Y-114520800D02*
X160037600Y-115765400D01*
X160037600Y-115765400D02*
X159961400Y-115841600D01*
X153840000Y-92880000D02*
X152722400Y-93997600D01*
X155160800Y-92880000D02*
X154043200Y-92880000D01*
X162976320Y-98798417D02*
X161375904Y-97198000D01*
X162976320Y-101346597D02*
X162976320Y-98798417D01*
X161727059Y-119841741D02*
X161727059Y-102595859D01*
X159732800Y-97198000D02*
X159072400Y-96537600D01*
X159072400Y-96537600D02*
X159072400Y-95279800D01*
X160012200Y-120058000D02*
X161510800Y-120058000D01*
X161727059Y-102595859D02*
X162976320Y-101346597D01*
X161510800Y-120058000D02*
X161727059Y-119841741D01*
X161375904Y-97198000D02*
X159732800Y-97198000D01*
X163425840Y-98612220D02*
X163425840Y-101582160D01*
X157243600Y-120134200D02*
X157319800Y-120058000D01*
X160850400Y-96690000D02*
X161503622Y-96690000D01*
X160342400Y-122547200D02*
X157700800Y-122547200D01*
X163425840Y-101582160D02*
X162176579Y-102831421D01*
X157243600Y-122090000D02*
X157243600Y-120134200D01*
X160596400Y-96436000D02*
X160850400Y-96690000D01*
X161503622Y-96690000D02*
X163425840Y-98612220D01*
X162176579Y-120713021D02*
X160342400Y-122547200D01*
X157700800Y-122547200D02*
X157243600Y-122090000D01*
X160596400Y-95330600D02*
X160596400Y-96436000D01*
X162176579Y-102831421D02*
X162176579Y-120713021D01*
X137273569Y-79615569D02*
X136923600Y-79265600D01*
X140923741Y-109098259D02*
X138904800Y-107079318D01*
X136923600Y-79265600D02*
X136923600Y-77792400D01*
X137337680Y-76183802D02*
X137672541Y-75848941D01*
X137273569Y-92748086D02*
X137273569Y-91203600D01*
X138955600Y-72661600D02*
X139412800Y-72204400D01*
X138904800Y-102836800D02*
X138281889Y-102213889D01*
X151096800Y-75252400D02*
X151096800Y-76319200D01*
X138904800Y-107079318D02*
X138904800Y-102836800D01*
X142638600Y-110813118D02*
X140923741Y-109098259D01*
X137076000Y-77640000D02*
X137337680Y-77378320D01*
X147693200Y-71848800D02*
X151096800Y-75252400D01*
X138955600Y-74565882D02*
X138955600Y-73220400D01*
X136923600Y-77792400D02*
X137076000Y-77640000D01*
X142638600Y-115790800D02*
X142638600Y-110813118D01*
X137273569Y-91203600D02*
X137273569Y-79615569D01*
X137672541Y-75848941D02*
X138955600Y-74565882D01*
X139768400Y-71848800D02*
X147693200Y-71848800D01*
X138281889Y-93756407D02*
X137273569Y-92748086D01*
X138955600Y-73220400D02*
X138955600Y-72661600D01*
X139412800Y-72204400D02*
X139768400Y-71848800D01*
X137337680Y-77378320D02*
X137337680Y-76370000D01*
X138281889Y-102213889D02*
X138281889Y-93756407D01*
X137337680Y-76370000D02*
X137337680Y-76183802D01*
X147879398Y-71399280D02*
X139582202Y-71399280D01*
X136824049Y-79801766D02*
X136824049Y-92934283D01*
X138506080Y-74379684D02*
X136888160Y-75997605D01*
X138506080Y-72475403D02*
X138506080Y-74379684D01*
X137832369Y-93942603D02*
X137832369Y-102400087D01*
X138455280Y-103022998D02*
X138455280Y-107265516D01*
X137832369Y-102400087D02*
X138455280Y-103022998D01*
X136474080Y-79451797D02*
X136824049Y-79801766D01*
X151096800Y-73271200D02*
X149751318Y-73271200D01*
X149751318Y-73271200D02*
X147879398Y-71399280D01*
X136888160Y-77192122D02*
X136474080Y-77606203D01*
X141292400Y-110102636D02*
X141292400Y-115790800D01*
X139582202Y-71399280D02*
X138506080Y-72475403D01*
X138455280Y-107265516D02*
X141292400Y-110102636D01*
X136474080Y-77606203D02*
X136474080Y-79451797D01*
X136824049Y-92934283D02*
X137832369Y-93942603D01*
X136888160Y-75997605D02*
X136888160Y-77192122D01*
X143984800Y-115790800D02*
X143984800Y-111523600D01*
X139768400Y-107307200D02*
X139768400Y-103649600D01*
X143984800Y-111523600D02*
X139768400Y-107307200D01*
X140569000Y-86580800D02*
X138803200Y-86580800D01*
G04 #@! TA.AperFunction,Conductor*
G36*
X156157791Y-80220702D02*
G01*
X156204284Y-80274358D01*
X156214388Y-80344632D01*
X156184894Y-80409212D01*
X156137888Y-80443109D01*
X156084789Y-80465103D01*
X156084786Y-80465105D01*
X156077159Y-80468264D01*
X155951718Y-80564518D01*
X155855464Y-80689959D01*
X155794956Y-80836038D01*
X155793878Y-80844226D01*
X155792068Y-80857973D01*
X155774318Y-80992800D01*
X155775396Y-81000988D01*
X155792156Y-81128290D01*
X155794956Y-81149562D01*
X155855464Y-81295641D01*
X155951718Y-81421082D01*
X156077159Y-81517336D01*
X156223238Y-81577844D01*
X156380000Y-81598482D01*
X156388188Y-81597404D01*
X156528574Y-81578922D01*
X156536762Y-81577844D01*
X156682841Y-81517336D01*
X156808282Y-81421082D01*
X156849323Y-81367596D01*
X156906661Y-81325729D01*
X156949286Y-81318300D01*
X158275783Y-81318300D01*
X158343904Y-81338302D01*
X158364879Y-81355205D01*
X158608396Y-81598723D01*
X158642421Y-81661035D01*
X158645300Y-81687818D01*
X158645300Y-84717382D01*
X158625298Y-84785503D01*
X158608397Y-84806476D01*
X158568080Y-84846794D01*
X158505768Y-84880820D01*
X158478983Y-84883700D01*
X157764820Y-84883700D01*
X157696699Y-84863698D01*
X157650206Y-84810042D01*
X157640102Y-84739768D01*
X157648412Y-84709481D01*
X157658183Y-84685893D01*
X157658184Y-84685888D01*
X157661344Y-84678260D01*
X157681982Y-84521498D01*
X157661344Y-84364736D01*
X157600836Y-84218657D01*
X157530079Y-84126445D01*
X157509605Y-84099762D01*
X157504582Y-84093216D01*
X157379141Y-83996962D01*
X157233062Y-83936454D01*
X157076300Y-83915816D01*
X156919538Y-83936454D01*
X156773459Y-83996962D01*
X156648018Y-84093216D01*
X156642995Y-84099762D01*
X156622521Y-84126445D01*
X156551764Y-84218657D01*
X156491256Y-84364736D01*
X156470618Y-84521498D01*
X156473790Y-84545587D01*
X156479418Y-84588338D01*
X156468479Y-84658487D01*
X156443591Y-84693880D01*
X154465384Y-86672088D01*
X154457281Y-86679514D01*
X154428406Y-86703743D01*
X154422893Y-86713292D01*
X154409561Y-86736383D01*
X154403655Y-86745654D01*
X154382046Y-86776514D01*
X154379192Y-86787164D01*
X154377715Y-86790332D01*
X154376523Y-86793608D01*
X154371012Y-86803153D01*
X154366542Y-86828505D01*
X154364470Y-86840256D01*
X154362092Y-86850983D01*
X154352336Y-86887391D01*
X154354645Y-86913777D01*
X154340658Y-86983380D01*
X154318220Y-87013854D01*
X153172781Y-88159293D01*
X153172771Y-88159302D01*
X153110338Y-88221736D01*
X153081679Y-88250395D01*
X153019367Y-88284420D01*
X152992583Y-88287300D01*
X150964111Y-88287300D01*
X150953129Y-88286820D01*
X150926579Y-88284497D01*
X150926578Y-88284497D01*
X150915594Y-88283536D01*
X150904943Y-88286390D01*
X150904942Y-88286390D01*
X150879192Y-88293289D01*
X150868465Y-88295667D01*
X150842215Y-88300296D01*
X150842210Y-88300298D01*
X150831355Y-88302212D01*
X150821807Y-88307725D01*
X150818531Y-88308917D01*
X150815369Y-88310391D01*
X150804716Y-88313246D01*
X150795685Y-88319570D01*
X150773856Y-88334855D01*
X150764585Y-88340761D01*
X150750480Y-88348905D01*
X150731945Y-88359606D01*
X150724859Y-88368051D01*
X150707715Y-88388482D01*
X150700289Y-88396585D01*
X150418195Y-88678679D01*
X150355883Y-88712705D01*
X150285068Y-88707640D01*
X150228232Y-88665093D01*
X150203421Y-88598573D01*
X150203100Y-88589584D01*
X150203100Y-88283202D01*
X150223102Y-88215081D01*
X150240005Y-88194107D01*
X151256367Y-87177746D01*
X151318679Y-87143720D01*
X151389495Y-87148785D01*
X151401115Y-87154260D01*
X151403559Y-87156136D01*
X151411185Y-87159295D01*
X151411187Y-87159296D01*
X151477448Y-87186742D01*
X151549638Y-87216644D01*
X151706400Y-87237282D01*
X151714588Y-87236204D01*
X151854974Y-87217722D01*
X151863162Y-87216644D01*
X152009241Y-87156136D01*
X152134682Y-87059882D01*
X152230936Y-86934441D01*
X152291444Y-86788362D01*
X152312082Y-86631600D01*
X152291444Y-86474838D01*
X152230936Y-86328759D01*
X152147182Y-86219608D01*
X152139705Y-86209864D01*
X152134682Y-86203318D01*
X152126742Y-86197225D01*
X152077009Y-86159064D01*
X152009241Y-86107064D01*
X151863162Y-86046556D01*
X151706400Y-86025918D01*
X151549638Y-86046556D01*
X151403559Y-86107064D01*
X151335791Y-86159064D01*
X151286059Y-86197225D01*
X151278118Y-86203318D01*
X151273095Y-86209864D01*
X151265618Y-86219608D01*
X151181864Y-86328759D01*
X151181281Y-86330166D01*
X151146771Y-86364677D01*
X151147721Y-86365809D01*
X151139275Y-86372896D01*
X151129731Y-86378406D01*
X151122648Y-86386847D01*
X151122647Y-86386848D01*
X151105506Y-86407276D01*
X151098080Y-86415379D01*
X149661384Y-87852076D01*
X149653281Y-87859502D01*
X149624406Y-87883731D01*
X149618893Y-87893280D01*
X149605561Y-87916371D01*
X149599655Y-87925642D01*
X149578046Y-87956502D01*
X149575192Y-87967152D01*
X149573715Y-87970320D01*
X149572523Y-87973596D01*
X149567012Y-87983141D01*
X149562827Y-88006878D01*
X149560470Y-88020244D01*
X149558092Y-88030971D01*
X149548336Y-88067379D01*
X149549297Y-88078364D01*
X149549297Y-88078366D01*
X149551620Y-88104914D01*
X149552100Y-88115896D01*
X149552100Y-92184982D01*
X149532098Y-92253103D01*
X149515197Y-92274076D01*
X149474880Y-92314394D01*
X149412568Y-92348420D01*
X149385783Y-92351300D01*
X145274510Y-92351300D01*
X145263528Y-92350820D01*
X145236980Y-92348497D01*
X145236978Y-92348497D01*
X145225993Y-92347536D01*
X145189585Y-92357292D01*
X145178858Y-92359670D01*
X145175499Y-92360262D01*
X145141755Y-92366212D01*
X145132210Y-92371723D01*
X145128934Y-92372915D01*
X145125766Y-92374392D01*
X145115116Y-92377246D01*
X145084256Y-92398855D01*
X145074985Y-92404761D01*
X145051894Y-92418093D01*
X145042345Y-92423606D01*
X145018115Y-92452482D01*
X145010689Y-92460585D01*
X144327385Y-93143889D01*
X144319281Y-93151316D01*
X144314817Y-93155062D01*
X144290406Y-93175545D01*
X144284893Y-93185094D01*
X144283500Y-93187506D01*
X144280341Y-93190518D01*
X144277808Y-93193537D01*
X144277471Y-93193254D01*
X144232118Y-93236500D01*
X144162405Y-93249938D01*
X144096494Y-93223552D01*
X144085285Y-93213603D01*
X144080243Y-93208561D01*
X144073352Y-93198248D01*
X144007031Y-93153933D01*
X143994862Y-93151512D01*
X143994861Y-93151512D01*
X143954616Y-93143507D01*
X143948548Y-93142300D01*
X143537503Y-93142300D01*
X143469382Y-93122298D01*
X143422889Y-93068642D01*
X143412785Y-92998368D01*
X143442279Y-92933788D01*
X143461938Y-92915474D01*
X143554524Y-92846085D01*
X143567085Y-92833524D01*
X143643586Y-92731449D01*
X143652124Y-92715854D01*
X143697278Y-92595406D01*
X143700905Y-92580151D01*
X143706431Y-92529286D01*
X143706800Y-92522472D01*
X143706800Y-92087415D01*
X143702325Y-92072176D01*
X143700935Y-92070971D01*
X143693252Y-92069300D01*
X141220915Y-92069300D01*
X141205676Y-92073775D01*
X141204471Y-92075165D01*
X141202800Y-92082848D01*
X141202800Y-92776685D01*
X141207275Y-92791924D01*
X141208665Y-92793129D01*
X141218582Y-92795286D01*
X141280895Y-92829311D01*
X141314920Y-92891623D01*
X141317800Y-92918407D01*
X141317800Y-95142684D01*
X141322275Y-95157923D01*
X141323665Y-95159128D01*
X141331348Y-95160799D01*
X141433469Y-95160799D01*
X141440290Y-95160429D01*
X141491152Y-95154905D01*
X141510585Y-95150285D01*
X141581485Y-95153988D01*
X141639128Y-95195435D01*
X141665212Y-95261466D01*
X141651996Y-95330070D01*
X141596954Y-95438096D01*
X141582100Y-95531881D01*
X141582101Y-95994918D01*
X141582876Y-95999811D01*
X141582876Y-95999812D01*
X141591433Y-96053841D01*
X141596954Y-96088704D01*
X141601457Y-96097541D01*
X141601457Y-96097542D01*
X141611308Y-96116875D01*
X141654550Y-96201742D01*
X141744258Y-96291450D01*
X141753088Y-96295949D01*
X141753092Y-96295952D01*
X141778613Y-96308955D01*
X141830229Y-96357703D01*
X141847295Y-96426617D01*
X141824395Y-96493819D01*
X141768797Y-96537972D01*
X141759090Y-96541456D01*
X141696357Y-96561115D01*
X141682612Y-96567321D01*
X141549026Y-96648224D01*
X141537157Y-96657531D01*
X141426731Y-96767957D01*
X141417424Y-96779826D01*
X141336521Y-96913412D01*
X141330315Y-96927157D01*
X141283344Y-97077044D01*
X141280731Y-97090094D01*
X141275687Y-97144986D01*
X141279075Y-97156524D01*
X141280465Y-97157729D01*
X141288148Y-97159400D01*
X143182772Y-97159400D01*
X143250893Y-97179402D01*
X143265285Y-97190176D01*
X143286465Y-97208529D01*
X143294148Y-97210200D01*
X143757200Y-97210200D01*
X143825321Y-97230202D01*
X143871814Y-97283858D01*
X143883200Y-97336200D01*
X143883200Y-98354084D01*
X143887675Y-98369323D01*
X143889065Y-98370528D01*
X143896748Y-98372199D01*
X143957905Y-98372199D01*
X143963654Y-98371936D01*
X144027515Y-98366068D01*
X144040551Y-98363457D01*
X144190443Y-98316485D01*
X144204192Y-98310277D01*
X144325811Y-98236622D01*
X144394440Y-98218443D01*
X144462004Y-98240253D01*
X144480177Y-98255303D01*
X144801979Y-98577105D01*
X144836005Y-98639417D01*
X144830940Y-98710232D01*
X144788393Y-98767068D01*
X144721873Y-98791879D01*
X144712884Y-98792200D01*
X140643152Y-98792200D01*
X140614703Y-98788946D01*
X140613515Y-98788671D01*
X140606556Y-98787058D01*
X140605840Y-98787057D01*
X140603193Y-98787661D01*
X140601817Y-98787419D01*
X140601865Y-98787964D01*
X140396668Y-98805918D01*
X140391354Y-98807342D01*
X140391348Y-98807343D01*
X140204387Y-98857442D01*
X140193851Y-98860265D01*
X140188864Y-98862591D01*
X140188860Y-98862592D01*
X140105988Y-98901237D01*
X140003553Y-98949004D01*
X139831555Y-99069439D01*
X139683084Y-99217912D01*
X139562650Y-99389911D01*
X139560329Y-99394889D01*
X139560327Y-99394892D01*
X139526420Y-99467606D01*
X139473912Y-99580211D01*
X139419568Y-99783028D01*
X139401268Y-99992200D01*
X139419568Y-100201372D01*
X139473912Y-100404189D01*
X139476235Y-100409170D01*
X139476235Y-100409171D01*
X139535546Y-100536363D01*
X139562650Y-100594489D01*
X139683084Y-100766488D01*
X139831555Y-100914961D01*
X140003553Y-101035396D01*
X140105988Y-101083163D01*
X140188860Y-101121808D01*
X140188864Y-101121809D01*
X140193851Y-101124135D01*
X140199169Y-101125560D01*
X140391348Y-101177057D01*
X140391354Y-101177058D01*
X140396668Y-101178482D01*
X140553450Y-101192200D01*
X140600823Y-101196345D01*
X140600781Y-101196826D01*
X140602204Y-101196665D01*
X140605124Y-101197342D01*
X140605840Y-101197343D01*
X140612784Y-101195759D01*
X140612785Y-101195759D01*
X140614554Y-101195356D01*
X140642576Y-101192200D01*
X160568527Y-101192200D01*
X160596979Y-101195454D01*
X160605124Y-101197342D01*
X160605840Y-101197343D01*
X160608485Y-101196739D01*
X160609863Y-101196982D01*
X160609815Y-101196436D01*
X160622161Y-101195356D01*
X160815015Y-101178486D01*
X160820327Y-101177063D01*
X160820331Y-101177062D01*
X161012522Y-101125566D01*
X161012526Y-101125564D01*
X161017835Y-101124142D01*
X161070418Y-101099623D01*
X161140607Y-101088962D01*
X161205419Y-101117942D01*
X161244276Y-101177362D01*
X161244839Y-101248356D01*
X161212762Y-101302912D01*
X160583373Y-101932301D01*
X160575281Y-101939716D01*
X160546406Y-101963945D01*
X160540893Y-101973494D01*
X160527561Y-101996585D01*
X160521655Y-102005856D01*
X160500046Y-102036716D01*
X160497192Y-102047366D01*
X160495715Y-102050534D01*
X160494523Y-102053810D01*
X160489012Y-102063355D01*
X160483062Y-102097099D01*
X160482470Y-102100458D01*
X160480092Y-102111185D01*
X160470336Y-102147593D01*
X160471297Y-102158578D01*
X160471297Y-102158580D01*
X160473620Y-102185128D01*
X160474100Y-102196110D01*
X160474100Y-106047281D01*
X160454098Y-106115402D01*
X160400442Y-106161895D01*
X160330168Y-106171999D01*
X160271397Y-106147244D01*
X160245396Y-106127293D01*
X160245392Y-106127291D01*
X160238841Y-106122264D01*
X160092762Y-106061756D01*
X159936000Y-106041118D01*
X159779238Y-106061756D01*
X159633159Y-106122264D01*
X159507718Y-106218518D01*
X159502695Y-106225064D01*
X159466677Y-106272004D01*
X159409339Y-106313871D01*
X159366714Y-106321300D01*
X156145710Y-106321300D01*
X156134728Y-106320820D01*
X156108180Y-106318497D01*
X156108178Y-106318497D01*
X156097193Y-106317536D01*
X156060785Y-106327292D01*
X156050058Y-106329670D01*
X156046699Y-106330262D01*
X156012955Y-106336212D01*
X156003410Y-106341723D01*
X156000134Y-106342915D01*
X155996966Y-106344392D01*
X155986316Y-106347246D01*
X155977285Y-106353570D01*
X155955456Y-106368855D01*
X155946185Y-106374761D01*
X155923094Y-106388093D01*
X155913545Y-106393606D01*
X155906459Y-106402051D01*
X155889315Y-106422482D01*
X155881889Y-106430585D01*
X153030879Y-109281595D01*
X152968567Y-109315621D01*
X152941784Y-109318500D01*
X150979017Y-109318500D01*
X150910896Y-109298498D01*
X150889922Y-109281595D01*
X149816910Y-108208584D01*
X149809483Y-108200480D01*
X149785255Y-108171606D01*
X149775706Y-108166093D01*
X149752615Y-108152761D01*
X149743344Y-108146855D01*
X149721515Y-108131570D01*
X149712484Y-108125246D01*
X149701834Y-108122392D01*
X149698666Y-108120915D01*
X149696151Y-108120000D01*
X151751470Y-108120000D01*
X151772108Y-108276762D01*
X151832616Y-108422841D01*
X151928870Y-108548282D01*
X152054311Y-108644536D01*
X152200390Y-108705044D01*
X152357152Y-108725682D01*
X152365340Y-108724604D01*
X152505726Y-108706122D01*
X152513914Y-108705044D01*
X152659993Y-108644536D01*
X152785434Y-108548282D01*
X152881688Y-108422841D01*
X152942196Y-108276762D01*
X152962834Y-108120000D01*
X152942196Y-107963238D01*
X152881688Y-107817159D01*
X152785434Y-107691718D01*
X152741596Y-107658080D01*
X152699729Y-107600742D01*
X152692300Y-107558117D01*
X152692300Y-105742886D01*
X152712302Y-105674765D01*
X152741596Y-105642923D01*
X152788536Y-105606905D01*
X152795082Y-105601882D01*
X152891336Y-105476441D01*
X152951844Y-105330362D01*
X152972482Y-105173600D01*
X152951844Y-105016838D01*
X152891336Y-104870759D01*
X152795082Y-104745318D01*
X152669641Y-104649064D01*
X152523562Y-104588556D01*
X152366800Y-104567918D01*
X152210038Y-104588556D01*
X152063959Y-104649064D01*
X151938518Y-104745318D01*
X151842264Y-104870759D01*
X151781756Y-105016838D01*
X151761118Y-105173600D01*
X151781756Y-105330362D01*
X151842264Y-105476441D01*
X151938518Y-105601882D01*
X151945064Y-105606905D01*
X151992004Y-105642923D01*
X152033871Y-105700261D01*
X152041300Y-105742886D01*
X152041300Y-107543311D01*
X152021298Y-107611432D01*
X151992004Y-107643274D01*
X151928870Y-107691718D01*
X151832616Y-107817159D01*
X151772108Y-107963238D01*
X151751470Y-108120000D01*
X149696151Y-108120000D01*
X149695390Y-108119723D01*
X149685845Y-108114212D01*
X149652101Y-108108262D01*
X149648742Y-108107670D01*
X149638015Y-108105292D01*
X149601607Y-108095536D01*
X149590622Y-108096497D01*
X149590620Y-108096497D01*
X149564072Y-108098820D01*
X149553090Y-108099300D01*
X146687686Y-108099300D01*
X146619565Y-108079298D01*
X146587723Y-108050004D01*
X146551705Y-108003064D01*
X146546682Y-107996518D01*
X146421241Y-107900264D01*
X146275162Y-107839756D01*
X146118400Y-107819118D01*
X145961638Y-107839756D01*
X145815559Y-107900264D01*
X145690118Y-107996518D01*
X145685095Y-108003064D01*
X145649077Y-108050004D01*
X145591739Y-108091871D01*
X145549114Y-108099300D01*
X144554086Y-108099300D01*
X144485965Y-108079298D01*
X144454123Y-108050004D01*
X144418105Y-108003064D01*
X144413082Y-107996518D01*
X144287641Y-107900264D01*
X144141562Y-107839756D01*
X143984800Y-107819118D01*
X143828038Y-107839756D01*
X143681959Y-107900264D01*
X143556518Y-107996518D01*
X143460264Y-108121959D01*
X143399756Y-108268038D01*
X143379118Y-108424800D01*
X143399756Y-108581562D01*
X143460264Y-108727641D01*
X143556518Y-108853082D01*
X143681959Y-108949336D01*
X143828038Y-109009844D01*
X143984800Y-109030482D01*
X143992988Y-109029404D01*
X144133374Y-109010922D01*
X144141562Y-109009844D01*
X144287641Y-108949336D01*
X144413082Y-108853082D01*
X144454123Y-108799596D01*
X144511461Y-108757729D01*
X144554086Y-108750300D01*
X145549114Y-108750300D01*
X145617235Y-108770302D01*
X145649077Y-108799596D01*
X145690118Y-108853082D01*
X145815559Y-108949336D01*
X145961638Y-109009844D01*
X146118400Y-109030482D01*
X146126588Y-109029404D01*
X146266974Y-109010922D01*
X146275162Y-109009844D01*
X146421241Y-108949336D01*
X146546682Y-108853082D01*
X146587723Y-108799596D01*
X146645061Y-108757729D01*
X146687686Y-108750300D01*
X149385784Y-108750300D01*
X149453905Y-108770302D01*
X149474879Y-108787205D01*
X150445435Y-109757762D01*
X150547895Y-109860222D01*
X150555315Y-109868318D01*
X150579545Y-109897194D01*
X150589088Y-109902704D01*
X150589092Y-109902707D01*
X150612179Y-109916036D01*
X150621448Y-109921940D01*
X150652316Y-109943554D01*
X150662964Y-109946407D01*
X150666135Y-109947886D01*
X150669411Y-109949078D01*
X150678955Y-109954588D01*
X150716076Y-109961134D01*
X150726783Y-109963508D01*
X150763193Y-109973263D01*
X150774168Y-109972303D01*
X150774170Y-109972303D01*
X150800731Y-109969979D01*
X150811712Y-109969500D01*
X153109090Y-109969500D01*
X153120072Y-109969980D01*
X153146620Y-109972303D01*
X153146622Y-109972303D01*
X153157607Y-109973264D01*
X153194015Y-109963508D01*
X153204742Y-109961130D01*
X153208101Y-109960538D01*
X153241845Y-109954588D01*
X153251390Y-109949077D01*
X153254666Y-109947885D01*
X153257834Y-109946408D01*
X153268484Y-109943554D01*
X153299350Y-109921941D01*
X153308615Y-109916039D01*
X153331706Y-109902707D01*
X153341255Y-109897194D01*
X153365485Y-109868317D01*
X153372911Y-109860215D01*
X156223921Y-107009205D01*
X156286233Y-106975179D01*
X156313016Y-106972300D01*
X159366714Y-106972300D01*
X159434835Y-106992302D01*
X159466677Y-107021596D01*
X159507718Y-107075082D01*
X159633159Y-107171336D01*
X159779238Y-107231844D01*
X159936000Y-107252482D01*
X159944188Y-107251404D01*
X159986710Y-107245806D01*
X160092762Y-107231844D01*
X160238841Y-107171336D01*
X160245392Y-107166309D01*
X160245396Y-107166307D01*
X160271397Y-107146356D01*
X160337617Y-107120756D01*
X160407166Y-107135021D01*
X160457962Y-107184623D01*
X160474100Y-107246319D01*
X160474100Y-107323383D01*
X160454098Y-107391504D01*
X160437195Y-107412478D01*
X157052784Y-110796890D01*
X157044681Y-110804316D01*
X157015806Y-110828545D01*
X157010293Y-110838094D01*
X156996961Y-110861185D01*
X156991055Y-110870456D01*
X156969446Y-110901316D01*
X156966592Y-110911966D01*
X156965115Y-110915134D01*
X156963923Y-110918410D01*
X156958412Y-110927955D01*
X156954888Y-110947944D01*
X156951870Y-110965058D01*
X156949492Y-110975785D01*
X156939736Y-111012193D01*
X156940697Y-111023178D01*
X156940697Y-111023180D01*
X156943020Y-111049728D01*
X156943500Y-111060710D01*
X156943500Y-114551319D01*
X156923498Y-114619440D01*
X156869842Y-114665933D01*
X156859252Y-114670201D01*
X156805816Y-114688966D01*
X156798246Y-114694558D01*
X156798243Y-114694559D01*
X156725994Y-114747924D01*
X156696850Y-114769450D01*
X156691258Y-114777021D01*
X156621959Y-114870843D01*
X156621958Y-114870846D01*
X156616366Y-114878416D01*
X156571481Y-115006231D01*
X156568500Y-115037766D01*
X156568500Y-116645434D01*
X156571481Y-116676969D01*
X156574026Y-116684215D01*
X156575671Y-116691714D01*
X156574128Y-116692052D01*
X156577370Y-116754088D01*
X156542154Y-116815736D01*
X156479200Y-116848558D01*
X156466414Y-116850408D01*
X156408655Y-116855761D01*
X156408654Y-116855761D01*
X156402851Y-116856299D01*
X156206775Y-116912089D01*
X156201562Y-116914685D01*
X156201559Y-116914686D01*
X156167034Y-116931878D01*
X156024289Y-117002958D01*
X155861607Y-117125812D01*
X155857685Y-117130115D01*
X155857681Y-117130118D01*
X155786129Y-117208608D01*
X155724269Y-117276466D01*
X155697884Y-117319079D01*
X155655606Y-117387362D01*
X155616952Y-117449790D01*
X155614850Y-117455216D01*
X155614849Y-117455218D01*
X155546734Y-117631045D01*
X155543310Y-117639883D01*
X155505851Y-117840271D01*
X155505851Y-118044129D01*
X155543310Y-118244517D01*
X155545411Y-118249940D01*
X155545412Y-118249944D01*
X155614849Y-118429182D01*
X155614850Y-118429184D01*
X155616952Y-118434610D01*
X155620015Y-118439557D01*
X155620016Y-118439559D01*
X155670611Y-118521272D01*
X155724269Y-118607934D01*
X155753726Y-118640247D01*
X155857681Y-118754282D01*
X155857685Y-118754285D01*
X155861607Y-118758588D01*
X156024289Y-118881442D01*
X156041263Y-118889894D01*
X156201559Y-118969714D01*
X156201562Y-118969715D01*
X156206775Y-118972311D01*
X156402851Y-119028101D01*
X156408654Y-119028639D01*
X156408655Y-119028639D01*
X156419597Y-119029653D01*
X156520782Y-119039030D01*
X156586765Y-119065232D01*
X156628109Y-119122949D01*
X156631685Y-119193856D01*
X156628037Y-119206240D01*
X156622281Y-119222631D01*
X156619300Y-119254166D01*
X156619300Y-120861834D01*
X156619579Y-120864782D01*
X156621413Y-120884182D01*
X156622281Y-120893369D01*
X156667166Y-121021184D01*
X156672758Y-121028754D01*
X156672759Y-121028757D01*
X156712300Y-121082290D01*
X156747650Y-121130150D01*
X156852847Y-121207850D01*
X156852849Y-121207852D01*
X156856616Y-121210634D01*
X156856234Y-121211151D01*
X156901903Y-121255661D01*
X156918100Y-121317462D01*
X156918100Y-122070290D01*
X156917620Y-122081272D01*
X156914336Y-122118807D01*
X156917190Y-122129456D01*
X156924091Y-122155210D01*
X156926470Y-122165942D01*
X156933012Y-122203045D01*
X156938523Y-122212590D01*
X156939715Y-122215866D01*
X156941192Y-122219034D01*
X156944046Y-122229684D01*
X156950370Y-122238715D01*
X156965655Y-122260544D01*
X156971561Y-122269815D01*
X156984893Y-122292906D01*
X156990406Y-122302455D01*
X156998851Y-122309541D01*
X157019275Y-122326679D01*
X157027379Y-122334106D01*
X157194567Y-122501294D01*
X157228593Y-122563606D01*
X157223528Y-122634421D01*
X157180981Y-122691257D01*
X157114461Y-122716068D01*
X157105472Y-122716389D01*
X156066035Y-122716389D01*
X156055053Y-122715909D01*
X156028505Y-122713586D01*
X156028503Y-122713586D01*
X156017518Y-122712625D01*
X155981110Y-122722381D01*
X155970383Y-122724759D01*
X155967024Y-122725351D01*
X155933280Y-122731301D01*
X155923735Y-122736812D01*
X155920459Y-122738004D01*
X155917291Y-122739481D01*
X155906641Y-122742335D01*
X155897610Y-122748659D01*
X155875781Y-122763944D01*
X155866510Y-122769850D01*
X155843419Y-122783182D01*
X155833870Y-122788695D01*
X155826784Y-122797140D01*
X155809640Y-122817571D01*
X155802214Y-122825674D01*
X155782693Y-122845195D01*
X155720381Y-122879221D01*
X155693598Y-122882100D01*
X152655417Y-122882100D01*
X152587296Y-122862098D01*
X152566322Y-122845195D01*
X151306805Y-121585679D01*
X151272780Y-121523367D01*
X151269900Y-121496584D01*
X151269900Y-120159600D01*
X153996318Y-120159600D01*
X154016956Y-120316362D01*
X154077464Y-120462441D01*
X154173718Y-120587882D01*
X154299159Y-120684136D01*
X154445238Y-120744644D01*
X154602000Y-120765282D01*
X154610188Y-120764204D01*
X154750574Y-120745722D01*
X154758762Y-120744644D01*
X154904841Y-120684136D01*
X155030282Y-120587882D01*
X155126536Y-120462441D01*
X155187044Y-120316362D01*
X155207682Y-120159600D01*
X155187044Y-120002838D01*
X155126536Y-119856759D01*
X155030282Y-119731318D01*
X154976796Y-119690277D01*
X154934929Y-119632939D01*
X154927500Y-119590314D01*
X154927500Y-118087286D01*
X154947502Y-118019165D01*
X154976796Y-117987323D01*
X155023736Y-117951305D01*
X155030282Y-117946282D01*
X155126536Y-117820841D01*
X155187044Y-117674762D01*
X155207682Y-117518000D01*
X155187044Y-117361238D01*
X155126536Y-117215159D01*
X155030282Y-117089718D01*
X154904841Y-116993464D01*
X154758762Y-116932956D01*
X154602000Y-116912318D01*
X154445238Y-116932956D01*
X154299159Y-116993464D01*
X154173718Y-117089718D01*
X154077464Y-117215159D01*
X154016956Y-117361238D01*
X153996318Y-117518000D01*
X154016956Y-117674762D01*
X154077464Y-117820841D01*
X154173718Y-117946282D01*
X154180264Y-117951305D01*
X154227204Y-117987323D01*
X154269071Y-118044661D01*
X154276500Y-118087286D01*
X154276500Y-119590314D01*
X154256498Y-119658435D01*
X154227204Y-119690277D01*
X154173718Y-119731318D01*
X154077464Y-119856759D01*
X154016956Y-120002838D01*
X153996318Y-120159600D01*
X151269900Y-120159600D01*
X151269900Y-118696886D01*
X151289902Y-118628765D01*
X151319196Y-118596923D01*
X151366136Y-118560905D01*
X151372682Y-118555882D01*
X151468936Y-118430441D01*
X151529444Y-118284362D01*
X151536270Y-118232517D01*
X151549004Y-118135788D01*
X151550082Y-118127600D01*
X151529444Y-117970838D01*
X151468936Y-117824759D01*
X151372682Y-117699318D01*
X151247241Y-117603064D01*
X151101162Y-117542556D01*
X150944400Y-117521918D01*
X150787638Y-117542556D01*
X150641559Y-117603064D01*
X150516118Y-117699318D01*
X150419864Y-117824759D01*
X150359356Y-117970838D01*
X150338718Y-118127600D01*
X150339796Y-118135788D01*
X150352531Y-118232517D01*
X150359356Y-118284362D01*
X150419864Y-118430441D01*
X150516118Y-118555882D01*
X150522664Y-118560905D01*
X150569604Y-118596923D01*
X150611471Y-118654261D01*
X150618900Y-118696886D01*
X150618900Y-121663890D01*
X150618420Y-121674872D01*
X150615136Y-121712407D01*
X150624891Y-121748810D01*
X150627270Y-121759542D01*
X150633812Y-121796645D01*
X150639323Y-121806190D01*
X150640515Y-121809466D01*
X150641992Y-121812634D01*
X150644846Y-121823284D01*
X150651170Y-121832315D01*
X150666455Y-121854144D01*
X150672361Y-121863415D01*
X150682352Y-121880719D01*
X150691206Y-121896055D01*
X150699651Y-121903141D01*
X150720082Y-121920285D01*
X150728185Y-121927711D01*
X152224295Y-123423822D01*
X152231715Y-123431918D01*
X152255945Y-123460794D01*
X152288584Y-123479638D01*
X152297852Y-123485542D01*
X152328716Y-123507153D01*
X152339362Y-123510006D01*
X152342530Y-123511483D01*
X152345807Y-123512676D01*
X152355355Y-123518188D01*
X152384908Y-123523399D01*
X152392469Y-123524732D01*
X152403203Y-123527112D01*
X152439593Y-123536863D01*
X152450569Y-123535903D01*
X152450572Y-123535903D01*
X152477131Y-123533579D01*
X152488112Y-123533100D01*
X155860904Y-123533100D01*
X155871886Y-123533580D01*
X155898434Y-123535903D01*
X155898436Y-123535903D01*
X155909421Y-123536864D01*
X155945829Y-123527108D01*
X155956556Y-123524730D01*
X155959915Y-123524138D01*
X155993659Y-123518188D01*
X156003204Y-123512677D01*
X156006480Y-123511485D01*
X156009648Y-123510008D01*
X156020298Y-123507154D01*
X156051161Y-123485543D01*
X156060429Y-123479639D01*
X156083520Y-123466307D01*
X156093069Y-123460794D01*
X156117299Y-123431917D01*
X156124725Y-123423815D01*
X156144246Y-123404294D01*
X156206558Y-123370268D01*
X156233341Y-123367389D01*
X161606001Y-123367389D01*
X161616983Y-123367869D01*
X161643531Y-123370192D01*
X161643533Y-123370192D01*
X161654518Y-123371153D01*
X161690926Y-123361397D01*
X161701653Y-123359019D01*
X161705012Y-123358427D01*
X161738756Y-123352477D01*
X161748301Y-123346966D01*
X161751577Y-123345774D01*
X161754745Y-123344297D01*
X161765395Y-123341443D01*
X161796255Y-123319834D01*
X161805526Y-123313928D01*
X161828617Y-123300596D01*
X161838166Y-123295083D01*
X161862396Y-123266206D01*
X161869822Y-123258104D01*
X163352615Y-121775311D01*
X163360719Y-121767884D01*
X163367205Y-121762441D01*
X163389594Y-121743655D01*
X163401487Y-121723056D01*
X163408439Y-121711015D01*
X163414345Y-121701744D01*
X163429630Y-121679915D01*
X163435954Y-121670884D01*
X163438808Y-121660234D01*
X163440285Y-121657066D01*
X163441477Y-121653790D01*
X163446988Y-121644245D01*
X163453530Y-121607142D01*
X163455909Y-121596411D01*
X163458785Y-121585679D01*
X163462417Y-121572124D01*
X163499367Y-121511504D01*
X163563228Y-121480482D01*
X163633722Y-121488910D01*
X163688469Y-121534112D01*
X163706512Y-121574789D01*
X163723508Y-121644245D01*
X163740206Y-121712485D01*
X163741918Y-121716711D01*
X163741919Y-121716715D01*
X163833154Y-121941962D01*
X163841024Y-121961392D01*
X163976717Y-122193138D01*
X164064140Y-122302455D01*
X164091067Y-122336125D01*
X164144443Y-122402869D01*
X164340688Y-122586191D01*
X164410211Y-122634421D01*
X164557588Y-122736661D01*
X164557593Y-122736664D01*
X164561341Y-122739264D01*
X164565426Y-122741296D01*
X164565429Y-122741298D01*
X164649620Y-122783182D01*
X164801780Y-122858880D01*
X164806114Y-122860301D01*
X164806117Y-122860302D01*
X165052635Y-122941115D01*
X165052640Y-122941116D01*
X165056968Y-122942535D01*
X165201398Y-122967612D01*
X165265092Y-122998973D01*
X165301720Y-123059791D01*
X165305842Y-123091755D01*
X165305842Y-124316200D01*
X165285840Y-124384321D01*
X165232184Y-124430814D01*
X165179842Y-124442200D01*
X136031842Y-124442200D01*
X135963721Y-124422198D01*
X135917228Y-124368542D01*
X135905842Y-124316200D01*
X135905842Y-123094411D01*
X135925844Y-123026290D01*
X135979500Y-122979797D01*
X136004678Y-122971374D01*
X136231462Y-122921305D01*
X136231466Y-122921304D01*
X136235922Y-122920320D01*
X136361488Y-122872747D01*
X136482783Y-122826793D01*
X136482786Y-122826792D01*
X136487053Y-122825175D01*
X136721818Y-122694774D01*
X136864096Y-122586191D01*
X136931675Y-122534617D01*
X136931679Y-122534613D01*
X136935300Y-122531850D01*
X137123027Y-122339814D01*
X137238218Y-122181559D01*
X137278380Y-122126383D01*
X137278382Y-122126380D01*
X137281067Y-122122691D01*
X137382569Y-121929767D01*
X137403982Y-121889068D01*
X137403985Y-121889062D01*
X137406107Y-121885028D01*
X137413740Y-121863415D01*
X137494007Y-121636116D01*
X137494007Y-121636115D01*
X137495530Y-121631803D01*
X137522182Y-121496584D01*
X137546581Y-121372794D01*
X137546582Y-121372788D01*
X137547462Y-121368322D01*
X137547689Y-121363766D01*
X137560587Y-121104674D01*
X137560587Y-121104668D01*
X137560814Y-121100105D01*
X137539289Y-120874495D01*
X140362601Y-120874495D01*
X140362938Y-120881014D01*
X140372857Y-120976606D01*
X140375749Y-120990000D01*
X140427188Y-121144184D01*
X140433361Y-121157362D01*
X140518663Y-121295207D01*
X140527699Y-121306608D01*
X140642429Y-121421139D01*
X140653840Y-121430151D01*
X140791843Y-121515216D01*
X140805024Y-121521363D01*
X140959310Y-121572538D01*
X140972686Y-121575405D01*
X141067038Y-121585072D01*
X141073454Y-121585400D01*
X141098485Y-121585400D01*
X141113724Y-121580925D01*
X141114929Y-121579535D01*
X141116600Y-121571852D01*
X141116600Y-121567284D01*
X141624600Y-121567284D01*
X141629075Y-121582523D01*
X141630465Y-121583728D01*
X141638148Y-121585399D01*
X141667695Y-121585399D01*
X141674214Y-121585062D01*
X141769806Y-121575143D01*
X141783200Y-121572251D01*
X141937384Y-121520812D01*
X141950558Y-121514640D01*
X141977476Y-121497983D01*
X142045928Y-121479145D01*
X142109895Y-121497866D01*
X142138045Y-121515217D01*
X142151224Y-121521363D01*
X142305510Y-121572538D01*
X142318886Y-121575405D01*
X142413238Y-121585072D01*
X142419654Y-121585400D01*
X142444685Y-121585400D01*
X142459924Y-121580925D01*
X142461129Y-121579535D01*
X142462800Y-121571852D01*
X142462800Y-120349515D01*
X142458325Y-120334276D01*
X142456935Y-120333071D01*
X142449252Y-120331400D01*
X141642715Y-120331400D01*
X141627476Y-120335875D01*
X141626271Y-120337265D01*
X141624600Y-120344948D01*
X141624600Y-121567284D01*
X141116600Y-121567284D01*
X141116600Y-120349515D01*
X141112125Y-120334276D01*
X141110735Y-120333071D01*
X141103052Y-120331400D01*
X140380716Y-120331400D01*
X140365477Y-120335875D01*
X140364272Y-120337265D01*
X140362601Y-120344948D01*
X140362601Y-120874495D01*
X137539289Y-120874495D01*
X137535308Y-120832769D01*
X137523264Y-120783546D01*
X137472563Y-120576349D01*
X137471478Y-120571915D01*
X137452883Y-120526005D01*
X137372373Y-120327237D01*
X137372373Y-120327236D01*
X137370660Y-120323008D01*
X137234967Y-120091262D01*
X137124053Y-119952571D01*
X137070093Y-119885097D01*
X137070092Y-119885095D01*
X137067241Y-119881531D01*
X136870996Y-119698209D01*
X136711278Y-119587408D01*
X136654096Y-119547739D01*
X136654091Y-119547736D01*
X136650343Y-119545136D01*
X136646258Y-119543104D01*
X136646255Y-119543102D01*
X136474402Y-119457607D01*
X136409904Y-119425520D01*
X136405570Y-119424099D01*
X136405567Y-119424098D01*
X136159049Y-119343285D01*
X136159044Y-119343284D01*
X136154716Y-119341865D01*
X136010286Y-119316788D01*
X135946592Y-119285427D01*
X135909964Y-119224609D01*
X135905842Y-119192645D01*
X135905842Y-97094411D01*
X135925844Y-97026290D01*
X135979500Y-96979797D01*
X136004678Y-96971374D01*
X136231462Y-96921305D01*
X136231466Y-96921304D01*
X136235922Y-96920320D01*
X136459550Y-96835595D01*
X136482783Y-96826793D01*
X136482786Y-96826792D01*
X136487053Y-96825175D01*
X136721818Y-96694774D01*
X136795581Y-96638480D01*
X136931675Y-96534617D01*
X136931679Y-96534613D01*
X136935300Y-96531850D01*
X136965253Y-96501210D01*
X137083148Y-96380608D01*
X137123027Y-96339814D01*
X137278999Y-96125532D01*
X137335258Y-96082228D01*
X137405999Y-96076215D01*
X137468762Y-96109401D01*
X137503619Y-96171252D01*
X137506869Y-96199683D01*
X137506869Y-102380377D01*
X137506389Y-102391359D01*
X137503105Y-102428894D01*
X137505959Y-102439543D01*
X137512860Y-102465297D01*
X137515239Y-102476029D01*
X137521781Y-102513132D01*
X137527292Y-102522677D01*
X137528484Y-102525953D01*
X137529961Y-102529121D01*
X137532815Y-102539771D01*
X137539139Y-102548802D01*
X137554424Y-102570631D01*
X137560330Y-102579902D01*
X137567719Y-102592700D01*
X137579175Y-102612542D01*
X137587620Y-102619628D01*
X137608044Y-102636766D01*
X137616149Y-102644193D01*
X138092876Y-103120921D01*
X138126901Y-103183233D01*
X138129780Y-103210016D01*
X138129780Y-107245806D01*
X138129300Y-107256788D01*
X138126016Y-107294323D01*
X138128870Y-107304972D01*
X138135771Y-107330726D01*
X138138150Y-107341458D01*
X138144692Y-107378561D01*
X138150203Y-107388106D01*
X138151395Y-107391382D01*
X138152872Y-107394550D01*
X138155726Y-107405200D01*
X138162050Y-107414231D01*
X138177335Y-107436060D01*
X138183241Y-107445331D01*
X138196573Y-107468422D01*
X138202086Y-107477971D01*
X138210531Y-107485057D01*
X138230962Y-107502201D01*
X138239065Y-107509627D01*
X140929995Y-110200557D01*
X140964021Y-110262869D01*
X140966900Y-110289652D01*
X140966900Y-114500519D01*
X140946898Y-114568640D01*
X140893242Y-114615133D01*
X140882652Y-114619401D01*
X140829216Y-114638166D01*
X140821646Y-114643758D01*
X140821643Y-114643759D01*
X140752866Y-114694559D01*
X140720250Y-114718650D01*
X140714658Y-114726221D01*
X140645359Y-114820043D01*
X140645358Y-114820046D01*
X140639766Y-114827616D01*
X140594881Y-114955431D01*
X140591900Y-114986966D01*
X140591900Y-116594634D01*
X140594881Y-116626169D01*
X140597426Y-116633416D01*
X140613608Y-116679497D01*
X140617306Y-116750398D01*
X140582086Y-116812042D01*
X140519129Y-116844859D01*
X140506354Y-116846707D01*
X140442926Y-116852585D01*
X140408689Y-116855758D01*
X140402851Y-116856299D01*
X140206775Y-116912089D01*
X140201562Y-116914685D01*
X140201559Y-116914686D01*
X140167034Y-116931878D01*
X140024289Y-117002958D01*
X139861607Y-117125812D01*
X139857685Y-117130115D01*
X139857681Y-117130118D01*
X139786129Y-117208608D01*
X139724269Y-117276466D01*
X139697884Y-117319079D01*
X139655606Y-117387362D01*
X139616952Y-117449790D01*
X139614850Y-117455216D01*
X139614849Y-117455218D01*
X139546734Y-117631045D01*
X139543310Y-117639883D01*
X139505851Y-117840271D01*
X139505851Y-118044129D01*
X139543310Y-118244517D01*
X139545411Y-118249940D01*
X139545412Y-118249944D01*
X139614849Y-118429182D01*
X139614850Y-118429184D01*
X139616952Y-118434610D01*
X139620015Y-118439557D01*
X139620016Y-118439559D01*
X139670611Y-118521272D01*
X139724269Y-118607934D01*
X139753726Y-118640247D01*
X139857681Y-118754282D01*
X139857685Y-118754285D01*
X139861607Y-118758588D01*
X140024289Y-118881442D01*
X140041263Y-118889894D01*
X140201559Y-118969714D01*
X140201562Y-118969715D01*
X140206775Y-118972311D01*
X140293129Y-118996881D01*
X140353174Y-119034762D01*
X140383209Y-119099093D01*
X140378239Y-119157740D01*
X140375462Y-119166113D01*
X140372595Y-119179486D01*
X140362928Y-119273838D01*
X140362600Y-119280255D01*
X140362600Y-119805285D01*
X140367075Y-119820524D01*
X140368465Y-119821729D01*
X140376148Y-119823400D01*
X141098485Y-119823400D01*
X141113724Y-119818925D01*
X141114929Y-119817535D01*
X141116600Y-119809852D01*
X141116600Y-119168200D01*
X141136602Y-119100079D01*
X141190258Y-119053586D01*
X141242600Y-119042200D01*
X141498600Y-119042200D01*
X141566721Y-119062202D01*
X141613214Y-119115858D01*
X141624600Y-119168200D01*
X141624600Y-119805285D01*
X141629075Y-119820524D01*
X141630465Y-119821729D01*
X141638148Y-119823400D01*
X142444685Y-119823400D01*
X142459924Y-119818925D01*
X142461129Y-119817535D01*
X142462800Y-119809852D01*
X142462800Y-119168200D01*
X142482802Y-119100079D01*
X142536458Y-119053586D01*
X142588800Y-119042200D01*
X142844800Y-119042200D01*
X142912921Y-119062202D01*
X142959414Y-119115858D01*
X142970800Y-119168200D01*
X142970800Y-121567284D01*
X142975275Y-121582523D01*
X142976665Y-121583728D01*
X142984348Y-121585399D01*
X143013895Y-121585399D01*
X143020414Y-121585062D01*
X143116006Y-121575143D01*
X143129400Y-121572251D01*
X143283584Y-121520812D01*
X143296762Y-121514639D01*
X143434607Y-121429337D01*
X143446008Y-121420301D01*
X143565710Y-121300391D01*
X143566767Y-121301446D01*
X143617943Y-121265168D01*
X143688866Y-121261942D01*
X143700645Y-121265443D01*
X143720223Y-121272318D01*
X143727631Y-121274919D01*
X143735277Y-121275642D01*
X143735278Y-121275642D01*
X143741248Y-121276206D01*
X143759166Y-121277900D01*
X144366834Y-121277900D01*
X144384752Y-121276206D01*
X144390722Y-121275642D01*
X144390723Y-121275642D01*
X144398369Y-121274919D01*
X144526184Y-121230034D01*
X144533754Y-121224442D01*
X144533757Y-121224441D01*
X144627579Y-121155142D01*
X144635150Y-121149550D01*
X144681088Y-121087355D01*
X144710041Y-121048157D01*
X144710042Y-121048154D01*
X144715634Y-121040584D01*
X144760519Y-120912769D01*
X144763500Y-120881234D01*
X144763500Y-119273566D01*
X144761666Y-119254166D01*
X144761242Y-119249678D01*
X144761242Y-119249677D01*
X144760519Y-119242031D01*
X144753706Y-119222631D01*
X144740962Y-119186338D01*
X144737264Y-119115438D01*
X144772484Y-119053794D01*
X144825364Y-119023401D01*
X144872834Y-119009896D01*
X144999304Y-118973914D01*
X144999308Y-118973912D01*
X145004912Y-118972318D01*
X145015725Y-118966934D01*
X145182189Y-118884046D01*
X145182191Y-118884045D01*
X145187402Y-118881450D01*
X145270197Y-118818927D01*
X145345438Y-118762109D01*
X145345441Y-118762106D01*
X145350088Y-118758597D01*
X145487429Y-118607942D01*
X145490499Y-118602985D01*
X145591682Y-118439569D01*
X145594749Y-118434616D01*
X145599323Y-118422811D01*
X145663194Y-118257940D01*
X145668393Y-118244521D01*
X145705852Y-118044131D01*
X145705852Y-117840269D01*
X145668393Y-117639879D01*
X145617789Y-117509256D01*
X145596854Y-117455217D01*
X145596853Y-117455215D01*
X145594749Y-117449784D01*
X145539923Y-117361238D01*
X145490495Y-117281409D01*
X145490493Y-117281406D01*
X145487429Y-117276458D01*
X145350088Y-117125803D01*
X145345441Y-117122294D01*
X145345438Y-117122291D01*
X145218251Y-117026246D01*
X145187402Y-117002950D01*
X145182191Y-117000355D01*
X145182189Y-117000354D01*
X145010130Y-116914680D01*
X145010128Y-116914679D01*
X145004912Y-116912082D01*
X144999308Y-116910488D01*
X144999304Y-116910486D01*
X144814438Y-116857890D01*
X144808832Y-116856295D01*
X144803038Y-116855758D01*
X144803032Y-116855757D01*
X144779408Y-116853569D01*
X144768787Y-116852585D01*
X144702803Y-116826384D01*
X144661458Y-116768668D01*
X144657879Y-116697762D01*
X144661528Y-116685374D01*
X144679774Y-116633416D01*
X144682319Y-116626169D01*
X144685300Y-116594634D01*
X144685300Y-114986966D01*
X144682319Y-114955431D01*
X144637434Y-114827616D01*
X144631842Y-114820046D01*
X144631841Y-114820043D01*
X144562542Y-114726221D01*
X144556950Y-114718650D01*
X144524334Y-114694559D01*
X144455557Y-114643759D01*
X144455554Y-114643758D01*
X144447984Y-114638166D01*
X144394551Y-114619402D01*
X144336906Y-114577958D01*
X144310818Y-114511929D01*
X144310300Y-114500519D01*
X144310300Y-111543310D01*
X144310780Y-111532328D01*
X144313103Y-111505780D01*
X144313103Y-111505778D01*
X144314064Y-111494793D01*
X144304308Y-111458385D01*
X144301930Y-111447658D01*
X144301338Y-111444299D01*
X144295388Y-111410555D01*
X144289877Y-111401010D01*
X144288685Y-111397734D01*
X144287208Y-111394566D01*
X144284354Y-111383916D01*
X144262745Y-111353056D01*
X144256839Y-111343785D01*
X144243507Y-111320694D01*
X144237994Y-111311145D01*
X144209117Y-111286915D01*
X144201015Y-111279489D01*
X140130805Y-107209279D01*
X140096779Y-107146967D01*
X140093900Y-107120184D01*
X140093900Y-104218886D01*
X140113902Y-104150765D01*
X140143196Y-104118923D01*
X140190136Y-104082905D01*
X140196682Y-104077882D01*
X140292936Y-103952441D01*
X140353444Y-103806362D01*
X140374082Y-103649600D01*
X140353444Y-103492838D01*
X140292936Y-103346759D01*
X140196682Y-103221318D01*
X140071241Y-103125064D01*
X139925162Y-103064556D01*
X139768400Y-103043918D01*
X139611638Y-103064556D01*
X139465559Y-103125064D01*
X139459008Y-103130091D01*
X139459004Y-103130093D01*
X139433003Y-103150044D01*
X139366783Y-103175644D01*
X139297234Y-103161379D01*
X139246438Y-103111777D01*
X139230300Y-103050081D01*
X139230300Y-102856513D01*
X139230779Y-102845532D01*
X139233103Y-102818970D01*
X139233103Y-102818968D01*
X139234063Y-102807993D01*
X139224308Y-102771583D01*
X139221933Y-102760872D01*
X139217301Y-102734606D01*
X139215388Y-102723755D01*
X139209878Y-102714211D01*
X139208686Y-102710935D01*
X139207207Y-102707764D01*
X139204354Y-102697116D01*
X139182740Y-102666248D01*
X139176836Y-102656979D01*
X139163507Y-102633892D01*
X139163504Y-102633888D01*
X139157994Y-102624345D01*
X139129130Y-102600125D01*
X139121027Y-102592700D01*
X138644294Y-102115968D01*
X138610269Y-102053655D01*
X138607389Y-102026872D01*
X138607389Y-97677694D01*
X141275309Y-97677694D01*
X141280732Y-97736715D01*
X141283343Y-97749751D01*
X141330315Y-97899643D01*
X141336521Y-97913388D01*
X141417424Y-98046974D01*
X141426731Y-98058843D01*
X141537157Y-98169269D01*
X141549026Y-98178576D01*
X141682612Y-98259479D01*
X141696357Y-98265685D01*
X141846244Y-98312656D01*
X141859294Y-98315269D01*
X141923121Y-98321134D01*
X141928909Y-98321400D01*
X141985485Y-98321400D01*
X142000724Y-98316925D01*
X142001929Y-98315535D01*
X142003600Y-98307852D01*
X142003600Y-98303284D01*
X142511600Y-98303284D01*
X142516075Y-98318523D01*
X142517465Y-98319728D01*
X142525148Y-98321399D01*
X142586305Y-98321399D01*
X142592054Y-98321136D01*
X142655915Y-98315268D01*
X142668951Y-98312657D01*
X142818843Y-98265685D01*
X142832586Y-98259480D01*
X142836190Y-98257297D01*
X142839165Y-98256509D01*
X142839513Y-98256352D01*
X142839539Y-98256410D01*
X142904820Y-98239120D01*
X142966730Y-98257299D01*
X143054208Y-98310277D01*
X143067957Y-98316485D01*
X143217844Y-98363456D01*
X143230894Y-98366069D01*
X143294721Y-98371934D01*
X143300509Y-98372200D01*
X143357085Y-98372200D01*
X143372324Y-98367725D01*
X143373529Y-98366335D01*
X143375200Y-98358652D01*
X143375200Y-97736315D01*
X143370725Y-97721076D01*
X143369335Y-97719871D01*
X143361652Y-97718200D01*
X142704028Y-97718200D01*
X142635907Y-97698198D01*
X142621515Y-97687424D01*
X142600335Y-97669071D01*
X142592652Y-97667400D01*
X142529715Y-97667400D01*
X142514476Y-97671875D01*
X142513271Y-97673265D01*
X142511600Y-97680948D01*
X142511600Y-98303284D01*
X142003600Y-98303284D01*
X142003600Y-97685515D01*
X141999125Y-97670276D01*
X141997735Y-97669071D01*
X141990052Y-97667400D01*
X141292716Y-97667400D01*
X141277477Y-97671875D01*
X141276272Y-97673265D01*
X141275309Y-97677694D01*
X138607389Y-97677694D01*
X138607389Y-94210705D01*
X138627391Y-94142584D01*
X138681047Y-94096091D01*
X138751321Y-94085987D01*
X138815901Y-94115481D01*
X138822484Y-94121610D01*
X138914889Y-94214015D01*
X138922316Y-94222119D01*
X138946545Y-94250994D01*
X138956094Y-94256507D01*
X138979185Y-94269839D01*
X138988456Y-94275745D01*
X139019316Y-94297354D01*
X139029966Y-94300208D01*
X139033134Y-94301685D01*
X139036410Y-94302877D01*
X139045955Y-94308388D01*
X139079699Y-94314338D01*
X139083058Y-94314930D01*
X139093785Y-94317308D01*
X139130193Y-94327064D01*
X139141171Y-94326104D01*
X139141176Y-94326104D01*
X139156317Y-94324779D01*
X139225922Y-94338767D01*
X139276915Y-94388166D01*
X139293300Y-94450299D01*
X139293300Y-94672548D01*
X139304933Y-94731031D01*
X139349248Y-94797352D01*
X139415569Y-94841667D01*
X139427738Y-94844088D01*
X139427739Y-94844088D01*
X139460056Y-94850516D01*
X139474052Y-94853300D01*
X140113548Y-94853300D01*
X140159356Y-94844188D01*
X140230069Y-94850516D01*
X140286137Y-94894070D01*
X140293583Y-94905874D01*
X140370515Y-95008524D01*
X140383076Y-95021085D01*
X140485151Y-95097586D01*
X140500746Y-95106124D01*
X140621194Y-95151278D01*
X140636449Y-95154905D01*
X140687314Y-95160431D01*
X140694128Y-95160800D01*
X140791685Y-95160800D01*
X140806924Y-95156325D01*
X140808129Y-95154935D01*
X140809800Y-95147252D01*
X140809800Y-93043915D01*
X140805325Y-93028676D01*
X140803935Y-93027471D01*
X140794018Y-93025314D01*
X140731705Y-92991289D01*
X140697680Y-92928977D01*
X140694800Y-92902193D01*
X140694800Y-92087415D01*
X140690325Y-92072176D01*
X140688935Y-92070971D01*
X140681252Y-92069300D01*
X139708916Y-92069300D01*
X139693677Y-92073775D01*
X139692472Y-92075165D01*
X139690801Y-92082848D01*
X139690801Y-92522469D01*
X139691171Y-92529290D01*
X139696695Y-92580152D01*
X139700321Y-92595404D01*
X139745476Y-92715854D01*
X139754014Y-92731449D01*
X139830515Y-92833524D01*
X139843076Y-92846085D01*
X139935662Y-92915474D01*
X139978177Y-92972333D01*
X139983203Y-93043151D01*
X139949143Y-93105445D01*
X139886812Y-93139435D01*
X139860097Y-93142300D01*
X139474052Y-93142300D01*
X139467984Y-93143507D01*
X139427739Y-93151512D01*
X139427738Y-93151512D01*
X139415569Y-93153933D01*
X139349248Y-93198248D01*
X139304933Y-93264569D01*
X139302512Y-93276738D01*
X139302512Y-93276739D01*
X139297065Y-93304122D01*
X139293300Y-93323052D01*
X139293300Y-93367584D01*
X139273298Y-93435705D01*
X139219642Y-93482198D01*
X139149368Y-93492302D01*
X139084788Y-93462808D01*
X139078205Y-93456679D01*
X138085494Y-92463968D01*
X138051468Y-92401656D01*
X138048589Y-92374873D01*
X138048589Y-91543185D01*
X139690800Y-91543185D01*
X139695275Y-91558424D01*
X139696665Y-91559629D01*
X139704348Y-91561300D01*
X140676685Y-91561300D01*
X140691924Y-91556825D01*
X140693129Y-91555435D01*
X140694800Y-91547752D01*
X140694800Y-91543185D01*
X141202800Y-91543185D01*
X141207275Y-91558424D01*
X141208665Y-91559629D01*
X141216348Y-91561300D01*
X142176685Y-91561300D01*
X142191924Y-91556825D01*
X142193129Y-91555435D01*
X142194800Y-91547752D01*
X142194800Y-91543185D01*
X142702800Y-91543185D01*
X142707275Y-91558424D01*
X142708665Y-91559629D01*
X142716348Y-91561300D01*
X143688684Y-91561300D01*
X143703923Y-91556825D01*
X143705128Y-91555435D01*
X143706799Y-91547752D01*
X143706799Y-91200907D01*
X143706800Y-91200871D01*
X143706800Y-91010669D01*
X145347843Y-91010669D01*
X145348213Y-91017490D01*
X145353737Y-91068352D01*
X145357363Y-91083604D01*
X145402518Y-91204054D01*
X145411056Y-91219649D01*
X145487557Y-91321724D01*
X145500118Y-91334285D01*
X145602193Y-91410786D01*
X145617788Y-91419324D01*
X145738236Y-91464478D01*
X145753491Y-91468105D01*
X145804356Y-91473631D01*
X145811170Y-91474000D01*
X146358727Y-91474000D01*
X146373966Y-91469525D01*
X146375171Y-91468135D01*
X146376842Y-91460452D01*
X146376842Y-91455884D01*
X146884842Y-91455884D01*
X146889317Y-91471123D01*
X146890707Y-91472328D01*
X146898390Y-91473999D01*
X147450511Y-91473999D01*
X147457332Y-91473629D01*
X147508194Y-91468105D01*
X147523446Y-91464479D01*
X147643896Y-91419324D01*
X147659491Y-91410786D01*
X147761566Y-91334285D01*
X147774127Y-91321724D01*
X147850628Y-91219649D01*
X147859166Y-91204054D01*
X147904320Y-91083606D01*
X147907947Y-91068351D01*
X147913473Y-91017486D01*
X147913842Y-91010672D01*
X147913842Y-90588115D01*
X147909367Y-90572876D01*
X147907977Y-90571671D01*
X147900294Y-90570000D01*
X146902957Y-90570000D01*
X146887718Y-90574475D01*
X146886513Y-90575865D01*
X146884842Y-90583548D01*
X146884842Y-91455884D01*
X146376842Y-91455884D01*
X146376842Y-90588115D01*
X146372367Y-90572876D01*
X146370977Y-90571671D01*
X146363294Y-90570000D01*
X145365958Y-90570000D01*
X145350719Y-90574475D01*
X145349514Y-90575865D01*
X145347843Y-90583548D01*
X145347843Y-91010669D01*
X143706800Y-91010669D01*
X143706800Y-90762415D01*
X143702325Y-90747176D01*
X143700935Y-90745971D01*
X143693252Y-90744300D01*
X142720915Y-90744300D01*
X142705676Y-90748775D01*
X142704471Y-90750165D01*
X142702800Y-90757848D01*
X142702800Y-91543185D01*
X142194800Y-91543185D01*
X142194800Y-90762415D01*
X142190325Y-90747176D01*
X142188935Y-90745971D01*
X142181252Y-90744300D01*
X141220915Y-90744300D01*
X141205676Y-90748775D01*
X141204471Y-90750165D01*
X141202800Y-90757848D01*
X141202800Y-91543185D01*
X140694800Y-91543185D01*
X140694800Y-90762415D01*
X140690325Y-90747176D01*
X140688935Y-90745971D01*
X140681252Y-90744300D01*
X139708916Y-90744300D01*
X139693677Y-90748775D01*
X139692472Y-90750165D01*
X139690801Y-90757848D01*
X139690801Y-91104693D01*
X139690800Y-91104729D01*
X139690800Y-91543185D01*
X138048589Y-91543185D01*
X138048589Y-88930474D01*
X138068591Y-88862353D01*
X138122247Y-88815860D01*
X138192521Y-88805756D01*
X138222807Y-88814065D01*
X138283208Y-88839084D01*
X138283211Y-88839085D01*
X138290838Y-88842244D01*
X138447600Y-88862882D01*
X138455788Y-88861804D01*
X138596174Y-88843322D01*
X138604362Y-88842244D01*
X138750441Y-88781736D01*
X138843922Y-88710006D01*
X138869331Y-88690509D01*
X138869332Y-88690508D01*
X138875882Y-88685482D01*
X138880910Y-88678929D01*
X138886747Y-88673092D01*
X138888588Y-88674932D01*
X138935447Y-88640724D01*
X138978059Y-88633300D01*
X139142300Y-88633300D01*
X139210421Y-88653302D01*
X139256914Y-88706958D01*
X139268300Y-88759300D01*
X139268300Y-88982548D01*
X139269507Y-88988616D01*
X139277258Y-89027581D01*
X139279933Y-89041031D01*
X139324248Y-89107352D01*
X139390569Y-89151667D01*
X139402738Y-89154088D01*
X139402739Y-89154088D01*
X139436871Y-89160877D01*
X139449052Y-89163300D01*
X139860097Y-89163300D01*
X139928218Y-89183302D01*
X139974711Y-89236958D01*
X139984815Y-89307232D01*
X139955321Y-89371812D01*
X139935662Y-89390126D01*
X139843076Y-89459515D01*
X139830515Y-89472076D01*
X139754014Y-89574151D01*
X139745476Y-89589746D01*
X139700322Y-89710194D01*
X139696695Y-89725449D01*
X139691169Y-89776314D01*
X139690800Y-89783128D01*
X139690800Y-90218185D01*
X139695275Y-90233424D01*
X139696665Y-90234629D01*
X139704348Y-90236300D01*
X143688684Y-90236300D01*
X143703923Y-90231825D01*
X143705128Y-90230435D01*
X143706799Y-90222752D01*
X143706799Y-90043885D01*
X145347842Y-90043885D01*
X145352317Y-90059124D01*
X145353707Y-90060329D01*
X145361390Y-90062000D01*
X146358727Y-90062000D01*
X146373966Y-90057525D01*
X146375171Y-90056135D01*
X146376842Y-90048452D01*
X146376842Y-90043885D01*
X146884842Y-90043885D01*
X146889317Y-90059124D01*
X146890707Y-90060329D01*
X146898390Y-90062000D01*
X147895726Y-90062000D01*
X147910965Y-90057525D01*
X147912170Y-90056135D01*
X147913841Y-90048452D01*
X147913841Y-89621331D01*
X147913471Y-89614510D01*
X147907947Y-89563648D01*
X147904321Y-89548396D01*
X147859166Y-89427946D01*
X147850628Y-89412351D01*
X147774127Y-89310276D01*
X147761566Y-89297715D01*
X147659491Y-89221214D01*
X147643896Y-89212676D01*
X147523448Y-89167522D01*
X147508193Y-89163895D01*
X147457328Y-89158369D01*
X147450514Y-89158000D01*
X146902957Y-89158000D01*
X146887718Y-89162475D01*
X146886513Y-89163865D01*
X146884842Y-89171548D01*
X146884842Y-90043885D01*
X146376842Y-90043885D01*
X146376842Y-89176116D01*
X146372367Y-89160877D01*
X146370977Y-89159672D01*
X146363294Y-89158001D01*
X145811173Y-89158001D01*
X145804352Y-89158371D01*
X145753490Y-89163895D01*
X145738238Y-89167521D01*
X145617788Y-89212676D01*
X145602193Y-89221214D01*
X145500118Y-89297715D01*
X145487557Y-89310276D01*
X145411056Y-89412351D01*
X145402518Y-89427946D01*
X145357364Y-89548394D01*
X145353737Y-89563649D01*
X145348211Y-89614514D01*
X145347842Y-89621328D01*
X145347842Y-90043885D01*
X143706799Y-90043885D01*
X143706799Y-89783131D01*
X143706429Y-89776310D01*
X143700905Y-89725448D01*
X143697279Y-89710196D01*
X143652124Y-89589746D01*
X143643586Y-89574151D01*
X143567085Y-89472076D01*
X143554524Y-89459515D01*
X143461938Y-89390126D01*
X143419423Y-89333267D01*
X143414397Y-89262449D01*
X143448457Y-89200155D01*
X143510788Y-89166165D01*
X143537503Y-89163300D01*
X143948548Y-89163300D01*
X143960729Y-89160877D01*
X143994861Y-89154088D01*
X143994862Y-89154088D01*
X144007031Y-89151667D01*
X144073352Y-89107352D01*
X144117667Y-89041031D01*
X144120343Y-89027581D01*
X144128093Y-88988616D01*
X144129300Y-88982548D01*
X144129300Y-87633052D01*
X144117667Y-87574569D01*
X144073352Y-87508248D01*
X144021482Y-87473589D01*
X144017350Y-87470828D01*
X144007031Y-87463933D01*
X144002746Y-87463081D01*
X143951802Y-87422029D01*
X143929300Y-87350166D01*
X143929300Y-86930710D01*
X143929780Y-86919728D01*
X143932103Y-86893175D01*
X143932103Y-86893170D01*
X143933063Y-86882193D01*
X143930211Y-86871549D01*
X143929780Y-86866622D01*
X143929300Y-86855640D01*
X143929300Y-86700488D01*
X143949302Y-86632367D01*
X144002958Y-86585874D01*
X144073232Y-86575770D01*
X144097047Y-86581605D01*
X144182231Y-86611519D01*
X144189877Y-86612242D01*
X144189878Y-86612242D01*
X144195848Y-86612806D01*
X144213766Y-86614500D01*
X144971434Y-86614500D01*
X144989352Y-86612806D01*
X144995322Y-86612242D01*
X144995323Y-86612242D01*
X145002969Y-86611519D01*
X145130784Y-86566634D01*
X145138354Y-86561042D01*
X145138357Y-86561041D01*
X145232179Y-86491742D01*
X145239750Y-86486150D01*
X145292023Y-86415379D01*
X145314641Y-86384757D01*
X145314642Y-86384754D01*
X145320234Y-86377184D01*
X145365119Y-86249369D01*
X145368100Y-86217834D01*
X145368100Y-86211095D01*
X146459601Y-86211095D01*
X146459938Y-86217614D01*
X146469857Y-86313206D01*
X146472749Y-86326600D01*
X146524188Y-86480784D01*
X146530361Y-86493962D01*
X146615663Y-86631807D01*
X146624699Y-86643208D01*
X146739429Y-86757739D01*
X146750840Y-86766751D01*
X146888843Y-86851816D01*
X146902024Y-86857963D01*
X147056310Y-86909138D01*
X147069686Y-86912005D01*
X147164038Y-86921672D01*
X147170454Y-86922000D01*
X147270485Y-86922000D01*
X147285724Y-86917525D01*
X147286929Y-86916135D01*
X147288600Y-86908452D01*
X147288600Y-86903884D01*
X147796600Y-86903884D01*
X147801075Y-86919123D01*
X147802465Y-86920328D01*
X147810148Y-86921999D01*
X147914695Y-86921999D01*
X147921214Y-86921662D01*
X148016806Y-86911743D01*
X148030200Y-86908851D01*
X148184384Y-86857412D01*
X148197562Y-86851239D01*
X148335407Y-86765937D01*
X148346808Y-86756901D01*
X148461339Y-86642171D01*
X148470351Y-86630760D01*
X148555416Y-86492757D01*
X148561563Y-86479576D01*
X148612738Y-86325290D01*
X148615605Y-86311914D01*
X148625272Y-86217562D01*
X148625600Y-86211146D01*
X148625600Y-85786115D01*
X148621125Y-85770876D01*
X148619735Y-85769671D01*
X148612052Y-85768000D01*
X147814715Y-85768000D01*
X147799476Y-85772475D01*
X147798271Y-85773865D01*
X147796600Y-85781548D01*
X147796600Y-86903884D01*
X147288600Y-86903884D01*
X147288600Y-85786115D01*
X147284125Y-85770876D01*
X147282735Y-85769671D01*
X147275052Y-85768000D01*
X146477716Y-85768000D01*
X146462477Y-85772475D01*
X146461272Y-85773865D01*
X146459601Y-85781548D01*
X146459601Y-86211095D01*
X145368100Y-86211095D01*
X145368100Y-84810166D01*
X145365119Y-84778631D01*
X145320234Y-84650816D01*
X145314642Y-84643246D01*
X145314641Y-84643243D01*
X145245342Y-84549421D01*
X145239750Y-84541850D01*
X145176433Y-84495083D01*
X145138357Y-84466959D01*
X145138354Y-84466958D01*
X145130784Y-84461366D01*
X145002969Y-84416481D01*
X144995323Y-84415758D01*
X144995322Y-84415758D01*
X144989352Y-84415194D01*
X144971434Y-84413500D01*
X144213766Y-84413500D01*
X144195848Y-84415194D01*
X144189878Y-84415758D01*
X144189877Y-84415758D01*
X144182231Y-84416481D01*
X144054416Y-84461366D01*
X144046846Y-84466958D01*
X144046843Y-84466959D01*
X144008767Y-84495083D01*
X143945450Y-84541850D01*
X143939858Y-84549421D01*
X143870559Y-84643243D01*
X143870558Y-84643246D01*
X143864966Y-84650816D01*
X143820081Y-84778631D01*
X143817100Y-84810166D01*
X143817100Y-85062500D01*
X143797098Y-85130621D01*
X143743442Y-85177114D01*
X143691100Y-85188500D01*
X138365713Y-85188500D01*
X138354732Y-85188021D01*
X138328170Y-85185697D01*
X138328168Y-85185697D01*
X138317193Y-85184737D01*
X138280783Y-85194492D01*
X138270076Y-85196866D01*
X138232955Y-85203412D01*
X138223411Y-85208922D01*
X138220135Y-85210114D01*
X138216964Y-85211593D01*
X138206316Y-85214446D01*
X138197287Y-85220768D01*
X138175449Y-85236059D01*
X138166179Y-85241964D01*
X138143092Y-85255293D01*
X138143088Y-85255296D01*
X138133545Y-85260806D01*
X138126460Y-85269250D01*
X138109325Y-85289670D01*
X138101900Y-85297773D01*
X137861210Y-85538464D01*
X137814165Y-85585509D01*
X137751852Y-85619534D01*
X137681037Y-85614470D01*
X137624201Y-85571923D01*
X137599390Y-85505403D01*
X137599069Y-85496414D01*
X137599069Y-83496469D01*
X138108843Y-83496469D01*
X138109213Y-83503290D01*
X138114737Y-83554152D01*
X138118363Y-83569404D01*
X138163518Y-83689854D01*
X138172056Y-83705449D01*
X138248557Y-83807524D01*
X138261118Y-83820085D01*
X138363193Y-83896586D01*
X138378788Y-83905124D01*
X138499236Y-83950278D01*
X138514491Y-83953905D01*
X138565356Y-83959431D01*
X138572170Y-83959800D01*
X139119727Y-83959800D01*
X139134966Y-83955325D01*
X139136171Y-83953935D01*
X139137842Y-83946252D01*
X139137842Y-83941684D01*
X139645842Y-83941684D01*
X139650317Y-83956923D01*
X139651707Y-83958128D01*
X139659390Y-83959799D01*
X140211511Y-83959799D01*
X140218332Y-83959429D01*
X140269194Y-83953905D01*
X140284446Y-83950279D01*
X140404896Y-83905124D01*
X140420491Y-83896586D01*
X140522566Y-83820085D01*
X140535127Y-83807524D01*
X140611628Y-83705449D01*
X140620166Y-83689854D01*
X140665320Y-83569406D01*
X140668947Y-83554151D01*
X140674473Y-83503286D01*
X140674842Y-83496472D01*
X140674842Y-83073915D01*
X140670367Y-83058676D01*
X140668977Y-83057471D01*
X140661294Y-83055800D01*
X139663957Y-83055800D01*
X139648718Y-83060275D01*
X139647513Y-83061665D01*
X139645842Y-83069348D01*
X139645842Y-83941684D01*
X139137842Y-83941684D01*
X139137842Y-83073915D01*
X139133367Y-83058676D01*
X139131977Y-83057471D01*
X139124294Y-83055800D01*
X138126958Y-83055800D01*
X138111719Y-83060275D01*
X138110514Y-83061665D01*
X138108843Y-83069348D01*
X138108843Y-83496469D01*
X137599069Y-83496469D01*
X137599069Y-82529685D01*
X138108842Y-82529685D01*
X138113317Y-82544924D01*
X138114707Y-82546129D01*
X138122390Y-82547800D01*
X139119727Y-82547800D01*
X139134966Y-82543325D01*
X139136171Y-82541935D01*
X139137842Y-82534252D01*
X139137842Y-82529685D01*
X139645842Y-82529685D01*
X139650317Y-82544924D01*
X139651707Y-82546129D01*
X139659390Y-82547800D01*
X140656726Y-82547800D01*
X140671965Y-82543325D01*
X140673170Y-82541935D01*
X140674841Y-82534252D01*
X140674841Y-82529685D01*
X146058842Y-82529685D01*
X146063317Y-82544924D01*
X146064707Y-82546129D01*
X146072390Y-82547800D01*
X147069727Y-82547800D01*
X147084966Y-82543325D01*
X147086171Y-82541935D01*
X147087842Y-82534252D01*
X147087842Y-81661916D01*
X147083367Y-81646677D01*
X147081977Y-81645472D01*
X147074294Y-81643801D01*
X146522173Y-81643801D01*
X146515352Y-81644171D01*
X146464490Y-81649695D01*
X146449238Y-81653321D01*
X146328788Y-81698476D01*
X146313193Y-81707014D01*
X146211118Y-81783515D01*
X146198557Y-81796076D01*
X146122056Y-81898151D01*
X146113518Y-81913746D01*
X146068364Y-82034194D01*
X146064737Y-82049449D01*
X146059211Y-82100314D01*
X146058842Y-82107128D01*
X146058842Y-82529685D01*
X140674841Y-82529685D01*
X140674841Y-82107131D01*
X140674471Y-82100310D01*
X140668947Y-82049448D01*
X140665321Y-82034196D01*
X140620166Y-81913746D01*
X140611628Y-81898151D01*
X140535127Y-81796076D01*
X140522566Y-81783515D01*
X140420491Y-81707014D01*
X140404896Y-81698476D01*
X140284448Y-81653322D01*
X140269193Y-81649695D01*
X140218328Y-81644169D01*
X140211514Y-81643800D01*
X139663957Y-81643800D01*
X139648718Y-81648275D01*
X139647513Y-81649665D01*
X139645842Y-81657348D01*
X139645842Y-82529685D01*
X139137842Y-82529685D01*
X139137842Y-81661916D01*
X139133367Y-81646677D01*
X139131977Y-81645472D01*
X139124294Y-81643801D01*
X138572173Y-81643801D01*
X138565352Y-81644171D01*
X138514490Y-81649695D01*
X138499238Y-81653321D01*
X138378788Y-81698476D01*
X138363193Y-81707014D01*
X138261118Y-81783515D01*
X138248557Y-81796076D01*
X138172056Y-81898151D01*
X138163518Y-81913746D01*
X138118364Y-82034194D01*
X138114737Y-82049449D01*
X138109211Y-82100314D01*
X138108842Y-82107128D01*
X138108842Y-82529685D01*
X137599069Y-82529685D01*
X137599069Y-81310159D01*
X137619071Y-81242038D01*
X137672727Y-81195545D01*
X137743001Y-81185441D01*
X137788068Y-81201039D01*
X137810578Y-81214035D01*
X137819848Y-81219940D01*
X137850716Y-81241554D01*
X137861364Y-81244407D01*
X137864535Y-81245886D01*
X137867811Y-81247078D01*
X137877355Y-81252588D01*
X137914476Y-81259134D01*
X137925183Y-81261508D01*
X137961593Y-81271263D01*
X137972568Y-81270303D01*
X137972570Y-81270303D01*
X137999131Y-81267979D01*
X138010112Y-81267500D01*
X148064984Y-81267500D01*
X148133105Y-81287502D01*
X148154079Y-81304405D01*
X148280515Y-81430841D01*
X148314541Y-81493153D01*
X148309476Y-81563968D01*
X148266929Y-81620804D01*
X148200409Y-81645615D01*
X148177815Y-81645199D01*
X148168335Y-81644169D01*
X148161514Y-81643800D01*
X147613957Y-81643800D01*
X147598718Y-81648275D01*
X147597513Y-81649665D01*
X147595842Y-81657348D01*
X147595842Y-82929800D01*
X147575840Y-82997921D01*
X147522184Y-83044414D01*
X147469842Y-83055800D01*
X146076958Y-83055800D01*
X146061719Y-83060275D01*
X146060514Y-83061665D01*
X146058843Y-83069348D01*
X146058843Y-83496469D01*
X146059213Y-83503290D01*
X146064737Y-83554152D01*
X146068363Y-83569404D01*
X146113518Y-83689854D01*
X146122056Y-83705449D01*
X146198557Y-83807524D01*
X146211118Y-83820085D01*
X146313193Y-83896586D01*
X146328788Y-83905124D01*
X146449236Y-83950278D01*
X146464491Y-83953905D01*
X146515356Y-83959431D01*
X146522170Y-83959800D01*
X146795184Y-83959800D01*
X146863305Y-83979802D01*
X146909798Y-84033458D01*
X146919902Y-84103732D01*
X146890408Y-84168312D01*
X146861487Y-84192944D01*
X146749793Y-84262063D01*
X146738392Y-84271099D01*
X146623861Y-84385829D01*
X146614849Y-84397240D01*
X146529784Y-84535243D01*
X146523637Y-84548424D01*
X146472462Y-84702710D01*
X146469595Y-84716086D01*
X146459928Y-84810438D01*
X146459600Y-84816855D01*
X146459600Y-85241885D01*
X146464075Y-85257124D01*
X146465465Y-85258329D01*
X146473148Y-85260000D01*
X148607484Y-85260000D01*
X148622723Y-85255525D01*
X148623928Y-85254135D01*
X148625599Y-85246452D01*
X148625599Y-84816905D01*
X148625262Y-84810386D01*
X148615343Y-84714794D01*
X148612450Y-84701397D01*
X148594000Y-84646093D01*
X148591416Y-84575144D01*
X148627600Y-84514060D01*
X148691064Y-84482236D01*
X148761660Y-84489775D01*
X148802619Y-84517123D01*
X149392800Y-85107304D01*
X149400227Y-85115408D01*
X149424456Y-85144283D01*
X149434005Y-85149796D01*
X149457096Y-85163128D01*
X149466367Y-85169034D01*
X149497227Y-85190643D01*
X149507877Y-85193497D01*
X149511045Y-85194974D01*
X149514321Y-85196166D01*
X149523866Y-85201677D01*
X149557610Y-85207627D01*
X149560969Y-85208219D01*
X149571696Y-85210597D01*
X149608104Y-85220353D01*
X149619080Y-85219393D01*
X149619083Y-85219393D01*
X149645654Y-85217068D01*
X149656635Y-85216589D01*
X149864726Y-85216589D01*
X149932847Y-85236591D01*
X149979340Y-85290247D01*
X149989444Y-85360521D01*
X149981135Y-85390807D01*
X149958155Y-85446287D01*
X149952956Y-85458838D01*
X149932318Y-85615600D01*
X149952956Y-85772362D01*
X150013464Y-85918441D01*
X150109718Y-86043882D01*
X150235159Y-86140136D01*
X150381238Y-86200644D01*
X150389426Y-86201722D01*
X150434272Y-86207626D01*
X150538000Y-86221282D01*
X150546188Y-86220204D01*
X150686574Y-86201722D01*
X150694762Y-86200644D01*
X150840841Y-86140136D01*
X150966282Y-86043882D01*
X151062536Y-85918441D01*
X151123044Y-85772362D01*
X151143682Y-85615600D01*
X151134882Y-85548757D01*
X151145821Y-85478610D01*
X151170709Y-85443217D01*
X151702721Y-84911205D01*
X151765033Y-84877179D01*
X151791816Y-84874300D01*
X154937890Y-84874300D01*
X154948872Y-84874780D01*
X154975420Y-84877103D01*
X154975422Y-84877103D01*
X154986407Y-84878064D01*
X155022815Y-84868308D01*
X155033542Y-84865930D01*
X155036901Y-84865338D01*
X155070645Y-84859388D01*
X155080190Y-84853877D01*
X155083466Y-84852685D01*
X155086634Y-84851208D01*
X155097284Y-84848354D01*
X155128144Y-84826745D01*
X155137415Y-84820839D01*
X155160506Y-84807507D01*
X155170055Y-84801994D01*
X155194285Y-84773117D01*
X155201711Y-84765015D01*
X156578476Y-83388251D01*
X156633498Y-83356484D01*
X156638362Y-83355844D01*
X156784441Y-83295336D01*
X156893795Y-83211426D01*
X156903336Y-83204105D01*
X156909882Y-83199082D01*
X157006136Y-83073641D01*
X157066644Y-82927562D01*
X157087282Y-82770800D01*
X157066644Y-82614038D01*
X157006136Y-82467959D01*
X156909882Y-82342518D01*
X156784441Y-82246264D01*
X156638362Y-82185756D01*
X156481600Y-82165118D01*
X156324838Y-82185756D01*
X156178759Y-82246264D01*
X156053318Y-82342518D01*
X155957064Y-82467959D01*
X155896556Y-82614038D01*
X155875918Y-82770800D01*
X155896556Y-82927562D01*
X155899715Y-82935189D01*
X155899716Y-82935192D01*
X155929347Y-83006727D01*
X155936936Y-83077317D01*
X155902035Y-83144038D01*
X155317445Y-83728629D01*
X155255135Y-83762652D01*
X155184320Y-83757588D01*
X155127484Y-83715041D01*
X155102673Y-83648521D01*
X155110370Y-83595303D01*
X155128625Y-83546609D01*
X155132252Y-83531351D01*
X155137778Y-83480486D01*
X155138147Y-83473672D01*
X155138147Y-83051115D01*
X155133672Y-83035876D01*
X155132282Y-83034671D01*
X155124599Y-83033000D01*
X154127262Y-83033000D01*
X154112023Y-83037475D01*
X154110818Y-83038865D01*
X154109147Y-83046548D01*
X154109147Y-83918884D01*
X154113622Y-83934123D01*
X154115012Y-83935328D01*
X154122695Y-83936999D01*
X154674816Y-83936999D01*
X154681637Y-83936629D01*
X154732499Y-83931105D01*
X154747753Y-83927478D01*
X154796450Y-83909223D01*
X154867257Y-83904040D01*
X154929626Y-83937961D01*
X154963755Y-84000216D01*
X154958808Y-84071041D01*
X154929774Y-84116300D01*
X154859679Y-84186395D01*
X154797367Y-84220421D01*
X154770584Y-84223300D01*
X152059098Y-84223300D01*
X151990977Y-84203298D01*
X151944484Y-84149642D01*
X151934380Y-84079368D01*
X151963874Y-84014788D01*
X151970003Y-84008205D01*
X152402370Y-83575838D01*
X152464682Y-83541812D01*
X152535497Y-83546877D01*
X152592333Y-83589424D01*
X152609447Y-83620704D01*
X152626822Y-83667052D01*
X152635361Y-83682649D01*
X152711862Y-83784724D01*
X152724423Y-83797285D01*
X152826498Y-83873786D01*
X152842093Y-83882324D01*
X152962541Y-83927478D01*
X152977796Y-83931105D01*
X153028661Y-83936631D01*
X153035475Y-83937000D01*
X153583032Y-83937000D01*
X153598271Y-83932525D01*
X153599476Y-83931135D01*
X153601147Y-83923452D01*
X153601147Y-82651000D01*
X153621149Y-82582879D01*
X153674805Y-82536386D01*
X153727147Y-82525000D01*
X155120031Y-82525000D01*
X155135270Y-82520525D01*
X155136475Y-82519135D01*
X155138146Y-82511452D01*
X155138146Y-82084331D01*
X155137776Y-82077510D01*
X155132252Y-82026648D01*
X155128626Y-82011396D01*
X155083471Y-81890946D01*
X155074933Y-81875351D01*
X154998432Y-81773276D01*
X154985871Y-81760715D01*
X154883796Y-81684214D01*
X154868201Y-81675676D01*
X154747753Y-81630522D01*
X154732498Y-81626895D01*
X154681633Y-81621369D01*
X154674819Y-81621000D01*
X154128715Y-81621001D01*
X154060594Y-81600999D01*
X154014101Y-81547344D01*
X154003997Y-81477070D01*
X154033490Y-81412489D01*
X154039620Y-81405906D01*
X154563916Y-80881611D01*
X155207922Y-80237605D01*
X155270234Y-80203579D01*
X155297017Y-80200700D01*
X156089670Y-80200700D01*
X156157791Y-80220702D01*
G37*
G04 #@! TD.AperFunction*
G04 #@! TA.AperFunction,Conductor*
G36*
X159504812Y-83816392D02*
G01*
X159511395Y-83822521D01*
X161571489Y-85882615D01*
X161578916Y-85890719D01*
X161603145Y-85919594D01*
X161612694Y-85925107D01*
X161635785Y-85938439D01*
X161645056Y-85944345D01*
X161675916Y-85965954D01*
X161686566Y-85968808D01*
X161689734Y-85970285D01*
X161693010Y-85971477D01*
X161702555Y-85976988D01*
X161734112Y-85982552D01*
X161739658Y-85983530D01*
X161750385Y-85985908D01*
X161786793Y-85995664D01*
X161797778Y-85994703D01*
X161797780Y-85994703D01*
X161824328Y-85992380D01*
X161835310Y-85991900D01*
X162034983Y-85991900D01*
X162103104Y-86011902D01*
X162124079Y-86028805D01*
X162215196Y-86119923D01*
X162249221Y-86182235D01*
X162252100Y-86209018D01*
X162252100Y-87200481D01*
X162232098Y-87268602D01*
X162178442Y-87315095D01*
X162108168Y-87325199D01*
X162049397Y-87300444D01*
X162023396Y-87280493D01*
X162023392Y-87280491D01*
X162016841Y-87275464D01*
X161870762Y-87214956D01*
X161855837Y-87212991D01*
X161722188Y-87195396D01*
X161714000Y-87194318D01*
X161705812Y-87195396D01*
X161572164Y-87212991D01*
X161557238Y-87214956D01*
X161411159Y-87275464D01*
X161285718Y-87371718D01*
X161280695Y-87378264D01*
X161244677Y-87425204D01*
X161187339Y-87467071D01*
X161144714Y-87474500D01*
X160412913Y-87474500D01*
X160401932Y-87474021D01*
X160375370Y-87471697D01*
X160375368Y-87471697D01*
X160364393Y-87470737D01*
X160327983Y-87480492D01*
X160317276Y-87482866D01*
X160280155Y-87489412D01*
X160270611Y-87494922D01*
X160267335Y-87496114D01*
X160264164Y-87497593D01*
X160253516Y-87500446D01*
X160244487Y-87506768D01*
X160222649Y-87522059D01*
X160213379Y-87527964D01*
X160190292Y-87541293D01*
X160190288Y-87541296D01*
X160180745Y-87546806D01*
X160173660Y-87555250D01*
X160156520Y-87575676D01*
X160149094Y-87583779D01*
X158881584Y-88851290D01*
X158873481Y-88858716D01*
X158844606Y-88882945D01*
X158839093Y-88892494D01*
X158825761Y-88915585D01*
X158819855Y-88924856D01*
X158798246Y-88955716D01*
X158795392Y-88966366D01*
X158793915Y-88969534D01*
X158792723Y-88972810D01*
X158787212Y-88982355D01*
X158781790Y-89013109D01*
X158780670Y-89019458D01*
X158778292Y-89030185D01*
X158768536Y-89066593D01*
X158769497Y-89077578D01*
X158769497Y-89077580D01*
X158771820Y-89104128D01*
X158772300Y-89115110D01*
X158772300Y-89341751D01*
X158752298Y-89409872D01*
X158698642Y-89456365D01*
X158628368Y-89466469D01*
X158569596Y-89441714D01*
X158502364Y-89390126D01*
X158460841Y-89358264D01*
X158314762Y-89297756D01*
X158158000Y-89277118D01*
X158001238Y-89297756D01*
X157855159Y-89358264D01*
X157799501Y-89400972D01*
X157746405Y-89441714D01*
X157729718Y-89454518D01*
X157633464Y-89579959D01*
X157572956Y-89726038D01*
X157552318Y-89882800D01*
X157553396Y-89890988D01*
X157561118Y-89949642D01*
X157550179Y-90019790D01*
X157525291Y-90055183D01*
X155062879Y-92517595D01*
X155000567Y-92551621D01*
X154973784Y-92554500D01*
X153859710Y-92554500D01*
X153848728Y-92554020D01*
X153822180Y-92551697D01*
X153822178Y-92551697D01*
X153811193Y-92550736D01*
X153774785Y-92560492D01*
X153764058Y-92562870D01*
X153760699Y-92563462D01*
X153726955Y-92569412D01*
X153717410Y-92574923D01*
X153714134Y-92576115D01*
X153710966Y-92577592D01*
X153700316Y-92580446D01*
X153677639Y-92596325D01*
X153669456Y-92602055D01*
X153660185Y-92607961D01*
X153637094Y-92621293D01*
X153627545Y-92626806D01*
X153620459Y-92635251D01*
X153603315Y-92655682D01*
X153595889Y-92663785D01*
X152894783Y-93364891D01*
X152832471Y-93398917D01*
X152789243Y-93400718D01*
X152722400Y-93391918D01*
X152565638Y-93412556D01*
X152419559Y-93473064D01*
X152294118Y-93569318D01*
X152197864Y-93694759D01*
X152137356Y-93840838D01*
X152136278Y-93849026D01*
X152128624Y-93907166D01*
X152116718Y-93997600D01*
X152137356Y-94154362D01*
X152197864Y-94300441D01*
X152200203Y-94303489D01*
X152216458Y-94370494D01*
X152193238Y-94437586D01*
X152137432Y-94481474D01*
X152090601Y-94490500D01*
X147732342Y-94490500D01*
X147664221Y-94470498D01*
X147617728Y-94416842D01*
X147606342Y-94364500D01*
X147606342Y-94146252D01*
X147602304Y-94125953D01*
X147597130Y-94099939D01*
X147597130Y-94099938D01*
X147594709Y-94087769D01*
X147550394Y-94021448D01*
X147484073Y-93977133D01*
X147471904Y-93974712D01*
X147471903Y-93974712D01*
X147431658Y-93966707D01*
X147425590Y-93965500D01*
X145836094Y-93965500D01*
X145830026Y-93966707D01*
X145789781Y-93974712D01*
X145789780Y-93974712D01*
X145777611Y-93977133D01*
X145711290Y-94021448D01*
X145666975Y-94087769D01*
X145664554Y-94099938D01*
X145664554Y-94099939D01*
X145659380Y-94125953D01*
X145655342Y-94146252D01*
X145655342Y-95485748D01*
X145656549Y-95491816D01*
X145664519Y-95531882D01*
X145666975Y-95544231D01*
X145711290Y-95610552D01*
X145777611Y-95654867D01*
X145789780Y-95657288D01*
X145789781Y-95657288D01*
X145820886Y-95663475D01*
X145836094Y-95666500D01*
X146205552Y-95666500D01*
X146273673Y-95686502D01*
X146320166Y-95740158D01*
X146331552Y-95792500D01*
X146331552Y-96053841D01*
X146311550Y-96121962D01*
X146262755Y-96166108D01*
X146218710Y-96188550D01*
X146129002Y-96278258D01*
X146071406Y-96391296D01*
X146056552Y-96485081D01*
X146056553Y-97098118D01*
X146057328Y-97103009D01*
X146057328Y-97103012D01*
X146065994Y-97157729D01*
X146071406Y-97191904D01*
X146129002Y-97304942D01*
X146218710Y-97394650D01*
X146331748Y-97452246D01*
X146341537Y-97453796D01*
X146341539Y-97453797D01*
X146368901Y-97458130D01*
X146425533Y-97467100D01*
X146657005Y-97467100D01*
X146888570Y-97467099D01*
X146893464Y-97466324D01*
X146972558Y-97453798D01*
X146972560Y-97453797D01*
X146982356Y-97452246D01*
X147095394Y-97394650D01*
X147185102Y-97304942D01*
X147242698Y-97191904D01*
X147257552Y-97098119D01*
X147257551Y-96485082D01*
X147257551Y-96485081D01*
X147706552Y-96485081D01*
X147706553Y-97098118D01*
X147707328Y-97103009D01*
X147707328Y-97103012D01*
X147715994Y-97157729D01*
X147721406Y-97191904D01*
X147779002Y-97304942D01*
X147868710Y-97394650D01*
X147981748Y-97452246D01*
X147991537Y-97453796D01*
X147991539Y-97453797D01*
X148018901Y-97458130D01*
X148075533Y-97467100D01*
X148307005Y-97467100D01*
X148538570Y-97467099D01*
X148543464Y-97466324D01*
X148622558Y-97453798D01*
X148622560Y-97453797D01*
X148632356Y-97452246D01*
X148745394Y-97394650D01*
X148835102Y-97304942D01*
X148892698Y-97191904D01*
X148894751Y-97192950D01*
X148927160Y-97145556D01*
X148992558Y-97117921D01*
X149006917Y-97117100D01*
X155297806Y-97117100D01*
X155365927Y-97137102D01*
X155374507Y-97143135D01*
X155467559Y-97214536D01*
X155613638Y-97275044D01*
X155770400Y-97295682D01*
X155778588Y-97294604D01*
X155918974Y-97276122D01*
X155927162Y-97275044D01*
X156073241Y-97214536D01*
X156198682Y-97118282D01*
X156294936Y-96992841D01*
X156355444Y-96846762D01*
X156376082Y-96690000D01*
X156355444Y-96533238D01*
X156294936Y-96387159D01*
X156198682Y-96261718D01*
X156073241Y-96165464D01*
X155927162Y-96104956D01*
X155770400Y-96084318D01*
X155613638Y-96104956D01*
X155467559Y-96165464D01*
X155342118Y-96261718D01*
X155245864Y-96387159D01*
X155242704Y-96394789D01*
X155238575Y-96401940D01*
X155235729Y-96400297D01*
X155200841Y-96443595D01*
X155128975Y-96466100D01*
X149006917Y-96466100D01*
X148938796Y-96446098D01*
X148893008Y-96393256D01*
X148892698Y-96391296D01*
X148888198Y-96382463D01*
X148871170Y-96349046D01*
X148835102Y-96278258D01*
X148745394Y-96188550D01*
X148632356Y-96130954D01*
X148622567Y-96129404D01*
X148622565Y-96129403D01*
X148595203Y-96125070D01*
X148538571Y-96116100D01*
X148307099Y-96116100D01*
X148075534Y-96116101D01*
X148070641Y-96116876D01*
X148070640Y-96116876D01*
X147991546Y-96129402D01*
X147991544Y-96129403D01*
X147981748Y-96130954D01*
X147972911Y-96135457D01*
X147972910Y-96135457D01*
X147950157Y-96147051D01*
X147868710Y-96188550D01*
X147779002Y-96278258D01*
X147721406Y-96391296D01*
X147706552Y-96485081D01*
X147257551Y-96485081D01*
X147250981Y-96443595D01*
X147244250Y-96401094D01*
X147244249Y-96401092D01*
X147242698Y-96391296D01*
X147233310Y-96372870D01*
X147221170Y-96349046D01*
X147185102Y-96278258D01*
X147095394Y-96188550D01*
X147051349Y-96166108D01*
X146999734Y-96117360D01*
X146982552Y-96053841D01*
X146982552Y-95792500D01*
X147002554Y-95724379D01*
X147056210Y-95677886D01*
X147108552Y-95666500D01*
X147425590Y-95666500D01*
X147440798Y-95663475D01*
X147471903Y-95657288D01*
X147471904Y-95657288D01*
X147484073Y-95654867D01*
X147550394Y-95610552D01*
X147594709Y-95544231D01*
X147597166Y-95531882D01*
X147605135Y-95491816D01*
X147606342Y-95485748D01*
X147606342Y-95267500D01*
X147626344Y-95199379D01*
X147680000Y-95152886D01*
X147732342Y-95141500D01*
X153479342Y-95141500D01*
X153547463Y-95161502D01*
X153593956Y-95215158D01*
X153605342Y-95267500D01*
X153605342Y-95485748D01*
X153606549Y-95491816D01*
X153614519Y-95531882D01*
X153616975Y-95544231D01*
X153661290Y-95610552D01*
X153727611Y-95654867D01*
X153739780Y-95657288D01*
X153739781Y-95657288D01*
X153770886Y-95663475D01*
X153786094Y-95666500D01*
X155375590Y-95666500D01*
X155390798Y-95663475D01*
X155421903Y-95657288D01*
X155421904Y-95657288D01*
X155434073Y-95654867D01*
X155500394Y-95610552D01*
X155544709Y-95544231D01*
X155547166Y-95531882D01*
X155555135Y-95491816D01*
X155556342Y-95485748D01*
X155556342Y-95132350D01*
X155576344Y-95064229D01*
X155585822Y-95051357D01*
X155595086Y-95040317D01*
X155602511Y-95032215D01*
X159314022Y-91320705D01*
X159322126Y-91313278D01*
X159342550Y-91296140D01*
X159350994Y-91289055D01*
X159356504Y-91279512D01*
X159356507Y-91279508D01*
X159369836Y-91256421D01*
X159375741Y-91247151D01*
X159391032Y-91225313D01*
X159397354Y-91216284D01*
X159400207Y-91205636D01*
X159401686Y-91202465D01*
X159402878Y-91199189D01*
X159408388Y-91189645D01*
X159414934Y-91152524D01*
X159417308Y-91141817D01*
X159427063Y-91105407D01*
X159423779Y-91067869D01*
X159423300Y-91056888D01*
X159423300Y-89282416D01*
X159443302Y-89214295D01*
X159460205Y-89193321D01*
X159731485Y-88922041D01*
X159793797Y-88888015D01*
X159864612Y-88893080D01*
X159921448Y-88935627D01*
X159946259Y-89002147D01*
X159945502Y-89027581D01*
X159941768Y-89055944D01*
X159939918Y-89070000D01*
X159940996Y-89078188D01*
X159952093Y-89162475D01*
X159960556Y-89226762D01*
X160021064Y-89372841D01*
X160066094Y-89431525D01*
X160106833Y-89484617D01*
X160117318Y-89498282D01*
X160242759Y-89594536D01*
X160388838Y-89655044D01*
X160545600Y-89675682D01*
X160553788Y-89674604D01*
X160694174Y-89656122D01*
X160702362Y-89655044D01*
X160848441Y-89594536D01*
X160857495Y-89587589D01*
X160875007Y-89574151D01*
X160884449Y-89566906D01*
X160950666Y-89541305D01*
X161020215Y-89555569D01*
X161050247Y-89577773D01*
X161390390Y-89917916D01*
X161424416Y-89980228D01*
X161426217Y-90023456D01*
X161417417Y-90090299D01*
X161438055Y-90247061D01*
X161498563Y-90393140D01*
X161594817Y-90518581D01*
X161720258Y-90614835D01*
X161808513Y-90651391D01*
X161858705Y-90672182D01*
X161858707Y-90672183D01*
X161866337Y-90675343D01*
X161871504Y-90676023D01*
X161930920Y-90712236D01*
X161961944Y-90776096D01*
X161953518Y-90846591D01*
X161926784Y-90886090D01*
X161260479Y-91552395D01*
X161198167Y-91586421D01*
X161171384Y-91589300D01*
X160311313Y-91589300D01*
X160300332Y-91588821D01*
X160273770Y-91586497D01*
X160273768Y-91586497D01*
X160262793Y-91585537D01*
X160226383Y-91595292D01*
X160215676Y-91597666D01*
X160178555Y-91604212D01*
X160169011Y-91609722D01*
X160165735Y-91610914D01*
X160162564Y-91612393D01*
X160151916Y-91615246D01*
X160142887Y-91621568D01*
X160121049Y-91636859D01*
X160111779Y-91642764D01*
X160088692Y-91656093D01*
X160088688Y-91656096D01*
X160079145Y-91661606D01*
X160072060Y-91670050D01*
X160054920Y-91690476D01*
X160047494Y-91698579D01*
X158856184Y-92889890D01*
X158848081Y-92897316D01*
X158819206Y-92921545D01*
X158813693Y-92931094D01*
X158800361Y-92954185D01*
X158794454Y-92963457D01*
X158776839Y-92988613D01*
X158721381Y-93032941D01*
X158693337Y-93040790D01*
X158681893Y-93042602D01*
X158681890Y-93042603D01*
X158672096Y-93044154D01*
X158559058Y-93101750D01*
X158469350Y-93191458D01*
X158411754Y-93304496D01*
X158396900Y-93398281D01*
X158396901Y-93861318D01*
X158411754Y-93955104D01*
X158469350Y-94068142D01*
X158559058Y-94157850D01*
X158672096Y-94215446D01*
X158681885Y-94216996D01*
X158681887Y-94216997D01*
X158709249Y-94221330D01*
X158765881Y-94230300D01*
X159072338Y-94230300D01*
X159378918Y-94230299D01*
X159383812Y-94229524D01*
X159462906Y-94216998D01*
X159462908Y-94216997D01*
X159472704Y-94215446D01*
X159585742Y-94157850D01*
X159675450Y-94068142D01*
X159705314Y-94009530D01*
X159709640Y-94001041D01*
X159758389Y-93949426D01*
X159827304Y-93932360D01*
X159894505Y-93955261D01*
X159935019Y-94006278D01*
X159935754Y-94005904D01*
X159937601Y-94009530D01*
X159937603Y-94009532D01*
X159993350Y-94118942D01*
X160083058Y-94208650D01*
X160196096Y-94266246D01*
X160205885Y-94267796D01*
X160205887Y-94267797D01*
X160218781Y-94269839D01*
X160289881Y-94281100D01*
X160596338Y-94281100D01*
X160902918Y-94281099D01*
X160907812Y-94280324D01*
X160986906Y-94267798D01*
X160986908Y-94267797D01*
X160996704Y-94266246D01*
X161109742Y-94208650D01*
X161199450Y-94118942D01*
X161257046Y-94005904D01*
X161271900Y-93912119D01*
X161271899Y-93449082D01*
X161269971Y-93436908D01*
X161258598Y-93365094D01*
X161258597Y-93365092D01*
X161257046Y-93355296D01*
X161250547Y-93342540D01*
X161232022Y-93306184D01*
X161199450Y-93242258D01*
X161112254Y-93155062D01*
X161078228Y-93092750D01*
X161083293Y-93021935D01*
X161112254Y-92976872D01*
X161354721Y-92734405D01*
X161417033Y-92700379D01*
X161443816Y-92697500D01*
X161795890Y-92697500D01*
X161806872Y-92697980D01*
X161833420Y-92700303D01*
X161833422Y-92700303D01*
X161844407Y-92701264D01*
X161880815Y-92691508D01*
X161891542Y-92689130D01*
X161894901Y-92688538D01*
X161928645Y-92682588D01*
X161938190Y-92677077D01*
X161941466Y-92675885D01*
X161944634Y-92674408D01*
X161955284Y-92671554D01*
X161986144Y-92649945D01*
X161995415Y-92644039D01*
X162018506Y-92630707D01*
X162028055Y-92625194D01*
X162052279Y-92596325D01*
X162059706Y-92588220D01*
X162548498Y-92099429D01*
X162548507Y-92099419D01*
X163408015Y-91239911D01*
X163470327Y-91205885D01*
X163541142Y-91210950D01*
X163597978Y-91253497D01*
X163622789Y-91320017D01*
X163613519Y-91377223D01*
X163608017Y-91390506D01*
X163608016Y-91390510D01*
X163604856Y-91398139D01*
X163584218Y-91554901D01*
X163592163Y-91615246D01*
X163593018Y-91621743D01*
X163582079Y-91691891D01*
X163557191Y-91727284D01*
X162476296Y-92808179D01*
X162468192Y-92815606D01*
X162439317Y-92839835D01*
X162433804Y-92849384D01*
X162420472Y-92872475D01*
X162414566Y-92881746D01*
X162392957Y-92912606D01*
X162390103Y-92923256D01*
X162388626Y-92926424D01*
X162387434Y-92929700D01*
X162381923Y-92939245D01*
X162377933Y-92961875D01*
X162375381Y-92976348D01*
X162373003Y-92987075D01*
X162363247Y-93023483D01*
X162364208Y-93034468D01*
X162364208Y-93034470D01*
X162366531Y-93061018D01*
X162367011Y-93072000D01*
X162367011Y-95769201D01*
X162366531Y-95780183D01*
X162363247Y-95817718D01*
X162366101Y-95828367D01*
X162373002Y-95854121D01*
X162375381Y-95864853D01*
X162381923Y-95901956D01*
X162387434Y-95911501D01*
X162388626Y-95914777D01*
X162390103Y-95917945D01*
X162392957Y-95928595D01*
X162399281Y-95937626D01*
X162414566Y-95959455D01*
X162420472Y-95968726D01*
X162426788Y-95979665D01*
X162439317Y-96001366D01*
X162447762Y-96008452D01*
X162468193Y-96025596D01*
X162476296Y-96033022D01*
X164348795Y-97905522D01*
X164382821Y-97967834D01*
X164385700Y-97994617D01*
X164385700Y-117330984D01*
X164365698Y-117399105D01*
X164348795Y-117420079D01*
X162920185Y-118848689D01*
X162912081Y-118856116D01*
X162883206Y-118880345D01*
X162877693Y-118889894D01*
X162864361Y-118912985D01*
X162858455Y-118922256D01*
X162836846Y-118953116D01*
X162833992Y-118963766D01*
X162832515Y-118966934D01*
X162831323Y-118970210D01*
X162825812Y-118979755D01*
X162819862Y-119013499D01*
X162819270Y-119016858D01*
X162816892Y-119027585D01*
X162807136Y-119063993D01*
X162808097Y-119074978D01*
X162808097Y-119074980D01*
X162810420Y-119101528D01*
X162810900Y-119112510D01*
X162810900Y-121344184D01*
X162790898Y-121412305D01*
X162773995Y-121433279D01*
X161527790Y-122679484D01*
X161465478Y-122713510D01*
X161438695Y-122716389D01*
X160937727Y-122716389D01*
X160869606Y-122696387D01*
X160823113Y-122642731D01*
X160813009Y-122572457D01*
X160842503Y-122507877D01*
X160848632Y-122501294D01*
X162392794Y-120957132D01*
X162400898Y-120949705D01*
X162421328Y-120932562D01*
X162429773Y-120925476D01*
X162448310Y-120893369D01*
X162448618Y-120892836D01*
X162454524Y-120883565D01*
X162467676Y-120864782D01*
X162476133Y-120852705D01*
X162478987Y-120842055D01*
X162480464Y-120838887D01*
X162481656Y-120835611D01*
X162487167Y-120826066D01*
X162493709Y-120788963D01*
X162496088Y-120778231D01*
X162505843Y-120741828D01*
X162502558Y-120704278D01*
X162502079Y-120693297D01*
X162502079Y-115108138D01*
X162522081Y-115040017D01*
X162575737Y-114993524D01*
X162646011Y-114983420D01*
X162680779Y-114995453D01*
X162681159Y-114994536D01*
X162827238Y-115055044D01*
X162984000Y-115075682D01*
X162992188Y-115074604D01*
X163132574Y-115056122D01*
X163140762Y-115055044D01*
X163286841Y-114994536D01*
X163412282Y-114898282D01*
X163508536Y-114772841D01*
X163569044Y-114626762D01*
X163589682Y-114470000D01*
X163569044Y-114313238D01*
X163508536Y-114167159D01*
X163412282Y-114041718D01*
X163286841Y-113945464D01*
X163140762Y-113884956D01*
X163141311Y-113883630D01*
X163088269Y-113851301D01*
X163057245Y-113787442D01*
X163055500Y-113766543D01*
X163055500Y-105436544D01*
X163075502Y-105368423D01*
X163129158Y-105321930D01*
X163165053Y-105311622D01*
X163234174Y-105302522D01*
X163242362Y-105301444D01*
X163388441Y-105240936D01*
X163513882Y-105144682D01*
X163610136Y-105019241D01*
X163670644Y-104873162D01*
X163691282Y-104716400D01*
X163670644Y-104559638D01*
X163610136Y-104413559D01*
X163513882Y-104288118D01*
X163388441Y-104191864D01*
X163242362Y-104131356D01*
X163085600Y-104110718D01*
X162928838Y-104131356D01*
X162782759Y-104191864D01*
X162747543Y-104218886D01*
X162704783Y-104251697D01*
X162638563Y-104277297D01*
X162569014Y-104263032D01*
X162518218Y-104213431D01*
X162502079Y-104151734D01*
X162502079Y-103018437D01*
X162522081Y-102950316D01*
X162538984Y-102929342D01*
X163642055Y-101826271D01*
X163650159Y-101818844D01*
X163670589Y-101801701D01*
X163679034Y-101794615D01*
X163684547Y-101785066D01*
X163697879Y-101761975D01*
X163703785Y-101752704D01*
X163719070Y-101730875D01*
X163725394Y-101721844D01*
X163728248Y-101711194D01*
X163729725Y-101708026D01*
X163730917Y-101704750D01*
X163736428Y-101695205D01*
X163742970Y-101658102D01*
X163745349Y-101647370D01*
X163755104Y-101610967D01*
X163751819Y-101573417D01*
X163751340Y-101562436D01*
X163751340Y-98631933D01*
X163751819Y-98620952D01*
X163754143Y-98594390D01*
X163754143Y-98594388D01*
X163755103Y-98583413D01*
X163745348Y-98547003D01*
X163742973Y-98536292D01*
X163738341Y-98510026D01*
X163736428Y-98499175D01*
X163730919Y-98489632D01*
X163729728Y-98486360D01*
X163728248Y-98483187D01*
X163725394Y-98472536D01*
X163703785Y-98441676D01*
X163697879Y-98432405D01*
X163684547Y-98409314D01*
X163679034Y-98399765D01*
X163650165Y-98375541D01*
X163642060Y-98368114D01*
X161747721Y-96473772D01*
X161740295Y-96465668D01*
X161723162Y-96445250D01*
X161716077Y-96436806D01*
X161706534Y-96431296D01*
X161706530Y-96431293D01*
X161683443Y-96417964D01*
X161674173Y-96412059D01*
X161652334Y-96396767D01*
X161652332Y-96396766D01*
X161643306Y-96390446D01*
X161632660Y-96387593D01*
X161629498Y-96386119D01*
X161626213Y-96384924D01*
X161616667Y-96379412D01*
X161582923Y-96373462D01*
X161579564Y-96372870D01*
X161568837Y-96370492D01*
X161532429Y-96360736D01*
X161521444Y-96361697D01*
X161521442Y-96361697D01*
X161494894Y-96364020D01*
X161483912Y-96364500D01*
X161047900Y-96364500D01*
X160979779Y-96344498D01*
X160933286Y-96290842D01*
X160921900Y-96238500D01*
X160921900Y-96030465D01*
X160941902Y-95962344D01*
X160994744Y-95916556D01*
X160996704Y-95916246D01*
X161109742Y-95858650D01*
X161199450Y-95768942D01*
X161257046Y-95655904D01*
X161271900Y-95562119D01*
X161271899Y-95099082D01*
X161263079Y-95043391D01*
X161258598Y-95015094D01*
X161258597Y-95015092D01*
X161257046Y-95005296D01*
X161199450Y-94892258D01*
X161109742Y-94802550D01*
X160996704Y-94744954D01*
X160986915Y-94743404D01*
X160986913Y-94743403D01*
X160959551Y-94739070D01*
X160902919Y-94730100D01*
X160596462Y-94730100D01*
X160289882Y-94730101D01*
X160284989Y-94730876D01*
X160284988Y-94730876D01*
X160205894Y-94743402D01*
X160205892Y-94743403D01*
X160196096Y-94744954D01*
X160083058Y-94802550D01*
X159993350Y-94892258D01*
X159983492Y-94911606D01*
X159959160Y-94959359D01*
X159910411Y-95010974D01*
X159841496Y-95028040D01*
X159774295Y-95005139D01*
X159733781Y-94954122D01*
X159733046Y-94954496D01*
X159731199Y-94950870D01*
X159731197Y-94950868D01*
X159675450Y-94841458D01*
X159585742Y-94751750D01*
X159472704Y-94694154D01*
X159462915Y-94692604D01*
X159462913Y-94692603D01*
X159435551Y-94688270D01*
X159378919Y-94679300D01*
X159072462Y-94679300D01*
X158765882Y-94679301D01*
X158760989Y-94680076D01*
X158760988Y-94680076D01*
X158681894Y-94692602D01*
X158681892Y-94692603D01*
X158672096Y-94694154D01*
X158559058Y-94751750D01*
X158469350Y-94841458D01*
X158411754Y-94954496D01*
X158396900Y-95048281D01*
X158396901Y-95511318D01*
X158397676Y-95516211D01*
X158397676Y-95516212D01*
X158400158Y-95531881D01*
X158411754Y-95605104D01*
X158469350Y-95718142D01*
X158559058Y-95807850D01*
X158649870Y-95854121D01*
X158672096Y-95865446D01*
X158671050Y-95867499D01*
X158718444Y-95899908D01*
X158746079Y-95965306D01*
X158746900Y-95979665D01*
X158746900Y-96517890D01*
X158746420Y-96528872D01*
X158743136Y-96566407D01*
X158749129Y-96588772D01*
X158752891Y-96602810D01*
X158755270Y-96613542D01*
X158761812Y-96650645D01*
X158767323Y-96660190D01*
X158768515Y-96663466D01*
X158769992Y-96666634D01*
X158772846Y-96677284D01*
X158779170Y-96686315D01*
X158794455Y-96708144D01*
X158800361Y-96717415D01*
X158811473Y-96736661D01*
X158819206Y-96750055D01*
X158827651Y-96757141D01*
X158848082Y-96774285D01*
X158856185Y-96781711D01*
X159488689Y-97414215D01*
X159496116Y-97422319D01*
X159520345Y-97451194D01*
X159529894Y-97456707D01*
X159552985Y-97470039D01*
X159562256Y-97475945D01*
X159593116Y-97497554D01*
X159603766Y-97500408D01*
X159606934Y-97501885D01*
X159610210Y-97503077D01*
X159619755Y-97508588D01*
X159653499Y-97514538D01*
X159656858Y-97515130D01*
X159667585Y-97517508D01*
X159703993Y-97527264D01*
X159714969Y-97526304D01*
X159714972Y-97526304D01*
X159741543Y-97523979D01*
X159752524Y-97523500D01*
X161188888Y-97523500D01*
X161257009Y-97543502D01*
X161277983Y-97560405D01*
X161340183Y-97622605D01*
X161374209Y-97684917D01*
X161369144Y-97755732D01*
X161326597Y-97812568D01*
X161260077Y-97837379D01*
X161251088Y-97837700D01*
X145797416Y-97837700D01*
X145729295Y-97817698D01*
X145708321Y-97800795D01*
X145355525Y-97447999D01*
X145321499Y-97385687D01*
X145318620Y-97358904D01*
X145318620Y-93785896D01*
X145338622Y-93717775D01*
X145355525Y-93696801D01*
X145563601Y-93488725D01*
X145625913Y-93454699D01*
X145652696Y-93451820D01*
X149814770Y-93451820D01*
X149825752Y-93452300D01*
X149852300Y-93454623D01*
X149852302Y-93454623D01*
X149863287Y-93455584D01*
X149899695Y-93445828D01*
X149910422Y-93443450D01*
X149913781Y-93442858D01*
X149947525Y-93436908D01*
X149957070Y-93431397D01*
X149960346Y-93430205D01*
X149963514Y-93428728D01*
X149974164Y-93425874D01*
X150005024Y-93404265D01*
X150014295Y-93398359D01*
X150037386Y-93385027D01*
X150046935Y-93379514D01*
X150071159Y-93350645D01*
X150078586Y-93342540D01*
X150601828Y-92819299D01*
X150609932Y-92811873D01*
X150629187Y-92795716D01*
X150638794Y-92787655D01*
X150657639Y-92755015D01*
X150663543Y-92745747D01*
X150678831Y-92723913D01*
X150685153Y-92714884D01*
X150688006Y-92704238D01*
X150689483Y-92701070D01*
X150690676Y-92697793D01*
X150696188Y-92688245D01*
X150701399Y-92658692D01*
X150702732Y-92651131D01*
X150705112Y-92640396D01*
X150712010Y-92614654D01*
X150714863Y-92604007D01*
X150713823Y-92592111D01*
X150711579Y-92566469D01*
X150711100Y-92555488D01*
X150711100Y-91010669D01*
X153297843Y-91010669D01*
X153298213Y-91017490D01*
X153303737Y-91068352D01*
X153307363Y-91083604D01*
X153352518Y-91204054D01*
X153361056Y-91219649D01*
X153437557Y-91321724D01*
X153450118Y-91334285D01*
X153552193Y-91410786D01*
X153567788Y-91419324D01*
X153688236Y-91464478D01*
X153703491Y-91468105D01*
X153754356Y-91473631D01*
X153761170Y-91474000D01*
X154308727Y-91474000D01*
X154323966Y-91469525D01*
X154325171Y-91468135D01*
X154326842Y-91460452D01*
X154326842Y-91455884D01*
X154834842Y-91455884D01*
X154839317Y-91471123D01*
X154840707Y-91472328D01*
X154848390Y-91473999D01*
X155400511Y-91473999D01*
X155407332Y-91473629D01*
X155458194Y-91468105D01*
X155473446Y-91464479D01*
X155593896Y-91419324D01*
X155609491Y-91410786D01*
X155711566Y-91334285D01*
X155724127Y-91321724D01*
X155800628Y-91219649D01*
X155809166Y-91204054D01*
X155854320Y-91083606D01*
X155857947Y-91068351D01*
X155863473Y-91017486D01*
X155863842Y-91010672D01*
X155863842Y-90588115D01*
X155859367Y-90572876D01*
X155857977Y-90571671D01*
X155850294Y-90570000D01*
X154852957Y-90570000D01*
X154837718Y-90574475D01*
X154836513Y-90575865D01*
X154834842Y-90583548D01*
X154834842Y-91455884D01*
X154326842Y-91455884D01*
X154326842Y-90588115D01*
X154322367Y-90572876D01*
X154320977Y-90571671D01*
X154313294Y-90570000D01*
X153315958Y-90570000D01*
X153300719Y-90574475D01*
X153299514Y-90575865D01*
X153297843Y-90583548D01*
X153297843Y-91010669D01*
X150711100Y-91010669D01*
X150711100Y-89546139D01*
X150731102Y-89478018D01*
X150784758Y-89431525D01*
X150855032Y-89421421D01*
X150919612Y-89450915D01*
X150957996Y-89510641D01*
X150962022Y-89529693D01*
X150968956Y-89582362D01*
X151029464Y-89728441D01*
X151125718Y-89853882D01*
X151251159Y-89950136D01*
X151397238Y-90010644D01*
X151554000Y-90031282D01*
X151562188Y-90030204D01*
X151702574Y-90011722D01*
X151710762Y-90010644D01*
X151856841Y-89950136D01*
X151982282Y-89853882D01*
X152078536Y-89728441D01*
X152078871Y-89727632D01*
X152127779Y-89680997D01*
X152185517Y-89666989D01*
X153171842Y-89666989D01*
X153239963Y-89686991D01*
X153286456Y-89740647D01*
X153297842Y-89792989D01*
X153297842Y-90043885D01*
X153302317Y-90059124D01*
X153303707Y-90060329D01*
X153311390Y-90062000D01*
X155845726Y-90062000D01*
X155860965Y-90057525D01*
X155862170Y-90056135D01*
X155863841Y-90048452D01*
X155863841Y-89621331D01*
X155863471Y-89614510D01*
X155857947Y-89563648D01*
X155854321Y-89548396D01*
X155809165Y-89427942D01*
X155800629Y-89412352D01*
X155794918Y-89404731D01*
X155770073Y-89338223D01*
X155785128Y-89268841D01*
X155806652Y-89240075D01*
X156697822Y-88348905D01*
X156705926Y-88341478D01*
X156734794Y-88317255D01*
X156740304Y-88307712D01*
X156740307Y-88307708D01*
X156753636Y-88284621D01*
X156759541Y-88275351D01*
X156774832Y-88253513D01*
X156781154Y-88244484D01*
X156784007Y-88233836D01*
X156785486Y-88230665D01*
X156786678Y-88227389D01*
X156792188Y-88217845D01*
X156798734Y-88180724D01*
X156801108Y-88170017D01*
X156810863Y-88133607D01*
X156808172Y-88102841D01*
X156807579Y-88096069D01*
X156807100Y-88085088D01*
X156807100Y-86259816D01*
X156827102Y-86191695D01*
X156844005Y-86170721D01*
X157443121Y-85571605D01*
X157505433Y-85537579D01*
X157532216Y-85534700D01*
X158646290Y-85534700D01*
X158657272Y-85535180D01*
X158683820Y-85537503D01*
X158683822Y-85537503D01*
X158694807Y-85538464D01*
X158731215Y-85528708D01*
X158741942Y-85526330D01*
X158745301Y-85525738D01*
X158779045Y-85519788D01*
X158788590Y-85514277D01*
X158791866Y-85513085D01*
X158795034Y-85511608D01*
X158805684Y-85508754D01*
X158836544Y-85487145D01*
X158845815Y-85481239D01*
X158868906Y-85467907D01*
X158878455Y-85462394D01*
X158902679Y-85433525D01*
X158910106Y-85425420D01*
X159187028Y-85148499D01*
X159195132Y-85141073D01*
X159215550Y-85123940D01*
X159223994Y-85116855D01*
X159229504Y-85107312D01*
X159229507Y-85107308D01*
X159242836Y-85084221D01*
X159248741Y-85074951D01*
X159264032Y-85053113D01*
X159270354Y-85044084D01*
X159273207Y-85033436D01*
X159274686Y-85030265D01*
X159275878Y-85026989D01*
X159281388Y-85017445D01*
X159287934Y-84980324D01*
X159290308Y-84969617D01*
X159300063Y-84933207D01*
X159296779Y-84895669D01*
X159296300Y-84884688D01*
X159296300Y-83911616D01*
X159316302Y-83843495D01*
X159369958Y-83797002D01*
X159440232Y-83786898D01*
X159504812Y-83816392D01*
G37*
G04 #@! TD.AperFunction*
G04 #@! TA.AperFunction,Conductor*
G36*
X161319592Y-108190620D02*
G01*
X161376427Y-108233167D01*
X161401238Y-108299687D01*
X161401559Y-108308676D01*
X161401559Y-116911632D01*
X161381557Y-116979753D01*
X161327901Y-117026246D01*
X161257627Y-117036350D01*
X161199627Y-117012182D01*
X161187402Y-117002950D01*
X161182191Y-117000355D01*
X161182189Y-117000354D01*
X161010130Y-116914680D01*
X161010128Y-116914679D01*
X161004912Y-116912082D01*
X160999308Y-116910488D01*
X160999304Y-116910486D01*
X160814438Y-116857890D01*
X160808832Y-116856295D01*
X160763401Y-116852086D01*
X160697417Y-116825885D01*
X160656072Y-116768169D01*
X160652495Y-116697262D01*
X160656142Y-116684880D01*
X160656372Y-116684224D01*
X160656373Y-116684218D01*
X160658919Y-116676969D01*
X160661900Y-116645434D01*
X160661900Y-115037766D01*
X160658919Y-115006231D01*
X160614034Y-114878416D01*
X160608440Y-114870842D01*
X160604031Y-114862515D01*
X160605223Y-114861884D01*
X160584174Y-114804316D01*
X160593500Y-114747924D01*
X160619483Y-114685195D01*
X160619484Y-114685190D01*
X160622644Y-114677562D01*
X160643282Y-114520800D01*
X160622644Y-114364038D01*
X160562136Y-114217959D01*
X160465882Y-114092518D01*
X160340441Y-113996264D01*
X160194362Y-113935756D01*
X160037600Y-113915118D01*
X159880838Y-113935756D01*
X159734759Y-113996264D01*
X159609318Y-114092518D01*
X159513064Y-114217959D01*
X159452556Y-114364038D01*
X159431918Y-114520800D01*
X159448026Y-114643148D01*
X159448274Y-114645035D01*
X159437335Y-114715183D01*
X159403129Y-114756840D01*
X159403485Y-114757196D01*
X159399864Y-114760817D01*
X159398208Y-114762833D01*
X159389250Y-114769450D01*
X159383655Y-114777025D01*
X159377394Y-114783286D01*
X159315081Y-114817310D01*
X159244265Y-114812244D01*
X159199205Y-114783284D01*
X159192942Y-114777021D01*
X159187350Y-114769450D01*
X159158206Y-114747924D01*
X159085957Y-114694559D01*
X159085954Y-114694558D01*
X159078384Y-114688966D01*
X159024951Y-114670202D01*
X158967306Y-114628758D01*
X158941218Y-114562729D01*
X158940700Y-114551319D01*
X158940700Y-110517534D01*
X158960702Y-110449413D01*
X158977605Y-110428439D01*
X161186464Y-108219581D01*
X161248776Y-108185555D01*
X161319592Y-108190620D01*
G37*
G04 #@! TD.AperFunction*
G04 #@! TA.AperFunction,Conductor*
G36*
X158705366Y-90312551D02*
G01*
X158756161Y-90362152D01*
X158772300Y-90423849D01*
X158772300Y-90889583D01*
X158752298Y-90957704D01*
X158735395Y-90978678D01*
X157184784Y-92529290D01*
X155683894Y-94030180D01*
X155621582Y-94064206D01*
X155550767Y-94059141D01*
X155506623Y-94030771D01*
X155500394Y-94021448D01*
X155434073Y-93977133D01*
X155421904Y-93974712D01*
X155421903Y-93974712D01*
X155381658Y-93966707D01*
X155375590Y-93965500D01*
X153786094Y-93965500D01*
X153780026Y-93966707D01*
X153739781Y-93974712D01*
X153739780Y-93974712D01*
X153727611Y-93977133D01*
X153661290Y-94021448D01*
X153616975Y-94087769D01*
X153614554Y-94099938D01*
X153614554Y-94099939D01*
X153609380Y-94125953D01*
X153605342Y-94146252D01*
X153605342Y-94364500D01*
X153585340Y-94432621D01*
X153531684Y-94479114D01*
X153479342Y-94490500D01*
X153354199Y-94490500D01*
X153286078Y-94470498D01*
X153239585Y-94416842D01*
X153229481Y-94346568D01*
X153244222Y-94303978D01*
X153246936Y-94300441D01*
X153307444Y-94154362D01*
X153328082Y-93997600D01*
X153319282Y-93930757D01*
X153330221Y-93860610D01*
X153355109Y-93825217D01*
X153937921Y-93242405D01*
X154000233Y-93208379D01*
X154027016Y-93205500D01*
X155141090Y-93205500D01*
X155152072Y-93205980D01*
X155178620Y-93208303D01*
X155178622Y-93208303D01*
X155189607Y-93209264D01*
X155226015Y-93199508D01*
X155236742Y-93197130D01*
X155240101Y-93196538D01*
X155273845Y-93190588D01*
X155283390Y-93185077D01*
X155286666Y-93183885D01*
X155289834Y-93182408D01*
X155300484Y-93179554D01*
X155331344Y-93157945D01*
X155340615Y-93152039D01*
X155363706Y-93138707D01*
X155373255Y-93133194D01*
X155397485Y-93104317D01*
X155404911Y-93096215D01*
X157985617Y-90515509D01*
X158047929Y-90481483D01*
X158091157Y-90479682D01*
X158158000Y-90488482D01*
X158166188Y-90487404D01*
X158306574Y-90468922D01*
X158314762Y-90467844D01*
X158460841Y-90407336D01*
X158519726Y-90362152D01*
X158569596Y-90323886D01*
X158635817Y-90298286D01*
X158705366Y-90312551D01*
G37*
G04 #@! TD.AperFunction*
G04 #@! TA.AperFunction,Conductor*
G36*
X160771768Y-78624502D02*
G01*
X160818261Y-78678158D01*
X160829647Y-78730500D01*
X160829647Y-78948748D01*
X160830854Y-78954816D01*
X160836158Y-78981479D01*
X160841280Y-79007231D01*
X160885595Y-79073552D01*
X160951916Y-79117867D01*
X160964085Y-79120288D01*
X160964086Y-79120288D01*
X161004331Y-79128293D01*
X161010399Y-79129500D01*
X161312797Y-79129500D01*
X161380918Y-79149502D01*
X161427411Y-79203158D01*
X161437515Y-79273432D01*
X161408021Y-79338012D01*
X161389502Y-79355462D01*
X161336518Y-79396118D01*
X161240264Y-79521559D01*
X161179756Y-79667638D01*
X161159118Y-79824400D01*
X161179756Y-79981162D01*
X161240264Y-80127241D01*
X161336518Y-80252682D01*
X161461959Y-80348936D01*
X161608038Y-80409444D01*
X161616226Y-80410522D01*
X161686419Y-80419763D01*
X161764800Y-80430082D01*
X161782017Y-80427815D01*
X161852163Y-80438753D01*
X161905263Y-80485880D01*
X161924454Y-80554234D01*
X161923386Y-80569174D01*
X161921118Y-80586400D01*
X161941756Y-80743162D01*
X162002264Y-80889241D01*
X162098518Y-81014682D01*
X162223959Y-81110936D01*
X162370038Y-81171444D01*
X162526800Y-81192082D01*
X162534988Y-81191004D01*
X162675374Y-81172522D01*
X162683562Y-81171444D01*
X162829641Y-81110936D01*
X162955082Y-81014682D01*
X163051336Y-80889241D01*
X163111844Y-80743162D01*
X163132482Y-80586400D01*
X163123682Y-80519557D01*
X163134621Y-80449410D01*
X163159509Y-80414017D01*
X163879116Y-79694410D01*
X163941428Y-79660384D01*
X164012243Y-79665449D01*
X164069079Y-79707996D01*
X164093890Y-79774516D01*
X164094211Y-79783505D01*
X164094211Y-88666473D01*
X164074209Y-88734594D01*
X164057306Y-88755568D01*
X163114409Y-89698465D01*
X163052097Y-89732491D01*
X162981282Y-89727426D01*
X162924446Y-89684879D01*
X162899635Y-89618359D01*
X162903607Y-89576760D01*
X162904011Y-89575252D01*
X162906864Y-89564605D01*
X162903579Y-89527055D01*
X162903100Y-89516074D01*
X162903100Y-86041710D01*
X162903580Y-86030728D01*
X162905903Y-86004175D01*
X162905903Y-86004170D01*
X162906863Y-85993193D01*
X162897108Y-85956783D01*
X162894733Y-85946072D01*
X162888188Y-85908955D01*
X162882678Y-85899411D01*
X162881486Y-85896135D01*
X162880007Y-85892964D01*
X162877154Y-85882316D01*
X162855540Y-85851448D01*
X162849636Y-85842179D01*
X162836307Y-85819092D01*
X162836304Y-85819088D01*
X162830794Y-85809545D01*
X162801930Y-85785325D01*
X162793827Y-85777900D01*
X162466104Y-85450178D01*
X162458677Y-85442073D01*
X162434455Y-85413206D01*
X162424906Y-85407693D01*
X162401815Y-85394361D01*
X162392544Y-85388455D01*
X162370715Y-85373170D01*
X162361684Y-85366846D01*
X162351034Y-85363992D01*
X162347866Y-85362515D01*
X162344590Y-85361323D01*
X162335045Y-85355812D01*
X162301301Y-85349862D01*
X162297942Y-85349270D01*
X162287215Y-85346892D01*
X162250807Y-85337136D01*
X162239822Y-85338097D01*
X162239820Y-85338097D01*
X162213272Y-85340420D01*
X162202290Y-85340900D01*
X162002616Y-85340900D01*
X161934495Y-85320898D01*
X161913521Y-85303995D01*
X160723011Y-84113485D01*
X160688985Y-84051173D01*
X160694050Y-83980358D01*
X160736597Y-83923522D01*
X160803117Y-83898711D01*
X160856335Y-83906408D01*
X160912538Y-83927478D01*
X160927796Y-83931105D01*
X160978661Y-83936631D01*
X160985475Y-83937000D01*
X161533032Y-83937000D01*
X161548271Y-83932525D01*
X161549476Y-83931135D01*
X161551147Y-83923452D01*
X161551147Y-83918884D01*
X162059147Y-83918884D01*
X162063622Y-83934123D01*
X162065012Y-83935328D01*
X162072695Y-83936999D01*
X162624816Y-83936999D01*
X162631637Y-83936629D01*
X162682499Y-83931105D01*
X162697751Y-83927479D01*
X162818201Y-83882324D01*
X162833796Y-83873786D01*
X162935871Y-83797285D01*
X162948432Y-83784724D01*
X163024933Y-83682649D01*
X163033471Y-83667054D01*
X163078625Y-83546606D01*
X163082252Y-83531351D01*
X163087778Y-83480486D01*
X163088147Y-83473672D01*
X163088147Y-83051115D01*
X163083672Y-83035876D01*
X163082282Y-83034671D01*
X163074599Y-83033000D01*
X162077262Y-83033000D01*
X162062023Y-83037475D01*
X162060818Y-83038865D01*
X162059147Y-83046548D01*
X162059147Y-83918884D01*
X161551147Y-83918884D01*
X161551147Y-83051115D01*
X161546672Y-83035876D01*
X161545282Y-83034671D01*
X161537599Y-83033000D01*
X160540263Y-83033000D01*
X160525024Y-83037475D01*
X160523819Y-83038865D01*
X160522148Y-83046548D01*
X160522148Y-83473669D01*
X160522518Y-83480490D01*
X160528042Y-83531352D01*
X160531669Y-83546606D01*
X160552739Y-83602812D01*
X160557922Y-83673619D01*
X160524001Y-83735988D01*
X160461746Y-83770117D01*
X160390922Y-83765170D01*
X160345662Y-83736136D01*
X160044405Y-83434879D01*
X160010379Y-83372567D01*
X160007500Y-83345784D01*
X160007500Y-82506885D01*
X160522147Y-82506885D01*
X160526622Y-82522124D01*
X160528012Y-82523329D01*
X160535695Y-82525000D01*
X161533032Y-82525000D01*
X161548271Y-82520525D01*
X161549476Y-82519135D01*
X161551147Y-82511452D01*
X161551147Y-82506885D01*
X162059147Y-82506885D01*
X162063622Y-82522124D01*
X162065012Y-82523329D01*
X162072695Y-82525000D01*
X163070031Y-82525000D01*
X163085270Y-82520525D01*
X163086475Y-82519135D01*
X163088146Y-82511452D01*
X163088146Y-82084331D01*
X163087776Y-82077510D01*
X163082252Y-82026648D01*
X163078626Y-82011396D01*
X163033471Y-81890946D01*
X163024933Y-81875351D01*
X162948432Y-81773276D01*
X162935871Y-81760715D01*
X162833796Y-81684214D01*
X162818201Y-81675676D01*
X162697753Y-81630522D01*
X162682498Y-81626895D01*
X162631633Y-81621369D01*
X162624819Y-81621000D01*
X162077262Y-81621000D01*
X162062023Y-81625475D01*
X162060818Y-81626865D01*
X162059147Y-81634548D01*
X162059147Y-82506885D01*
X161551147Y-82506885D01*
X161551147Y-81639116D01*
X161546672Y-81623877D01*
X161545282Y-81622672D01*
X161537599Y-81621001D01*
X160985478Y-81621001D01*
X160978657Y-81621371D01*
X160927795Y-81626895D01*
X160912543Y-81630521D01*
X160792093Y-81675676D01*
X160776498Y-81684214D01*
X160674423Y-81760715D01*
X160661862Y-81773276D01*
X160585361Y-81875351D01*
X160576823Y-81890946D01*
X160531669Y-82011394D01*
X160528042Y-82026649D01*
X160522516Y-82077514D01*
X160522147Y-82084328D01*
X160522147Y-82506885D01*
X160007500Y-82506885D01*
X160007500Y-80707710D01*
X160007980Y-80696728D01*
X160010303Y-80670180D01*
X160010303Y-80670178D01*
X160011264Y-80659193D01*
X160001508Y-80622785D01*
X159999130Y-80612058D01*
X159998538Y-80608699D01*
X159992588Y-80574955D01*
X159987077Y-80565410D01*
X159985885Y-80562134D01*
X159984408Y-80558966D01*
X159981554Y-80548316D01*
X159959945Y-80517456D01*
X159954039Y-80508185D01*
X159940707Y-80485094D01*
X159935194Y-80475545D01*
X159906317Y-80451315D01*
X159898215Y-80443889D01*
X159113311Y-79658985D01*
X159105884Y-79650881D01*
X159089715Y-79631612D01*
X159081655Y-79622006D01*
X159072106Y-79616493D01*
X159049015Y-79603161D01*
X159039744Y-79597255D01*
X159008884Y-79575646D01*
X158998234Y-79572792D01*
X158995066Y-79571315D01*
X158991790Y-79570123D01*
X158982245Y-79564612D01*
X158948501Y-79558662D01*
X158945142Y-79558070D01*
X158934415Y-79555692D01*
X158898007Y-79545936D01*
X158887022Y-79546897D01*
X158887020Y-79546897D01*
X158860472Y-79549220D01*
X158849490Y-79549700D01*
X155129698Y-79549700D01*
X155118716Y-79549220D01*
X155092180Y-79546898D01*
X155092178Y-79546898D01*
X155081193Y-79545937D01*
X155070543Y-79548791D01*
X155070541Y-79548791D01*
X155044804Y-79555688D01*
X155034069Y-79558068D01*
X155034058Y-79558070D01*
X154996955Y-79564612D01*
X154987407Y-79570124D01*
X154984130Y-79571317D01*
X154980962Y-79572794D01*
X154970316Y-79575647D01*
X154961287Y-79581969D01*
X154939453Y-79597257D01*
X154930185Y-79603161D01*
X154897545Y-79622006D01*
X154890462Y-79630447D01*
X154890461Y-79630448D01*
X154873320Y-79650876D01*
X154865894Y-79658979D01*
X154193677Y-80331197D01*
X153538879Y-80985995D01*
X153476567Y-81020020D01*
X153449784Y-81022900D01*
X153351710Y-81022900D01*
X153340728Y-81022420D01*
X153314180Y-81020097D01*
X153314178Y-81020097D01*
X153303193Y-81019136D01*
X153266785Y-81028892D01*
X153256058Y-81031270D01*
X153252699Y-81031862D01*
X153218955Y-81037812D01*
X153209410Y-81043323D01*
X153206134Y-81044515D01*
X153202966Y-81045992D01*
X153192316Y-81048846D01*
X153183285Y-81055170D01*
X153161456Y-81070455D01*
X153152185Y-81076361D01*
X153129094Y-81089693D01*
X153119545Y-81095206D01*
X153112459Y-81103651D01*
X153095315Y-81124082D01*
X153087889Y-81132185D01*
X152958195Y-81261879D01*
X152895883Y-81295905D01*
X152825068Y-81290840D01*
X152768232Y-81248293D01*
X152743421Y-81181773D01*
X152743100Y-81172784D01*
X152743100Y-79180661D01*
X152763102Y-79112540D01*
X152816758Y-79066047D01*
X152887032Y-79055943D01*
X152939103Y-79075896D01*
X153001916Y-79117867D01*
X153014085Y-79120288D01*
X153014086Y-79120288D01*
X153054331Y-79128293D01*
X153060399Y-79129500D01*
X154649895Y-79129500D01*
X154655963Y-79128293D01*
X154696208Y-79120288D01*
X154696209Y-79120288D01*
X154708378Y-79117867D01*
X154774699Y-79073552D01*
X154819014Y-79007231D01*
X154824137Y-78981479D01*
X154829440Y-78954816D01*
X154830647Y-78948748D01*
X154830647Y-78730500D01*
X154850649Y-78662379D01*
X154904305Y-78615886D01*
X154956647Y-78604500D01*
X160703647Y-78604500D01*
X160771768Y-78624502D01*
G37*
G04 #@! TD.AperFunction*
G04 #@! TA.AperFunction,Conductor*
G36*
X147574305Y-72194302D02*
G01*
X147595279Y-72211205D01*
X150734395Y-75350322D01*
X150768421Y-75412634D01*
X150771300Y-75439417D01*
X150771300Y-75749914D01*
X150751298Y-75818035D01*
X150722004Y-75849877D01*
X150677688Y-75883882D01*
X150668518Y-75890918D01*
X150572264Y-76016359D01*
X150511756Y-76162438D01*
X150491118Y-76319200D01*
X150492196Y-76327388D01*
X150506883Y-76438944D01*
X150511756Y-76475962D01*
X150572264Y-76622041D01*
X150668518Y-76747482D01*
X150793959Y-76843736D01*
X150940038Y-76904244D01*
X151096800Y-76924882D01*
X151104988Y-76923804D01*
X151245374Y-76905322D01*
X151253562Y-76904244D01*
X151399641Y-76843736D01*
X151399745Y-76843986D01*
X151464092Y-76828375D01*
X151531184Y-76851594D01*
X151575073Y-76907399D01*
X151584100Y-76954232D01*
X151584100Y-80805783D01*
X151564098Y-80873904D01*
X151547200Y-80894873D01*
X150681769Y-81760304D01*
X150619459Y-81794328D01*
X150548644Y-81789264D01*
X150491808Y-81746717D01*
X150467754Y-81687654D01*
X150463722Y-81657026D01*
X150462644Y-81648838D01*
X150402136Y-81502759D01*
X150305882Y-81377318D01*
X150180441Y-81281064D01*
X150034362Y-81220556D01*
X149877600Y-81199918D01*
X149720838Y-81220556D01*
X149574759Y-81281064D01*
X149449318Y-81377318D01*
X149444295Y-81383864D01*
X149408277Y-81430804D01*
X149350939Y-81472671D01*
X149308314Y-81480100D01*
X149302616Y-81480100D01*
X149234495Y-81460098D01*
X149213521Y-81443195D01*
X148496111Y-80725785D01*
X148488684Y-80717681D01*
X148480317Y-80707710D01*
X148464455Y-80688806D01*
X148449720Y-80680299D01*
X148431815Y-80669961D01*
X148422544Y-80664055D01*
X148421803Y-80663536D01*
X148391684Y-80642446D01*
X148381034Y-80639592D01*
X148377866Y-80638115D01*
X148374590Y-80636923D01*
X148365045Y-80631412D01*
X148331301Y-80625462D01*
X148327942Y-80624870D01*
X148317215Y-80622492D01*
X148280807Y-80612736D01*
X148269822Y-80613697D01*
X148269820Y-80613697D01*
X148243272Y-80616020D01*
X148232290Y-80616500D01*
X138238700Y-80616500D01*
X138170579Y-80596498D01*
X138124086Y-80542842D01*
X138112700Y-80490500D01*
X138112700Y-79174486D01*
X138132702Y-79106365D01*
X138161996Y-79074523D01*
X138208936Y-79038505D01*
X138215482Y-79033482D01*
X138223260Y-79023346D01*
X138280598Y-78981479D01*
X138351470Y-78977258D01*
X138413372Y-79012023D01*
X138427987Y-79030049D01*
X138465397Y-79086037D01*
X138465399Y-79086039D01*
X138472290Y-79096352D01*
X138538611Y-79140667D01*
X138550780Y-79143088D01*
X138550781Y-79143088D01*
X138591026Y-79151093D01*
X138597094Y-79152300D01*
X140186590Y-79152300D01*
X140192658Y-79151093D01*
X140232903Y-79143088D01*
X140232904Y-79143088D01*
X140245073Y-79140667D01*
X140311394Y-79096352D01*
X140355709Y-79030031D01*
X140367342Y-78971548D01*
X140367342Y-78753300D01*
X140387344Y-78685179D01*
X140441000Y-78638686D01*
X140493342Y-78627300D01*
X146240342Y-78627300D01*
X146308463Y-78647302D01*
X146354956Y-78700958D01*
X146366342Y-78753300D01*
X146366342Y-78971548D01*
X146377975Y-79030031D01*
X146422290Y-79096352D01*
X146488611Y-79140667D01*
X146500780Y-79143088D01*
X146500781Y-79143088D01*
X146541026Y-79151093D01*
X146547094Y-79152300D01*
X148136590Y-79152300D01*
X148142658Y-79151093D01*
X148182903Y-79143088D01*
X148182904Y-79143088D01*
X148195073Y-79140667D01*
X148261394Y-79096352D01*
X148305709Y-79030031D01*
X148317342Y-78971548D01*
X148317342Y-77632052D01*
X148315028Y-77620417D01*
X148308130Y-77585739D01*
X148308130Y-77585738D01*
X148305709Y-77573569D01*
X148261394Y-77507248D01*
X148195073Y-77462933D01*
X148182904Y-77460512D01*
X148182903Y-77460512D01*
X148142658Y-77452507D01*
X148136590Y-77451300D01*
X147793342Y-77451300D01*
X147725221Y-77431298D01*
X147678728Y-77377642D01*
X147667342Y-77325300D01*
X147667342Y-76060611D01*
X147687344Y-75992490D01*
X147716638Y-75960648D01*
X147732778Y-75948264D01*
X147802519Y-75894750D01*
X147810136Y-75888905D01*
X147810137Y-75888904D01*
X147816682Y-75883882D01*
X147912936Y-75758441D01*
X147973444Y-75612362D01*
X147994082Y-75455600D01*
X147973444Y-75298838D01*
X147912936Y-75152759D01*
X147816682Y-75027318D01*
X147691241Y-74931064D01*
X147545162Y-74870556D01*
X147388400Y-74849918D01*
X147231638Y-74870556D01*
X147085559Y-74931064D01*
X146960118Y-75027318D01*
X146863864Y-75152759D01*
X146803356Y-75298838D01*
X146782718Y-75455600D01*
X146803356Y-75612362D01*
X146863864Y-75758441D01*
X146960118Y-75883882D01*
X146966663Y-75888904D01*
X146967046Y-75889198D01*
X146967287Y-75889528D01*
X146972509Y-75894750D01*
X146971695Y-75895564D01*
X147008913Y-75946536D01*
X147016342Y-75989161D01*
X147016342Y-77325300D01*
X146996340Y-77393421D01*
X146942684Y-77439914D01*
X146890342Y-77451300D01*
X146547094Y-77451300D01*
X146541026Y-77452507D01*
X146500781Y-77460512D01*
X146500780Y-77460512D01*
X146488611Y-77462933D01*
X146422290Y-77507248D01*
X146377975Y-77573569D01*
X146375554Y-77585738D01*
X146375554Y-77585739D01*
X146368656Y-77620417D01*
X146366342Y-77632052D01*
X146366342Y-77850300D01*
X146346340Y-77918421D01*
X146292684Y-77964914D01*
X146240342Y-77976300D01*
X140493342Y-77976300D01*
X140425221Y-77956298D01*
X140378728Y-77902642D01*
X140367342Y-77850300D01*
X140367342Y-77632052D01*
X140365028Y-77620417D01*
X140358130Y-77585739D01*
X140358130Y-77585738D01*
X140355709Y-77573569D01*
X140311394Y-77507248D01*
X140245073Y-77462933D01*
X140232904Y-77460512D01*
X140232903Y-77460512D01*
X140192658Y-77452507D01*
X140186590Y-77451300D01*
X138597094Y-77451300D01*
X138591026Y-77452507D01*
X138550781Y-77460512D01*
X138550780Y-77460512D01*
X138538611Y-77462933D01*
X138472290Y-77507248D01*
X138427975Y-77573569D01*
X138425554Y-77585738D01*
X138425554Y-77585739D01*
X138418656Y-77620417D01*
X138416342Y-77632052D01*
X138416342Y-78075540D01*
X138396340Y-78143661D01*
X138342684Y-78190154D01*
X138272410Y-78200258D01*
X138213638Y-78175503D01*
X138161996Y-78135877D01*
X138120129Y-78078539D01*
X138112700Y-78035914D01*
X138112700Y-76557016D01*
X138132702Y-76488895D01*
X138149605Y-76467921D01*
X140086215Y-74531311D01*
X140094319Y-74523884D01*
X140114749Y-74506741D01*
X140123194Y-74499655D01*
X140139919Y-74470686D01*
X140142039Y-74467015D01*
X140147945Y-74457744D01*
X140157434Y-74444192D01*
X140169554Y-74426884D01*
X140172408Y-74416234D01*
X140173885Y-74413066D01*
X140175077Y-74409790D01*
X140180588Y-74400245D01*
X140187130Y-74363142D01*
X140189509Y-74352410D01*
X140192011Y-74343073D01*
X140199264Y-74316007D01*
X140195980Y-74278472D01*
X140195500Y-74267490D01*
X140195500Y-73789686D01*
X140215502Y-73721565D01*
X140244796Y-73689723D01*
X140291736Y-73653705D01*
X140298282Y-73648682D01*
X140308046Y-73635958D01*
X140356876Y-73572321D01*
X140394536Y-73523241D01*
X140455044Y-73377162D01*
X140475682Y-73220400D01*
X140455044Y-73063638D01*
X140394536Y-72917559D01*
X140298282Y-72792118D01*
X140172841Y-72695864D01*
X140026762Y-72635356D01*
X139870000Y-72614718D01*
X139861812Y-72615796D01*
X139769081Y-72628004D01*
X139698932Y-72617065D01*
X139645834Y-72569936D01*
X139626644Y-72501582D01*
X139647455Y-72433704D01*
X139663540Y-72413986D01*
X139866323Y-72211204D01*
X139928635Y-72177179D01*
X139955418Y-72174300D01*
X147506184Y-72174300D01*
X147574305Y-72194302D01*
G37*
G04 #@! TD.AperFunction*
G04 #@! TA.AperFunction,Conductor*
G36*
X165247963Y-68362202D02*
G01*
X165294456Y-68415858D01*
X165305842Y-68468200D01*
X165305842Y-71189989D01*
X165285840Y-71258110D01*
X165232184Y-71304603D01*
X165207006Y-71313026D01*
X164980222Y-71363095D01*
X164980218Y-71363096D01*
X164975762Y-71364080D01*
X164859478Y-71408136D01*
X164728901Y-71457607D01*
X164728898Y-71457608D01*
X164724631Y-71459225D01*
X164489866Y-71589626D01*
X164464462Y-71609014D01*
X164280009Y-71749783D01*
X164280005Y-71749787D01*
X164276384Y-71752550D01*
X164273199Y-71755808D01*
X164273198Y-71755809D01*
X164249269Y-71780287D01*
X164088657Y-71944586D01*
X164085972Y-71948275D01*
X163935433Y-72155093D01*
X163930617Y-72161709D01*
X163928493Y-72165747D01*
X163807702Y-72395332D01*
X163807699Y-72395338D01*
X163805577Y-72399372D01*
X163804057Y-72403677D01*
X163804055Y-72403681D01*
X163717677Y-72648284D01*
X163716154Y-72652597D01*
X163696623Y-72751691D01*
X163668100Y-72896404D01*
X163664222Y-72916078D01*
X163663995Y-72920631D01*
X163663995Y-72920634D01*
X163653902Y-73123392D01*
X163650870Y-73184295D01*
X163676376Y-73451631D01*
X163677461Y-73456065D01*
X163677462Y-73456071D01*
X163693823Y-73522931D01*
X163690586Y-73593853D01*
X163649518Y-73651767D01*
X163583660Y-73678284D01*
X163513920Y-73664987D01*
X163494730Y-73652842D01*
X163455276Y-73622568D01*
X163439241Y-73610264D01*
X163293162Y-73549756D01*
X163136400Y-73529118D01*
X162979638Y-73549756D01*
X162833559Y-73610264D01*
X162827008Y-73615291D01*
X162750204Y-73674224D01*
X162683983Y-73699824D01*
X162614434Y-73685559D01*
X162563639Y-73635958D01*
X162547500Y-73574261D01*
X162547500Y-72797816D01*
X162567502Y-72729695D01*
X162584405Y-72708721D01*
X163115948Y-72177179D01*
X163657422Y-71635705D01*
X163665526Y-71628278D01*
X163685950Y-71611140D01*
X163694394Y-71604055D01*
X163699904Y-71594512D01*
X163699907Y-71594508D01*
X163713236Y-71571421D01*
X163719141Y-71562151D01*
X163734432Y-71540313D01*
X163740754Y-71531284D01*
X163743607Y-71520636D01*
X163745086Y-71517465D01*
X163746278Y-71514189D01*
X163751788Y-71504645D01*
X163758334Y-71467524D01*
X163760708Y-71456817D01*
X163770463Y-71420407D01*
X163769390Y-71408136D01*
X163767179Y-71382869D01*
X163766700Y-71371888D01*
X163766700Y-70081286D01*
X163786702Y-70013165D01*
X163815996Y-69981323D01*
X163862936Y-69945305D01*
X163869482Y-69940282D01*
X163965736Y-69814841D01*
X164026244Y-69668762D01*
X164046882Y-69512000D01*
X164026244Y-69355238D01*
X163965736Y-69209159D01*
X163869482Y-69083718D01*
X163744041Y-68987464D01*
X163597962Y-68926956D01*
X163441200Y-68906318D01*
X163284438Y-68926956D01*
X163138359Y-68987464D01*
X163012918Y-69083718D01*
X162916664Y-69209159D01*
X162856156Y-69355238D01*
X162835518Y-69512000D01*
X162856156Y-69668762D01*
X162916664Y-69814841D01*
X163012918Y-69940282D01*
X163019464Y-69945305D01*
X163066404Y-69981323D01*
X163108271Y-70038661D01*
X163115700Y-70081286D01*
X163115700Y-70170661D01*
X163095698Y-70238782D01*
X163042042Y-70285275D01*
X162971768Y-70295379D01*
X162912996Y-70270624D01*
X162863242Y-70232447D01*
X162829641Y-70206664D01*
X162695788Y-70151220D01*
X162691191Y-70149316D01*
X162683562Y-70146156D01*
X162526800Y-70125518D01*
X162370038Y-70146156D01*
X162362409Y-70149316D01*
X162357812Y-70151220D01*
X162223959Y-70206664D01*
X162190358Y-70232447D01*
X162105608Y-70297478D01*
X162098518Y-70302918D01*
X162002264Y-70428359D01*
X161941756Y-70574438D01*
X161921118Y-70731200D01*
X161922196Y-70739388D01*
X161929918Y-70798042D01*
X161918979Y-70868190D01*
X161894091Y-70903583D01*
X161446985Y-71350689D01*
X161438881Y-71358116D01*
X161410006Y-71382345D01*
X161404493Y-71391894D01*
X161391161Y-71414985D01*
X161385255Y-71424256D01*
X161363646Y-71455116D01*
X161360792Y-71465766D01*
X161359315Y-71468934D01*
X161358123Y-71472210D01*
X161352612Y-71481755D01*
X161348576Y-71504645D01*
X161346070Y-71518858D01*
X161343692Y-71529585D01*
X161333936Y-71565993D01*
X161334897Y-71576978D01*
X161334897Y-71576980D01*
X161337220Y-71603528D01*
X161337700Y-71614510D01*
X161337700Y-75689890D01*
X161337220Y-75700872D01*
X161333936Y-75738407D01*
X161339971Y-75760928D01*
X161343691Y-75774810D01*
X161346070Y-75785542D01*
X161352612Y-75822645D01*
X161358123Y-75832190D01*
X161359315Y-75835466D01*
X161360792Y-75838634D01*
X161363646Y-75849284D01*
X161369970Y-75858315D01*
X161385255Y-75880144D01*
X161391161Y-75889415D01*
X161404493Y-75912506D01*
X161410006Y-75922055D01*
X161418451Y-75929141D01*
X161438882Y-75946285D01*
X161446985Y-75953711D01*
X162708612Y-77215339D01*
X162742637Y-77277649D01*
X162737572Y-77348464D01*
X162695025Y-77405300D01*
X162628505Y-77430111D01*
X162607169Y-77429826D01*
X162605966Y-77429708D01*
X162599895Y-77428500D01*
X162253001Y-77428500D01*
X162184880Y-77408498D01*
X162138387Y-77354842D01*
X162131295Y-77335113D01*
X162128993Y-77326522D01*
X162124658Y-77310342D01*
X162122280Y-77299619D01*
X162117648Y-77273353D01*
X162115735Y-77262502D01*
X162110225Y-77252958D01*
X162109033Y-77249682D01*
X162107554Y-77246511D01*
X162104701Y-77235863D01*
X162083087Y-77204995D01*
X162077183Y-77195726D01*
X162063854Y-77172639D01*
X162063851Y-77172635D01*
X162058341Y-77163092D01*
X162029471Y-77138867D01*
X162021380Y-77131453D01*
X161060404Y-76170478D01*
X161026380Y-76108167D01*
X161023500Y-76081384D01*
X161023500Y-70954098D01*
X161023980Y-70943116D01*
X161026302Y-70916580D01*
X161026302Y-70916578D01*
X161027263Y-70905593D01*
X161017512Y-70869203D01*
X161015132Y-70858469D01*
X161010502Y-70832212D01*
X161008588Y-70821355D01*
X161003076Y-70811807D01*
X161001883Y-70808530D01*
X161000406Y-70805362D01*
X160997553Y-70794716D01*
X160975942Y-70763852D01*
X160970038Y-70754584D01*
X160956704Y-70731489D01*
X160951194Y-70721945D01*
X160922330Y-70697725D01*
X160914227Y-70690300D01*
X160484904Y-70260978D01*
X160477477Y-70252873D01*
X160460341Y-70232451D01*
X160453255Y-70224006D01*
X160443706Y-70218493D01*
X160420615Y-70205161D01*
X160411344Y-70199255D01*
X160389515Y-70183970D01*
X160380484Y-70177646D01*
X160369834Y-70174792D01*
X160366666Y-70173315D01*
X160363390Y-70172123D01*
X160353845Y-70166612D01*
X160320101Y-70160662D01*
X160316742Y-70160070D01*
X160306015Y-70157692D01*
X160269607Y-70147936D01*
X160258622Y-70148897D01*
X160258620Y-70148897D01*
X160232072Y-70151220D01*
X160221090Y-70151700D01*
X152386510Y-70151700D01*
X152375528Y-70151220D01*
X152348977Y-70148897D01*
X152348971Y-70148898D01*
X152337993Y-70147937D01*
X152327346Y-70150790D01*
X152301604Y-70157688D01*
X152290869Y-70160068D01*
X152290858Y-70160070D01*
X152253755Y-70166612D01*
X152244207Y-70172124D01*
X152240930Y-70173317D01*
X152237762Y-70174794D01*
X152227116Y-70177647D01*
X152218087Y-70183969D01*
X152196253Y-70199257D01*
X152186985Y-70205161D01*
X152154345Y-70224006D01*
X152141947Y-70238782D01*
X152138748Y-70242594D01*
X152079638Y-70281921D01*
X152025781Y-70286525D01*
X151968590Y-70278996D01*
X151968588Y-70278996D01*
X151960400Y-70277918D01*
X151803638Y-70298556D01*
X151657559Y-70359064D01*
X151532118Y-70455318D01*
X151435864Y-70580759D01*
X151375356Y-70726838D01*
X151354718Y-70883600D01*
X151375356Y-71040362D01*
X151435864Y-71186441D01*
X151532118Y-71311882D01*
X151538664Y-71316905D01*
X151541822Y-71319328D01*
X151657559Y-71408136D01*
X151803638Y-71468644D01*
X151960400Y-71489282D01*
X151968588Y-71488204D01*
X152017574Y-71481755D01*
X152117162Y-71468644D01*
X152263241Y-71408136D01*
X152378978Y-71319328D01*
X152382136Y-71316905D01*
X152388682Y-71311882D01*
X152484936Y-71186441D01*
X152545444Y-71040362D01*
X152556801Y-70954098D01*
X152562310Y-70912253D01*
X152591033Y-70847326D01*
X152650298Y-70808235D01*
X152687232Y-70802700D01*
X157855855Y-70802700D01*
X157923976Y-70822702D01*
X157970469Y-70876358D01*
X157980573Y-70946632D01*
X157972264Y-70976917D01*
X157928556Y-71082438D01*
X157907918Y-71239200D01*
X157908996Y-71247388D01*
X157923574Y-71358116D01*
X157928556Y-71395962D01*
X157989064Y-71542041D01*
X158085318Y-71667482D01*
X158091864Y-71672505D01*
X158157604Y-71722949D01*
X158199471Y-71780287D01*
X158206900Y-71822912D01*
X158206900Y-75800714D01*
X158186898Y-75868835D01*
X158157604Y-75900677D01*
X158104118Y-75941718D01*
X158099095Y-75948264D01*
X158084080Y-75967832D01*
X158007864Y-76067159D01*
X157947356Y-76213238D01*
X157926718Y-76370000D01*
X157947356Y-76526762D01*
X158007864Y-76672841D01*
X158104118Y-76798282D01*
X158229559Y-76894536D01*
X158375638Y-76955044D01*
X158532400Y-76975682D01*
X158540588Y-76974604D01*
X158680974Y-76956122D01*
X158689162Y-76955044D01*
X158835241Y-76894536D01*
X158960682Y-76798282D01*
X159056936Y-76672841D01*
X159117444Y-76526762D01*
X159138082Y-76370000D01*
X159117444Y-76213238D01*
X159056936Y-76067159D01*
X158980720Y-75967832D01*
X158965705Y-75948264D01*
X158960682Y-75941718D01*
X158907196Y-75900677D01*
X158865329Y-75843339D01*
X158857900Y-75800714D01*
X158857900Y-71794059D01*
X158877902Y-71725938D01*
X158907192Y-71694100D01*
X158941882Y-71667482D01*
X159038136Y-71542041D01*
X159098644Y-71395962D01*
X159103627Y-71358116D01*
X159118204Y-71247388D01*
X159119282Y-71239200D01*
X159098644Y-71082438D01*
X159054936Y-70976918D01*
X159047347Y-70906328D01*
X159079126Y-70842841D01*
X159140184Y-70806614D01*
X159171345Y-70802700D01*
X160053783Y-70802700D01*
X160121904Y-70822702D01*
X160142879Y-70839605D01*
X160335596Y-71032323D01*
X160369621Y-71094635D01*
X160372500Y-71121418D01*
X160372500Y-76248690D01*
X160372020Y-76259672D01*
X160368736Y-76297207D01*
X160378491Y-76333610D01*
X160380870Y-76344342D01*
X160387412Y-76381445D01*
X160392923Y-76390990D01*
X160394115Y-76394266D01*
X160395592Y-76397434D01*
X160398446Y-76408084D01*
X160404770Y-76417115D01*
X160420055Y-76438944D01*
X160425961Y-76448215D01*
X160439295Y-76471310D01*
X160444806Y-76480855D01*
X160453248Y-76487939D01*
X160473681Y-76505085D01*
X160481783Y-76512510D01*
X161182678Y-77213405D01*
X161216704Y-77275717D01*
X161211639Y-77346532D01*
X161169092Y-77403368D01*
X161102572Y-77428179D01*
X161093583Y-77428500D01*
X161010399Y-77428500D01*
X161004331Y-77429707D01*
X160964086Y-77437712D01*
X160964085Y-77437712D01*
X160951916Y-77440133D01*
X160885595Y-77484448D01*
X160841280Y-77550769D01*
X160829647Y-77609252D01*
X160829647Y-77827500D01*
X160809645Y-77895621D01*
X160755989Y-77942114D01*
X160703647Y-77953500D01*
X154956647Y-77953500D01*
X154888526Y-77933498D01*
X154842033Y-77879842D01*
X154830647Y-77827500D01*
X154830647Y-77609252D01*
X154819014Y-77550769D01*
X154774699Y-77484448D01*
X154708378Y-77440133D01*
X154696209Y-77437712D01*
X154696208Y-77437712D01*
X154655963Y-77429707D01*
X154649895Y-77428500D01*
X153060399Y-77428500D01*
X153054331Y-77429707D01*
X153014086Y-77437712D01*
X153014085Y-77437712D01*
X153001916Y-77440133D01*
X152991600Y-77447026D01*
X152939103Y-77482104D01*
X152871350Y-77503319D01*
X152802883Y-77484536D01*
X152755439Y-77431720D01*
X152743100Y-77377339D01*
X152743100Y-74860131D01*
X152763102Y-74792010D01*
X152816758Y-74745517D01*
X152885546Y-74735209D01*
X152917411Y-74739404D01*
X152917412Y-74739404D01*
X152925600Y-74740482D01*
X152933788Y-74739404D01*
X152934852Y-74739264D01*
X153082362Y-74719844D01*
X153228441Y-74659336D01*
X153353882Y-74563082D01*
X153450136Y-74437641D01*
X153510644Y-74291562D01*
X153531282Y-74134800D01*
X153510644Y-73978038D01*
X153450136Y-73831959D01*
X153353882Y-73706518D01*
X153344713Y-73699482D01*
X153288333Y-73656221D01*
X153228441Y-73610264D01*
X153082362Y-73549756D01*
X153074174Y-73548678D01*
X152970158Y-73534984D01*
X152905231Y-73506261D01*
X152866140Y-73446996D01*
X152865295Y-73376005D01*
X152902965Y-73315826D01*
X152909901Y-73310099D01*
X152991736Y-73247305D01*
X152998282Y-73242282D01*
X153094536Y-73116841D01*
X153155044Y-72970762D01*
X153159322Y-72938271D01*
X153174604Y-72822188D01*
X153175682Y-72814000D01*
X153155044Y-72657238D01*
X153094536Y-72511159D01*
X153012984Y-72404878D01*
X153003305Y-72392264D01*
X152998282Y-72385718D01*
X152872841Y-72289464D01*
X152726762Y-72228956D01*
X152570000Y-72208318D01*
X152413238Y-72228956D01*
X152267159Y-72289464D01*
X152141718Y-72385718D01*
X152136695Y-72392264D01*
X152127016Y-72404878D01*
X152045464Y-72511159D01*
X151984956Y-72657238D01*
X151964318Y-72814000D01*
X151965396Y-72822188D01*
X151973118Y-72880842D01*
X151962179Y-72950990D01*
X151937291Y-72986383D01*
X151852497Y-73071177D01*
X151790185Y-73105203D01*
X151719370Y-73100138D01*
X151662534Y-73057591D01*
X151646993Y-73030300D01*
X151641229Y-73016384D01*
X151621336Y-72968359D01*
X151525082Y-72842918D01*
X151399641Y-72746664D01*
X151253562Y-72686156D01*
X151096800Y-72665518D01*
X150940038Y-72686156D01*
X150793959Y-72746664D01*
X150668518Y-72842918D01*
X150663495Y-72849464D01*
X150627477Y-72896404D01*
X150570139Y-72938271D01*
X150527514Y-72945700D01*
X149938334Y-72945700D01*
X149870213Y-72925698D01*
X149849239Y-72908795D01*
X148123509Y-71183065D01*
X148116082Y-71174961D01*
X148110639Y-71168475D01*
X148091853Y-71146086D01*
X148082304Y-71140573D01*
X148059213Y-71127241D01*
X148049942Y-71121335D01*
X148028113Y-71106050D01*
X148019082Y-71099726D01*
X148008432Y-71096872D01*
X148005264Y-71095395D01*
X148001988Y-71094203D01*
X147992443Y-71088692D01*
X147956973Y-71082438D01*
X147955340Y-71082150D01*
X147944613Y-71079772D01*
X147908205Y-71070016D01*
X147897220Y-71070977D01*
X147897218Y-71070977D01*
X147870670Y-71073300D01*
X147859688Y-71073780D01*
X139601912Y-71073780D01*
X139590930Y-71073300D01*
X139564382Y-71070977D01*
X139564380Y-71070977D01*
X139553395Y-71070016D01*
X139516987Y-71079772D01*
X139506260Y-71082150D01*
X139504627Y-71082438D01*
X139469157Y-71088692D01*
X139459611Y-71094204D01*
X139456326Y-71095399D01*
X139453164Y-71096873D01*
X139442518Y-71099726D01*
X139433492Y-71106046D01*
X139433490Y-71106047D01*
X139411651Y-71121339D01*
X139402381Y-71127244D01*
X139379294Y-71140573D01*
X139379290Y-71140576D01*
X139369747Y-71146086D01*
X139345527Y-71174950D01*
X139338102Y-71183053D01*
X138289858Y-72231299D01*
X138281754Y-72238725D01*
X138252886Y-72262948D01*
X138247373Y-72272497D01*
X138234041Y-72295588D01*
X138228135Y-72304859D01*
X138206526Y-72335719D01*
X138203672Y-72346369D01*
X138202195Y-72349537D01*
X138201003Y-72352813D01*
X138195492Y-72362358D01*
X138190219Y-72392264D01*
X138188950Y-72399461D01*
X138186572Y-72410188D01*
X138176816Y-72446596D01*
X138177777Y-72457581D01*
X138177777Y-72457583D01*
X138180100Y-72484131D01*
X138180580Y-72495113D01*
X138180580Y-74192666D01*
X138160578Y-74260787D01*
X138143676Y-74281761D01*
X136671938Y-75753501D01*
X136663834Y-75760927D01*
X136634966Y-75785150D01*
X136629453Y-75794699D01*
X136616121Y-75817790D01*
X136610215Y-75827061D01*
X136588606Y-75857921D01*
X136585752Y-75868571D01*
X136584275Y-75871739D01*
X136583083Y-75875015D01*
X136577572Y-75884560D01*
X136571622Y-75918304D01*
X136571030Y-75921663D01*
X136568652Y-75932390D01*
X136558896Y-75968798D01*
X136559857Y-75979783D01*
X136559857Y-75979785D01*
X136562180Y-76006333D01*
X136562660Y-76017315D01*
X136562660Y-77005105D01*
X136542658Y-77073226D01*
X136525756Y-77094200D01*
X136257858Y-77362099D01*
X136249754Y-77369525D01*
X136220886Y-77393748D01*
X136215373Y-77403297D01*
X136202041Y-77426388D01*
X136196135Y-77435659D01*
X136174526Y-77466519D01*
X136171671Y-77477172D01*
X136170197Y-77480334D01*
X136169005Y-77483610D01*
X136163492Y-77493158D01*
X136161578Y-77504013D01*
X136161576Y-77504018D01*
X136156947Y-77530268D01*
X136154571Y-77540987D01*
X136153551Y-77544795D01*
X136116605Y-77605421D01*
X136052747Y-77636448D01*
X135982252Y-77628025D01*
X135927501Y-77582827D01*
X135905842Y-77512194D01*
X135905842Y-75094411D01*
X135925844Y-75026290D01*
X135979500Y-74979797D01*
X136004678Y-74971374D01*
X136231462Y-74921305D01*
X136231466Y-74921304D01*
X136235922Y-74920320D01*
X136370117Y-74869478D01*
X136482783Y-74826793D01*
X136482786Y-74826792D01*
X136487053Y-74825175D01*
X136721818Y-74694774D01*
X136864096Y-74586191D01*
X136931675Y-74534617D01*
X136931679Y-74534613D01*
X136935300Y-74531850D01*
X136939637Y-74527414D01*
X137051419Y-74413066D01*
X137123027Y-74339814D01*
X137178379Y-74263769D01*
X137278380Y-74126383D01*
X137278382Y-74126380D01*
X137281067Y-74122691D01*
X137365930Y-73961392D01*
X137403982Y-73889068D01*
X137403985Y-73889062D01*
X137406107Y-73885028D01*
X137409365Y-73875804D01*
X137494007Y-73636116D01*
X137494007Y-73636115D01*
X137495530Y-73631803D01*
X137531939Y-73447079D01*
X137546581Y-73372794D01*
X137546582Y-73372788D01*
X137547462Y-73368322D01*
X137548945Y-73338536D01*
X137560587Y-73104674D01*
X137560587Y-73104668D01*
X137560814Y-73100105D01*
X137535308Y-72832769D01*
X137530716Y-72814000D01*
X137472563Y-72576349D01*
X137471478Y-72571915D01*
X137420719Y-72446596D01*
X137372373Y-72327237D01*
X137372373Y-72327236D01*
X137370660Y-72323008D01*
X137234967Y-72091262D01*
X137124053Y-71952571D01*
X137070093Y-71885097D01*
X137070092Y-71885095D01*
X137067241Y-71881531D01*
X136870996Y-71698209D01*
X136745487Y-71611140D01*
X136654096Y-71547739D01*
X136654091Y-71547736D01*
X136650343Y-71545136D01*
X136646258Y-71543104D01*
X136646255Y-71543102D01*
X136474402Y-71457607D01*
X136409904Y-71425520D01*
X136405570Y-71424099D01*
X136405567Y-71424098D01*
X136159049Y-71343285D01*
X136159044Y-71343284D01*
X136154716Y-71341865D01*
X136010286Y-71316788D01*
X135946592Y-71285427D01*
X135909964Y-71224609D01*
X135905842Y-71192645D01*
X135905842Y-68468200D01*
X135925844Y-68400079D01*
X135979500Y-68353586D01*
X136031842Y-68342200D01*
X165179842Y-68342200D01*
X165247963Y-68362202D01*
G37*
G04 #@! TD.AperFunction*
G04 #@! TA.AperFunction,Conductor*
G36*
X131616263Y-75496802D02*
G01*
X131662756Y-75550458D01*
X131669473Y-75568822D01*
X132903951Y-79977671D01*
X132920733Y-80037605D01*
X132925400Y-80071578D01*
X132925400Y-83918922D01*
X132905398Y-83987043D01*
X132851742Y-84033536D01*
X132809806Y-84044491D01*
X132770207Y-84047773D01*
X132726240Y-84051415D01*
X132726236Y-84051416D01*
X132718449Y-84052061D01*
X132576945Y-84100640D01*
X132570397Y-84104918D01*
X132526015Y-84133914D01*
X132458047Y-84154427D01*
X132389777Y-84134938D01*
X132342883Y-84081633D01*
X132331100Y-84028431D01*
X132331100Y-80427310D01*
X132331580Y-80416328D01*
X132333903Y-80389780D01*
X132333903Y-80389778D01*
X132334864Y-80378793D01*
X132325108Y-80342385D01*
X132322730Y-80331658D01*
X132322138Y-80328299D01*
X132316188Y-80294555D01*
X132310677Y-80285010D01*
X132309485Y-80281734D01*
X132308008Y-80278566D01*
X132305154Y-80267916D01*
X132283545Y-80237056D01*
X132277639Y-80227785D01*
X132264307Y-80204694D01*
X132258794Y-80195145D01*
X132229917Y-80170915D01*
X132221815Y-80163489D01*
X130583263Y-78524937D01*
X130549237Y-78462625D01*
X130554302Y-78391810D01*
X130575836Y-78354851D01*
X130580778Y-78348961D01*
X130587708Y-78338841D01*
X130677002Y-78176415D01*
X130681834Y-78165142D01*
X130737880Y-77988462D01*
X130740430Y-77976468D01*
X130756607Y-77832239D01*
X130757000Y-77825215D01*
X130757000Y-77744115D01*
X130752525Y-77728876D01*
X130751135Y-77727671D01*
X130743452Y-77726000D01*
X128759115Y-77726000D01*
X128743876Y-77730475D01*
X128742671Y-77731865D01*
X128741000Y-77739548D01*
X128741000Y-77818657D01*
X128741301Y-77824805D01*
X128754812Y-77962603D01*
X128757195Y-77974638D01*
X128807629Y-78141682D01*
X128808170Y-78212676D01*
X128770243Y-78272693D01*
X128705888Y-78302677D01*
X128687007Y-78304100D01*
X128585816Y-78304100D01*
X128517695Y-78284098D01*
X128496721Y-78267195D01*
X127948405Y-77718879D01*
X127914379Y-77656567D01*
X127911500Y-77629784D01*
X127911500Y-77268486D01*
X127931502Y-77200365D01*
X127931944Y-77199885D01*
X128741000Y-77199885D01*
X128745475Y-77215124D01*
X128746865Y-77216329D01*
X128754548Y-77218000D01*
X129476885Y-77218000D01*
X129492124Y-77213525D01*
X129493329Y-77212135D01*
X129495000Y-77204452D01*
X129495000Y-77199885D01*
X130003000Y-77199885D01*
X130007475Y-77215124D01*
X130008865Y-77216329D01*
X130016548Y-77218000D01*
X130738885Y-77218000D01*
X130754124Y-77213525D01*
X130755329Y-77212135D01*
X130757000Y-77204452D01*
X130757000Y-77125343D01*
X130756699Y-77119195D01*
X130743188Y-76981397D01*
X130740805Y-76969362D01*
X130687233Y-76791924D01*
X130682559Y-76780584D01*
X130595540Y-76616923D01*
X130588751Y-76606706D01*
X130471603Y-76463067D01*
X130462959Y-76454363D01*
X130320144Y-76336216D01*
X130309973Y-76329356D01*
X130146924Y-76241196D01*
X130135619Y-76236444D01*
X130020308Y-76200750D01*
X130006205Y-76200544D01*
X130003000Y-76207299D01*
X130003000Y-77199885D01*
X129495000Y-77199885D01*
X129495000Y-76214076D01*
X129491027Y-76200545D01*
X129483232Y-76199425D01*
X129375479Y-76231138D01*
X129364111Y-76235731D01*
X129199846Y-76321607D01*
X129189585Y-76328321D01*
X129045127Y-76444468D01*
X129036368Y-76453046D01*
X128917222Y-76595039D01*
X128910292Y-76605159D01*
X128820998Y-76767585D01*
X128816166Y-76778858D01*
X128760120Y-76955538D01*
X128757570Y-76967532D01*
X128741393Y-77111761D01*
X128741000Y-77118785D01*
X128741000Y-77199885D01*
X127931944Y-77199885D01*
X127960796Y-77168523D01*
X128007736Y-77132505D01*
X128014282Y-77127482D01*
X128020956Y-77118785D01*
X128105509Y-77008592D01*
X128110536Y-77002041D01*
X128171044Y-76855962D01*
X128191682Y-76699200D01*
X128171044Y-76542438D01*
X128110536Y-76396359D01*
X128014282Y-76270918D01*
X127888841Y-76174664D01*
X127742762Y-76114156D01*
X127586000Y-76093518D01*
X127429238Y-76114156D01*
X127283159Y-76174664D01*
X127157718Y-76270918D01*
X127152695Y-76277464D01*
X127116677Y-76324404D01*
X127059339Y-76366271D01*
X127016714Y-76373700D01*
X123329286Y-76373700D01*
X123261165Y-76353698D01*
X123229323Y-76324404D01*
X123193305Y-76277464D01*
X123188282Y-76270918D01*
X123062841Y-76174664D01*
X122916762Y-76114156D01*
X122760000Y-76093518D01*
X122603238Y-76114156D01*
X122457159Y-76174664D01*
X122331718Y-76270918D01*
X122235464Y-76396359D01*
X122174956Y-76542438D01*
X122173878Y-76550626D01*
X122171741Y-76558602D01*
X122169548Y-76558014D01*
X122145605Y-76612136D01*
X122086340Y-76651227D01*
X122015348Y-76652072D01*
X121951763Y-76610398D01*
X121831603Y-76463067D01*
X121822959Y-76454363D01*
X121680144Y-76336216D01*
X121669973Y-76329356D01*
X121506924Y-76241196D01*
X121495619Y-76236444D01*
X121380308Y-76200750D01*
X121366205Y-76200544D01*
X121363000Y-76207299D01*
X121363000Y-77199885D01*
X121367475Y-77215124D01*
X121368865Y-77216329D01*
X121376548Y-77218000D01*
X122098885Y-77218000D01*
X122114124Y-77213525D01*
X122115329Y-77212135D01*
X122119879Y-77191217D01*
X122123856Y-77192082D01*
X122137002Y-77147310D01*
X122190658Y-77100817D01*
X122260932Y-77090713D01*
X122325512Y-77120207D01*
X122327696Y-77122240D01*
X122331718Y-77127482D01*
X122457159Y-77223736D01*
X122603238Y-77284244D01*
X122760000Y-77304882D01*
X122768188Y-77303804D01*
X122908574Y-77285322D01*
X122916762Y-77284244D01*
X123062841Y-77223736D01*
X123188282Y-77127482D01*
X123194956Y-77118785D01*
X123229323Y-77073996D01*
X123286661Y-77032129D01*
X123329286Y-77024700D01*
X127016714Y-77024700D01*
X127084835Y-77044702D01*
X127116677Y-77073996D01*
X127151045Y-77118785D01*
X127157718Y-77127482D01*
X127164264Y-77132505D01*
X127211204Y-77168523D01*
X127253071Y-77225861D01*
X127260500Y-77268486D01*
X127260500Y-77797090D01*
X127260020Y-77808072D01*
X127257906Y-77832239D01*
X127256736Y-77845607D01*
X127259590Y-77856256D01*
X127266491Y-77882010D01*
X127268870Y-77892742D01*
X127275412Y-77929845D01*
X127280923Y-77939390D01*
X127282115Y-77942666D01*
X127283592Y-77945834D01*
X127286446Y-77956484D01*
X127292770Y-77965515D01*
X127308055Y-77987344D01*
X127313961Y-77996615D01*
X127327293Y-78019706D01*
X127332806Y-78029255D01*
X127341251Y-78036341D01*
X127361682Y-78053485D01*
X127369785Y-78060911D01*
X127956679Y-78647805D01*
X127990705Y-78710117D01*
X127985640Y-78780932D01*
X127943093Y-78837768D01*
X127876573Y-78862579D01*
X127867584Y-78862900D01*
X125056486Y-78862900D01*
X124988365Y-78842898D01*
X124956523Y-78813604D01*
X124920505Y-78766664D01*
X124915482Y-78760118D01*
X124790041Y-78663864D01*
X124643962Y-78603356D01*
X124487200Y-78582718D01*
X124330438Y-78603356D01*
X124184359Y-78663864D01*
X124058918Y-78760118D01*
X123962664Y-78885559D01*
X123902156Y-79031638D01*
X123881518Y-79188400D01*
X123902156Y-79345162D01*
X123962664Y-79491241D01*
X124058918Y-79616682D01*
X124184359Y-79712936D01*
X124330438Y-79773444D01*
X124487200Y-79794082D01*
X124495388Y-79793004D01*
X124635774Y-79774522D01*
X124643962Y-79773444D01*
X124790041Y-79712936D01*
X124915482Y-79616682D01*
X124956523Y-79563196D01*
X125013861Y-79521329D01*
X125056486Y-79513900D01*
X125721267Y-79513900D01*
X125789388Y-79533902D01*
X125835881Y-79587558D01*
X125845985Y-79657832D01*
X125816491Y-79722412D01*
X125797973Y-79739861D01*
X125684518Y-79826918D01*
X125588264Y-79952359D01*
X125527756Y-80098438D01*
X125526678Y-80106626D01*
X125523529Y-80130544D01*
X125507118Y-80255200D01*
X125527756Y-80411962D01*
X125588264Y-80558041D01*
X125684518Y-80683482D01*
X125809959Y-80779736D01*
X125956038Y-80840244D01*
X126112800Y-80860882D01*
X126120988Y-80859804D01*
X126261374Y-80841322D01*
X126269562Y-80840244D01*
X126415641Y-80779736D01*
X126541082Y-80683482D01*
X126637336Y-80558041D01*
X126697844Y-80411962D01*
X126700764Y-80389780D01*
X126708022Y-80334653D01*
X126736745Y-80269726D01*
X126796010Y-80230635D01*
X126832944Y-80225100D01*
X128898692Y-80225100D01*
X128966813Y-80245102D01*
X129013306Y-80298758D01*
X129023410Y-80369032D01*
X128995214Y-80432091D01*
X128917222Y-80525039D01*
X128910298Y-80535152D01*
X128859135Y-80628216D01*
X128808789Y-80678275D01*
X128739372Y-80693168D01*
X128672018Y-80667479D01*
X128609233Y-80619302D01*
X128469236Y-80561313D01*
X128356720Y-80546500D01*
X128281280Y-80546500D01*
X128168764Y-80561313D01*
X128028767Y-80619302D01*
X127908549Y-80711549D01*
X127816302Y-80831767D01*
X127758313Y-80971764D01*
X127738534Y-81122000D01*
X127758313Y-81272236D01*
X127816302Y-81412233D01*
X127908549Y-81532451D01*
X128028767Y-81624698D01*
X128168764Y-81682687D01*
X128281280Y-81697500D01*
X128356720Y-81697500D01*
X128469236Y-81682687D01*
X128508382Y-81666472D01*
X128566782Y-81642282D01*
X128637372Y-81634693D01*
X128700859Y-81666472D01*
X128737086Y-81727530D01*
X128741000Y-81758691D01*
X128741000Y-82248657D01*
X128741301Y-82254805D01*
X128754812Y-82392603D01*
X128757195Y-82404638D01*
X128810767Y-82582076D01*
X128815441Y-82593416D01*
X128902460Y-82757077D01*
X128909249Y-82767294D01*
X129026397Y-82910933D01*
X129035041Y-82919637D01*
X129177856Y-83037784D01*
X129188027Y-83044644D01*
X129351076Y-83132804D01*
X129362381Y-83137556D01*
X129477692Y-83173250D01*
X129491795Y-83173456D01*
X129495000Y-83166701D01*
X129495000Y-81524000D01*
X129515002Y-81455879D01*
X129568658Y-81409386D01*
X129621000Y-81398000D01*
X129877000Y-81398000D01*
X129945121Y-81418002D01*
X129991614Y-81471658D01*
X130003000Y-81524000D01*
X130003000Y-83159924D01*
X130006973Y-83173455D01*
X130014768Y-83174575D01*
X130122521Y-83142862D01*
X130133889Y-83138269D01*
X130298154Y-83052393D01*
X130313574Y-83042303D01*
X130314552Y-83043798D01*
X130372366Y-83019924D01*
X130442221Y-83032604D01*
X130494131Y-83081038D01*
X130511700Y-83145216D01*
X130511700Y-86839490D01*
X130511220Y-86850472D01*
X130507936Y-86888007D01*
X130510790Y-86898656D01*
X130517691Y-86924410D01*
X130520070Y-86935142D01*
X130526612Y-86972245D01*
X130532123Y-86981790D01*
X130533315Y-86985066D01*
X130534792Y-86988234D01*
X130537646Y-86998884D01*
X130543970Y-87007915D01*
X130559255Y-87029744D01*
X130565161Y-87039015D01*
X130578493Y-87062106D01*
X130584006Y-87071655D01*
X130592451Y-87078741D01*
X130612882Y-87095885D01*
X130620985Y-87103311D01*
X131990095Y-88472422D01*
X131997521Y-88480525D01*
X132021745Y-88509394D01*
X132031288Y-88514904D01*
X132031292Y-88514907D01*
X132054379Y-88528236D01*
X132063648Y-88534140D01*
X132094516Y-88555754D01*
X132105164Y-88558607D01*
X132108335Y-88560086D01*
X132111611Y-88561278D01*
X132121155Y-88566788D01*
X132158276Y-88573334D01*
X132168983Y-88575708D01*
X132205393Y-88585463D01*
X132216368Y-88584503D01*
X132216370Y-88584503D01*
X132242931Y-88582179D01*
X132253912Y-88581700D01*
X132317677Y-88581700D01*
X132385798Y-88601702D01*
X132432291Y-88655358D01*
X132442395Y-88725632D01*
X132410380Y-88793036D01*
X132350367Y-88858227D01*
X132279160Y-88989805D01*
X132262705Y-89054785D01*
X132245121Y-89124225D01*
X132242433Y-89134838D01*
X132242433Y-89284449D01*
X132244352Y-89292029D01*
X132244353Y-89292033D01*
X132277240Y-89421898D01*
X132279161Y-89429482D01*
X132350368Y-89561060D01*
X132355666Y-89566815D01*
X132355668Y-89566818D01*
X132392439Y-89606762D01*
X132451696Y-89671132D01*
X132458243Y-89675409D01*
X132458245Y-89675411D01*
X132563179Y-89743966D01*
X132576946Y-89752961D01*
X132718450Y-89801540D01*
X132726237Y-89802185D01*
X132726241Y-89802186D01*
X132774810Y-89806210D01*
X132809805Y-89809109D01*
X132876040Y-89834668D01*
X132917944Y-89891979D01*
X132925400Y-89934679D01*
X132925400Y-99918922D01*
X132905398Y-99987043D01*
X132851742Y-100033536D01*
X132809806Y-100044491D01*
X132770207Y-100047773D01*
X132726240Y-100051415D01*
X132726236Y-100051416D01*
X132718449Y-100052061D01*
X132576945Y-100100640D01*
X132570397Y-100104918D01*
X132458245Y-100178190D01*
X132458243Y-100178191D01*
X132451696Y-100182469D01*
X132446398Y-100188224D01*
X132446397Y-100188225D01*
X132355667Y-100286784D01*
X132355665Y-100286787D01*
X132350367Y-100292542D01*
X132279160Y-100424120D01*
X132274136Y-100443959D01*
X132244460Y-100561150D01*
X132242433Y-100569153D01*
X132242433Y-100634786D01*
X132222431Y-100702907D01*
X132168775Y-100749400D01*
X132098501Y-100759504D01*
X132033921Y-100730010D01*
X132027337Y-100723881D01*
X131947415Y-100643958D01*
X131828604Y-100525147D01*
X131794579Y-100462835D01*
X131791700Y-100436052D01*
X131791700Y-98703884D01*
X131776476Y-98578080D01*
X131716545Y-98419477D01*
X131620512Y-98279749D01*
X131608714Y-98269237D01*
X131499592Y-98172012D01*
X131499588Y-98172010D01*
X131493921Y-98166960D01*
X131344081Y-98087624D01*
X131179641Y-98046319D01*
X131172043Y-98046279D01*
X131172041Y-98046279D01*
X131094868Y-98045875D01*
X131010095Y-98045431D01*
X131002708Y-98047205D01*
X131002704Y-98047205D01*
X130859362Y-98081620D01*
X130845232Y-98085012D01*
X130838488Y-98088493D01*
X130838485Y-98088494D01*
X130833289Y-98091176D01*
X130694569Y-98162775D01*
X130566804Y-98274231D01*
X130469313Y-98412947D01*
X130407724Y-98570913D01*
X130390700Y-98700226D01*
X130390700Y-100749759D01*
X130390408Y-100758329D01*
X130387629Y-100799095D01*
X130386522Y-100815330D01*
X130387827Y-100822806D01*
X130387827Y-100822809D01*
X130397378Y-100877532D01*
X130398341Y-100884058D01*
X130405924Y-100946720D01*
X130408609Y-100953827D01*
X130409418Y-100957120D01*
X130413377Y-100971591D01*
X130414366Y-100974867D01*
X130415673Y-100982354D01*
X130418728Y-100989313D01*
X130418728Y-100989314D01*
X130441047Y-101040160D01*
X130443539Y-101046266D01*
X130465855Y-101105323D01*
X130470154Y-101111578D01*
X130471735Y-101114603D01*
X130479025Y-101127699D01*
X130480766Y-101130643D01*
X130483821Y-101137602D01*
X130488446Y-101143630D01*
X130488447Y-101143631D01*
X130522242Y-101187673D01*
X130526119Y-101193009D01*
X130557581Y-101238786D01*
X130557586Y-101238792D01*
X130561888Y-101245051D01*
X130567559Y-101250103D01*
X130567560Y-101250105D01*
X130607864Y-101286015D01*
X130613139Y-101290996D01*
X131361024Y-102038881D01*
X131366877Y-102045147D01*
X131404431Y-102088196D01*
X131456090Y-102124502D01*
X131461374Y-102128427D01*
X131511057Y-102167383D01*
X131517984Y-102170511D01*
X131520915Y-102172286D01*
X131533918Y-102179703D01*
X131536932Y-102181319D01*
X131543147Y-102185687D01*
X131550223Y-102188446D01*
X131550227Y-102188448D01*
X131601964Y-102208619D01*
X131608045Y-102211175D01*
X131665584Y-102237155D01*
X131673050Y-102238539D01*
X131676299Y-102239557D01*
X131690764Y-102243677D01*
X131694037Y-102244517D01*
X131701113Y-102247276D01*
X131745783Y-102253156D01*
X131763706Y-102255516D01*
X131770223Y-102256548D01*
X131795965Y-102261319D01*
X131832292Y-102268052D01*
X131839872Y-102267615D01*
X131839873Y-102267615D01*
X131893744Y-102264509D01*
X131900996Y-102264300D01*
X132363470Y-102264300D01*
X132431591Y-102284302D01*
X132478084Y-102337958D01*
X132488188Y-102408232D01*
X132483063Y-102429967D01*
X132460263Y-102498707D01*
X132457395Y-102512086D01*
X132447728Y-102606438D01*
X132447400Y-102612855D01*
X132447400Y-102637885D01*
X132451875Y-102653124D01*
X132453265Y-102654329D01*
X132460948Y-102656000D01*
X134083400Y-102656000D01*
X134151521Y-102676002D01*
X134198014Y-102729658D01*
X134209400Y-102782000D01*
X134209400Y-104384200D01*
X134189398Y-104452321D01*
X134135742Y-104498814D01*
X134083400Y-104510200D01*
X132465516Y-104510200D01*
X132450277Y-104514675D01*
X132449072Y-104516065D01*
X132447401Y-104523748D01*
X132447401Y-104553295D01*
X132447738Y-104559814D01*
X132457656Y-104655403D01*
X132458956Y-104661422D01*
X132453784Y-104732230D01*
X132428496Y-104773356D01*
X132355667Y-104852469D01*
X132355665Y-104852472D01*
X132350367Y-104858227D01*
X132279160Y-104989805D01*
X132262705Y-105054785D01*
X132245121Y-105124225D01*
X132242433Y-105134838D01*
X132242433Y-105284449D01*
X132244352Y-105292029D01*
X132244353Y-105292033D01*
X132277240Y-105421898D01*
X132279161Y-105429482D01*
X132350368Y-105561060D01*
X132355666Y-105566815D01*
X132355668Y-105566818D01*
X132446397Y-105665376D01*
X132451696Y-105671132D01*
X132458243Y-105675409D01*
X132458245Y-105675411D01*
X132563179Y-105743966D01*
X132576946Y-105752961D01*
X132718450Y-105801540D01*
X132726237Y-105802185D01*
X132726241Y-105802186D01*
X132774810Y-105806210D01*
X132809805Y-105809109D01*
X132876040Y-105834668D01*
X132917944Y-105891979D01*
X132925400Y-105934679D01*
X132925400Y-109782023D01*
X132920733Y-109815996D01*
X132109595Y-112712920D01*
X131669476Y-114284773D01*
X131631848Y-114344978D01*
X131567643Y-114375282D01*
X131548143Y-114376800D01*
X120288400Y-114376800D01*
X120220279Y-114356798D01*
X120187600Y-114326400D01*
X117350600Y-110543734D01*
X117325729Y-110477236D01*
X117325400Y-110468134D01*
X117325400Y-105909200D01*
X118594400Y-105909200D01*
X122734604Y-105909200D01*
X122802725Y-105929202D01*
X122849218Y-105982858D01*
X122860600Y-106036192D01*
X122810800Y-112360800D01*
X122861600Y-112716400D01*
X128297200Y-112716400D01*
X128301541Y-112365464D01*
X128405033Y-103997342D01*
X128425876Y-103929474D01*
X128480102Y-103883648D01*
X128531023Y-103872900D01*
X130604331Y-103872900D01*
X130672452Y-103892902D01*
X130704293Y-103922195D01*
X130764518Y-104000682D01*
X130889959Y-104096936D01*
X131036038Y-104157444D01*
X131192800Y-104178082D01*
X131200988Y-104177004D01*
X131341374Y-104158522D01*
X131349562Y-104157444D01*
X131495641Y-104096936D01*
X131621082Y-104000682D01*
X131633817Y-103984085D01*
X132447400Y-103984085D01*
X132451875Y-103999324D01*
X132453265Y-104000529D01*
X132460948Y-104002200D01*
X133683285Y-104002200D01*
X133698524Y-103997725D01*
X133699729Y-103996335D01*
X133701400Y-103988652D01*
X133701400Y-103182115D01*
X133696925Y-103166876D01*
X133695535Y-103165671D01*
X133687852Y-103164000D01*
X132465516Y-103164000D01*
X132450277Y-103168475D01*
X132449072Y-103169865D01*
X132447401Y-103177548D01*
X132447401Y-103207095D01*
X132447738Y-103213614D01*
X132457657Y-103309206D01*
X132460549Y-103322600D01*
X132511988Y-103476784D01*
X132518160Y-103489958D01*
X132534817Y-103516876D01*
X132553655Y-103585328D01*
X132534934Y-103649295D01*
X132517583Y-103677445D01*
X132511437Y-103690624D01*
X132460262Y-103844910D01*
X132457395Y-103858286D01*
X132447728Y-103952638D01*
X132447400Y-103959055D01*
X132447400Y-103984085D01*
X131633817Y-103984085D01*
X131717336Y-103875241D01*
X131777844Y-103729162D01*
X131798482Y-103572400D01*
X131777844Y-103415638D01*
X131717336Y-103269559D01*
X131621082Y-103144118D01*
X131495641Y-103047864D01*
X131349562Y-102987356D01*
X131192800Y-102966718D01*
X131036038Y-102987356D01*
X130889959Y-103047864D01*
X130764518Y-103144118D01*
X130759495Y-103150664D01*
X130704294Y-103222604D01*
X130646956Y-103264471D01*
X130604331Y-103271900D01*
X128541573Y-103271900D01*
X128473452Y-103251898D01*
X128426959Y-103198242D01*
X128415583Y-103144342D01*
X128538735Y-93186542D01*
X128559578Y-93118674D01*
X128613804Y-93072848D01*
X128664725Y-93062100D01*
X130216434Y-93062100D01*
X130219107Y-93062296D01*
X130224142Y-93064025D01*
X130235764Y-93063589D01*
X130235766Y-93063589D01*
X130273055Y-93062189D01*
X130277781Y-93062100D01*
X130296748Y-93062100D01*
X130301483Y-93061218D01*
X130305009Y-93060990D01*
X130308749Y-93060849D01*
X130336008Y-93059826D01*
X130346693Y-93055236D01*
X130351293Y-93054199D01*
X130363014Y-93050638D01*
X130367417Y-93048939D01*
X130378853Y-93046809D01*
X130399841Y-93033872D01*
X130416211Y-93025369D01*
X130430688Y-93019149D01*
X130430692Y-93019147D01*
X130438863Y-93015636D01*
X130443749Y-93011622D01*
X130445934Y-93009437D01*
X130448197Y-93007385D01*
X130448342Y-93007545D01*
X130457349Y-93000425D01*
X130464244Y-92994173D01*
X130474148Y-92988068D01*
X130490706Y-92966293D01*
X130501907Y-92953464D01*
X131419061Y-92036311D01*
X131421086Y-92034563D01*
X131425869Y-92032225D01*
X131459149Y-91996348D01*
X131462430Y-91992941D01*
X131471739Y-91983633D01*
X131471740Y-91983631D01*
X131475848Y-91979524D01*
X131478575Y-91975548D01*
X131480915Y-91972884D01*
X131494087Y-91958685D01*
X131502001Y-91950154D01*
X131506312Y-91939347D01*
X131508838Y-91935352D01*
X131514601Y-91924558D01*
X131516512Y-91920246D01*
X131523092Y-91910654D01*
X131528783Y-91886673D01*
X131534348Y-91869076D01*
X131540188Y-91854438D01*
X131540189Y-91854435D01*
X131543483Y-91846178D01*
X131544100Y-91839885D01*
X131544100Y-91836806D01*
X131544250Y-91833733D01*
X131544466Y-91833744D01*
X131545798Y-91822369D01*
X131546254Y-91813054D01*
X131548940Y-91801734D01*
X131545251Y-91774627D01*
X131544100Y-91757636D01*
X131544100Y-90038469D01*
X131564102Y-89970348D01*
X131593396Y-89938506D01*
X131598384Y-89934679D01*
X131671882Y-89878282D01*
X131768136Y-89752841D01*
X131828644Y-89606762D01*
X131849282Y-89450000D01*
X131837315Y-89359099D01*
X131829722Y-89301426D01*
X131828644Y-89293238D01*
X131825004Y-89284449D01*
X131771296Y-89154789D01*
X131768136Y-89147159D01*
X131671882Y-89021718D01*
X131546441Y-88925464D01*
X131400362Y-88864956D01*
X131243600Y-88844318D01*
X131086838Y-88864956D01*
X130940759Y-88925464D01*
X130815318Y-89021718D01*
X130719064Y-89147159D01*
X130715904Y-89154789D01*
X130662197Y-89284449D01*
X130658556Y-89293238D01*
X130657478Y-89301426D01*
X130649885Y-89359099D01*
X130637918Y-89450000D01*
X130658556Y-89606762D01*
X130719064Y-89752841D01*
X130815318Y-89878282D01*
X130888817Y-89934679D01*
X130893804Y-89938506D01*
X130935671Y-89995844D01*
X130943100Y-90038469D01*
X130943100Y-91610139D01*
X130923098Y-91678260D01*
X130906195Y-91699234D01*
X130181234Y-92424195D01*
X130118922Y-92458221D01*
X130092139Y-92461100D01*
X128675275Y-92461100D01*
X128607154Y-92441098D01*
X128560661Y-92387442D01*
X128549285Y-92333542D01*
X128652576Y-83981716D01*
X128652800Y-83963600D01*
X123776000Y-83963600D01*
X120928775Y-89799001D01*
X118721410Y-94323008D01*
X118645200Y-94479200D01*
X118594400Y-105909200D01*
X117325400Y-105909200D01*
X117325400Y-82248657D01*
X120101000Y-82248657D01*
X120101301Y-82254805D01*
X120114812Y-82392603D01*
X120117195Y-82404638D01*
X120170767Y-82582076D01*
X120175441Y-82593416D01*
X120262460Y-82757077D01*
X120269249Y-82767294D01*
X120386397Y-82910933D01*
X120395041Y-82919637D01*
X120537856Y-83037784D01*
X120548027Y-83044644D01*
X120711076Y-83132804D01*
X120722381Y-83137556D01*
X120837692Y-83173250D01*
X120851795Y-83173456D01*
X120855000Y-83166701D01*
X120855000Y-83159924D01*
X121363000Y-83159924D01*
X121366973Y-83173455D01*
X121374768Y-83174575D01*
X121482521Y-83142862D01*
X121493889Y-83138269D01*
X121658154Y-83052393D01*
X121668415Y-83045679D01*
X121812873Y-82929532D01*
X121821632Y-82920954D01*
X121940778Y-82778961D01*
X121947708Y-82768841D01*
X122037002Y-82606415D01*
X122041834Y-82595142D01*
X122097880Y-82418462D01*
X122100430Y-82406468D01*
X122116607Y-82262239D01*
X122117000Y-82255215D01*
X122117000Y-81758691D01*
X122137002Y-81690570D01*
X122190658Y-81644077D01*
X122260932Y-81633973D01*
X122291218Y-81642282D01*
X122349618Y-81666472D01*
X122388764Y-81682687D01*
X122501280Y-81697500D01*
X122576720Y-81697500D01*
X122689236Y-81682687D01*
X122829233Y-81624698D01*
X122949451Y-81532451D01*
X123041698Y-81412233D01*
X123099687Y-81272236D01*
X123119466Y-81122000D01*
X123099687Y-80971764D01*
X123041698Y-80831767D01*
X122949451Y-80711549D01*
X122829233Y-80619302D01*
X122689236Y-80561313D01*
X122576720Y-80546500D01*
X122501280Y-80546500D01*
X122388764Y-80561313D01*
X122248767Y-80619302D01*
X122185983Y-80667478D01*
X122185922Y-80667525D01*
X122119702Y-80693126D01*
X122050153Y-80678861D01*
X121997966Y-80626716D01*
X121955540Y-80546923D01*
X121948751Y-80536706D01*
X121831603Y-80393067D01*
X121822959Y-80384363D01*
X121680144Y-80266216D01*
X121669973Y-80259356D01*
X121506924Y-80171196D01*
X121495619Y-80166444D01*
X121380308Y-80130750D01*
X121366205Y-80130544D01*
X121363000Y-80137299D01*
X121363000Y-83159924D01*
X120855000Y-83159924D01*
X120855000Y-81924115D01*
X120850525Y-81908876D01*
X120849135Y-81907671D01*
X120841452Y-81906000D01*
X120119115Y-81906000D01*
X120103876Y-81910475D01*
X120102671Y-81911865D01*
X120101000Y-81919548D01*
X120101000Y-82248657D01*
X117325400Y-82248657D01*
X117325400Y-81379885D01*
X120101000Y-81379885D01*
X120105475Y-81395124D01*
X120106865Y-81396329D01*
X120114548Y-81398000D01*
X120836885Y-81398000D01*
X120852124Y-81393525D01*
X120853329Y-81392135D01*
X120855000Y-81384452D01*
X120855000Y-80144076D01*
X120851027Y-80130545D01*
X120843232Y-80129425D01*
X120735479Y-80161138D01*
X120724111Y-80165731D01*
X120559846Y-80251607D01*
X120549585Y-80258321D01*
X120405127Y-80374468D01*
X120396368Y-80383046D01*
X120277222Y-80525039D01*
X120270292Y-80535159D01*
X120180998Y-80697585D01*
X120176166Y-80708858D01*
X120120120Y-80885538D01*
X120117570Y-80897532D01*
X120101393Y-81041761D01*
X120101000Y-81048785D01*
X120101000Y-81379885D01*
X117325400Y-81379885D01*
X117325400Y-79385466D01*
X117345402Y-79317345D01*
X117350600Y-79309866D01*
X118469007Y-77818657D01*
X120101000Y-77818657D01*
X120101301Y-77824805D01*
X120114812Y-77962603D01*
X120117195Y-77974638D01*
X120170767Y-78152076D01*
X120175441Y-78163416D01*
X120262460Y-78327077D01*
X120269249Y-78337294D01*
X120386397Y-78480933D01*
X120395041Y-78489637D01*
X120537856Y-78607784D01*
X120548027Y-78614644D01*
X120711076Y-78702804D01*
X120722381Y-78707556D01*
X120837692Y-78743250D01*
X120851795Y-78743456D01*
X120855000Y-78736701D01*
X120855000Y-78729924D01*
X121363000Y-78729924D01*
X121366973Y-78743455D01*
X121374768Y-78744575D01*
X121482521Y-78712862D01*
X121493889Y-78708269D01*
X121658154Y-78622393D01*
X121668415Y-78615679D01*
X121812873Y-78499532D01*
X121821632Y-78490954D01*
X121940778Y-78348961D01*
X121947708Y-78338841D01*
X122037002Y-78176415D01*
X122041834Y-78165142D01*
X122097880Y-77988462D01*
X122100430Y-77976468D01*
X122116607Y-77832239D01*
X122117000Y-77825215D01*
X122117000Y-77744115D01*
X122112525Y-77728876D01*
X122111135Y-77727671D01*
X122103452Y-77726000D01*
X121381115Y-77726000D01*
X121365876Y-77730475D01*
X121364671Y-77731865D01*
X121363000Y-77739548D01*
X121363000Y-78729924D01*
X120855000Y-78729924D01*
X120855000Y-77744115D01*
X120850525Y-77728876D01*
X120849135Y-77727671D01*
X120841452Y-77726000D01*
X120119115Y-77726000D01*
X120103876Y-77730475D01*
X120102671Y-77731865D01*
X120101000Y-77739548D01*
X120101000Y-77818657D01*
X118469007Y-77818657D01*
X118933086Y-77199885D01*
X120101000Y-77199885D01*
X120105475Y-77215124D01*
X120106865Y-77216329D01*
X120114548Y-77218000D01*
X120836885Y-77218000D01*
X120852124Y-77213525D01*
X120853329Y-77212135D01*
X120855000Y-77204452D01*
X120855000Y-76214076D01*
X120851027Y-76200545D01*
X120843232Y-76199425D01*
X120735479Y-76231138D01*
X120724111Y-76235731D01*
X120559846Y-76321607D01*
X120549585Y-76328321D01*
X120405127Y-76444468D01*
X120396368Y-76453046D01*
X120277222Y-76595039D01*
X120270292Y-76605159D01*
X120180998Y-76767585D01*
X120176166Y-76778858D01*
X120120120Y-76955538D01*
X120117570Y-76967532D01*
X120101393Y-77111761D01*
X120101000Y-77118785D01*
X120101000Y-77199885D01*
X118933086Y-77199885D01*
X120187600Y-75527200D01*
X120244474Y-75484705D01*
X120288400Y-75476800D01*
X131548142Y-75476800D01*
X131616263Y-75496802D01*
G37*
G04 #@! TD.AperFunction*
M02*
