%FSLAX45Y45*%
G04 Gerber Fmt 4.5, Leading zero omitted, Abs format (unit mm)*
G04 Created by KiCad (PCBNEW (6.0.0)) date 2022-07-15 20:41:04*
%MOMM*%
%LPD*%
G01*
G04 APERTURE LIST*
%TA.AperFunction,Profile*%
%ADD10C,0.200000*%
%TD*%
%ADD11C,0.200000*%
%ADD12C,0.040000*%
%ADD13C,0.060000*%
G04 APERTURE END LIST*
D10*
X16060584Y-11884220D02*
X15660584Y-11884220D01*
X13570584Y-9664220D02*
G75*
G03*
X13570584Y-9364220I1J150000D01*
G01*
X13312540Y-8436112D02*
X13312540Y-8002680D01*
X12012540Y-11457680D02*
X13179540Y-11457680D01*
X12012540Y-7527680D02*
X11712540Y-7927680D01*
X16550584Y-7164220D02*
G75*
G03*
X16550584Y-7464220I1J-150000D01*
G01*
X13570584Y-11964220D02*
X13570584Y-9664220D01*
X16060584Y-11884220D02*
G75*
G03*
X16060584Y-11704220I1J90000D01*
G01*
X16550584Y-9364220D02*
G75*
G03*
X16550584Y-9664220I1J-150000D01*
G01*
X13507540Y-10492680D02*
X13507540Y-10092680D01*
X11712540Y-7927680D02*
X11712540Y-11057680D01*
X13570584Y-7464220D02*
G75*
G03*
X13570584Y-7164220I1J150000D01*
G01*
X14460584Y-11884220D02*
X14060584Y-11884220D01*
X16550584Y-12464220D02*
X13570584Y-12464220D01*
X15660584Y-11704220D02*
X16060584Y-11704220D01*
X13507540Y-10092680D02*
X13312540Y-10092680D01*
X14060584Y-10099220D02*
X16060584Y-10099220D01*
X14460584Y-11884220D02*
G75*
G03*
X14460584Y-11704220I1J90000D01*
G01*
X13312540Y-10492680D02*
X13507540Y-10492680D01*
X13507540Y-8892680D02*
X13507540Y-8492680D01*
X13570584Y-12264220D02*
G75*
G03*
X13570584Y-11964220I1J150000D01*
G01*
X13507540Y-8492680D02*
X13312540Y-8492680D01*
X14060584Y-11704220D02*
G75*
G03*
X14060584Y-11884220I1J-90000D01*
G01*
X13312540Y-8002680D02*
X13179540Y-7527680D01*
X13570584Y-9364220D02*
X13570584Y-7464220D01*
X13312540Y-10492680D02*
G75*
G03*
X13312540Y-10549249I-28284J-28284D01*
G01*
X13312540Y-8436112D02*
G75*
G03*
X13312540Y-8492680I-28284J-28284D01*
G01*
X13570584Y-6814220D02*
X16550584Y-6814220D01*
X16550584Y-6814220D02*
X16550584Y-7164220D01*
X13312540Y-10036112D02*
G75*
G03*
X13312540Y-10092680I-28284J-28284D01*
G01*
X16550584Y-12264220D02*
X16550584Y-12464220D01*
X13570584Y-12464220D02*
X13570584Y-12264220D01*
X14060584Y-11704220D02*
X14460584Y-11704220D01*
X16550584Y-9664220D02*
X16550584Y-11964220D01*
X14060584Y-9899220D02*
G75*
G03*
X14060584Y-10099220I1J-100000D01*
G01*
X15660584Y-11704220D02*
G75*
G03*
X15660584Y-11884220I1J-90000D01*
G01*
X13570584Y-7164220D02*
X13570584Y-6814220D01*
X13312540Y-10036112D02*
X13312540Y-8949249D01*
X16060584Y-10099220D02*
G75*
G03*
X16060584Y-9899220I1J100000D01*
G01*
X16550584Y-7464220D02*
X16550584Y-9364220D01*
X13179540Y-11457680D02*
X13312540Y-10982680D01*
X16550584Y-11964220D02*
G75*
G03*
X16550584Y-12264220I1J-150000D01*
G01*
X13312540Y-8892680D02*
X13507540Y-8892680D01*
X13312540Y-8892680D02*
G75*
G03*
X13312540Y-8949249I-28284J-28284D01*
G01*
X16060584Y-9899220D02*
X14060584Y-9899220D01*
X11712540Y-11057680D02*
X12012540Y-11457680D01*
X13312540Y-10982680D02*
X13312540Y-10549249D01*
X13179540Y-7527680D02*
X12012540Y-7527680D01*
D11*
D12*
X11768320Y-10418520D02*
X11808320Y-10458520D01*
X11808320Y-10418520D02*
X11768320Y-10458520D01*
X11768320Y-10520120D02*
X11808320Y-10560120D01*
X11808320Y-10520120D02*
X11768320Y-10560120D01*
X11773400Y-9539680D02*
X11813400Y-9579680D01*
X11813400Y-9539680D02*
X11773400Y-9579680D01*
X11773400Y-9641280D02*
X11813400Y-9681280D01*
X11813400Y-9641280D02*
X11773400Y-9681280D01*
X11798800Y-8290000D02*
X11838800Y-8330000D01*
X11838800Y-8290000D02*
X11798800Y-8330000D01*
X11864840Y-7934400D02*
X11904840Y-7974400D01*
X11904840Y-7934400D02*
X11864840Y-7974400D01*
X11864840Y-8036000D02*
X11904840Y-8076000D01*
X11904840Y-8036000D02*
X11864840Y-8076000D01*
X11900400Y-8290000D02*
X11940400Y-8330000D01*
X11940400Y-8290000D02*
X11900400Y-8330000D01*
X11905480Y-8701480D02*
X11945480Y-8741480D01*
X11945480Y-8701480D02*
X11905480Y-8741480D01*
X11910560Y-10951920D02*
X11950560Y-10991920D01*
X11950560Y-10951920D02*
X11910560Y-10991920D01*
X11915640Y-10220400D02*
X11955640Y-10260400D01*
X11955640Y-10220400D02*
X11915640Y-10260400D01*
X11915640Y-10322000D02*
X11955640Y-10362000D01*
X11955640Y-10322000D02*
X11915640Y-10362000D01*
X11915640Y-10428680D02*
X11955640Y-10468680D01*
X11955640Y-10428680D02*
X11915640Y-10468680D01*
X11930880Y-9549840D02*
X11970880Y-9589840D01*
X11970880Y-9549840D02*
X11930880Y-9589840D01*
X11930880Y-9651440D02*
X11970880Y-9691440D01*
X11970880Y-9651440D02*
X11930880Y-9691440D01*
X11930880Y-9753040D02*
X11970880Y-9793040D01*
X11970880Y-9753040D02*
X11930880Y-9793040D01*
X12007080Y-8701480D02*
X12047080Y-8741480D01*
X12047080Y-8701480D02*
X12007080Y-8741480D01*
X12012160Y-10951920D02*
X12052160Y-10991920D01*
X12052160Y-10951920D02*
X12012160Y-10991920D01*
X12017240Y-10220400D02*
X12057240Y-10260400D01*
X12057240Y-10220400D02*
X12017240Y-10260400D01*
X12017240Y-10322000D02*
X12057240Y-10362000D01*
X12057240Y-10322000D02*
X12017240Y-10362000D01*
X12017240Y-10428680D02*
X12057240Y-10468680D01*
X12057240Y-10428680D02*
X12017240Y-10468680D01*
X12027400Y-9549840D02*
X12067400Y-9589840D01*
X12067400Y-9549840D02*
X12027400Y-9589840D01*
X12027400Y-9651440D02*
X12067400Y-9691440D01*
X12067400Y-9651440D02*
X12027400Y-9691440D01*
X12027400Y-9753040D02*
X12067400Y-9793040D01*
X12067400Y-9753040D02*
X12027400Y-9793040D01*
X12123920Y-10220400D02*
X12163920Y-10260400D01*
X12163920Y-10220400D02*
X12123920Y-10260400D01*
X12123920Y-10322000D02*
X12163920Y-10362000D01*
X12163920Y-10322000D02*
X12123920Y-10362000D01*
X12123920Y-10428680D02*
X12163920Y-10468680D01*
X12163920Y-10428680D02*
X12123920Y-10468680D01*
X12134080Y-9549840D02*
X12174080Y-9589840D01*
X12174080Y-9549840D02*
X12134080Y-9589840D01*
X12134080Y-9651440D02*
X12174080Y-9691440D01*
X12174080Y-9651440D02*
X12134080Y-9691440D01*
X12134080Y-9753040D02*
X12174080Y-9793040D01*
X12174080Y-9753040D02*
X12134080Y-9793040D01*
X12256000Y-7649920D02*
X12296000Y-7689920D01*
X12296000Y-7649920D02*
X12256000Y-7689920D01*
X12266160Y-11338000D02*
X12306160Y-11378000D01*
X12306160Y-11338000D02*
X12266160Y-11378000D01*
X12367760Y-10957000D02*
X12407760Y-10997000D01*
X12407760Y-10957000D02*
X12367760Y-10997000D01*
X12367760Y-11058600D02*
X12407760Y-11098600D01*
X12407760Y-11058600D02*
X12367760Y-11098600D01*
X12367760Y-11165280D02*
X12407760Y-11205280D01*
X12407760Y-11165280D02*
X12367760Y-11205280D01*
X12367760Y-11338000D02*
X12407760Y-11378000D01*
X12407760Y-11338000D02*
X12367760Y-11378000D01*
X12428720Y-7898840D02*
X12468720Y-7938840D01*
X12468720Y-7898840D02*
X12428720Y-7938840D01*
X12459200Y-8518600D02*
X12499200Y-8558600D01*
X12499200Y-8518600D02*
X12459200Y-8558600D01*
X12459200Y-8620200D02*
X12499200Y-8660200D01*
X12499200Y-8620200D02*
X12459200Y-8660200D01*
X12459200Y-8721800D02*
X12499200Y-8761800D01*
X12499200Y-8721800D02*
X12459200Y-8761800D01*
X12464280Y-10957000D02*
X12504280Y-10997000D01*
X12504280Y-10957000D02*
X12464280Y-10997000D01*
X12464280Y-11058600D02*
X12504280Y-11098600D01*
X12504280Y-11058600D02*
X12464280Y-11098600D01*
X12464280Y-11165280D02*
X12504280Y-11205280D01*
X12504280Y-11165280D02*
X12464280Y-11205280D01*
X12555720Y-8518600D02*
X12595720Y-8558600D01*
X12595720Y-8518600D02*
X12555720Y-8558600D01*
X12555720Y-8620200D02*
X12595720Y-8660200D01*
X12595720Y-8620200D02*
X12555720Y-8660200D01*
X12555720Y-8721800D02*
X12595720Y-8761800D01*
X12595720Y-8721800D02*
X12555720Y-8761800D01*
X12570960Y-10957000D02*
X12610960Y-10997000D01*
X12610960Y-10957000D02*
X12570960Y-10997000D01*
X12570960Y-11058600D02*
X12610960Y-11098600D01*
X12610960Y-11058600D02*
X12570960Y-11098600D01*
X12570960Y-11165280D02*
X12610960Y-11205280D01*
X12610960Y-11165280D02*
X12570960Y-11205280D01*
X12591280Y-8005520D02*
X12631280Y-8045520D01*
X12631280Y-8005520D02*
X12591280Y-8045520D01*
X12647160Y-11332920D02*
X12687160Y-11372920D01*
X12687160Y-11332920D02*
X12647160Y-11372920D01*
X12657320Y-8518600D02*
X12697320Y-8558600D01*
X12697320Y-8518600D02*
X12657320Y-8558600D01*
X12657320Y-8620200D02*
X12697320Y-8660200D01*
X12697320Y-8620200D02*
X12657320Y-8660200D01*
X12657320Y-8721800D02*
X12697320Y-8761800D01*
X12697320Y-8721800D02*
X12657320Y-8761800D01*
X12738600Y-7649920D02*
X12778600Y-7689920D01*
X12778600Y-7649920D02*
X12738600Y-7689920D01*
X12748760Y-11332920D02*
X12788760Y-11372920D01*
X12788760Y-11332920D02*
X12748760Y-11372920D01*
X12972280Y-11317680D02*
X13012280Y-11357680D01*
X13012280Y-11317680D02*
X12972280Y-11357680D01*
X13033240Y-11053520D02*
X13073240Y-11093520D01*
X13073240Y-11053520D02*
X13033240Y-11093520D01*
X13048480Y-10799520D02*
X13088480Y-10839520D01*
X13088480Y-10799520D02*
X13048480Y-10839520D01*
X13053560Y-9392360D02*
X13093560Y-9432360D01*
X13093560Y-9392360D02*
X13053560Y-9432360D01*
X13053560Y-9631120D02*
X13093560Y-9671120D01*
X13093560Y-9631120D02*
X13053560Y-9671120D01*
X13073880Y-11317680D02*
X13113880Y-11357680D01*
X13113880Y-11317680D02*
X13073880Y-11357680D01*
X13089120Y-9854640D02*
X13129120Y-9894640D01*
X13129120Y-9854640D02*
X13089120Y-9894640D01*
X13099280Y-10337240D02*
X13139280Y-10377240D01*
X13139280Y-10337240D02*
X13099280Y-10377240D01*
X13104360Y-8925000D02*
X13144360Y-8965000D01*
X13144360Y-8925000D02*
X13104360Y-8965000D01*
X13134840Y-11053520D02*
X13174840Y-11093520D01*
X13174840Y-11053520D02*
X13134840Y-11093520D01*
X13150080Y-10799520D02*
X13190080Y-10839520D01*
X13190080Y-10799520D02*
X13150080Y-10839520D01*
X13155160Y-9392360D02*
X13195160Y-9432360D01*
X13195160Y-9392360D02*
X13155160Y-9432360D01*
X13155160Y-9631120D02*
X13195160Y-9671120D01*
X13195160Y-9631120D02*
X13155160Y-9671120D01*
X13652040Y-7012480D02*
X13692040Y-7052480D01*
X13692040Y-7012480D02*
X13652040Y-7052480D01*
X13743480Y-7012480D02*
X13783480Y-7052480D01*
X13783480Y-7012480D02*
X13743480Y-7052480D01*
X13748560Y-11503200D02*
X13788560Y-11543200D01*
X13788560Y-11503200D02*
X13748560Y-11543200D01*
X13758720Y-7840520D02*
X13798720Y-7880520D01*
X13798720Y-7840520D02*
X13758720Y-7880520D01*
X13824760Y-8805720D02*
X13864760Y-8845720D01*
X13864760Y-8805720D02*
X13824760Y-8845720D01*
X13840000Y-11503200D02*
X13880000Y-11543200D01*
X13880000Y-11503200D02*
X13840000Y-11543200D01*
X13860320Y-8638080D02*
X13900320Y-8678080D01*
X13900320Y-8638080D02*
X13860320Y-8678080D01*
X13880640Y-9765840D02*
X13920640Y-9805840D01*
X13920640Y-9765840D02*
X13880640Y-9805840D01*
X13956840Y-10344960D02*
X13996840Y-10384960D01*
X13996840Y-10344960D02*
X13956840Y-10384960D01*
X13967000Y-7302040D02*
X14007000Y-7342040D01*
X14007000Y-7302040D02*
X13967000Y-7342040D01*
X13972080Y-9765840D02*
X14012080Y-9805840D01*
X14012080Y-9765840D02*
X13972080Y-9805840D01*
X14058440Y-12209320D02*
X14098440Y-12249320D01*
X14098440Y-12209320D02*
X14058440Y-12249320D01*
X14149880Y-12209320D02*
X14189880Y-12249320D01*
X14189880Y-12209320D02*
X14149880Y-12249320D01*
X14195600Y-8262160D02*
X14235600Y-8302160D01*
X14235600Y-8262160D02*
X14195600Y-8302160D01*
X14215920Y-10207800D02*
X14255920Y-10247800D01*
X14255920Y-10207800D02*
X14215920Y-10247800D01*
X14226080Y-6946440D02*
X14266080Y-6986440D01*
X14266080Y-6946440D02*
X14226080Y-6986440D01*
X14287040Y-8262160D02*
X14327040Y-8302160D01*
X14327040Y-8262160D02*
X14287040Y-8302160D01*
X14307360Y-10207800D02*
X14347360Y-10247800D01*
X14347360Y-10207800D02*
X14307360Y-10247800D01*
X14317520Y-6946440D02*
X14357520Y-6986440D01*
X14357520Y-6946440D02*
X14317520Y-6986440D01*
X14358160Y-7535720D02*
X14398160Y-7575720D01*
X14398160Y-7535720D02*
X14358160Y-7575720D01*
X14378480Y-10822480D02*
X14418480Y-10862480D01*
X14418480Y-10822480D02*
X14378480Y-10862480D01*
X14449600Y-7535720D02*
X14489600Y-7575720D01*
X14489600Y-7535720D02*
X14449600Y-7575720D01*
X14449600Y-10670080D02*
X14489600Y-10710080D01*
X14489600Y-10670080D02*
X14449600Y-10710080D01*
X14541040Y-10670080D02*
X14581040Y-10710080D01*
X14581040Y-10670080D02*
X14541040Y-10710080D01*
X14591840Y-10822480D02*
X14631840Y-10862480D01*
X14631840Y-10822480D02*
X14591840Y-10862480D01*
X14718840Y-7525560D02*
X14758840Y-7565560D01*
X14758840Y-7525560D02*
X14718840Y-7565560D01*
X14718840Y-8719360D02*
X14758840Y-8759360D01*
X14758840Y-8719360D02*
X14718840Y-8759360D01*
X14967760Y-8160560D02*
X15007760Y-8200560D01*
X15007760Y-8160560D02*
X14967760Y-8200560D01*
X15023640Y-8373920D02*
X15063640Y-8413920D01*
X15063640Y-8373920D02*
X15023640Y-8413920D01*
X15033800Y-7210600D02*
X15073800Y-7250600D01*
X15073800Y-7210600D02*
X15033800Y-7250600D01*
X15033800Y-8541560D02*
X15073800Y-8581560D01*
X15073800Y-8541560D02*
X15033800Y-8581560D01*
X15074440Y-11792760D02*
X15114440Y-11832760D01*
X15114440Y-11792760D02*
X15074440Y-11832760D01*
X15089680Y-7307120D02*
X15129680Y-7347120D01*
X15129680Y-7307120D02*
X15089680Y-7347120D01*
X15089680Y-7611920D02*
X15129680Y-7651920D01*
X15129680Y-7611920D02*
X15089680Y-7651920D01*
X15099840Y-10223040D02*
X15139840Y-10263040D01*
X15139840Y-10223040D02*
X15099840Y-10263040D01*
X15110000Y-8749840D02*
X15150000Y-8789840D01*
X15150000Y-8749840D02*
X15110000Y-8789840D01*
X15130320Y-7210600D02*
X15170320Y-7250600D01*
X15170320Y-7210600D02*
X15130320Y-7250600D01*
X15135400Y-8922560D02*
X15175400Y-8962560D01*
X15175400Y-8922560D02*
X15135400Y-8962560D01*
X15145560Y-8241840D02*
X15185560Y-8281840D01*
X15185560Y-8241840D02*
X15145560Y-8281840D01*
X15150640Y-8643160D02*
X15190640Y-8683160D01*
X15190640Y-8643160D02*
X15150640Y-8683160D01*
X15176040Y-7068360D02*
X15216040Y-7108360D01*
X15216040Y-7068360D02*
X15176040Y-7108360D01*
X15191280Y-10223040D02*
X15231280Y-10263040D01*
X15231280Y-10223040D02*
X15191280Y-10263040D01*
X15201440Y-8749840D02*
X15241440Y-8789840D01*
X15241440Y-8749840D02*
X15201440Y-8789840D01*
X15215715Y-10792000D02*
X15255715Y-10832000D01*
X15255715Y-10792000D02*
X15215715Y-10832000D01*
X15216680Y-10497360D02*
X15256680Y-10537360D01*
X15256680Y-10497360D02*
X15216680Y-10537360D01*
X15231920Y-9003840D02*
X15271920Y-9043840D01*
X15271920Y-9003840D02*
X15231920Y-9043840D01*
X15237000Y-7261400D02*
X15277000Y-7301400D01*
X15277000Y-7261400D02*
X15237000Y-7301400D01*
X15252240Y-9379760D02*
X15292240Y-9419760D01*
X15292240Y-9379760D02*
X15252240Y-9419760D01*
X15272560Y-7393480D02*
X15312560Y-7433480D01*
X15312560Y-7393480D02*
X15272560Y-7433480D01*
X15379240Y-11284760D02*
X15419240Y-11324760D01*
X15419240Y-11284760D02*
X15379240Y-11324760D01*
X15440200Y-11731800D02*
X15480200Y-11771800D01*
X15480200Y-11731800D02*
X15440200Y-11771800D01*
X15440200Y-11995960D02*
X15480200Y-12035960D01*
X15480200Y-11995960D02*
X15440200Y-12035960D01*
X15557040Y-9649000D02*
X15597040Y-9689000D01*
X15597040Y-9649000D02*
X15557040Y-9689000D01*
X15577360Y-9298480D02*
X15617360Y-9338480D01*
X15617360Y-9298480D02*
X15577360Y-9338480D01*
X15577360Y-10817400D02*
X15617360Y-10857400D01*
X15617360Y-10817400D02*
X15577360Y-10857400D01*
X15618000Y-8079280D02*
X15658000Y-8119280D01*
X15658000Y-8079280D02*
X15618000Y-8119280D01*
X15628160Y-8257080D02*
X15668160Y-8297080D01*
X15668160Y-8257080D02*
X15628160Y-8297080D01*
X15668800Y-10817400D02*
X15708800Y-10857400D01*
X15708800Y-10817400D02*
X15668800Y-10857400D01*
X15687630Y-8432150D02*
X15727630Y-8472150D01*
X15727630Y-8432150D02*
X15687630Y-8472150D01*
X15694200Y-9405160D02*
X15734200Y-9445160D01*
X15734200Y-9405160D02*
X15694200Y-9445160D01*
X15714520Y-9654080D02*
X15754520Y-9694080D01*
X15754520Y-9654080D02*
X15714520Y-9694080D01*
X15775480Y-9577880D02*
X15815480Y-9617880D01*
X15815480Y-9577880D02*
X15775480Y-9617880D01*
X15795800Y-8968280D02*
X15835800Y-9008280D01*
X15835800Y-8968280D02*
X15795800Y-9008280D01*
X15831360Y-7103920D02*
X15871360Y-7143920D01*
X15871360Y-7103920D02*
X15831360Y-7143920D01*
X15833240Y-7617000D02*
X15873240Y-7657000D01*
X15873240Y-7617000D02*
X15833240Y-7657000D01*
X15841520Y-11564160D02*
X15881520Y-11604160D01*
X15881520Y-11564160D02*
X15841520Y-11604160D01*
X15841520Y-12356640D02*
X15881520Y-12396640D01*
X15881520Y-12356640D02*
X15841520Y-12396640D01*
X15851680Y-12158520D02*
X15891680Y-12198520D01*
X15891680Y-12158520D02*
X15851680Y-12198520D01*
X15932960Y-12356640D02*
X15972960Y-12396640D01*
X15972960Y-12356640D02*
X15932960Y-12396640D01*
X15943120Y-11330480D02*
X15983120Y-11370480D01*
X15983120Y-11330480D02*
X15943120Y-11370480D01*
X15973600Y-10644680D02*
X16013600Y-10684680D01*
X16013600Y-10644680D02*
X15973600Y-10684680D01*
X15983760Y-11432080D02*
X16023760Y-11472080D01*
X16023760Y-11432080D02*
X15983760Y-11472080D01*
X16034560Y-7962440D02*
X16074560Y-8002440D01*
X16074560Y-7962440D02*
X16034560Y-8002440D01*
X16034560Y-8887000D02*
X16074560Y-8927000D01*
X16074560Y-8887000D02*
X16034560Y-8927000D01*
X16034560Y-11330480D02*
X16074560Y-11370480D01*
X16074560Y-11330480D02*
X16034560Y-11370480D01*
X16151400Y-8760000D02*
X16191400Y-8800000D01*
X16191400Y-8760000D02*
X16151400Y-8800000D01*
X16156480Y-7962440D02*
X16196480Y-8002440D01*
X16196480Y-7962440D02*
X16156480Y-8002440D01*
X16156480Y-9567720D02*
X16196480Y-9607720D01*
X16196480Y-9567720D02*
X16156480Y-9607720D01*
X16182310Y-8989030D02*
X16222310Y-9029030D01*
X16222310Y-8989030D02*
X16182310Y-9029030D01*
X16232680Y-7053120D02*
X16272680Y-7093120D01*
X16272680Y-7053120D02*
X16232680Y-7093120D01*
X16232680Y-8038640D02*
X16272680Y-8078640D01*
X16272680Y-8038640D02*
X16232680Y-8078640D01*
X16278400Y-11427000D02*
X16318400Y-11467000D01*
X16318400Y-11427000D02*
X16278400Y-11467000D01*
X16288560Y-10451640D02*
X16328560Y-10491640D01*
X16328560Y-10451640D02*
X16288560Y-10491640D01*
X16293640Y-7393480D02*
X16333640Y-7433480D01*
X16333640Y-7393480D02*
X16293640Y-7433480D01*
X16303800Y-11574320D02*
X16343800Y-11614320D01*
X16343800Y-11574320D02*
X16303800Y-11614320D01*
X16303800Y-11665760D02*
X16343800Y-11705760D01*
X16343800Y-11665760D02*
X16303800Y-11705760D01*
X16324120Y-6931200D02*
X16364120Y-6971200D01*
X16364120Y-6931200D02*
X16324120Y-6971200D01*
X16334280Y-11046000D02*
X16374280Y-11086000D01*
X16374280Y-11046000D02*
X16334280Y-11086000D01*
X16334280Y-11137440D02*
X16374280Y-11177440D01*
X16374280Y-11137440D02*
X16334280Y-11177440D01*
X16398990Y-9135490D02*
X16438990Y-9175490D01*
X16438990Y-9135490D02*
X16398990Y-9175490D01*
X16435880Y-7581440D02*
X16475880Y-7621440D01*
X16475880Y-7581440D02*
X16435880Y-7621440D01*
D13*
X12140900Y-7747200D02*
G75*
G03*
X12140900Y-7747200I-30000J0D01*
G01*
D11*
X12130900Y-7777200D02*
X12130900Y-7717200D01*
X12090900Y-7777200D02*
X12090900Y-7717200D01*
X12130900Y-7717200D02*
G75*
G03*
X12090900Y-7717200I-20000J0D01*
G01*
X12090900Y-7777200D02*
G75*
G03*
X12130900Y-7777200I20000J0D01*
G01*
D13*
X12140900Y-8165200D02*
G75*
G03*
X12140900Y-8165200I-30000J0D01*
G01*
D11*
X12130900Y-8220200D02*
X12130900Y-8110200D01*
X12090900Y-8220200D02*
X12090900Y-8110200D01*
X12130900Y-8110200D02*
G75*
G03*
X12090900Y-8110200I-20000J0D01*
G01*
X12090900Y-8220200D02*
G75*
G03*
X12130900Y-8220200I20000J0D01*
G01*
D13*
X13004900Y-7747200D02*
G75*
G03*
X13004900Y-7747200I-30000J0D01*
G01*
D11*
X12994900Y-7777200D02*
X12994900Y-7717200D01*
X12954900Y-7777200D02*
X12954900Y-7717200D01*
X12994900Y-7717200D02*
G75*
G03*
X12954900Y-7717200I-20000J0D01*
G01*
X12954900Y-7777200D02*
G75*
G03*
X12994900Y-7777200I20000J0D01*
G01*
D13*
X13004900Y-8165200D02*
G75*
G03*
X13004900Y-8165200I-30000J0D01*
G01*
D11*
X12994900Y-8220200D02*
X12994900Y-8110200D01*
X12954900Y-8220200D02*
X12954900Y-8110200D01*
X12994900Y-8110200D02*
G75*
G03*
X12954900Y-8110200I-20000J0D01*
G01*
X12954900Y-8220200D02*
G75*
G03*
X12994900Y-8220200I20000J0D01*
G01*
X11960159Y-12784696D02*
X11960159Y-12584696D01*
X12007778Y-12584696D01*
X12036349Y-12594220D01*
X12055397Y-12613268D01*
X12064921Y-12632315D01*
X12074445Y-12670410D01*
X12074445Y-12698982D01*
X12064921Y-12737077D01*
X12055397Y-12756125D01*
X12036349Y-12775172D01*
X12007778Y-12784696D01*
X11960159Y-12784696D01*
X12160159Y-12784696D02*
X12160159Y-12651363D01*
X12160159Y-12689458D02*
X12169683Y-12670410D01*
X12179207Y-12660887D01*
X12198254Y-12651363D01*
X12217302Y-12651363D01*
X12283968Y-12784696D02*
X12283968Y-12651363D01*
X12283968Y-12584696D02*
X12274445Y-12594220D01*
X12283968Y-12603744D01*
X12293492Y-12594220D01*
X12283968Y-12584696D01*
X12283968Y-12603744D01*
X12407778Y-12784696D02*
X12388730Y-12775172D01*
X12379207Y-12756125D01*
X12379207Y-12584696D01*
X12512540Y-12784696D02*
X12493492Y-12775172D01*
X12483968Y-12756125D01*
X12483968Y-12584696D01*
X12741111Y-12784696D02*
X12741111Y-12584696D01*
X12807778Y-12727553D01*
X12874445Y-12584696D01*
X12874445Y-12784696D01*
X13055397Y-12784696D02*
X13055397Y-12679934D01*
X13045873Y-12660887D01*
X13026826Y-12651363D01*
X12988730Y-12651363D01*
X12969683Y-12660887D01*
X13055397Y-12775172D02*
X13036349Y-12784696D01*
X12988730Y-12784696D01*
X12969683Y-12775172D01*
X12960159Y-12756125D01*
X12960159Y-12737077D01*
X12969683Y-12718029D01*
X12988730Y-12708506D01*
X13036349Y-12708506D01*
X13055397Y-12698982D01*
X13150635Y-12651363D02*
X13150635Y-12851363D01*
X13150635Y-12660887D02*
X13169683Y-12651363D01*
X13207778Y-12651363D01*
X13226826Y-12660887D01*
X13236349Y-12670410D01*
X13245873Y-12689458D01*
X13245873Y-12746601D01*
X13236349Y-12765648D01*
X13226826Y-12775172D01*
X13207778Y-12784696D01*
X13169683Y-12784696D01*
X13150635Y-12775172D01*
X13331588Y-12765648D02*
X13341111Y-12775172D01*
X13331588Y-12784696D01*
X13322064Y-12775172D01*
X13331588Y-12765648D01*
X13331588Y-12784696D01*
X13331588Y-12660887D02*
X13341111Y-12670410D01*
X13331588Y-12679934D01*
X13322064Y-12670410D01*
X13331588Y-12660887D01*
X13331588Y-12679934D01*
D12*
X11662540Y-13094220D02*
X11702540Y-13134220D01*
X11702540Y-13094220D02*
X11662540Y-13134220D01*
D11*
X11998254Y-13004696D02*
X12017302Y-13004696D01*
X12036349Y-13014220D01*
X12045873Y-13023744D01*
X12055397Y-13042791D01*
X12064921Y-13080887D01*
X12064921Y-13128506D01*
X12055397Y-13166601D01*
X12045873Y-13185648D01*
X12036349Y-13195172D01*
X12017302Y-13204696D01*
X11998254Y-13204696D01*
X11979207Y-13195172D01*
X11969683Y-13185648D01*
X11960159Y-13166601D01*
X11950635Y-13128506D01*
X11950635Y-13080887D01*
X11960159Y-13042791D01*
X11969683Y-13023744D01*
X11979207Y-13014220D01*
X11998254Y-13004696D01*
X12150635Y-13185648D02*
X12160159Y-13195172D01*
X12150635Y-13204696D01*
X12141111Y-13195172D01*
X12150635Y-13185648D01*
X12150635Y-13204696D01*
X12331588Y-13071363D02*
X12331588Y-13204696D01*
X12283968Y-12995172D02*
X12236349Y-13138029D01*
X12360159Y-13138029D01*
X12474445Y-13004696D02*
X12493492Y-13004696D01*
X12512540Y-13014220D01*
X12522064Y-13023744D01*
X12531588Y-13042791D01*
X12541111Y-13080887D01*
X12541111Y-13128506D01*
X12531588Y-13166601D01*
X12522064Y-13185648D01*
X12512540Y-13195172D01*
X12493492Y-13204696D01*
X12474445Y-13204696D01*
X12455397Y-13195172D01*
X12445873Y-13185648D01*
X12436349Y-13166601D01*
X12426826Y-13128506D01*
X12426826Y-13080887D01*
X12436349Y-13042791D01*
X12445873Y-13023744D01*
X12455397Y-13014220D01*
X12474445Y-13004696D01*
X12664921Y-13004696D02*
X12683968Y-13004696D01*
X12703016Y-13014220D01*
X12712540Y-13023744D01*
X12722064Y-13042791D01*
X12731588Y-13080887D01*
X12731588Y-13128506D01*
X12722064Y-13166601D01*
X12712540Y-13185648D01*
X12703016Y-13195172D01*
X12683968Y-13204696D01*
X12664921Y-13204696D01*
X12645873Y-13195172D01*
X12636349Y-13185648D01*
X12626826Y-13166601D01*
X12617302Y-13128506D01*
X12617302Y-13080887D01*
X12626826Y-13042791D01*
X12636349Y-13023744D01*
X12645873Y-13014220D01*
X12664921Y-13004696D01*
X12817302Y-13204696D02*
X12817302Y-13071363D01*
X12817302Y-13090410D02*
X12826826Y-13080887D01*
X12845873Y-13071363D01*
X12874445Y-13071363D01*
X12893492Y-13080887D01*
X12903016Y-13099934D01*
X12903016Y-13204696D01*
X12903016Y-13099934D02*
X12912540Y-13080887D01*
X12931588Y-13071363D01*
X12960159Y-13071363D01*
X12979207Y-13080887D01*
X12988730Y-13099934D01*
X12988730Y-13204696D01*
X13083968Y-13204696D02*
X13083968Y-13071363D01*
X13083968Y-13090410D02*
X13093492Y-13080887D01*
X13112540Y-13071363D01*
X13141111Y-13071363D01*
X13160159Y-13080887D01*
X13169683Y-13099934D01*
X13169683Y-13204696D01*
X13169683Y-13099934D02*
X13179207Y-13080887D01*
X13198254Y-13071363D01*
X13226826Y-13071363D01*
X13245873Y-13080887D01*
X13255397Y-13099934D01*
X13255397Y-13204696D01*
X13645873Y-12995172D02*
X13474445Y-13252315D01*
X13903016Y-13004696D02*
X13922064Y-13004696D01*
X13941111Y-13014220D01*
X13950635Y-13023744D01*
X13960159Y-13042791D01*
X13969683Y-13080887D01*
X13969683Y-13128506D01*
X13960159Y-13166601D01*
X13950635Y-13185648D01*
X13941111Y-13195172D01*
X13922064Y-13204696D01*
X13903016Y-13204696D01*
X13883968Y-13195172D01*
X13874445Y-13185648D01*
X13864921Y-13166601D01*
X13855397Y-13128506D01*
X13855397Y-13080887D01*
X13864921Y-13042791D01*
X13874445Y-13023744D01*
X13883968Y-13014220D01*
X13903016Y-13004696D01*
X14055397Y-13185648D02*
X14064921Y-13195172D01*
X14055397Y-13204696D01*
X14045873Y-13195172D01*
X14055397Y-13185648D01*
X14055397Y-13204696D01*
X14188730Y-13004696D02*
X14207778Y-13004696D01*
X14226826Y-13014220D01*
X14236349Y-13023744D01*
X14245873Y-13042791D01*
X14255397Y-13080887D01*
X14255397Y-13128506D01*
X14245873Y-13166601D01*
X14236349Y-13185648D01*
X14226826Y-13195172D01*
X14207778Y-13204696D01*
X14188730Y-13204696D01*
X14169683Y-13195172D01*
X14160159Y-13185648D01*
X14150635Y-13166601D01*
X14141111Y-13128506D01*
X14141111Y-13080887D01*
X14150635Y-13042791D01*
X14160159Y-13023744D01*
X14169683Y-13014220D01*
X14188730Y-13004696D01*
X14445873Y-13204696D02*
X14331588Y-13204696D01*
X14388730Y-13204696D02*
X14388730Y-13004696D01*
X14369683Y-13033268D01*
X14350635Y-13052315D01*
X14331588Y-13061839D01*
X14626826Y-13004696D02*
X14531588Y-13004696D01*
X14522064Y-13099934D01*
X14531588Y-13090410D01*
X14550635Y-13080887D01*
X14598254Y-13080887D01*
X14617302Y-13090410D01*
X14626826Y-13099934D01*
X14636349Y-13118982D01*
X14636349Y-13166601D01*
X14626826Y-13185648D01*
X14617302Y-13195172D01*
X14598254Y-13204696D01*
X14550635Y-13204696D01*
X14531588Y-13195172D01*
X14522064Y-13185648D01*
X14703016Y-13004696D02*
X14836349Y-13004696D01*
X14750635Y-13204696D01*
X14903016Y-13004696D02*
X14903016Y-13042791D01*
X14979207Y-13004696D02*
X14979207Y-13042791D01*
X15274445Y-13280887D02*
X15264921Y-13271363D01*
X15245873Y-13242791D01*
X15236349Y-13223744D01*
X15226826Y-13195172D01*
X15217302Y-13147553D01*
X15217302Y-13109458D01*
X15226826Y-13061839D01*
X15236349Y-13033268D01*
X15245873Y-13014220D01*
X15264921Y-12985648D01*
X15274445Y-12976125D01*
X15455397Y-13204696D02*
X15341111Y-13204696D01*
X15398254Y-13204696D02*
X15398254Y-13004696D01*
X15379207Y-13033268D01*
X15360159Y-13052315D01*
X15341111Y-13061839D01*
X15626826Y-13004696D02*
X15588730Y-13004696D01*
X15569683Y-13014220D01*
X15560159Y-13023744D01*
X15541111Y-13052315D01*
X15531588Y-13090410D01*
X15531588Y-13166601D01*
X15541111Y-13185648D01*
X15550635Y-13195172D01*
X15569683Y-13204696D01*
X15607778Y-13204696D01*
X15626826Y-13195172D01*
X15636349Y-13185648D01*
X15645873Y-13166601D01*
X15645873Y-13118982D01*
X15636349Y-13099934D01*
X15626826Y-13090410D01*
X15607778Y-13080887D01*
X15569683Y-13080887D01*
X15550635Y-13090410D01*
X15541111Y-13099934D01*
X15531588Y-13118982D01*
X15769683Y-13004696D02*
X15788730Y-13004696D01*
X15807778Y-13014220D01*
X15817302Y-13023744D01*
X15826826Y-13042791D01*
X15836349Y-13080887D01*
X15836349Y-13128506D01*
X15826826Y-13166601D01*
X15817302Y-13185648D01*
X15807778Y-13195172D01*
X15788730Y-13204696D01*
X15769683Y-13204696D01*
X15750635Y-13195172D01*
X15741111Y-13185648D01*
X15731588Y-13166601D01*
X15722064Y-13128506D01*
X15722064Y-13080887D01*
X15731588Y-13042791D01*
X15741111Y-13023744D01*
X15750635Y-13014220D01*
X15769683Y-13004696D01*
X16074445Y-13204696D02*
X16074445Y-13004696D01*
X16160159Y-13204696D02*
X16160159Y-13099934D01*
X16150635Y-13080887D01*
X16131588Y-13071363D01*
X16103016Y-13071363D01*
X16083968Y-13080887D01*
X16074445Y-13090410D01*
X16283968Y-13204696D02*
X16264921Y-13195172D01*
X16255397Y-13185648D01*
X16245873Y-13166601D01*
X16245873Y-13109458D01*
X16255397Y-13090410D01*
X16264921Y-13080887D01*
X16283968Y-13071363D01*
X16312540Y-13071363D01*
X16331588Y-13080887D01*
X16341111Y-13090410D01*
X16350635Y-13109458D01*
X16350635Y-13166601D01*
X16341111Y-13185648D01*
X16331588Y-13195172D01*
X16312540Y-13204696D01*
X16283968Y-13204696D01*
X16464921Y-13204696D02*
X16445873Y-13195172D01*
X16436349Y-13176125D01*
X16436349Y-13004696D01*
X16617302Y-13195172D02*
X16598254Y-13204696D01*
X16560159Y-13204696D01*
X16541111Y-13195172D01*
X16531588Y-13176125D01*
X16531588Y-13099934D01*
X16541111Y-13080887D01*
X16560159Y-13071363D01*
X16598254Y-13071363D01*
X16617302Y-13080887D01*
X16626826Y-13099934D01*
X16626826Y-13118982D01*
X16531588Y-13138029D01*
X16703016Y-13195172D02*
X16722064Y-13204696D01*
X16760159Y-13204696D01*
X16779207Y-13195172D01*
X16788730Y-13176125D01*
X16788730Y-13166601D01*
X16779207Y-13147553D01*
X16760159Y-13138029D01*
X16731588Y-13138029D01*
X16712540Y-13128506D01*
X16703016Y-13109458D01*
X16703016Y-13099934D01*
X16712540Y-13080887D01*
X16731588Y-13071363D01*
X16760159Y-13071363D01*
X16779207Y-13080887D01*
X16855397Y-13280887D02*
X16864921Y-13271363D01*
X16883969Y-13242791D01*
X16893492Y-13223744D01*
X16903016Y-13195172D01*
X16912540Y-13147553D01*
X16912540Y-13109458D01*
X16903016Y-13061839D01*
X16893492Y-13033268D01*
X16883969Y-13014220D01*
X16864921Y-12985648D01*
X16855397Y-12976125D01*
D13*
X11702540Y-13378220D02*
G75*
G03*
X11702540Y-13378220I-30000J0D01*
G01*
D11*
X11998254Y-13268696D02*
X12017302Y-13268696D01*
X12036349Y-13278220D01*
X12045873Y-13287744D01*
X12055397Y-13306791D01*
X12064921Y-13344887D01*
X12064921Y-13392506D01*
X12055397Y-13430601D01*
X12045873Y-13449648D01*
X12036349Y-13459172D01*
X12017302Y-13468696D01*
X11998254Y-13468696D01*
X11979207Y-13459172D01*
X11969683Y-13449648D01*
X11960159Y-13430601D01*
X11950635Y-13392506D01*
X11950635Y-13344887D01*
X11960159Y-13306791D01*
X11969683Y-13287744D01*
X11979207Y-13278220D01*
X11998254Y-13268696D01*
X12150635Y-13449648D02*
X12160159Y-13459172D01*
X12150635Y-13468696D01*
X12141111Y-13459172D01*
X12150635Y-13449648D01*
X12150635Y-13468696D01*
X12331588Y-13268696D02*
X12293492Y-13268696D01*
X12274445Y-13278220D01*
X12264921Y-13287744D01*
X12245873Y-13316315D01*
X12236349Y-13354410D01*
X12236349Y-13430601D01*
X12245873Y-13449648D01*
X12255397Y-13459172D01*
X12274445Y-13468696D01*
X12312540Y-13468696D01*
X12331588Y-13459172D01*
X12341111Y-13449648D01*
X12350635Y-13430601D01*
X12350635Y-13382982D01*
X12341111Y-13363934D01*
X12331588Y-13354410D01*
X12312540Y-13344887D01*
X12274445Y-13344887D01*
X12255397Y-13354410D01*
X12245873Y-13363934D01*
X12236349Y-13382982D01*
X12474445Y-13268696D02*
X12493492Y-13268696D01*
X12512540Y-13278220D01*
X12522064Y-13287744D01*
X12531588Y-13306791D01*
X12541111Y-13344887D01*
X12541111Y-13392506D01*
X12531588Y-13430601D01*
X12522064Y-13449648D01*
X12512540Y-13459172D01*
X12493492Y-13468696D01*
X12474445Y-13468696D01*
X12455397Y-13459172D01*
X12445873Y-13449648D01*
X12436349Y-13430601D01*
X12426826Y-13392506D01*
X12426826Y-13344887D01*
X12436349Y-13306791D01*
X12445873Y-13287744D01*
X12455397Y-13278220D01*
X12474445Y-13268696D01*
X12664921Y-13268696D02*
X12683968Y-13268696D01*
X12703016Y-13278220D01*
X12712540Y-13287744D01*
X12722064Y-13306791D01*
X12731588Y-13344887D01*
X12731588Y-13392506D01*
X12722064Y-13430601D01*
X12712540Y-13449648D01*
X12703016Y-13459172D01*
X12683968Y-13468696D01*
X12664921Y-13468696D01*
X12645873Y-13459172D01*
X12636349Y-13449648D01*
X12626826Y-13430601D01*
X12617302Y-13392506D01*
X12617302Y-13344887D01*
X12626826Y-13306791D01*
X12636349Y-13287744D01*
X12645873Y-13278220D01*
X12664921Y-13268696D01*
X12817302Y-13468696D02*
X12817302Y-13335363D01*
X12817302Y-13354410D02*
X12826826Y-13344887D01*
X12845873Y-13335363D01*
X12874445Y-13335363D01*
X12893492Y-13344887D01*
X12903016Y-13363934D01*
X12903016Y-13468696D01*
X12903016Y-13363934D02*
X12912540Y-13344887D01*
X12931588Y-13335363D01*
X12960159Y-13335363D01*
X12979207Y-13344887D01*
X12988730Y-13363934D01*
X12988730Y-13468696D01*
X13083968Y-13468696D02*
X13083968Y-13335363D01*
X13083968Y-13354410D02*
X13093492Y-13344887D01*
X13112540Y-13335363D01*
X13141111Y-13335363D01*
X13160159Y-13344887D01*
X13169683Y-13363934D01*
X13169683Y-13468696D01*
X13169683Y-13363934D02*
X13179207Y-13344887D01*
X13198254Y-13335363D01*
X13226826Y-13335363D01*
X13245873Y-13344887D01*
X13255397Y-13363934D01*
X13255397Y-13468696D01*
X13645873Y-13259172D02*
X13474445Y-13516315D01*
X13903016Y-13268696D02*
X13922064Y-13268696D01*
X13941111Y-13278220D01*
X13950635Y-13287744D01*
X13960159Y-13306791D01*
X13969683Y-13344887D01*
X13969683Y-13392506D01*
X13960159Y-13430601D01*
X13950635Y-13449648D01*
X13941111Y-13459172D01*
X13922064Y-13468696D01*
X13903016Y-13468696D01*
X13883968Y-13459172D01*
X13874445Y-13449648D01*
X13864921Y-13430601D01*
X13855397Y-13392506D01*
X13855397Y-13344887D01*
X13864921Y-13306791D01*
X13874445Y-13287744D01*
X13883968Y-13278220D01*
X13903016Y-13268696D01*
X14055397Y-13449648D02*
X14064921Y-13459172D01*
X14055397Y-13468696D01*
X14045873Y-13459172D01*
X14055397Y-13449648D01*
X14055397Y-13468696D01*
X14188730Y-13268696D02*
X14207778Y-13268696D01*
X14226826Y-13278220D01*
X14236349Y-13287744D01*
X14245873Y-13306791D01*
X14255397Y-13344887D01*
X14255397Y-13392506D01*
X14245873Y-13430601D01*
X14236349Y-13449648D01*
X14226826Y-13459172D01*
X14207778Y-13468696D01*
X14188730Y-13468696D01*
X14169683Y-13459172D01*
X14160159Y-13449648D01*
X14150635Y-13430601D01*
X14141111Y-13392506D01*
X14141111Y-13344887D01*
X14150635Y-13306791D01*
X14160159Y-13287744D01*
X14169683Y-13278220D01*
X14188730Y-13268696D01*
X14331588Y-13287744D02*
X14341111Y-13278220D01*
X14360159Y-13268696D01*
X14407778Y-13268696D01*
X14426826Y-13278220D01*
X14436349Y-13287744D01*
X14445873Y-13306791D01*
X14445873Y-13325839D01*
X14436349Y-13354410D01*
X14322064Y-13468696D01*
X14445873Y-13468696D01*
X14512540Y-13268696D02*
X14636349Y-13268696D01*
X14569683Y-13344887D01*
X14598254Y-13344887D01*
X14617302Y-13354410D01*
X14626826Y-13363934D01*
X14636349Y-13382982D01*
X14636349Y-13430601D01*
X14626826Y-13449648D01*
X14617302Y-13459172D01*
X14598254Y-13468696D01*
X14541111Y-13468696D01*
X14522064Y-13459172D01*
X14512540Y-13449648D01*
X14807778Y-13268696D02*
X14769683Y-13268696D01*
X14750635Y-13278220D01*
X14741111Y-13287744D01*
X14722064Y-13316315D01*
X14712540Y-13354410D01*
X14712540Y-13430601D01*
X14722064Y-13449648D01*
X14731588Y-13459172D01*
X14750635Y-13468696D01*
X14788730Y-13468696D01*
X14807778Y-13459172D01*
X14817302Y-13449648D01*
X14826826Y-13430601D01*
X14826826Y-13382982D01*
X14817302Y-13363934D01*
X14807778Y-13354410D01*
X14788730Y-13344887D01*
X14750635Y-13344887D01*
X14731588Y-13354410D01*
X14722064Y-13363934D01*
X14712540Y-13382982D01*
X14903016Y-13268696D02*
X14903016Y-13306791D01*
X14979207Y-13268696D02*
X14979207Y-13306791D01*
X15274445Y-13544887D02*
X15264921Y-13535363D01*
X15245873Y-13506791D01*
X15236349Y-13487744D01*
X15226826Y-13459172D01*
X15217302Y-13411553D01*
X15217302Y-13373458D01*
X15226826Y-13325839D01*
X15236349Y-13297268D01*
X15245873Y-13278220D01*
X15264921Y-13249648D01*
X15274445Y-13240125D01*
X15388730Y-13268696D02*
X15407778Y-13268696D01*
X15426826Y-13278220D01*
X15436349Y-13287744D01*
X15445873Y-13306791D01*
X15455397Y-13344887D01*
X15455397Y-13392506D01*
X15445873Y-13430601D01*
X15436349Y-13449648D01*
X15426826Y-13459172D01*
X15407778Y-13468696D01*
X15388730Y-13468696D01*
X15369683Y-13459172D01*
X15360159Y-13449648D01*
X15350635Y-13430601D01*
X15341111Y-13392506D01*
X15341111Y-13344887D01*
X15350635Y-13306791D01*
X15360159Y-13287744D01*
X15369683Y-13278220D01*
X15388730Y-13268696D01*
X15693492Y-13468696D02*
X15693492Y-13268696D01*
X15779207Y-13468696D02*
X15779207Y-13363934D01*
X15769683Y-13344887D01*
X15750635Y-13335363D01*
X15722064Y-13335363D01*
X15703016Y-13344887D01*
X15693492Y-13354410D01*
X15903016Y-13468696D02*
X15883968Y-13459172D01*
X15874445Y-13449648D01*
X15864921Y-13430601D01*
X15864921Y-13373458D01*
X15874445Y-13354410D01*
X15883968Y-13344887D01*
X15903016Y-13335363D01*
X15931588Y-13335363D01*
X15950635Y-13344887D01*
X15960159Y-13354410D01*
X15969683Y-13373458D01*
X15969683Y-13430601D01*
X15960159Y-13449648D01*
X15950635Y-13459172D01*
X15931588Y-13468696D01*
X15903016Y-13468696D01*
X16083968Y-13468696D02*
X16064921Y-13459172D01*
X16055397Y-13440125D01*
X16055397Y-13268696D01*
X16236349Y-13459172D02*
X16217302Y-13468696D01*
X16179207Y-13468696D01*
X16160159Y-13459172D01*
X16150635Y-13440125D01*
X16150635Y-13363934D01*
X16160159Y-13344887D01*
X16179207Y-13335363D01*
X16217302Y-13335363D01*
X16236349Y-13344887D01*
X16245873Y-13363934D01*
X16245873Y-13382982D01*
X16150635Y-13402029D01*
X16322064Y-13459172D02*
X16341111Y-13468696D01*
X16379207Y-13468696D01*
X16398254Y-13459172D01*
X16407778Y-13440125D01*
X16407778Y-13430601D01*
X16398254Y-13411553D01*
X16379207Y-13402029D01*
X16350635Y-13402029D01*
X16331588Y-13392506D01*
X16322064Y-13373458D01*
X16322064Y-13363934D01*
X16331588Y-13344887D01*
X16350635Y-13335363D01*
X16379207Y-13335363D01*
X16398254Y-13344887D01*
X16645873Y-13392506D02*
X16798254Y-13392506D01*
X16722064Y-13468696D02*
X16722064Y-13316315D01*
X17131588Y-13335363D02*
X17131588Y-13468696D01*
X17083969Y-13259172D02*
X17036350Y-13402029D01*
X17160159Y-13402029D01*
X17379207Y-13459172D02*
X17398254Y-13468696D01*
X17436350Y-13468696D01*
X17455397Y-13459172D01*
X17464921Y-13440125D01*
X17464921Y-13430601D01*
X17455397Y-13411553D01*
X17436350Y-13402029D01*
X17407778Y-13402029D01*
X17388730Y-13392506D01*
X17379207Y-13373458D01*
X17379207Y-13363934D01*
X17388730Y-13344887D01*
X17407778Y-13335363D01*
X17436350Y-13335363D01*
X17455397Y-13344887D01*
X17579207Y-13468696D02*
X17560159Y-13459172D01*
X17550635Y-13440125D01*
X17550635Y-13268696D01*
X17683969Y-13468696D02*
X17664921Y-13459172D01*
X17655397Y-13449648D01*
X17645873Y-13430601D01*
X17645873Y-13373458D01*
X17655397Y-13354410D01*
X17664921Y-13344887D01*
X17683969Y-13335363D01*
X17712540Y-13335363D01*
X17731588Y-13344887D01*
X17741111Y-13354410D01*
X17750635Y-13373458D01*
X17750635Y-13430601D01*
X17741111Y-13449648D01*
X17731588Y-13459172D01*
X17712540Y-13468696D01*
X17683969Y-13468696D01*
X17807778Y-13335363D02*
X17883969Y-13335363D01*
X17836350Y-13268696D02*
X17836350Y-13440125D01*
X17845873Y-13459172D01*
X17864921Y-13468696D01*
X17883969Y-13468696D01*
X17941111Y-13459172D02*
X17960159Y-13468696D01*
X17998254Y-13468696D01*
X18017302Y-13459172D01*
X18026826Y-13440125D01*
X18026826Y-13430601D01*
X18017302Y-13411553D01*
X17998254Y-13402029D01*
X17969683Y-13402029D01*
X17950635Y-13392506D01*
X17941111Y-13373458D01*
X17941111Y-13363934D01*
X17950635Y-13344887D01*
X17969683Y-13335363D01*
X17998254Y-13335363D01*
X18017302Y-13344887D01*
X18093492Y-13544887D02*
X18103016Y-13535363D01*
X18122064Y-13506791D01*
X18131588Y-13487744D01*
X18141111Y-13459172D01*
X18150635Y-13411553D01*
X18150635Y-13373458D01*
X18141111Y-13325839D01*
X18131588Y-13297268D01*
X18122064Y-13278220D01*
X18103016Y-13249648D01*
X18093492Y-13240125D01*
M02*
