G04 #@! TF.GenerationSoftware,KiCad,Pcbnew,(6.0.0)*
G04 #@! TF.CreationDate,2022-07-15T20:40:48-03:00*
G04 #@! TF.ProjectId,lanterna_bueno,6c616e74-6572-46e6-915f-6275656e6f2e,rev?*
G04 #@! TF.SameCoordinates,Original*
G04 #@! TF.FileFunction,Legend,Top*
G04 #@! TF.FilePolarity,Positive*
%FSLAX46Y46*%
G04 Gerber Fmt 4.6, Leading zero omitted, Abs format (unit mm)*
G04 Created by KiCad (PCBNEW (6.0.0)) date 2022-07-15 20:40:48*
%MOMM*%
%LPD*%
G01*
G04 APERTURE LIST*
G04 Aperture macros list*
%AMRoundRect*
0 Rectangle with rounded corners*
0 $1 Rounding radius*
0 $2 $3 $4 $5 $6 $7 $8 $9 X,Y pos of 4 corners*
0 Add a 4 corners polygon primitive as box body*
4,1,4,$2,$3,$4,$5,$6,$7,$8,$9,$2,$3,0*
0 Add four circle primitives for the rounded corners*
1,1,$1+$1,$2,$3*
1,1,$1+$1,$4,$5*
1,1,$1+$1,$6,$7*
1,1,$1+$1,$8,$9*
0 Add four rect primitives between the rounded corners*
20,1,$1+$1,$2,$3,$4,$5,0*
20,1,$1+$1,$4,$5,$6,$7,0*
20,1,$1+$1,$6,$7,$8,$9,0*
20,1,$1+$1,$8,$9,$2,$3,0*%
G04 Aperture macros list end*
%ADD10C,0.150000*%
%ADD11C,0.120000*%
%ADD12C,0.100000*%
%ADD13RoundRect,0.250000X-1.050000X-0.550000X1.050000X-0.550000X1.050000X0.550000X-1.050000X0.550000X0*%
%ADD14RoundRect,0.150000X-0.512500X-0.150000X0.512500X-0.150000X0.512500X0.150000X-0.512500X0.150000X0*%
%ADD15C,2.000000*%
%ADD16RoundRect,0.250000X-0.325000X-0.650000X0.325000X-0.650000X0.325000X0.650000X-0.325000X0.650000X0*%
%ADD17RoundRect,0.225000X-0.225000X-0.250000X0.225000X-0.250000X0.225000X0.250000X-0.225000X0.250000X0*%
%ADD18RoundRect,0.150000X0.587500X0.150000X-0.587500X0.150000X-0.587500X-0.150000X0.587500X-0.150000X0*%
%ADD19RoundRect,0.250000X0.325000X0.650000X-0.325000X0.650000X-0.325000X-0.650000X0.325000X-0.650000X0*%
%ADD20R,0.400000X2.000000*%
%ADD21RoundRect,0.125000X-0.625000X-0.125000X0.625000X-0.125000X0.625000X0.125000X-0.625000X0.125000X0*%
%ADD22RoundRect,0.125000X-0.125000X-0.625000X0.125000X-0.625000X0.125000X0.625000X-0.125000X0.625000X0*%
%ADD23C,0.650000*%
%ADD24R,0.600000X1.450000*%
%ADD25R,0.300000X1.450000*%
%ADD26O,1.000000X1.600000*%
%ADD27O,1.000000X2.100000*%
%ADD28RoundRect,0.200000X-0.200000X-0.275000X0.200000X-0.275000X0.200000X0.275000X-0.200000X0.275000X0*%
%ADD29RoundRect,0.250000X0.750000X-0.250000X0.750000X0.250000X-0.750000X0.250000X-0.750000X-0.250000X0*%
%ADD30RoundRect,0.200000X0.275000X-0.200000X0.275000X0.200000X-0.275000X0.200000X-0.275000X-0.200000X0*%
%ADD31RoundRect,0.250000X-0.750000X0.250000X-0.750000X-0.250000X0.750000X-0.250000X0.750000X0.250000X0*%
%ADD32R,2.200000X1.200000*%
%ADD33R,6.400000X5.800000*%
%ADD34RoundRect,0.150000X-0.825000X-0.150000X0.825000X-0.150000X0.825000X0.150000X-0.825000X0.150000X0*%
%ADD35RoundRect,0.200000X0.200000X0.275000X-0.200000X0.275000X-0.200000X-0.275000X0.200000X-0.275000X0*%
%ADD36RoundRect,0.225000X0.250000X-0.225000X0.250000X0.225000X-0.250000X0.225000X-0.250000X-0.225000X0*%
%ADD37R,2.500000X1.800000*%
%ADD38R,0.900000X1.200000*%
%ADD39C,3.200000*%
G04 APERTURE END LIST*
D10*
X146307333Y-118789942D02*
X146259714Y-118837561D01*
X146116857Y-118885180D01*
X146021619Y-118885180D01*
X145878761Y-118837561D01*
X145783523Y-118742323D01*
X145735904Y-118647085D01*
X145688285Y-118456609D01*
X145688285Y-118313752D01*
X145735904Y-118123276D01*
X145783523Y-118028038D01*
X145878761Y-117932800D01*
X146021619Y-117885180D01*
X146116857Y-117885180D01*
X146259714Y-117932800D01*
X146307333Y-117980419D01*
X147212095Y-117885180D02*
X146735904Y-117885180D01*
X146688285Y-118361371D01*
X146735904Y-118313752D01*
X146831142Y-118266133D01*
X147069238Y-118266133D01*
X147164476Y-118313752D01*
X147212095Y-118361371D01*
X147259714Y-118456609D01*
X147259714Y-118694704D01*
X147212095Y-118789942D01*
X147164476Y-118837561D01*
X147069238Y-118885180D01*
X146831142Y-118885180D01*
X146735904Y-118837561D01*
X146688285Y-118789942D01*
X149268095Y-91722780D02*
X149268095Y-92532304D01*
X149315714Y-92627542D01*
X149363333Y-92675161D01*
X149458571Y-92722780D01*
X149649047Y-92722780D01*
X149744285Y-92675161D01*
X149791904Y-92627542D01*
X149839523Y-92532304D01*
X149839523Y-91722780D01*
X150839523Y-92722780D02*
X150268095Y-92722780D01*
X150553809Y-92722780D02*
X150553809Y-91722780D01*
X150458571Y-91865638D01*
X150363333Y-91960876D01*
X150268095Y-92008495D01*
X147461466Y-93907180D02*
X147461466Y-94621466D01*
X147413847Y-94764323D01*
X147318609Y-94859561D01*
X147175752Y-94907180D01*
X147080514Y-94907180D01*
X148461466Y-94907180D02*
X147890038Y-94907180D01*
X148175752Y-94907180D02*
X148175752Y-93907180D01*
X148080514Y-94050038D01*
X147985276Y-94145276D01*
X147890038Y-94192895D01*
X149253733Y-97301142D02*
X149206114Y-97348761D01*
X149063257Y-97396380D01*
X148968019Y-97396380D01*
X148825161Y-97348761D01*
X148729923Y-97253523D01*
X148682304Y-97158285D01*
X148634685Y-96967809D01*
X148634685Y-96824952D01*
X148682304Y-96634476D01*
X148729923Y-96539238D01*
X148825161Y-96444000D01*
X148968019Y-96396380D01*
X149063257Y-96396380D01*
X149206114Y-96444000D01*
X149253733Y-96491619D01*
X150206114Y-97396380D02*
X149634685Y-97396380D01*
X149920400Y-97396380D02*
X149920400Y-96396380D01*
X149825161Y-96539238D01*
X149729923Y-96634476D01*
X149634685Y-96682095D01*
X156924533Y-94956742D02*
X156876914Y-95004361D01*
X156734057Y-95051980D01*
X156638819Y-95051980D01*
X156495961Y-95004361D01*
X156400723Y-94909123D01*
X156353104Y-94813885D01*
X156305485Y-94623409D01*
X156305485Y-94480552D01*
X156353104Y-94290076D01*
X156400723Y-94194838D01*
X156495961Y-94099600D01*
X156638819Y-94051980D01*
X156734057Y-94051980D01*
X156876914Y-94099600D01*
X156924533Y-94147219D01*
X157305485Y-94147219D02*
X157353104Y-94099600D01*
X157448342Y-94051980D01*
X157686438Y-94051980D01*
X157781676Y-94099600D01*
X157829295Y-94147219D01*
X157876914Y-94242457D01*
X157876914Y-94337695D01*
X157829295Y-94480552D01*
X157257866Y-95051980D01*
X157876914Y-95051980D01*
X157199161Y-95116419D02*
X157103923Y-95068800D01*
X157008685Y-94973561D01*
X156865828Y-94830704D01*
X156770590Y-94783085D01*
X156675352Y-94783085D01*
X156722971Y-95021180D02*
X156627733Y-94973561D01*
X156532495Y-94878323D01*
X156484876Y-94687847D01*
X156484876Y-94354514D01*
X156532495Y-94164038D01*
X156627733Y-94068800D01*
X156722971Y-94021180D01*
X156913447Y-94021180D01*
X157008685Y-94068800D01*
X157103923Y-94164038D01*
X157151542Y-94354514D01*
X157151542Y-94687847D01*
X157103923Y-94878323D01*
X157008685Y-94973561D01*
X156913447Y-95021180D01*
X156722971Y-95021180D01*
X158103923Y-95021180D02*
X157532495Y-95021180D01*
X157818209Y-95021180D02*
X157818209Y-94021180D01*
X157722971Y-94164038D01*
X157627733Y-94259276D01*
X157532495Y-94306895D01*
X152181142Y-117367142D02*
X152133523Y-117414761D01*
X151990666Y-117462380D01*
X151895428Y-117462380D01*
X151752571Y-117414761D01*
X151657333Y-117319523D01*
X151609714Y-117224285D01*
X151562095Y-117033809D01*
X151562095Y-116890952D01*
X151609714Y-116700476D01*
X151657333Y-116605238D01*
X151752571Y-116510000D01*
X151895428Y-116462380D01*
X151990666Y-116462380D01*
X152133523Y-116510000D01*
X152181142Y-116557619D01*
X153133523Y-117462380D02*
X152562095Y-117462380D01*
X152847809Y-117462380D02*
X152847809Y-116462380D01*
X152752571Y-116605238D01*
X152657333Y-116700476D01*
X152562095Y-116748095D01*
X154085904Y-117462380D02*
X153514476Y-117462380D01*
X153800190Y-117462380D02*
X153800190Y-116462380D01*
X153704952Y-116605238D01*
X153609714Y-116700476D01*
X153514476Y-116748095D01*
X153082914Y-109435980D02*
X153082914Y-108435980D01*
X153321009Y-108435980D01*
X153463866Y-108483600D01*
X153559104Y-108578838D01*
X153606723Y-108674076D01*
X153654342Y-108864552D01*
X153654342Y-109007409D01*
X153606723Y-109197885D01*
X153559104Y-109293123D01*
X153463866Y-109388361D01*
X153321009Y-109435980D01*
X153082914Y-109435980D01*
X154035295Y-109388361D02*
X154178152Y-109435980D01*
X154416247Y-109435980D01*
X154511485Y-109388361D01*
X154559104Y-109340742D01*
X154606723Y-109245504D01*
X154606723Y-109150266D01*
X154559104Y-109055028D01*
X154511485Y-109007409D01*
X154416247Y-108959790D01*
X154225771Y-108912171D01*
X154130533Y-108864552D01*
X154082914Y-108816933D01*
X154035295Y-108721695D01*
X154035295Y-108626457D01*
X154082914Y-108531219D01*
X154130533Y-108483600D01*
X154225771Y-108435980D01*
X154463866Y-108435980D01*
X154606723Y-108483600D01*
X155559104Y-109435980D02*
X154987676Y-109435980D01*
X155273390Y-109435980D02*
X155273390Y-108435980D01*
X155178152Y-108578838D01*
X155082914Y-108674076D01*
X154987676Y-108721695D01*
X144713137Y-70314180D02*
X144713137Y-71123704D01*
X144760756Y-71218942D01*
X144808375Y-71266561D01*
X144903613Y-71314180D01*
X145094089Y-71314180D01*
X145189327Y-71266561D01*
X145236946Y-71218942D01*
X145284565Y-71123704D01*
X145284565Y-70314180D01*
X146189327Y-70647514D02*
X146189327Y-71314180D01*
X145951232Y-70266561D02*
X145713137Y-70980847D01*
X146332184Y-70980847D01*
X124968304Y-78421580D02*
X124968304Y-77421580D01*
X125349257Y-77421580D01*
X125444495Y-77469200D01*
X125492114Y-77516819D01*
X125539733Y-77612057D01*
X125539733Y-77754914D01*
X125492114Y-77850152D01*
X125444495Y-77897771D01*
X125349257Y-77945390D01*
X124968304Y-77945390D01*
X126492114Y-78421580D02*
X125920685Y-78421580D01*
X126206400Y-78421580D02*
X126206400Y-77421580D01*
X126111161Y-77564438D01*
X126015923Y-77659676D01*
X125920685Y-77707295D01*
X154486133Y-86111180D02*
X154152800Y-85634990D01*
X153914704Y-86111180D02*
X153914704Y-85111180D01*
X154295657Y-85111180D01*
X154390895Y-85158800D01*
X154438514Y-85206419D01*
X154486133Y-85301657D01*
X154486133Y-85444514D01*
X154438514Y-85539752D01*
X154390895Y-85587371D01*
X154295657Y-85634990D01*
X153914704Y-85634990D01*
X155343276Y-85444514D02*
X155343276Y-86111180D01*
X155105180Y-85063561D02*
X154867085Y-85777847D01*
X155486133Y-85777847D01*
X145678742Y-89014380D02*
X145345409Y-88538190D01*
X145107314Y-89014380D02*
X145107314Y-88014380D01*
X145488266Y-88014380D01*
X145583504Y-88062000D01*
X145631123Y-88109619D01*
X145678742Y-88204857D01*
X145678742Y-88347714D01*
X145631123Y-88442952D01*
X145583504Y-88490571D01*
X145488266Y-88538190D01*
X145107314Y-88538190D01*
X146631123Y-89014380D02*
X146059695Y-89014380D01*
X146345409Y-89014380D02*
X146345409Y-88014380D01*
X146250171Y-88157238D01*
X146154933Y-88252476D01*
X146059695Y-88300095D01*
X147488266Y-88347714D02*
X147488266Y-89014380D01*
X147250171Y-87966761D02*
X147012076Y-88681047D01*
X147631123Y-88681047D01*
X150422133Y-82619942D02*
X150374514Y-82667561D01*
X150231657Y-82715180D01*
X150136419Y-82715180D01*
X149993561Y-82667561D01*
X149898323Y-82572323D01*
X149850704Y-82477085D01*
X149803085Y-82286609D01*
X149803085Y-82143752D01*
X149850704Y-81953276D01*
X149898323Y-81858038D01*
X149993561Y-81762800D01*
X150136419Y-81715180D01*
X150231657Y-81715180D01*
X150374514Y-81762800D01*
X150422133Y-81810419D01*
X150898323Y-82715180D02*
X151088800Y-82715180D01*
X151184038Y-82667561D01*
X151231657Y-82619942D01*
X151326895Y-82477085D01*
X151374514Y-82286609D01*
X151374514Y-81905657D01*
X151326895Y-81810419D01*
X151279276Y-81762800D01*
X151184038Y-81715180D01*
X150993561Y-81715180D01*
X150898323Y-81762800D01*
X150850704Y-81810419D01*
X150803085Y-81905657D01*
X150803085Y-82143752D01*
X150850704Y-82238990D01*
X150898323Y-82286609D01*
X150993561Y-82334228D01*
X151184038Y-82334228D01*
X151279276Y-82286609D01*
X151326895Y-82238990D01*
X151374514Y-82143752D01*
X137876380Y-76943066D02*
X137400190Y-77276400D01*
X137876380Y-77514495D02*
X136876380Y-77514495D01*
X136876380Y-77133542D01*
X136924000Y-77038304D01*
X136971619Y-76990685D01*
X137066857Y-76943066D01*
X137209714Y-76943066D01*
X137304952Y-76990685D01*
X137352571Y-77038304D01*
X137400190Y-77133542D01*
X137400190Y-77514495D01*
X137876380Y-76466876D02*
X137876380Y-76276400D01*
X137828761Y-76181161D01*
X137781142Y-76133542D01*
X137638285Y-76038304D01*
X137447809Y-75990685D01*
X137066857Y-75990685D01*
X136971619Y-76038304D01*
X136924000Y-76085923D01*
X136876380Y-76181161D01*
X136876380Y-76371638D01*
X136924000Y-76466876D01*
X136971619Y-76514495D01*
X137066857Y-76562114D01*
X137304952Y-76562114D01*
X137400190Y-76514495D01*
X137447809Y-76466876D01*
X137495428Y-76371638D01*
X137495428Y-76181161D01*
X137447809Y-76085923D01*
X137400190Y-76038304D01*
X137304952Y-75990685D01*
X122799619Y-101026038D02*
X122752000Y-101121276D01*
X122656761Y-101216514D01*
X122513904Y-101359371D01*
X122466285Y-101454609D01*
X122466285Y-101549847D01*
X122704380Y-101502228D02*
X122656761Y-101597466D01*
X122561523Y-101692704D01*
X122371047Y-101740323D01*
X122037714Y-101740323D01*
X121847238Y-101692704D01*
X121752000Y-101597466D01*
X121704380Y-101502228D01*
X121704380Y-101311752D01*
X121752000Y-101216514D01*
X121847238Y-101121276D01*
X122037714Y-101073657D01*
X122371047Y-101073657D01*
X122561523Y-101121276D01*
X122656761Y-101216514D01*
X122704380Y-101311752D01*
X122704380Y-101502228D01*
X121799619Y-100692704D02*
X121752000Y-100645085D01*
X121704380Y-100549847D01*
X121704380Y-100311752D01*
X121752000Y-100216514D01*
X121799619Y-100168895D01*
X121894857Y-100121276D01*
X121990095Y-100121276D01*
X122132952Y-100168895D01*
X122704380Y-100740323D01*
X122704380Y-100121276D01*
X155567295Y-79229580D02*
X155567295Y-80039104D01*
X155614914Y-80134342D01*
X155662533Y-80181961D01*
X155757771Y-80229580D01*
X155948247Y-80229580D01*
X156043485Y-80181961D01*
X156091104Y-80134342D01*
X156138723Y-80039104D01*
X156138723Y-79229580D01*
X156567295Y-79324819D02*
X156614914Y-79277200D01*
X156710152Y-79229580D01*
X156948247Y-79229580D01*
X157043485Y-79277200D01*
X157091104Y-79324819D01*
X157138723Y-79420057D01*
X157138723Y-79515295D01*
X157091104Y-79658152D01*
X156519676Y-80229580D01*
X157138723Y-80229580D01*
X145721594Y-90639980D02*
X145388261Y-90163790D01*
X145150166Y-90639980D02*
X145150166Y-89639980D01*
X145531118Y-89639980D01*
X145626356Y-89687600D01*
X145673975Y-89735219D01*
X145721594Y-89830457D01*
X145721594Y-89973314D01*
X145673975Y-90068552D01*
X145626356Y-90116171D01*
X145531118Y-90163790D01*
X145150166Y-90163790D01*
X146673975Y-90639980D02*
X146102547Y-90639980D01*
X146388261Y-90639980D02*
X146388261Y-89639980D01*
X146293023Y-89782838D01*
X146197785Y-89878076D01*
X146102547Y-89925695D01*
X147007309Y-89639980D02*
X147626356Y-89639980D01*
X147293023Y-90020933D01*
X147435880Y-90020933D01*
X147531118Y-90068552D01*
X147578737Y-90116171D01*
X147626356Y-90211409D01*
X147626356Y-90449504D01*
X147578737Y-90544742D01*
X147531118Y-90592361D01*
X147435880Y-90639980D01*
X147150166Y-90639980D01*
X147054928Y-90592361D01*
X147007309Y-90544742D01*
X139652794Y-71812266D02*
X139700413Y-71859885D01*
X139748032Y-72002742D01*
X139748032Y-72097980D01*
X139700413Y-72240838D01*
X139605175Y-72336076D01*
X139509937Y-72383695D01*
X139319461Y-72431314D01*
X139176604Y-72431314D01*
X138986128Y-72383695D01*
X138890890Y-72336076D01*
X138795652Y-72240838D01*
X138748032Y-72097980D01*
X138748032Y-72002742D01*
X138795652Y-71859885D01*
X138843271Y-71812266D01*
X139176604Y-71240838D02*
X139128985Y-71336076D01*
X139081366Y-71383695D01*
X138986128Y-71431314D01*
X138938509Y-71431314D01*
X138843271Y-71383695D01*
X138795652Y-71336076D01*
X138748032Y-71240838D01*
X138748032Y-71050361D01*
X138795652Y-70955123D01*
X138843271Y-70907504D01*
X138938509Y-70859885D01*
X138986128Y-70859885D01*
X139081366Y-70907504D01*
X139128985Y-70955123D01*
X139176604Y-71050361D01*
X139176604Y-71240838D01*
X139224223Y-71336076D01*
X139271842Y-71383695D01*
X139367080Y-71431314D01*
X139557556Y-71431314D01*
X139652794Y-71383695D01*
X139700413Y-71336076D01*
X139748032Y-71240838D01*
X139748032Y-71050361D01*
X139700413Y-70955123D01*
X139652794Y-70907504D01*
X139557556Y-70859885D01*
X139367080Y-70859885D01*
X139271842Y-70907504D01*
X139224223Y-70955123D01*
X139176604Y-71050361D01*
X155743504Y-82217980D02*
X155743504Y-81217980D01*
X155981600Y-81217980D01*
X156124457Y-81265600D01*
X156219695Y-81360838D01*
X156267314Y-81456076D01*
X156314933Y-81646552D01*
X156314933Y-81789409D01*
X156267314Y-81979885D01*
X156219695Y-82075123D01*
X156124457Y-82170361D01*
X155981600Y-82217980D01*
X155743504Y-82217980D01*
X157267314Y-82217980D02*
X156695885Y-82217980D01*
X156981600Y-82217980D02*
X156981600Y-81217980D01*
X156886361Y-81360838D01*
X156791123Y-81456076D01*
X156695885Y-81503695D01*
X147913942Y-107505580D02*
X147580609Y-107029390D01*
X147342514Y-107505580D02*
X147342514Y-106505580D01*
X147723466Y-106505580D01*
X147818704Y-106553200D01*
X147866323Y-106600819D01*
X147913942Y-106696057D01*
X147913942Y-106838914D01*
X147866323Y-106934152D01*
X147818704Y-106981771D01*
X147723466Y-107029390D01*
X147342514Y-107029390D01*
X148866323Y-107505580D02*
X148294895Y-107505580D01*
X148580609Y-107505580D02*
X148580609Y-106505580D01*
X148485371Y-106648438D01*
X148390133Y-106743676D01*
X148294895Y-106791295D01*
X149771085Y-106505580D02*
X149294895Y-106505580D01*
X149247276Y-106981771D01*
X149294895Y-106934152D01*
X149390133Y-106886533D01*
X149628228Y-106886533D01*
X149723466Y-106934152D01*
X149771085Y-106981771D01*
X149818704Y-107077009D01*
X149818704Y-107315104D01*
X149771085Y-107410342D01*
X149723466Y-107457961D01*
X149628228Y-107505580D01*
X149390133Y-107505580D01*
X149294895Y-107457961D01*
X149247276Y-107410342D01*
X157940533Y-89173142D02*
X157892914Y-89220761D01*
X157750057Y-89268380D01*
X157654819Y-89268380D01*
X157511961Y-89220761D01*
X157416723Y-89125523D01*
X157369104Y-89030285D01*
X157321485Y-88839809D01*
X157321485Y-88696952D01*
X157369104Y-88506476D01*
X157416723Y-88411238D01*
X157511961Y-88316000D01*
X157654819Y-88268380D01*
X157750057Y-88268380D01*
X157892914Y-88316000D01*
X157940533Y-88363619D01*
X158273866Y-88268380D02*
X158892914Y-88268380D01*
X158559580Y-88649333D01*
X158702438Y-88649333D01*
X158797676Y-88696952D01*
X158845295Y-88744571D01*
X158892914Y-88839809D01*
X158892914Y-89077904D01*
X158845295Y-89173142D01*
X158797676Y-89220761D01*
X158702438Y-89268380D01*
X158416723Y-89268380D01*
X158321485Y-89220761D01*
X158273866Y-89173142D01*
X160185180Y-90049466D02*
X159708990Y-90382800D01*
X160185180Y-90620895D02*
X159185180Y-90620895D01*
X159185180Y-90239942D01*
X159232800Y-90144704D01*
X159280419Y-90097085D01*
X159375657Y-90049466D01*
X159518514Y-90049466D01*
X159613752Y-90097085D01*
X159661371Y-90144704D01*
X159708990Y-90239942D01*
X159708990Y-90620895D01*
X159185180Y-89716133D02*
X159185180Y-89097085D01*
X159566133Y-89430419D01*
X159566133Y-89287561D01*
X159613752Y-89192323D01*
X159661371Y-89144704D01*
X159756609Y-89097085D01*
X159994704Y-89097085D01*
X160089942Y-89144704D01*
X160137561Y-89192323D01*
X160185180Y-89287561D01*
X160185180Y-89573276D01*
X160137561Y-89668514D01*
X160089942Y-89716133D01*
X163283980Y-93249866D02*
X162807790Y-93583200D01*
X163283980Y-93821295D02*
X162283980Y-93821295D01*
X162283980Y-93440342D01*
X162331600Y-93345104D01*
X162379219Y-93297485D01*
X162474457Y-93249866D01*
X162617314Y-93249866D01*
X162712552Y-93297485D01*
X162760171Y-93345104D01*
X162807790Y-93440342D01*
X162807790Y-93821295D01*
X163283980Y-92297485D02*
X163283980Y-92868914D01*
X163283980Y-92583200D02*
X162283980Y-92583200D01*
X162426838Y-92678438D01*
X162522076Y-92773676D01*
X162569695Y-92868914D01*
X142935542Y-115589142D02*
X142887923Y-115636761D01*
X142745066Y-115684380D01*
X142649828Y-115684380D01*
X142506971Y-115636761D01*
X142411733Y-115541523D01*
X142364114Y-115446285D01*
X142316495Y-115255809D01*
X142316495Y-115112952D01*
X142364114Y-114922476D01*
X142411733Y-114827238D01*
X142506971Y-114732000D01*
X142649828Y-114684380D01*
X142745066Y-114684380D01*
X142887923Y-114732000D01*
X142935542Y-114779619D01*
X143887923Y-115684380D02*
X143316495Y-115684380D01*
X143602209Y-115684380D02*
X143602209Y-114684380D01*
X143506971Y-114827238D01*
X143411733Y-114922476D01*
X143316495Y-114970095D01*
X144221257Y-114684380D02*
X144840304Y-114684380D01*
X144506971Y-115065333D01*
X144649828Y-115065333D01*
X144745066Y-115112952D01*
X144792685Y-115160571D01*
X144840304Y-115255809D01*
X144840304Y-115493904D01*
X144792685Y-115589142D01*
X144745066Y-115636761D01*
X144649828Y-115684380D01*
X144364114Y-115684380D01*
X144268876Y-115636761D01*
X144221257Y-115589142D01*
X155794304Y-79322380D02*
X155794304Y-78322380D01*
X156032400Y-78322380D01*
X156175257Y-78370000D01*
X156270495Y-78465238D01*
X156318114Y-78560476D01*
X156365733Y-78750952D01*
X156365733Y-78893809D01*
X156318114Y-79084285D01*
X156270495Y-79179523D01*
X156175257Y-79274761D01*
X156032400Y-79322380D01*
X155794304Y-79322380D01*
X156746685Y-78417619D02*
X156794304Y-78370000D01*
X156889542Y-78322380D01*
X157127638Y-78322380D01*
X157222876Y-78370000D01*
X157270495Y-78417619D01*
X157318114Y-78512857D01*
X157318114Y-78608095D01*
X157270495Y-78750952D01*
X156699066Y-79322380D01*
X157318114Y-79322380D01*
X139785942Y-115589142D02*
X139738323Y-115636761D01*
X139595466Y-115684380D01*
X139500228Y-115684380D01*
X139357371Y-115636761D01*
X139262133Y-115541523D01*
X139214514Y-115446285D01*
X139166895Y-115255809D01*
X139166895Y-115112952D01*
X139214514Y-114922476D01*
X139262133Y-114827238D01*
X139357371Y-114732000D01*
X139500228Y-114684380D01*
X139595466Y-114684380D01*
X139738323Y-114732000D01*
X139785942Y-114779619D01*
X140738323Y-115684380D02*
X140166895Y-115684380D01*
X140452609Y-115684380D02*
X140452609Y-114684380D01*
X140357371Y-114827238D01*
X140262133Y-114922476D01*
X140166895Y-114970095D01*
X141119276Y-114779619D02*
X141166895Y-114732000D01*
X141262133Y-114684380D01*
X141500228Y-114684380D01*
X141595466Y-114732000D01*
X141643085Y-114779619D01*
X141690704Y-114874857D01*
X141690704Y-114970095D01*
X141643085Y-115112952D01*
X141071657Y-115684380D01*
X141690704Y-115684380D01*
X156753142Y-115176380D02*
X156419809Y-114700190D01*
X156181714Y-115176380D02*
X156181714Y-114176380D01*
X156562666Y-114176380D01*
X156657904Y-114224000D01*
X156705523Y-114271619D01*
X156753142Y-114366857D01*
X156753142Y-114509714D01*
X156705523Y-114604952D01*
X156657904Y-114652571D01*
X156562666Y-114700190D01*
X156181714Y-114700190D01*
X157705523Y-115176380D02*
X157134095Y-115176380D01*
X157419809Y-115176380D02*
X157419809Y-114176380D01*
X157324571Y-114319238D01*
X157229333Y-114414476D01*
X157134095Y-114462095D01*
X158562666Y-114176380D02*
X158372190Y-114176380D01*
X158276952Y-114224000D01*
X158229333Y-114271619D01*
X158134095Y-114414476D01*
X158086476Y-114604952D01*
X158086476Y-114985904D01*
X158134095Y-115081142D01*
X158181714Y-115128761D01*
X158276952Y-115176380D01*
X158467428Y-115176380D01*
X158562666Y-115128761D01*
X158610285Y-115081142D01*
X158657904Y-114985904D01*
X158657904Y-114747809D01*
X158610285Y-114652571D01*
X158562666Y-114604952D01*
X158467428Y-114557333D01*
X158276952Y-114557333D01*
X158181714Y-114604952D01*
X158134095Y-114652571D01*
X158086476Y-114747809D01*
X145481904Y-113906380D02*
X145481904Y-112906380D01*
X145720000Y-112906380D01*
X145862857Y-112954000D01*
X145958095Y-113049238D01*
X146005714Y-113144476D01*
X146053333Y-113334952D01*
X146053333Y-113477809D01*
X146005714Y-113668285D01*
X145958095Y-113763523D01*
X145862857Y-113858761D01*
X145720000Y-113906380D01*
X145481904Y-113906380D01*
X146958095Y-112906380D02*
X146481904Y-112906380D01*
X146434285Y-113382571D01*
X146481904Y-113334952D01*
X146577142Y-113287333D01*
X146815238Y-113287333D01*
X146910476Y-113334952D01*
X146958095Y-113382571D01*
X147005714Y-113477809D01*
X147005714Y-113715904D01*
X146958095Y-113811142D01*
X146910476Y-113858761D01*
X146815238Y-113906380D01*
X146577142Y-113906380D01*
X146481904Y-113858761D01*
X146434285Y-113811142D01*
X156938895Y-68663180D02*
X156938895Y-69472704D01*
X156986514Y-69567942D01*
X157034133Y-69615561D01*
X157129371Y-69663180D01*
X157319847Y-69663180D01*
X157415085Y-69615561D01*
X157462704Y-69567942D01*
X157510323Y-69472704D01*
X157510323Y-68663180D01*
X157891276Y-68663180D02*
X158510323Y-68663180D01*
X158176990Y-69044133D01*
X158319847Y-69044133D01*
X158415085Y-69091752D01*
X158462704Y-69139371D01*
X158510323Y-69234609D01*
X158510323Y-69472704D01*
X158462704Y-69567942D01*
X158415085Y-69615561D01*
X158319847Y-69663180D01*
X158034133Y-69663180D01*
X157938895Y-69615561D01*
X157891276Y-69567942D01*
X153216133Y-118891542D02*
X153168514Y-118939161D01*
X153025657Y-118986780D01*
X152930419Y-118986780D01*
X152787561Y-118939161D01*
X152692323Y-118843923D01*
X152644704Y-118748685D01*
X152597085Y-118558209D01*
X152597085Y-118415352D01*
X152644704Y-118224876D01*
X152692323Y-118129638D01*
X152787561Y-118034400D01*
X152930419Y-117986780D01*
X153025657Y-117986780D01*
X153168514Y-118034400D01*
X153216133Y-118082019D01*
X154073276Y-118320114D02*
X154073276Y-118986780D01*
X153835180Y-117939161D02*
X153597085Y-118653447D01*
X154216133Y-118653447D01*
X153001890Y-113709542D02*
X152954271Y-113757161D01*
X152811414Y-113804780D01*
X152716176Y-113804780D01*
X152573319Y-113757161D01*
X152478081Y-113661923D01*
X152430462Y-113566685D01*
X152382843Y-113376209D01*
X152382843Y-113233352D01*
X152430462Y-113042876D01*
X152478081Y-112947638D01*
X152573319Y-112852400D01*
X152716176Y-112804780D01*
X152811414Y-112804780D01*
X152954271Y-112852400D01*
X153001890Y-112900019D01*
X153954271Y-113804780D02*
X153382843Y-113804780D01*
X153668557Y-113804780D02*
X153668557Y-112804780D01*
X153573319Y-112947638D01*
X153478081Y-113042876D01*
X153382843Y-113090495D01*
X154811414Y-113138114D02*
X154811414Y-113804780D01*
X154573319Y-112757161D02*
X154335224Y-113471447D01*
X154954271Y-113471447D01*
X122799619Y-94218838D02*
X122752000Y-94314076D01*
X122656761Y-94409314D01*
X122513904Y-94552171D01*
X122466285Y-94647409D01*
X122466285Y-94742647D01*
X122704380Y-94695028D02*
X122656761Y-94790266D01*
X122561523Y-94885504D01*
X122371047Y-94933123D01*
X122037714Y-94933123D01*
X121847238Y-94885504D01*
X121752000Y-94790266D01*
X121704380Y-94695028D01*
X121704380Y-94504552D01*
X121752000Y-94409314D01*
X121847238Y-94314076D01*
X122037714Y-94266457D01*
X122371047Y-94266457D01*
X122561523Y-94314076D01*
X122656761Y-94409314D01*
X122704380Y-94504552D01*
X122704380Y-94695028D01*
X122037714Y-93409314D02*
X122704380Y-93409314D01*
X121656761Y-93647409D02*
X122371047Y-93885504D01*
X122371047Y-93266457D01*
X122545619Y-87462438D02*
X122498000Y-87557676D01*
X122402761Y-87652914D01*
X122259904Y-87795771D01*
X122212285Y-87891009D01*
X122212285Y-87986247D01*
X122450380Y-87938628D02*
X122402761Y-88033866D01*
X122307523Y-88129104D01*
X122117047Y-88176723D01*
X121783714Y-88176723D01*
X121593238Y-88129104D01*
X121498000Y-88033866D01*
X121450380Y-87938628D01*
X121450380Y-87748152D01*
X121498000Y-87652914D01*
X121593238Y-87557676D01*
X121783714Y-87510057D01*
X122117047Y-87510057D01*
X122307523Y-87557676D01*
X122402761Y-87652914D01*
X122450380Y-87748152D01*
X122450380Y-87938628D01*
X121450380Y-86605295D02*
X121450380Y-87081485D01*
X121926571Y-87129104D01*
X121878952Y-87081485D01*
X121831333Y-86986247D01*
X121831333Y-86748152D01*
X121878952Y-86652914D01*
X121926571Y-86605295D01*
X122021809Y-86557676D01*
X122259904Y-86557676D01*
X122355142Y-86605295D01*
X122402761Y-86652914D01*
X122450380Y-86748152D01*
X122450380Y-86986247D01*
X122402761Y-87081485D01*
X122355142Y-87129104D01*
X122748819Y-110119238D02*
X122701200Y-110214476D01*
X122605961Y-110309714D01*
X122463104Y-110452571D01*
X122415485Y-110547809D01*
X122415485Y-110643047D01*
X122653580Y-110595428D02*
X122605961Y-110690666D01*
X122510723Y-110785904D01*
X122320247Y-110833523D01*
X121986914Y-110833523D01*
X121796438Y-110785904D01*
X121701200Y-110690666D01*
X121653580Y-110595428D01*
X121653580Y-110404952D01*
X121701200Y-110309714D01*
X121796438Y-110214476D01*
X121986914Y-110166857D01*
X122320247Y-110166857D01*
X122510723Y-110214476D01*
X122605961Y-110309714D01*
X122653580Y-110404952D01*
X122653580Y-110595428D01*
X121653580Y-109833523D02*
X121653580Y-109214476D01*
X122034533Y-109547809D01*
X122034533Y-109404952D01*
X122082152Y-109309714D01*
X122129771Y-109262095D01*
X122225009Y-109214476D01*
X122463104Y-109214476D01*
X122558342Y-109262095D01*
X122605961Y-109309714D01*
X122653580Y-109404952D01*
X122653580Y-109690666D01*
X122605961Y-109785904D01*
X122558342Y-109833523D01*
X160378933Y-86982380D02*
X160045600Y-86506190D01*
X159807504Y-86982380D02*
X159807504Y-85982380D01*
X160188457Y-85982380D01*
X160283695Y-86030000D01*
X160331314Y-86077619D01*
X160378933Y-86172857D01*
X160378933Y-86315714D01*
X160331314Y-86410952D01*
X160283695Y-86458571D01*
X160188457Y-86506190D01*
X159807504Y-86506190D01*
X161283695Y-85982380D02*
X160807504Y-85982380D01*
X160759885Y-86458571D01*
X160807504Y-86410952D01*
X160902742Y-86363333D01*
X161140838Y-86363333D01*
X161236076Y-86410952D01*
X161283695Y-86458571D01*
X161331314Y-86553809D01*
X161331314Y-86791904D01*
X161283695Y-86887142D01*
X161236076Y-86934761D01*
X161140838Y-86982380D01*
X160902742Y-86982380D01*
X160807504Y-86934761D01*
X160759885Y-86887142D01*
D11*
X145278437Y-123892800D02*
X148734000Y-123892800D01*
X144214000Y-120437237D02*
X145278437Y-119372800D01*
X144214000Y-120437237D02*
X144214000Y-120572800D01*
X143724000Y-119822800D02*
X143724000Y-120322800D01*
X144214000Y-122828363D02*
X144214000Y-122692800D01*
X143474000Y-120072800D02*
X143974000Y-120072800D01*
X148734000Y-119372800D02*
X148734000Y-120572800D01*
X148734000Y-123892800D02*
X148734000Y-122692800D01*
X145278437Y-119372800D02*
X148734000Y-119372800D01*
X144214000Y-122828363D02*
X145278437Y-123892800D01*
X152824000Y-93728800D02*
X153624000Y-93728800D01*
X152824000Y-93728800D02*
X152024000Y-93728800D01*
X152824000Y-90608800D02*
X153624000Y-90608800D01*
X152824000Y-90608800D02*
X151024000Y-90608800D01*
X145573600Y-92372000D02*
G75*
G03*
X145573600Y-92372000I-1100000J0D01*
G01*
X148945600Y-92372000D02*
G75*
G03*
X148945600Y-92372000I-1100000J0D01*
G01*
X148607548Y-95974400D02*
X150030052Y-95974400D01*
X148607548Y-94154400D02*
X150030052Y-94154400D01*
X154613820Y-94046400D02*
X154894980Y-94046400D01*
X154613820Y-95066400D02*
X154894980Y-95066400D01*
X157294400Y-93728800D02*
X156644400Y-93728800D01*
X157294400Y-90608800D02*
X157944400Y-90608800D01*
X157294400Y-93728800D02*
X158969400Y-93728800D01*
X157294400Y-90608800D02*
X156644400Y-90608800D01*
X150030052Y-116853200D02*
X148607548Y-116853200D01*
X150030052Y-115033200D02*
X148607548Y-115033200D01*
X139481652Y-110022200D02*
X139481652Y-112172200D01*
X139481652Y-112172200D02*
X161781652Y-112172200D01*
X161781652Y-112172200D02*
X161781652Y-110022200D01*
D12*
X158981652Y-107272200D02*
G75*
G03*
X158981652Y-107272200I-350000J0D01*
G01*
X142981652Y-107272200D02*
G75*
G03*
X142981652Y-107272200I-350000J0D01*
G01*
D11*
X142165042Y-80351800D02*
X141865042Y-80351800D01*
X148785042Y-80351800D02*
X149085042Y-80351800D01*
X141865042Y-73131800D02*
X141865042Y-73431800D01*
X141865042Y-73431800D02*
X140550042Y-73431800D01*
X141865042Y-80351800D02*
X141865042Y-80051800D01*
X142165042Y-73131800D02*
X141865042Y-73131800D01*
X148785042Y-73131800D02*
X149085042Y-73131800D01*
X149085042Y-80351800D02*
X149085042Y-80051800D01*
X149085042Y-73131800D02*
X149085042Y-73431800D01*
X130129000Y-80422000D02*
X130129000Y-78422000D01*
X120729000Y-80422000D02*
X120729000Y-78422000D01*
X130129000Y-76522000D02*
X130129000Y-74622000D01*
X130129000Y-74622000D02*
X120729000Y-74622000D01*
X120729000Y-76522000D02*
X120729000Y-74622000D01*
X154415542Y-87611300D02*
X154890058Y-87611300D01*
X154415542Y-86566300D02*
X154890058Y-86566300D01*
X148870394Y-89186100D02*
X149344910Y-89186100D01*
X148870394Y-88141100D02*
X149344910Y-88141100D01*
X150389472Y-81299600D02*
X150670632Y-81299600D01*
X150389472Y-80279600D02*
X150670632Y-80279600D01*
X139376500Y-77013658D02*
X139376500Y-76539142D01*
X138331500Y-77013658D02*
X138331500Y-76539142D01*
X123364800Y-105295200D02*
X121864800Y-105295200D01*
X123364800Y-98395200D02*
X121864800Y-98395200D01*
X121864800Y-98395200D02*
X121864800Y-98665200D01*
X121864800Y-105025200D02*
X120764800Y-105025200D01*
X121864800Y-105295200D02*
X121864800Y-105025200D01*
X121864800Y-98665200D02*
X119034800Y-98665200D01*
X156329200Y-85737200D02*
X158279200Y-85737200D01*
X156329200Y-80617200D02*
X158279200Y-80617200D01*
X156329200Y-85737200D02*
X154379200Y-85737200D01*
X156329200Y-80617200D02*
X152879200Y-80617200D01*
X149344910Y-89563500D02*
X148870394Y-89563500D01*
X149344910Y-90608500D02*
X148870394Y-90608500D01*
X140215652Y-71786180D02*
X140215652Y-71505020D01*
X141235652Y-71786180D02*
X141235652Y-71505020D01*
X159881600Y-80915600D02*
X159881600Y-77615600D01*
X159881600Y-77615600D02*
X154481600Y-77615600D01*
X159881600Y-80915600D02*
X154481600Y-80915600D01*
X148836910Y-108998100D02*
X148362394Y-108998100D01*
X148836910Y-107953100D02*
X148362394Y-107953100D01*
X154449548Y-88160000D02*
X155872052Y-88160000D01*
X154449548Y-89980000D02*
X155872052Y-89980000D01*
X160255300Y-92456858D02*
X160255300Y-91982342D01*
X159210300Y-92456858D02*
X159210300Y-91982342D01*
X160835900Y-93422058D02*
X160835900Y-92947542D01*
X161880900Y-93422058D02*
X161880900Y-92947542D01*
X143379072Y-113350400D02*
X143660232Y-113350400D01*
X143379072Y-114370400D02*
X143660232Y-114370400D01*
X159932400Y-78020000D02*
X159932400Y-74720000D01*
X159932400Y-78020000D02*
X154532400Y-78020000D01*
X159932400Y-74720000D02*
X154532400Y-74720000D01*
X140381872Y-114370400D02*
X140663032Y-114370400D01*
X140381872Y-113350400D02*
X140663032Y-113350400D01*
X157015710Y-114078100D02*
X156541194Y-114078100D01*
X157015710Y-113033100D02*
X156541194Y-113033100D01*
X147119600Y-112708000D02*
X147119600Y-114708000D01*
X147119600Y-114708000D02*
X151019600Y-114708000D01*
X147119600Y-112708000D02*
X151019600Y-112708000D01*
X157700800Y-70050800D02*
X159650800Y-70050800D01*
X157700800Y-75170800D02*
X159650800Y-75170800D01*
X157700800Y-75170800D02*
X155750800Y-75170800D01*
X157700800Y-70050800D02*
X154250800Y-70050800D01*
X152187237Y-123994400D02*
X155642800Y-123994400D01*
X150382800Y-120174400D02*
X150882800Y-120174400D01*
X155642800Y-123994400D02*
X155642800Y-122794400D01*
X150632800Y-119924400D02*
X150632800Y-120424400D01*
X151122800Y-120538837D02*
X151122800Y-120674400D01*
X155642800Y-119474400D02*
X155642800Y-120674400D01*
X151122800Y-122929963D02*
X151122800Y-122794400D01*
X152187237Y-119474400D02*
X155642800Y-119474400D01*
X151122800Y-120538837D02*
X152187237Y-119474400D01*
X151122800Y-122929963D02*
X152187237Y-123994400D01*
X154652852Y-115989600D02*
X153230348Y-115989600D01*
X154652852Y-114169600D02*
X153230348Y-114169600D01*
X121864800Y-91842000D02*
X121864800Y-92112000D01*
X123364800Y-98742000D02*
X121864800Y-98742000D01*
X123364800Y-91842000D02*
X121864800Y-91842000D01*
X121864800Y-92112000D02*
X119034800Y-92112000D01*
X121864800Y-98742000D02*
X121864800Y-98472000D01*
X121864800Y-98472000D02*
X120764800Y-98472000D01*
X123263200Y-90817200D02*
X121763200Y-90817200D01*
X121763200Y-84187200D02*
X118933200Y-84187200D01*
X121763200Y-90547200D02*
X120663200Y-90547200D01*
X121763200Y-83917200D02*
X121763200Y-84187200D01*
X121763200Y-90817200D02*
X121763200Y-90547200D01*
X123263200Y-83917200D02*
X121763200Y-83917200D01*
X123314000Y-106421600D02*
X121814000Y-106421600D01*
X121814000Y-113321600D02*
X121814000Y-113051600D01*
X123314000Y-113321600D02*
X121814000Y-113321600D01*
X121814000Y-106691600D02*
X118984000Y-106691600D01*
X121814000Y-106421600D02*
X121814000Y-106691600D01*
X121814000Y-113051600D02*
X120714000Y-113051600D01*
X158446058Y-86617100D02*
X157971542Y-86617100D01*
X158446058Y-87662100D02*
X157971542Y-87662100D01*
%LPC*%
D13*
X144674000Y-121632800D03*
X148274000Y-121632800D03*
D14*
X151686500Y-91218800D03*
X151686500Y-92168800D03*
X151686500Y-93118800D03*
X153961500Y-93118800D03*
X153961500Y-91218800D03*
D15*
X147845600Y-92372000D03*
X144473600Y-92372000D03*
D16*
X147843800Y-95064400D03*
X150793800Y-95064400D03*
D17*
X153979400Y-94556400D03*
X155529400Y-94556400D03*
D18*
X158231900Y-93118800D03*
X158231900Y-91218800D03*
X156356900Y-92168800D03*
D19*
X150793800Y-115943200D03*
X147843800Y-115943200D03*
D20*
X140481652Y-111022200D03*
X141181652Y-111022200D03*
X141881652Y-111022200D03*
X142581652Y-111022200D03*
X143281652Y-111022200D03*
X143981652Y-111022200D03*
X144681652Y-111022200D03*
X145381652Y-111022200D03*
X146081652Y-111022200D03*
X146781652Y-111022200D03*
X147481652Y-111022200D03*
X148181652Y-111022200D03*
X148881652Y-111022200D03*
X149581652Y-111022200D03*
X150281652Y-111022200D03*
X150981652Y-111022200D03*
X151681652Y-111022200D03*
X152381652Y-111022200D03*
X153081652Y-111022200D03*
X153781652Y-111022200D03*
X154481652Y-111022200D03*
X155181652Y-111022200D03*
X155881652Y-111022200D03*
X156581652Y-111022200D03*
X157281652Y-111022200D03*
X157981652Y-111022200D03*
X158681652Y-111022200D03*
X159381652Y-111022200D03*
X160081652Y-111022200D03*
X160781652Y-111022200D03*
D21*
X141300042Y-73941800D03*
X141300042Y-74741800D03*
X141300042Y-75541800D03*
X141300042Y-76341800D03*
X141300042Y-77141800D03*
X141300042Y-77941800D03*
X141300042Y-78741800D03*
X141300042Y-79541800D03*
D22*
X142675042Y-80916800D03*
X143475042Y-80916800D03*
X144275042Y-80916800D03*
X145075042Y-80916800D03*
X145875042Y-80916800D03*
X146675042Y-80916800D03*
X147475042Y-80916800D03*
X148275042Y-80916800D03*
D21*
X149650042Y-79541800D03*
X149650042Y-78741800D03*
X149650042Y-77941800D03*
X149650042Y-77141800D03*
X149650042Y-76341800D03*
X149650042Y-75541800D03*
X149650042Y-74741800D03*
X149650042Y-73941800D03*
D22*
X148275042Y-72566800D03*
X147475042Y-72566800D03*
X146675042Y-72566800D03*
X145875042Y-72566800D03*
X145075042Y-72566800D03*
X144275042Y-72566800D03*
X143475042Y-72566800D03*
X142675042Y-72566800D03*
D23*
X122539000Y-81122000D03*
X128319000Y-81122000D03*
D24*
X128679000Y-82567000D03*
X127879000Y-82567000D03*
D25*
X126679000Y-82567000D03*
X125679000Y-82567000D03*
X125179000Y-82567000D03*
X124179000Y-82567000D03*
D24*
X122979000Y-82567000D03*
X122179000Y-82567000D03*
X122179000Y-82567000D03*
X122979000Y-82567000D03*
D25*
X123679000Y-82567000D03*
X124679000Y-82567000D03*
X126179000Y-82567000D03*
X127179000Y-82567000D03*
D24*
X127879000Y-82567000D03*
X128679000Y-82567000D03*
D26*
X121109000Y-77472000D03*
D27*
X129749000Y-81652000D03*
X121109000Y-81652000D03*
D26*
X129749000Y-77472000D03*
D28*
X153827800Y-87088800D03*
X155477800Y-87088800D03*
X148282652Y-88663600D03*
X149932652Y-88663600D03*
D29*
X134006200Y-88258200D03*
X134006200Y-86912000D03*
X134006200Y-85565800D03*
D17*
X149755052Y-80789600D03*
X151305052Y-80789600D03*
D30*
X138854000Y-77601400D03*
X138854000Y-75951400D03*
D31*
X133967400Y-101563800D03*
X133967400Y-102910000D03*
X133967400Y-104256200D03*
D32*
X120134800Y-99565200D03*
D33*
X126434800Y-101845200D03*
D32*
X120134800Y-104125200D03*
D34*
X153854200Y-81272200D03*
X153854200Y-82542200D03*
X153854200Y-83812200D03*
X153854200Y-85082200D03*
X158804200Y-85082200D03*
X158804200Y-83812200D03*
X158804200Y-82542200D03*
X158804200Y-81272200D03*
D35*
X149932652Y-90086000D03*
X148282652Y-90086000D03*
D36*
X140725652Y-72420600D03*
X140725652Y-70870600D03*
D37*
X158481600Y-79265600D03*
X154481600Y-79265600D03*
D35*
X149424652Y-108475600D03*
X147774652Y-108475600D03*
D16*
X153685800Y-89070000D03*
X156635800Y-89070000D03*
D30*
X159732800Y-93044600D03*
X159732800Y-91394600D03*
X161358400Y-94009800D03*
X161358400Y-92359800D03*
D17*
X142744652Y-113860400D03*
X144294652Y-113860400D03*
D37*
X158532400Y-76370000D03*
X154532400Y-76370000D03*
D17*
X139747452Y-113860400D03*
X141297452Y-113860400D03*
D35*
X157603452Y-113555600D03*
X155953452Y-113555600D03*
D38*
X147719600Y-113708000D03*
X151019600Y-113708000D03*
D34*
X155225800Y-70705800D03*
X155225800Y-71975800D03*
X155225800Y-73245800D03*
X155225800Y-74515800D03*
X160175800Y-74515800D03*
X160175800Y-73245800D03*
X160175800Y-71975800D03*
X160175800Y-70705800D03*
D13*
X151582800Y-121734400D03*
X155182800Y-121734400D03*
D19*
X155416600Y-115079600D03*
X152466600Y-115079600D03*
D32*
X120134800Y-93012000D03*
D33*
X126434800Y-95292000D03*
D32*
X120134800Y-97572000D03*
X120033200Y-85087200D03*
D33*
X126333200Y-87367200D03*
D32*
X120033200Y-89647200D03*
X120084000Y-107591600D03*
D33*
X126384000Y-109871600D03*
D32*
X120084000Y-112151600D03*
D35*
X159033800Y-87139600D03*
X157383800Y-87139600D03*
D39*
X165505842Y-95142200D03*
X135705842Y-121142200D03*
X165505842Y-121142200D03*
X135705842Y-95142200D03*
X165505842Y-73142200D03*
X135705842Y-73142200D03*
M02*
