M48
; DRILL file {KiCad (6.0.0)} date Fri Jul 15 20:41:03 2022
; FORMAT={-:-/ absolute / metric / decimal}
; #@! TF.CreationDate,2022-07-15T20:41:03-03:00
; #@! TF.GenerationSoftware,Kicad,Pcbnew,(6.0.0)
; #@! TF.FileFunction,Plated,1,2,PTH
FMAT,2
METRIC
; #@! TA.AperFunction,Plated,PTH,ViaDrill
T1C0.400
; #@! TA.AperFunction,Plated,PTH,ComponentDrill
T2C0.600
%
G90
G05
T1
X117.883Y-104.385
X117.883Y-105.401
X117.934Y-95.597
X117.934Y-96.613
X118.188Y-83.1
X118.848Y-79.544
X118.848Y-80.56
X119.204Y-83.1
X119.255Y-87.215
X119.306Y-109.719
X119.356Y-102.404
X119.356Y-103.42
X119.356Y-104.487
X119.509Y-95.698
X119.509Y-96.714
X119.509Y-97.73
X120.271Y-87.215
X120.322Y-109.719
X120.372Y-102.404
X120.372Y-103.42
X120.372Y-104.487
X120.474Y-95.698
X120.474Y-96.714
X120.474Y-97.73
X121.439Y-102.404
X121.439Y-103.42
X121.439Y-104.487
X121.541Y-95.698
X121.541Y-96.714
X121.541Y-97.73
X122.76Y-76.699
X122.862Y-113.58
X123.878Y-109.77
X123.878Y-110.786
X123.878Y-111.853
X123.878Y-113.58
X124.487Y-79.188
X124.792Y-85.386
X124.792Y-86.402
X124.792Y-87.418
X124.843Y-109.77
X124.843Y-110.786
X124.843Y-111.853
X125.757Y-85.386
X125.757Y-86.402
X125.757Y-87.418
X125.91Y-109.77
X125.91Y-110.786
X125.91Y-111.853
X126.113Y-80.255
X126.672Y-113.529
X126.773Y-85.386
X126.773Y-86.402
X126.773Y-87.418
X127.586Y-76.699
X127.688Y-113.529
X129.923Y-113.377
X130.532Y-110.735
X130.685Y-108.195
X130.736Y-94.124
X130.736Y-96.511
X130.939Y-113.377
X131.091Y-98.746
X131.193Y-103.572
X131.244Y-89.45
X131.548Y-110.735
X131.701Y-108.195
X131.752Y-94.124
X131.752Y-96.511
X136.72Y-70.325
X137.635Y-70.325
X137.686Y-115.232
X137.787Y-78.605
X138.448Y-88.257
X138.6Y-115.232
X138.803Y-86.581
X139.006Y-97.858
X139.768Y-103.65
X139.87Y-73.22
X139.921Y-97.858
X140.784Y-122.293
X141.699Y-122.293
X142.156Y-82.822
X142.359Y-102.278
X142.461Y-69.664
X143.07Y-82.822
X143.274Y-102.278
X143.375Y-69.664
X143.782Y-75.557
X143.985Y-108.425
X144.696Y-75.557
X144.696Y-106.901
X145.61Y-106.901
X146.118Y-108.425
X147.388Y-75.456
X147.388Y-87.394
X149.878Y-81.806
X150.436Y-83.939
X150.538Y-72.306
X150.538Y-85.616
X150.944Y-118.128
X151.097Y-73.271
X151.097Y-76.319
X151.198Y-102.43
X151.3Y-87.698
X151.503Y-72.306
X151.554Y-89.426
X151.656Y-82.618
X151.706Y-86.632
X151.96Y-70.884
X152.113Y-102.43
X152.214Y-87.698
X152.357Y-108.12
X152.367Y-105.174
X152.519Y-90.238
X152.57Y-72.814
X152.722Y-93.998
X152.926Y-74.135
X153.992Y-113.048
X154.602Y-117.518
X154.602Y-120.16
X155.77Y-96.69
X155.974Y-93.185
X155.974Y-108.374
X156.38Y-80.993
X156.482Y-82.771
X156.888Y-108.374
X157.076Y-84.521
X157.142Y-94.252
X157.345Y-96.741
X157.955Y-95.979
X158.158Y-89.883
X158.514Y-71.239
X158.532Y-76.37
X158.615Y-115.842
X158.615Y-123.766
X158.717Y-121.785
X159.53Y-123.766
X159.631Y-113.505
X159.936Y-106.647
X160.038Y-114.521
X160.546Y-79.824
X160.546Y-89.07
X160.546Y-113.505
X161.714Y-87.8
X161.765Y-79.824
X161.765Y-95.877
X162.023Y-90.09
X162.527Y-70.731
X162.527Y-80.586
X162.984Y-114.47
X163.086Y-104.716
X163.136Y-74.135
X163.238Y-115.943
X163.238Y-116.858
X163.441Y-69.512
X163.543Y-110.66
X163.543Y-111.574
X164.19Y-91.555
X164.559Y-76.014
T2
X121.109Y-77.772G85X121.109Y-77.172
G05
X121.109Y-82.202G85X121.109Y-81.102
G05
X129.749Y-77.772G85X129.749Y-77.172
G05
X129.749Y-82.202G85X129.749Y-81.102
G05
T0
M30
