G04 #@! TF.GenerationSoftware,KiCad,Pcbnew,(6.0.0)*
G04 #@! TF.CreationDate,2022-07-15T20:40:48-03:00*
G04 #@! TF.ProjectId,lanterna_bueno,6c616e74-6572-46e6-915f-6275656e6f2e,rev?*
G04 #@! TF.SameCoordinates,Original*
G04 #@! TF.FileFunction,Paste,Bot*
G04 #@! TF.FilePolarity,Positive*
%FSLAX46Y46*%
G04 Gerber Fmt 4.6, Leading zero omitted, Abs format (unit mm)*
G04 Created by KiCad (PCBNEW (6.0.0)) date 2022-07-15 20:40:48*
%MOMM*%
%LPD*%
G01*
G04 APERTURE LIST*
G04 Aperture macros list*
%AMRoundRect*
0 Rectangle with rounded corners*
0 $1 Rounding radius*
0 $2 $3 $4 $5 $6 $7 $8 $9 X,Y pos of 4 corners*
0 Add a 4 corners polygon primitive as box body*
4,1,4,$2,$3,$4,$5,$6,$7,$8,$9,$2,$3,0*
0 Add four circle primitives for the rounded corners*
1,1,$1+$1,$2,$3*
1,1,$1+$1,$4,$5*
1,1,$1+$1,$6,$7*
1,1,$1+$1,$8,$9*
0 Add four rect primitives between the rounded corners*
20,1,$1+$1,$2,$3,$4,$5,0*
20,1,$1+$1,$4,$5,$6,$7,0*
20,1,$1+$1,$6,$7,$8,$9,0*
20,1,$1+$1,$8,$9,$2,$3,0*%
G04 Aperture macros list end*
%ADD10RoundRect,0.250000X-0.325000X-0.650000X0.325000X-0.650000X0.325000X0.650000X-0.325000X0.650000X0*%
%ADD11R,1.550000X1.300000*%
%ADD12RoundRect,0.250000X-0.750000X0.250000X-0.750000X-0.250000X0.750000X-0.250000X0.750000X0.250000X0*%
%ADD13RoundRect,0.200000X0.200000X0.275000X-0.200000X0.275000X-0.200000X-0.275000X0.200000X-0.275000X0*%
%ADD14R,0.650000X1.310000*%
%ADD15R,0.600000X1.310000*%
%ADD16R,0.900000X0.795000*%
%ADD17RoundRect,0.250000X0.250000X0.750000X-0.250000X0.750000X-0.250000X-0.750000X0.250000X-0.750000X0*%
%ADD18C,2.000000*%
%ADD19RoundRect,0.200000X0.275000X-0.200000X0.275000X0.200000X-0.275000X0.200000X-0.275000X-0.200000X0*%
%ADD20RoundRect,0.200000X-0.275000X0.200000X-0.275000X-0.200000X0.275000X-0.200000X0.275000X0.200000X0*%
%ADD21RoundRect,0.250000X-0.250000X-0.750000X0.250000X-0.750000X0.250000X0.750000X-0.250000X0.750000X0*%
G04 APERTURE END LIST*
D10*
X144592600Y-85514000D03*
X147542600Y-85514000D03*
D11*
X147341842Y-82801800D03*
X139391842Y-82801800D03*
X139391842Y-78301800D03*
X147341842Y-78301800D03*
D12*
X133986800Y-85563800D03*
X133986800Y-86910000D03*
X133986800Y-88256200D03*
D13*
X142219000Y-86580800D03*
X140569000Y-86580800D03*
D11*
X154580842Y-90316000D03*
X146630842Y-90316000D03*
X154580842Y-94816000D03*
X146630842Y-94816000D03*
D14*
X143603800Y-93997800D03*
X142333800Y-93997800D03*
X141063800Y-93997800D03*
D15*
X139793800Y-93997800D03*
D14*
X139793800Y-88307800D03*
X141063800Y-88307800D03*
X142333800Y-88307800D03*
X143603800Y-88307800D03*
D16*
X140948800Y-90490300D03*
X142448800Y-90490300D03*
X142448800Y-91815300D03*
X140948800Y-91815300D03*
D13*
X148307052Y-96791600D03*
X146657052Y-96791600D03*
D17*
X160012200Y-120058000D03*
X158666000Y-120058000D03*
X157319800Y-120058000D03*
D18*
X126519200Y-92761600D03*
X126519200Y-89389600D03*
D19*
X159072400Y-95279800D03*
X159072400Y-93629800D03*
D18*
X126417600Y-104528000D03*
X126417600Y-107900000D03*
D12*
X133955400Y-101563800D03*
X133955400Y-102910000D03*
X133955400Y-104256200D03*
D20*
X143629200Y-95814200D03*
X143629200Y-97464200D03*
X142257600Y-95763400D03*
X142257600Y-97413400D03*
D17*
X143984800Y-115790800D03*
X142638600Y-115790800D03*
X141292400Y-115790800D03*
D21*
X157269000Y-115841600D03*
X158615200Y-115841600D03*
X159961400Y-115841600D03*
D19*
X160596400Y-95330600D03*
X160596400Y-93680600D03*
D11*
X153855147Y-82779000D03*
X161805147Y-82779000D03*
X161805147Y-78279000D03*
X153855147Y-78279000D03*
D17*
X144063000Y-120077400D03*
X142716800Y-120077400D03*
X141370600Y-120077400D03*
M02*
