G04 #@! TF.GenerationSoftware,KiCad,Pcbnew,(6.0.0)*
G04 #@! TF.CreationDate,2022-07-15T20:40:48-03:00*
G04 #@! TF.ProjectId,lanterna_bueno,6c616e74-6572-46e6-915f-6275656e6f2e,rev?*
G04 #@! TF.SameCoordinates,Original*
G04 #@! TF.FileFunction,Legend,Bot*
G04 #@! TF.FilePolarity,Positive*
%FSLAX46Y46*%
G04 Gerber Fmt 4.6, Leading zero omitted, Abs format (unit mm)*
G04 Created by KiCad (PCBNEW (6.0.0)) date 2022-07-15 20:40:48*
%MOMM*%
%LPD*%
G01*
G04 APERTURE LIST*
G04 Aperture macros list*
%AMRoundRect*
0 Rectangle with rounded corners*
0 $1 Rounding radius*
0 $2 $3 $4 $5 $6 $7 $8 $9 X,Y pos of 4 corners*
0 Add a 4 corners polygon primitive as box body*
4,1,4,$2,$3,$4,$5,$6,$7,$8,$9,$2,$3,0*
0 Add four circle primitives for the rounded corners*
1,1,$1+$1,$2,$3*
1,1,$1+$1,$4,$5*
1,1,$1+$1,$6,$7*
1,1,$1+$1,$8,$9*
0 Add four rect primitives between the rounded corners*
20,1,$1+$1,$2,$3,$4,$5,0*
20,1,$1+$1,$4,$5,$6,$7,0*
20,1,$1+$1,$6,$7,$8,$9,0*
20,1,$1+$1,$8,$9,$2,$3,0*%
G04 Aperture macros list end*
%ADD10C,0.200000*%
%ADD11C,0.150000*%
%ADD12C,0.120000*%
%ADD13C,0.650000*%
%ADD14O,1.000000X1.600000*%
%ADD15O,1.000000X2.100000*%
%ADD16C,3.200000*%
%ADD17RoundRect,0.250000X-0.325000X-0.650000X0.325000X-0.650000X0.325000X0.650000X-0.325000X0.650000X0*%
%ADD18R,1.550000X1.300000*%
%ADD19RoundRect,0.250000X-0.750000X0.250000X-0.750000X-0.250000X0.750000X-0.250000X0.750000X0.250000X0*%
%ADD20RoundRect,0.200000X0.200000X0.275000X-0.200000X0.275000X-0.200000X-0.275000X0.200000X-0.275000X0*%
%ADD21R,0.650000X1.310000*%
%ADD22R,0.600000X1.310000*%
%ADD23R,1.500000X1.325000*%
%ADD24RoundRect,0.250000X0.250000X0.750000X-0.250000X0.750000X-0.250000X-0.750000X0.250000X-0.750000X0*%
%ADD25C,2.000000*%
%ADD26RoundRect,0.200000X0.275000X-0.200000X0.275000X0.200000X-0.275000X0.200000X-0.275000X-0.200000X0*%
%ADD27RoundRect,0.200000X-0.275000X0.200000X-0.275000X-0.200000X0.275000X-0.200000X0.275000X0.200000X0*%
%ADD28RoundRect,0.250000X-0.250000X-0.750000X0.250000X-0.750000X0.250000X0.750000X-0.250000X0.750000X0*%
G04 APERTURE END LIST*
D10*
X162105842Y-106642200D02*
G75*
G03*
X161105842Y-105642200I-999984J16D01*
G01*
X140105842Y-105642200D02*
G75*
G03*
X139105842Y-106642200I-6J-999994D01*
G01*
X137105842Y-119492200D02*
X137105842Y-99992200D01*
X139105842Y-116642200D02*
G75*
G03*
X140105842Y-117642200I1000018J18D01*
G01*
X164105842Y-119492200D02*
X137105842Y-119492200D01*
X137105842Y-99992200D02*
X164105842Y-99992200D01*
X164105842Y-103792200D02*
X164105842Y-119492200D01*
X137105842Y-119492200D02*
X137105842Y-103792200D01*
X161105842Y-117642200D02*
X140105842Y-117642200D01*
X164105842Y-119492200D02*
X137105842Y-119492200D01*
X139105842Y-106642200D02*
X139105842Y-116642200D01*
X140105842Y-117642200D02*
X161105842Y-117642200D01*
X161105842Y-117642200D02*
G75*
G03*
X162105842Y-116642200I-8J1000008D01*
G01*
X140105842Y-105642200D02*
X161105842Y-105642200D01*
X164105842Y-99992200D02*
X164105842Y-119492200D01*
X162105842Y-106642200D02*
X162105842Y-116642200D01*
D11*
X166839175Y-91394580D02*
X167172508Y-90918390D01*
X167410603Y-91394580D02*
X167410603Y-90394580D01*
X167029651Y-90394580D01*
X166934413Y-90442200D01*
X166886794Y-90489819D01*
X166839175Y-90585057D01*
X166839175Y-90727914D01*
X166886794Y-90823152D01*
X166934413Y-90870771D01*
X167029651Y-90918390D01*
X167410603Y-90918390D01*
X166410603Y-90870771D02*
X166077270Y-90870771D01*
X165934413Y-91394580D02*
X166410603Y-91394580D01*
X166410603Y-90394580D01*
X165934413Y-90394580D01*
X165172508Y-90870771D02*
X165505842Y-90870771D01*
X165505842Y-91394580D02*
X165505842Y-90394580D01*
X165029651Y-90394580D01*
X164505842Y-90394580D02*
X164505842Y-90632676D01*
X164743937Y-90537438D02*
X164505842Y-90632676D01*
X164267746Y-90537438D01*
X164648699Y-90823152D02*
X164505842Y-90632676D01*
X164362984Y-90823152D01*
X163743937Y-90394580D02*
X163743937Y-90632676D01*
X163982032Y-90537438D02*
X163743937Y-90632676D01*
X163505842Y-90537438D01*
X163886794Y-90823152D02*
X163743937Y-90632676D01*
X163601080Y-90823152D01*
X146234266Y-87721142D02*
X146281885Y-87768761D01*
X146424742Y-87816380D01*
X146519980Y-87816380D01*
X146662838Y-87768761D01*
X146758076Y-87673523D01*
X146805695Y-87578285D01*
X146853314Y-87387809D01*
X146853314Y-87244952D01*
X146805695Y-87054476D01*
X146758076Y-86959238D01*
X146662838Y-86864000D01*
X146519980Y-86816380D01*
X146424742Y-86816380D01*
X146281885Y-86864000D01*
X146234266Y-86911619D01*
X145377123Y-86816380D02*
X145567600Y-86816380D01*
X145662838Y-86864000D01*
X145710457Y-86911619D01*
X145805695Y-87054476D01*
X145853314Y-87244952D01*
X145853314Y-87625904D01*
X145805695Y-87721142D01*
X145758076Y-87768761D01*
X145662838Y-87816380D01*
X145472361Y-87816380D01*
X145377123Y-87768761D01*
X145329504Y-87721142D01*
X145281885Y-87625904D01*
X145281885Y-87387809D01*
X145329504Y-87292571D01*
X145377123Y-87244952D01*
X145472361Y-87197333D01*
X145662838Y-87197333D01*
X145758076Y-87244952D01*
X145805695Y-87292571D01*
X145853314Y-87387809D01*
X137039175Y-117394580D02*
X137372508Y-116918390D01*
X137610603Y-117394580D02*
X137610603Y-116394580D01*
X137229651Y-116394580D01*
X137134413Y-116442200D01*
X137086794Y-116489819D01*
X137039175Y-116585057D01*
X137039175Y-116727914D01*
X137086794Y-116823152D01*
X137134413Y-116870771D01*
X137229651Y-116918390D01*
X137610603Y-116918390D01*
X136610603Y-116870771D02*
X136277270Y-116870771D01*
X136134413Y-117394580D02*
X136610603Y-117394580D01*
X136610603Y-116394580D01*
X136134413Y-116394580D01*
X135372508Y-116870771D02*
X135705842Y-116870771D01*
X135705842Y-117394580D02*
X135705842Y-116394580D01*
X135229651Y-116394580D01*
X134705842Y-116394580D02*
X134705842Y-116632676D01*
X134943937Y-116537438D02*
X134705842Y-116632676D01*
X134467746Y-116537438D01*
X134848699Y-116823152D02*
X134705842Y-116632676D01*
X134562984Y-116823152D01*
X133943937Y-116394580D02*
X133943937Y-116632676D01*
X134182032Y-116537438D02*
X133943937Y-116632676D01*
X133705842Y-116537438D01*
X134086794Y-116823152D02*
X133943937Y-116632676D01*
X133801080Y-116823152D01*
X144708533Y-77130361D02*
X144565676Y-77177980D01*
X144327580Y-77177980D01*
X144232342Y-77130361D01*
X144184723Y-77082742D01*
X144137104Y-76987504D01*
X144137104Y-76892266D01*
X144184723Y-76797028D01*
X144232342Y-76749409D01*
X144327580Y-76701790D01*
X144518057Y-76654171D01*
X144613295Y-76606552D01*
X144660914Y-76558933D01*
X144708533Y-76463695D01*
X144708533Y-76368457D01*
X144660914Y-76273219D01*
X144613295Y-76225600D01*
X144518057Y-76177980D01*
X144279961Y-76177980D01*
X144137104Y-76225600D01*
X143803771Y-76177980D02*
X143565676Y-77177980D01*
X143375200Y-76463695D01*
X143184723Y-77177980D01*
X142946628Y-76177980D01*
X142660914Y-76177980D02*
X142041866Y-76177980D01*
X142375200Y-76558933D01*
X142232342Y-76558933D01*
X142137104Y-76606552D01*
X142089485Y-76654171D01*
X142041866Y-76749409D01*
X142041866Y-76987504D01*
X142089485Y-77082742D01*
X142137104Y-77130361D01*
X142232342Y-77177980D01*
X142518057Y-77177980D01*
X142613295Y-77130361D01*
X142660914Y-77082742D01*
X142036857Y-85603180D02*
X142370190Y-85126990D01*
X142608285Y-85603180D02*
X142608285Y-84603180D01*
X142227333Y-84603180D01*
X142132095Y-84650800D01*
X142084476Y-84698419D01*
X142036857Y-84793657D01*
X142036857Y-84936514D01*
X142084476Y-85031752D01*
X142132095Y-85079371D01*
X142227333Y-85126990D01*
X142608285Y-85126990D01*
X141084476Y-85603180D02*
X141655904Y-85603180D01*
X141370190Y-85603180D02*
X141370190Y-84603180D01*
X141465428Y-84746038D01*
X141560666Y-84841276D01*
X141655904Y-84888895D01*
X140465428Y-84603180D02*
X140370190Y-84603180D01*
X140274952Y-84650800D01*
X140227333Y-84698419D01*
X140179714Y-84793657D01*
X140132095Y-84984133D01*
X140132095Y-85222228D01*
X140179714Y-85412704D01*
X140227333Y-85507942D01*
X140274952Y-85555561D01*
X140370190Y-85603180D01*
X140465428Y-85603180D01*
X140560666Y-85555561D01*
X140608285Y-85507942D01*
X140655904Y-85412704D01*
X140703523Y-85222228D01*
X140703523Y-84984133D01*
X140655904Y-84793657D01*
X140608285Y-84698419D01*
X140560666Y-84650800D01*
X140465428Y-84603180D01*
X151939175Y-88920761D02*
X151796318Y-88968380D01*
X151558222Y-88968380D01*
X151462984Y-88920761D01*
X151415365Y-88873142D01*
X151367746Y-88777904D01*
X151367746Y-88682666D01*
X151415365Y-88587428D01*
X151462984Y-88539809D01*
X151558222Y-88492190D01*
X151748699Y-88444571D01*
X151843937Y-88396952D01*
X151891556Y-88349333D01*
X151939175Y-88254095D01*
X151939175Y-88158857D01*
X151891556Y-88063619D01*
X151843937Y-88016000D01*
X151748699Y-87968380D01*
X151510603Y-87968380D01*
X151367746Y-88016000D01*
X151034413Y-87968380D02*
X150796318Y-88968380D01*
X150605842Y-88254095D01*
X150415365Y-88968380D01*
X150177270Y-87968380D01*
X149272508Y-88968380D02*
X149843937Y-88968380D01*
X149558222Y-88968380D02*
X149558222Y-87968380D01*
X149653461Y-88111238D01*
X149748699Y-88206476D01*
X149843937Y-88254095D01*
X166839175Y-117394580D02*
X167172508Y-116918390D01*
X167410603Y-117394580D02*
X167410603Y-116394580D01*
X167029651Y-116394580D01*
X166934413Y-116442200D01*
X166886794Y-116489819D01*
X166839175Y-116585057D01*
X166839175Y-116727914D01*
X166886794Y-116823152D01*
X166934413Y-116870771D01*
X167029651Y-116918390D01*
X167410603Y-116918390D01*
X166410603Y-116870771D02*
X166077270Y-116870771D01*
X165934413Y-117394580D02*
X166410603Y-117394580D01*
X166410603Y-116394580D01*
X165934413Y-116394580D01*
X165172508Y-116870771D02*
X165505842Y-116870771D01*
X165505842Y-117394580D02*
X165505842Y-116394580D01*
X165029651Y-116394580D01*
X164505842Y-116394580D02*
X164505842Y-116632676D01*
X164743937Y-116537438D02*
X164505842Y-116632676D01*
X164267746Y-116537438D01*
X164648699Y-116823152D02*
X164505842Y-116632676D01*
X164362984Y-116823152D01*
X163743937Y-116394580D02*
X163743937Y-116632676D01*
X163982032Y-116537438D02*
X163743937Y-116632676D01*
X163505842Y-116537438D01*
X163886794Y-116823152D02*
X163743937Y-116632676D01*
X163601080Y-116823152D01*
X144651180Y-90390895D02*
X145460704Y-90390895D01*
X145555942Y-90438514D01*
X145603561Y-90486133D01*
X145651180Y-90581371D01*
X145651180Y-90771847D01*
X145603561Y-90867085D01*
X145555942Y-90914704D01*
X145460704Y-90962323D01*
X144651180Y-90962323D01*
X144651180Y-91914704D02*
X144651180Y-91438514D01*
X145127371Y-91390895D01*
X145079752Y-91438514D01*
X145032133Y-91533752D01*
X145032133Y-91771847D01*
X145079752Y-91867085D01*
X145127371Y-91914704D01*
X145222609Y-91962323D01*
X145460704Y-91962323D01*
X145555942Y-91914704D01*
X145603561Y-91867085D01*
X145651180Y-91771847D01*
X145651180Y-91533752D01*
X145603561Y-91438514D01*
X145555942Y-91390895D01*
X148672666Y-96177180D02*
X149006000Y-95700990D01*
X149244095Y-96177180D02*
X149244095Y-95177180D01*
X148863142Y-95177180D01*
X148767904Y-95224800D01*
X148720285Y-95272419D01*
X148672666Y-95367657D01*
X148672666Y-95510514D01*
X148720285Y-95605752D01*
X148767904Y-95653371D01*
X148863142Y-95700990D01*
X149244095Y-95700990D01*
X148291714Y-95272419D02*
X148244095Y-95224800D01*
X148148857Y-95177180D01*
X147910761Y-95177180D01*
X147815523Y-95224800D01*
X147767904Y-95272419D01*
X147720285Y-95367657D01*
X147720285Y-95462895D01*
X147767904Y-95605752D01*
X148339333Y-96177180D01*
X147720285Y-96177180D01*
X137039175Y-91394580D02*
X137372508Y-90918390D01*
X137610603Y-91394580D02*
X137610603Y-90394580D01*
X137229651Y-90394580D01*
X137134413Y-90442200D01*
X137086794Y-90489819D01*
X137039175Y-90585057D01*
X137039175Y-90727914D01*
X137086794Y-90823152D01*
X137134413Y-90870771D01*
X137229651Y-90918390D01*
X137610603Y-90918390D01*
X136610603Y-90870771D02*
X136277270Y-90870771D01*
X136134413Y-91394580D02*
X136610603Y-91394580D01*
X136610603Y-90394580D01*
X136134413Y-90394580D01*
X135372508Y-90870771D02*
X135705842Y-90870771D01*
X135705842Y-91394580D02*
X135705842Y-90394580D01*
X135229651Y-90394580D01*
X134705842Y-90394580D02*
X134705842Y-90632676D01*
X134943937Y-90537438D02*
X134705842Y-90632676D01*
X134467746Y-90537438D01*
X134848699Y-90823152D02*
X134705842Y-90632676D01*
X134562984Y-90823152D01*
X133943937Y-90394580D02*
X133943937Y-90632676D01*
X134182032Y-90537438D02*
X133943937Y-90632676D01*
X133705842Y-90537438D01*
X134086794Y-90823152D02*
X133943937Y-90632676D01*
X133801080Y-90823152D01*
X166839175Y-69394580D02*
X167172508Y-68918390D01*
X167410603Y-69394580D02*
X167410603Y-68394580D01*
X167029651Y-68394580D01*
X166934413Y-68442200D01*
X166886794Y-68489819D01*
X166839175Y-68585057D01*
X166839175Y-68727914D01*
X166886794Y-68823152D01*
X166934413Y-68870771D01*
X167029651Y-68918390D01*
X167410603Y-68918390D01*
X166410603Y-68870771D02*
X166077270Y-68870771D01*
X165934413Y-69394580D02*
X166410603Y-69394580D01*
X166410603Y-68394580D01*
X165934413Y-68394580D01*
X165172508Y-68870771D02*
X165505842Y-68870771D01*
X165505842Y-69394580D02*
X165505842Y-68394580D01*
X165029651Y-68394580D01*
X164505842Y-68394580D02*
X164505842Y-68632676D01*
X164743937Y-68537438D02*
X164505842Y-68632676D01*
X164267746Y-68537438D01*
X164648699Y-68823152D02*
X164505842Y-68632676D01*
X164362984Y-68823152D01*
X163743937Y-68394580D02*
X163743937Y-68632676D01*
X163982032Y-68537438D02*
X163743937Y-68632676D01*
X163505842Y-68537438D01*
X163886794Y-68823152D02*
X163743937Y-68632676D01*
X163601080Y-68823152D01*
X137039175Y-69394580D02*
X137372508Y-68918390D01*
X137610603Y-69394580D02*
X137610603Y-68394580D01*
X137229651Y-68394580D01*
X137134413Y-68442200D01*
X137086794Y-68489819D01*
X137039175Y-68585057D01*
X137039175Y-68727914D01*
X137086794Y-68823152D01*
X137134413Y-68870771D01*
X137229651Y-68918390D01*
X137610603Y-68918390D01*
X136610603Y-68870771D02*
X136277270Y-68870771D01*
X136134413Y-69394580D02*
X136610603Y-69394580D01*
X136610603Y-68394580D01*
X136134413Y-68394580D01*
X135372508Y-68870771D02*
X135705842Y-68870771D01*
X135705842Y-69394580D02*
X135705842Y-68394580D01*
X135229651Y-68394580D01*
X134705842Y-68394580D02*
X134705842Y-68632676D01*
X134943937Y-68537438D02*
X134705842Y-68632676D01*
X134467746Y-68537438D01*
X134848699Y-68823152D02*
X134705842Y-68632676D01*
X134562984Y-68823152D01*
X133943937Y-68394580D02*
X133943937Y-68632676D01*
X134182032Y-68537438D02*
X133943937Y-68632676D01*
X133705842Y-68537438D01*
X134086794Y-68823152D02*
X133943937Y-68632676D01*
X133801080Y-68823152D01*
X157875323Y-121753580D02*
X157875323Y-122467866D01*
X157922942Y-122610723D01*
X158018180Y-122705961D01*
X158161038Y-122753580D01*
X158256276Y-122753580D01*
X156875323Y-122753580D02*
X157446752Y-122753580D01*
X157161038Y-122753580D02*
X157161038Y-121753580D01*
X157256276Y-121896438D01*
X157351514Y-121991676D01*
X157446752Y-122039295D01*
X155922942Y-122753580D02*
X156494371Y-122753580D01*
X156208657Y-122753580D02*
X156208657Y-121753580D01*
X156303895Y-121896438D01*
X156399133Y-121991676D01*
X156494371Y-122039295D01*
X128105180Y-92783866D02*
X128819466Y-92783866D01*
X128962323Y-92736247D01*
X129057561Y-92641009D01*
X129105180Y-92498152D01*
X129105180Y-92402914D01*
X128105180Y-93164819D02*
X128105180Y-93783866D01*
X128486133Y-93450533D01*
X128486133Y-93593390D01*
X128533752Y-93688628D01*
X128581371Y-93736247D01*
X128676609Y-93783866D01*
X128914704Y-93783866D01*
X129009942Y-93736247D01*
X129057561Y-93688628D01*
X129105180Y-93593390D01*
X129105180Y-93307676D01*
X129057561Y-93212438D01*
X129009942Y-93164819D01*
X159524780Y-92103733D02*
X159048590Y-91770400D01*
X159524780Y-91532304D02*
X158524780Y-91532304D01*
X158524780Y-91913257D01*
X158572400Y-92008495D01*
X158620019Y-92056114D01*
X158715257Y-92103733D01*
X158858114Y-92103733D01*
X158953352Y-92056114D01*
X159000971Y-92008495D01*
X159048590Y-91913257D01*
X159048590Y-91532304D01*
X158524780Y-92960876D02*
X158524780Y-92770400D01*
X158572400Y-92675161D01*
X158620019Y-92627542D01*
X158762876Y-92532304D01*
X158953352Y-92484685D01*
X159334304Y-92484685D01*
X159429542Y-92532304D01*
X159477161Y-92579923D01*
X159524780Y-92675161D01*
X159524780Y-92865638D01*
X159477161Y-92960876D01*
X159429542Y-93008495D01*
X159334304Y-93056114D01*
X159096209Y-93056114D01*
X159000971Y-93008495D01*
X158953352Y-92960876D01*
X158905733Y-92865638D01*
X158905733Y-92675161D01*
X158953352Y-92579923D01*
X159000971Y-92532304D01*
X159096209Y-92484685D01*
X123837980Y-103737466D02*
X124552266Y-103737466D01*
X124695123Y-103689847D01*
X124790361Y-103594609D01*
X124837980Y-103451752D01*
X124837980Y-103356514D01*
X123933219Y-104166038D02*
X123885600Y-104213657D01*
X123837980Y-104308895D01*
X123837980Y-104546990D01*
X123885600Y-104642228D01*
X123933219Y-104689847D01*
X124028457Y-104737466D01*
X124123695Y-104737466D01*
X124266552Y-104689847D01*
X124837980Y-104118419D01*
X124837980Y-104737466D01*
X145453180Y-95945542D02*
X144976990Y-95612209D01*
X145453180Y-95374114D02*
X144453180Y-95374114D01*
X144453180Y-95755066D01*
X144500800Y-95850304D01*
X144548419Y-95897923D01*
X144643657Y-95945542D01*
X144786514Y-95945542D01*
X144881752Y-95897923D01*
X144929371Y-95850304D01*
X144976990Y-95755066D01*
X144976990Y-95374114D01*
X145453180Y-96897923D02*
X145453180Y-96326495D01*
X145453180Y-96612209D02*
X144453180Y-96612209D01*
X144596038Y-96516971D01*
X144691276Y-96421733D01*
X144738895Y-96326495D01*
X144548419Y-97278876D02*
X144500800Y-97326495D01*
X144453180Y-97421733D01*
X144453180Y-97659828D01*
X144500800Y-97755066D01*
X144548419Y-97802685D01*
X144643657Y-97850304D01*
X144738895Y-97850304D01*
X144881752Y-97802685D01*
X145453180Y-97231257D01*
X145453180Y-97850304D01*
X141279980Y-95945542D02*
X140803790Y-95612209D01*
X141279980Y-95374114D02*
X140279980Y-95374114D01*
X140279980Y-95755066D01*
X140327600Y-95850304D01*
X140375219Y-95897923D01*
X140470457Y-95945542D01*
X140613314Y-95945542D01*
X140708552Y-95897923D01*
X140756171Y-95850304D01*
X140803790Y-95755066D01*
X140803790Y-95374114D01*
X141279980Y-96897923D02*
X141279980Y-96326495D01*
X141279980Y-96612209D02*
X140279980Y-96612209D01*
X140422838Y-96516971D01*
X140518076Y-96421733D01*
X140565695Y-96326495D01*
X141279980Y-97850304D02*
X141279980Y-97278876D01*
X141279980Y-97564590D02*
X140279980Y-97564590D01*
X140422838Y-97469352D01*
X140518076Y-97374114D01*
X140565695Y-97278876D01*
X141371733Y-117486380D02*
X141371733Y-118200666D01*
X141419352Y-118343523D01*
X141514590Y-118438761D01*
X141657447Y-118486380D01*
X141752685Y-118486380D01*
X140752685Y-117914952D02*
X140847923Y-117867333D01*
X140895542Y-117819714D01*
X140943161Y-117724476D01*
X140943161Y-117676857D01*
X140895542Y-117581619D01*
X140847923Y-117534000D01*
X140752685Y-117486380D01*
X140562209Y-117486380D01*
X140466971Y-117534000D01*
X140419352Y-117581619D01*
X140371733Y-117676857D01*
X140371733Y-117724476D01*
X140419352Y-117819714D01*
X140466971Y-117867333D01*
X140562209Y-117914952D01*
X140752685Y-117914952D01*
X140847923Y-117962571D01*
X140895542Y-118010190D01*
X140943161Y-118105428D01*
X140943161Y-118295904D01*
X140895542Y-118391142D01*
X140847923Y-118438761D01*
X140752685Y-118486380D01*
X140562209Y-118486380D01*
X140466971Y-118438761D01*
X140419352Y-118391142D01*
X140371733Y-118295904D01*
X140371733Y-118105428D01*
X140419352Y-118010190D01*
X140466971Y-117962571D01*
X140562209Y-117914952D01*
X159405876Y-114146019D02*
X159405876Y-113431733D01*
X159358257Y-113288876D01*
X159263019Y-113193638D01*
X159120161Y-113146019D01*
X159024923Y-113146019D01*
X160405876Y-113146019D02*
X159834447Y-113146019D01*
X160120161Y-113146019D02*
X160120161Y-114146019D01*
X160024923Y-114003161D01*
X159929685Y-113907923D01*
X159834447Y-113860304D01*
X161024923Y-114146019D02*
X161120161Y-114146019D01*
X161215400Y-114098400D01*
X161263019Y-114050780D01*
X161310638Y-113955542D01*
X161358257Y-113765066D01*
X161358257Y-113526971D01*
X161310638Y-113336495D01*
X161263019Y-113241257D01*
X161215400Y-113193638D01*
X161120161Y-113146019D01*
X161024923Y-113146019D01*
X160929685Y-113193638D01*
X160882066Y-113241257D01*
X160834447Y-113336495D01*
X160786828Y-113526971D01*
X160786828Y-113765066D01*
X160834447Y-113955542D01*
X160882066Y-114050780D01*
X160929685Y-114098400D01*
X161024923Y-114146019D01*
X161150380Y-92103733D02*
X160674190Y-91770400D01*
X161150380Y-91532304D02*
X160150380Y-91532304D01*
X160150380Y-91913257D01*
X160198000Y-92008495D01*
X160245619Y-92056114D01*
X160340857Y-92103733D01*
X160483714Y-92103733D01*
X160578952Y-92056114D01*
X160626571Y-92008495D01*
X160674190Y-91913257D01*
X160674190Y-91532304D01*
X160150380Y-92437066D02*
X160150380Y-93103733D01*
X161150380Y-92675161D01*
X158018133Y-77079561D02*
X157875276Y-77127180D01*
X157637180Y-77127180D01*
X157541942Y-77079561D01*
X157494323Y-77031942D01*
X157446704Y-76936704D01*
X157446704Y-76841466D01*
X157494323Y-76746228D01*
X157541942Y-76698609D01*
X157637180Y-76650990D01*
X157827657Y-76603371D01*
X157922895Y-76555752D01*
X157970514Y-76508133D01*
X158018133Y-76412895D01*
X158018133Y-76317657D01*
X157970514Y-76222419D01*
X157922895Y-76174800D01*
X157827657Y-76127180D01*
X157589561Y-76127180D01*
X157446704Y-76174800D01*
X157113371Y-76127180D02*
X156875276Y-77127180D01*
X156684800Y-76412895D01*
X156494323Y-77127180D01*
X156256228Y-76127180D01*
X155922895Y-76222419D02*
X155875276Y-76174800D01*
X155780038Y-76127180D01*
X155541942Y-76127180D01*
X155446704Y-76174800D01*
X155399085Y-76222419D01*
X155351466Y-76317657D01*
X155351466Y-76412895D01*
X155399085Y-76555752D01*
X155970514Y-77127180D01*
X155351466Y-77127180D01*
X141449933Y-121772980D02*
X141449933Y-122487266D01*
X141497552Y-122630123D01*
X141592790Y-122725361D01*
X141735647Y-122772980D01*
X141830885Y-122772980D01*
X140926123Y-122772980D02*
X140735647Y-122772980D01*
X140640409Y-122725361D01*
X140592790Y-122677742D01*
X140497552Y-122534885D01*
X140449933Y-122344409D01*
X140449933Y-121963457D01*
X140497552Y-121868219D01*
X140545171Y-121820600D01*
X140640409Y-121772980D01*
X140830885Y-121772980D01*
X140926123Y-121820600D01*
X140973742Y-121868219D01*
X141021361Y-121963457D01*
X141021361Y-122201552D01*
X140973742Y-122296790D01*
X140926123Y-122344409D01*
X140830885Y-122392028D01*
X140640409Y-122392028D01*
X140545171Y-122344409D01*
X140497552Y-122296790D01*
X140449933Y-122201552D01*
D12*
X145356348Y-86424000D02*
X146778852Y-86424000D01*
X145356348Y-84604000D02*
X146778852Y-84604000D01*
X146596842Y-81851800D02*
X146596842Y-79251800D01*
X140136842Y-81851800D02*
X140136842Y-79251800D01*
X146596842Y-83781800D02*
X146596842Y-83751800D01*
X146596842Y-77321800D02*
X146596842Y-77351800D01*
X140136842Y-83781800D02*
X146596842Y-83781800D01*
X140136842Y-77321800D02*
X146596842Y-77321800D01*
X140136842Y-77321800D02*
X140136842Y-77351800D01*
X140136842Y-83751800D02*
X140136842Y-83781800D01*
X141631258Y-86058300D02*
X141156742Y-86058300D01*
X141631258Y-87103300D02*
X141156742Y-87103300D01*
X147375842Y-89336000D02*
X147375842Y-89366000D01*
X153835842Y-89366000D02*
X153835842Y-89336000D01*
X153835842Y-89336000D02*
X147375842Y-89336000D01*
X153835842Y-91266000D02*
X153835842Y-93866000D01*
X147375842Y-91266000D02*
X147375842Y-93866000D01*
X153835842Y-95796000D02*
X153835842Y-95766000D01*
X147375842Y-95796000D02*
X147375842Y-95766000D01*
X153835842Y-95796000D02*
X147375842Y-95796000D01*
D11*
X144223800Y-93227800D02*
X144223800Y-94627800D01*
X144273800Y-93227800D02*
X144223800Y-93227800D01*
X139123800Y-93227800D02*
X139268800Y-93227800D01*
X139123800Y-89077800D02*
X139268800Y-89077800D01*
X144273800Y-89077800D02*
X144128800Y-89077800D01*
X139123800Y-93227800D02*
X139123800Y-89077800D01*
X144273800Y-93227800D02*
X144273800Y-89077800D01*
D12*
X147719310Y-96269100D02*
X147244794Y-96269100D01*
X147719310Y-97314100D02*
X147244794Y-97314100D01*
X127619200Y-92761600D02*
G75*
G03*
X127619200Y-92761600I-1100000J0D01*
G01*
X127619200Y-89389600D02*
G75*
G03*
X127619200Y-89389600I-1100000J0D01*
G01*
X158549900Y-94692058D02*
X158549900Y-94217542D01*
X159594900Y-94692058D02*
X159594900Y-94217542D01*
X127517600Y-104528000D02*
G75*
G03*
X127517600Y-104528000I-1100000J0D01*
G01*
X127517600Y-107900000D02*
G75*
G03*
X127517600Y-107900000I-1100000J0D01*
G01*
X144151700Y-96401942D02*
X144151700Y-96876458D01*
X143106700Y-96401942D02*
X143106700Y-96876458D01*
X141735100Y-96351142D02*
X141735100Y-96825658D01*
X142780100Y-96351142D02*
X142780100Y-96825658D01*
X161118900Y-94742858D02*
X161118900Y-94268342D01*
X160073900Y-94742858D02*
X160073900Y-94268342D01*
X154600147Y-83729000D02*
X154600147Y-83759000D01*
X154600147Y-77299000D02*
X161060147Y-77299000D01*
X161060147Y-83759000D02*
X161060147Y-83729000D01*
X161060147Y-77299000D02*
X161060147Y-77329000D01*
X154600147Y-81829000D02*
X154600147Y-79229000D01*
X154600147Y-83759000D02*
X161060147Y-83759000D01*
X154600147Y-77299000D02*
X154600147Y-77329000D01*
X161060147Y-81829000D02*
X161060147Y-79229000D01*
%LPC*%
D13*
X122539000Y-81122000D03*
X128319000Y-81122000D03*
D14*
X121109000Y-77472000D03*
D15*
X129749000Y-81652000D03*
X121109000Y-81652000D03*
D14*
X129749000Y-77472000D03*
D16*
X165505842Y-95142200D03*
D17*
X144592600Y-85514000D03*
X147542600Y-85514000D03*
D16*
X135705842Y-121142200D03*
D18*
X147341842Y-82801800D03*
X139391842Y-82801800D03*
X139391842Y-78301800D03*
X147341842Y-78301800D03*
D19*
X133986800Y-85563800D03*
X133986800Y-86910000D03*
X133986800Y-88256200D03*
D20*
X142219000Y-86580800D03*
X140569000Y-86580800D03*
D18*
X154580842Y-90316000D03*
X146630842Y-90316000D03*
X154580842Y-94816000D03*
X146630842Y-94816000D03*
D16*
X165505842Y-121142200D03*
D21*
X143603800Y-93997800D03*
X142333800Y-93997800D03*
X141063800Y-93997800D03*
D22*
X139793800Y-93997800D03*
D21*
X139793800Y-88307800D03*
X141063800Y-88307800D03*
X142333800Y-88307800D03*
X143603800Y-88307800D03*
D23*
X140948800Y-90490300D03*
X142448800Y-90490300D03*
X142448800Y-91815300D03*
X140948800Y-91815300D03*
D20*
X148307052Y-96791600D03*
X146657052Y-96791600D03*
D16*
X135705842Y-95142200D03*
X165505842Y-73142200D03*
X135705842Y-73142200D03*
D24*
X160012200Y-120058000D03*
X158666000Y-120058000D03*
X157319800Y-120058000D03*
D25*
X126519200Y-92761600D03*
X126519200Y-89389600D03*
D26*
X159072400Y-95279800D03*
X159072400Y-93629800D03*
D25*
X126417600Y-104528000D03*
X126417600Y-107900000D03*
D19*
X133955400Y-101563800D03*
X133955400Y-102910000D03*
X133955400Y-104256200D03*
D27*
X143629200Y-95814200D03*
X143629200Y-97464200D03*
X142257600Y-95763400D03*
X142257600Y-97413400D03*
D24*
X143984800Y-115790800D03*
X142638600Y-115790800D03*
X141292400Y-115790800D03*
D28*
X157269000Y-115841600D03*
X158615200Y-115841600D03*
X159961400Y-115841600D03*
D26*
X160596400Y-95330600D03*
X160596400Y-93680600D03*
D18*
X153855147Y-82779000D03*
X161805147Y-82779000D03*
X161805147Y-78279000D03*
X153855147Y-78279000D03*
D24*
X144063000Y-120077400D03*
X142716800Y-120077400D03*
X141370600Y-120077400D03*
M02*
