G04 #@! TF.GenerationSoftware,KiCad,Pcbnew,(6.0.0)*
G04 #@! TF.CreationDate,2022-07-15T20:40:48-03:00*
G04 #@! TF.ProjectId,lanterna_bueno,6c616e74-6572-46e6-915f-6275656e6f2e,rev?*
G04 #@! TF.SameCoordinates,Original*
G04 #@! TF.FileFunction,Soldermask,Top*
G04 #@! TF.FilePolarity,Negative*
%FSLAX46Y46*%
G04 Gerber Fmt 4.6, Leading zero omitted, Abs format (unit mm)*
G04 Created by KiCad (PCBNEW (6.0.0)) date 2022-07-15 20:40:48*
%MOMM*%
%LPD*%
G01*
G04 APERTURE LIST*
G04 Aperture macros list*
%AMRoundRect*
0 Rectangle with rounded corners*
0 $1 Rounding radius*
0 $2 $3 $4 $5 $6 $7 $8 $9 X,Y pos of 4 corners*
0 Add a 4 corners polygon primitive as box body*
4,1,4,$2,$3,$4,$5,$6,$7,$8,$9,$2,$3,0*
0 Add four circle primitives for the rounded corners*
1,1,$1+$1,$2,$3*
1,1,$1+$1,$4,$5*
1,1,$1+$1,$6,$7*
1,1,$1+$1,$8,$9*
0 Add four rect primitives between the rounded corners*
20,1,$1+$1,$2,$3,$4,$5,0*
20,1,$1+$1,$4,$5,$6,$7,0*
20,1,$1+$1,$6,$7,$8,$9,0*
20,1,$1+$1,$8,$9,$2,$3,0*%
G04 Aperture macros list end*
%ADD10RoundRect,0.250000X-1.050000X-0.550000X1.050000X-0.550000X1.050000X0.550000X-1.050000X0.550000X0*%
%ADD11RoundRect,0.150000X-0.512500X-0.150000X0.512500X-0.150000X0.512500X0.150000X-0.512500X0.150000X0*%
%ADD12C,2.000000*%
%ADD13RoundRect,0.250000X-0.325000X-0.650000X0.325000X-0.650000X0.325000X0.650000X-0.325000X0.650000X0*%
%ADD14RoundRect,0.225000X-0.225000X-0.250000X0.225000X-0.250000X0.225000X0.250000X-0.225000X0.250000X0*%
%ADD15RoundRect,0.150000X0.587500X0.150000X-0.587500X0.150000X-0.587500X-0.150000X0.587500X-0.150000X0*%
%ADD16RoundRect,0.250000X0.325000X0.650000X-0.325000X0.650000X-0.325000X-0.650000X0.325000X-0.650000X0*%
%ADD17R,0.400000X2.000000*%
%ADD18RoundRect,0.125000X-0.625000X-0.125000X0.625000X-0.125000X0.625000X0.125000X-0.625000X0.125000X0*%
%ADD19RoundRect,0.125000X-0.125000X-0.625000X0.125000X-0.625000X0.125000X0.625000X-0.125000X0.625000X0*%
%ADD20C,0.650000*%
%ADD21R,0.600000X1.450000*%
%ADD22R,0.300000X1.450000*%
%ADD23O,1.000000X1.600000*%
%ADD24O,1.000000X2.100000*%
%ADD25RoundRect,0.200000X-0.200000X-0.275000X0.200000X-0.275000X0.200000X0.275000X-0.200000X0.275000X0*%
%ADD26RoundRect,0.250000X0.750000X-0.250000X0.750000X0.250000X-0.750000X0.250000X-0.750000X-0.250000X0*%
%ADD27RoundRect,0.200000X0.275000X-0.200000X0.275000X0.200000X-0.275000X0.200000X-0.275000X-0.200000X0*%
%ADD28RoundRect,0.250000X-0.750000X0.250000X-0.750000X-0.250000X0.750000X-0.250000X0.750000X0.250000X0*%
%ADD29R,2.200000X1.200000*%
%ADD30R,6.400000X5.800000*%
%ADD31RoundRect,0.150000X-0.825000X-0.150000X0.825000X-0.150000X0.825000X0.150000X-0.825000X0.150000X0*%
%ADD32RoundRect,0.200000X0.200000X0.275000X-0.200000X0.275000X-0.200000X-0.275000X0.200000X-0.275000X0*%
%ADD33RoundRect,0.225000X0.250000X-0.225000X0.250000X0.225000X-0.250000X0.225000X-0.250000X-0.225000X0*%
%ADD34R,2.500000X1.800000*%
%ADD35R,0.900000X1.200000*%
%ADD36C,3.200000*%
G04 APERTURE END LIST*
D10*
X144674000Y-121632800D03*
X148274000Y-121632800D03*
D11*
X151686500Y-91218800D03*
X151686500Y-92168800D03*
X151686500Y-93118800D03*
X153961500Y-93118800D03*
X153961500Y-91218800D03*
D12*
X147845600Y-92372000D03*
X144473600Y-92372000D03*
D13*
X147843800Y-95064400D03*
X150793800Y-95064400D03*
D14*
X153979400Y-94556400D03*
X155529400Y-94556400D03*
D15*
X158231900Y-93118800D03*
X158231900Y-91218800D03*
X156356900Y-92168800D03*
D16*
X150793800Y-115943200D03*
X147843800Y-115943200D03*
D17*
X140481652Y-111022200D03*
X141181652Y-111022200D03*
X141881652Y-111022200D03*
X142581652Y-111022200D03*
X143281652Y-111022200D03*
X143981652Y-111022200D03*
X144681652Y-111022200D03*
X145381652Y-111022200D03*
X146081652Y-111022200D03*
X146781652Y-111022200D03*
X147481652Y-111022200D03*
X148181652Y-111022200D03*
X148881652Y-111022200D03*
X149581652Y-111022200D03*
X150281652Y-111022200D03*
X150981652Y-111022200D03*
X151681652Y-111022200D03*
X152381652Y-111022200D03*
X153081652Y-111022200D03*
X153781652Y-111022200D03*
X154481652Y-111022200D03*
X155181652Y-111022200D03*
X155881652Y-111022200D03*
X156581652Y-111022200D03*
X157281652Y-111022200D03*
X157981652Y-111022200D03*
X158681652Y-111022200D03*
X159381652Y-111022200D03*
X160081652Y-111022200D03*
X160781652Y-111022200D03*
D18*
X141300042Y-73941800D03*
X141300042Y-74741800D03*
X141300042Y-75541800D03*
X141300042Y-76341800D03*
X141300042Y-77141800D03*
X141300042Y-77941800D03*
X141300042Y-78741800D03*
X141300042Y-79541800D03*
D19*
X142675042Y-80916800D03*
X143475042Y-80916800D03*
X144275042Y-80916800D03*
X145075042Y-80916800D03*
X145875042Y-80916800D03*
X146675042Y-80916800D03*
X147475042Y-80916800D03*
X148275042Y-80916800D03*
D18*
X149650042Y-79541800D03*
X149650042Y-78741800D03*
X149650042Y-77941800D03*
X149650042Y-77141800D03*
X149650042Y-76341800D03*
X149650042Y-75541800D03*
X149650042Y-74741800D03*
X149650042Y-73941800D03*
D19*
X148275042Y-72566800D03*
X147475042Y-72566800D03*
X146675042Y-72566800D03*
X145875042Y-72566800D03*
X145075042Y-72566800D03*
X144275042Y-72566800D03*
X143475042Y-72566800D03*
X142675042Y-72566800D03*
D20*
X122539000Y-81122000D03*
X128319000Y-81122000D03*
D21*
X128679000Y-82567000D03*
X127879000Y-82567000D03*
D22*
X126679000Y-82567000D03*
X125679000Y-82567000D03*
X125179000Y-82567000D03*
X124179000Y-82567000D03*
D21*
X122979000Y-82567000D03*
X122179000Y-82567000D03*
X122179000Y-82567000D03*
X122979000Y-82567000D03*
D22*
X123679000Y-82567000D03*
X124679000Y-82567000D03*
X126179000Y-82567000D03*
X127179000Y-82567000D03*
D21*
X127879000Y-82567000D03*
X128679000Y-82567000D03*
D23*
X121109000Y-77472000D03*
D24*
X129749000Y-81652000D03*
X121109000Y-81652000D03*
D23*
X129749000Y-77472000D03*
D25*
X153827800Y-87088800D03*
X155477800Y-87088800D03*
X148282652Y-88663600D03*
X149932652Y-88663600D03*
D26*
X134006200Y-88258200D03*
X134006200Y-86912000D03*
X134006200Y-85565800D03*
D14*
X149755052Y-80789600D03*
X151305052Y-80789600D03*
D27*
X138854000Y-77601400D03*
X138854000Y-75951400D03*
D28*
X133967400Y-101563800D03*
X133967400Y-102910000D03*
X133967400Y-104256200D03*
D29*
X120134800Y-99565200D03*
D30*
X126434800Y-101845200D03*
D29*
X120134800Y-104125200D03*
D31*
X153854200Y-81272200D03*
X153854200Y-82542200D03*
X153854200Y-83812200D03*
X153854200Y-85082200D03*
X158804200Y-85082200D03*
X158804200Y-83812200D03*
X158804200Y-82542200D03*
X158804200Y-81272200D03*
D32*
X149932652Y-90086000D03*
X148282652Y-90086000D03*
D33*
X140725652Y-72420600D03*
X140725652Y-70870600D03*
D34*
X158481600Y-79265600D03*
X154481600Y-79265600D03*
D32*
X149424652Y-108475600D03*
X147774652Y-108475600D03*
D13*
X153685800Y-89070000D03*
X156635800Y-89070000D03*
D27*
X159732800Y-93044600D03*
X159732800Y-91394600D03*
X161358400Y-94009800D03*
X161358400Y-92359800D03*
D14*
X142744652Y-113860400D03*
X144294652Y-113860400D03*
D34*
X158532400Y-76370000D03*
X154532400Y-76370000D03*
D14*
X139747452Y-113860400D03*
X141297452Y-113860400D03*
D32*
X157603452Y-113555600D03*
X155953452Y-113555600D03*
D35*
X147719600Y-113708000D03*
X151019600Y-113708000D03*
D31*
X155225800Y-70705800D03*
X155225800Y-71975800D03*
X155225800Y-73245800D03*
X155225800Y-74515800D03*
X160175800Y-74515800D03*
X160175800Y-73245800D03*
X160175800Y-71975800D03*
X160175800Y-70705800D03*
D10*
X151582800Y-121734400D03*
X155182800Y-121734400D03*
D16*
X155416600Y-115079600D03*
X152466600Y-115079600D03*
D29*
X120134800Y-93012000D03*
D30*
X126434800Y-95292000D03*
D29*
X120134800Y-97572000D03*
X120033200Y-85087200D03*
D30*
X126333200Y-87367200D03*
D29*
X120033200Y-89647200D03*
X120084000Y-107591600D03*
D30*
X126384000Y-109871600D03*
D29*
X120084000Y-112151600D03*
D32*
X159033800Y-87139600D03*
X157383800Y-87139600D03*
D36*
X165505842Y-95142200D03*
X135705842Y-121142200D03*
X165505842Y-121142200D03*
X135705842Y-95142200D03*
X165505842Y-73142200D03*
X135705842Y-73142200D03*
M02*
